G04 #@! TF.GenerationSoftware,KiCad,Pcbnew,(5.1.5-0-10_14)*
G04 #@! TF.CreationDate,2021-03-21T20:28:06+09:00*
G04 #@! TF.ProjectId,StickMouse,53746963-6b4d-46f7-9573-652e6b696361,V1.1*
G04 #@! TF.SameCoordinates,Original*
G04 #@! TF.FileFunction,Copper,L1,Top*
G04 #@! TF.FilePolarity,Positive*
%FSLAX46Y46*%
G04 Gerber Fmt 4.6, Leading zero omitted, Abs format (unit mm)*
G04 Created by KiCad (PCBNEW (5.1.5-0-10_14)) date 2021-03-21 20:28:06*
%MOMM*%
%LPD*%
G04 APERTURE LIST*
%ADD10C,1.600000*%
%ADD11O,1.000000X1.000000*%
%ADD12R,1.000000X1.000000*%
%ADD13R,1.900000X1.800000*%
%ADD14R,1.600000X2.100000*%
%ADD15R,1.750000X0.300000*%
%ADD16C,0.609600*%
%ADD17C,0.254000*%
G04 APERTURE END LIST*
D10*
X20000000Y-2500000D03*
X20000000Y2500000D03*
X-20000000Y-2500000D03*
X-20000000Y2500000D03*
D11*
X-14080000Y7000000D03*
X-12810000Y7000000D03*
X-11540000Y7000000D03*
X-10270000Y7000000D03*
D12*
X-9000000Y7000000D03*
D13*
X-28000000Y-4000000D03*
X-28000000Y4000000D03*
D14*
X-25450000Y-3100000D03*
X-25450000Y3100000D03*
D15*
X-25150000Y-1300000D03*
X-25125000Y-650000D03*
X-25125000Y0D03*
X-25125000Y650000D03*
X-25125000Y1300000D03*
D16*
X2800000Y5818900D03*
X12147300Y-2579700D03*
X-22787500Y1300000D03*
X-7424800Y0D03*
X-5472700Y603900D03*
X11500000Y-3500000D03*
X600000Y5449500D03*
X1505000Y1336600D03*
D17*
X-25150000Y-1300000D02*
X-25752700Y-1300000D01*
X-25752700Y-3100000D02*
X-26580500Y-3100000D01*
X-25450000Y-3100000D02*
X-25752700Y-3100000D01*
X-25752700Y-1300000D02*
X-25752700Y-3100000D01*
X20000000Y-2500000D02*
X12227000Y-2500000D01*
X12227000Y-2500000D02*
X12147300Y-2579700D01*
X-26341100Y3100000D02*
X-26719500Y3478400D01*
X-26719500Y3478400D02*
X-26719500Y4000000D01*
X-28000000Y4000000D02*
X-26719500Y4000000D01*
X-26341100Y3100000D02*
X-26355500Y3085600D01*
X-28000000Y-4000000D02*
X-26719500Y-4000000D01*
X-26580500Y-3100000D02*
X-26580500Y-3861000D01*
X-26580500Y-3861000D02*
X-26719500Y-4000000D01*
X-25450000Y3100000D02*
X-26341100Y3100000D01*
X-25150000Y-1300000D02*
X-21200000Y-1300000D01*
X-21200000Y-1300000D02*
X-20000000Y-2500000D01*
X-24319500Y3100000D02*
X-25450000Y3100000D01*
X-9496000Y8250000D02*
X-19169500Y8250000D01*
X-9000000Y7754000D02*
X-9496000Y8250000D01*
X-19169500Y8250000D02*
X-24319500Y3100000D01*
X-9000000Y7000000D02*
X-9000000Y7754000D01*
X12147300Y-2579700D02*
X12147300Y-1647300D01*
X4681100Y5818900D02*
X3748700Y5818900D01*
X12147300Y-1647300D02*
X4681100Y5818900D01*
X3748700Y5818900D02*
X2800000Y5818900D01*
X1618900Y7000000D02*
X2800000Y5818900D01*
X-9000000Y7000000D02*
X1618900Y7000000D01*
X-25125000Y1300000D02*
X-22787500Y1300000D01*
X-25125000Y0D02*
X-7424800Y0D01*
X-25125000Y650000D02*
X-5518800Y650000D01*
X-5518800Y650000D02*
X-5472700Y603900D01*
X9549500Y-3500000D02*
X11500000Y-3500000D01*
X600000Y5449500D02*
X9549500Y-3500000D01*
X-10270000Y7000000D02*
X-10270000Y6169500D01*
X1505000Y1336600D02*
X-5437100Y1336600D01*
X-5437100Y1336600D02*
X-10270000Y6169500D01*
G36*
X29065424Y8330420D02*
G01*
X29128356Y8311420D01*
X29186405Y8280555D01*
X29237343Y8239011D01*
X29279248Y8188356D01*
X29310515Y8130529D01*
X29329956Y8067728D01*
X29340000Y7972165D01*
X29340001Y-7967711D01*
X29330420Y-8065424D01*
X29311420Y-8128357D01*
X29280554Y-8186406D01*
X29239011Y-8237343D01*
X29188356Y-8279248D01*
X29130529Y-8310515D01*
X29067728Y-8329956D01*
X28972165Y-8340000D01*
X-28967721Y-8340000D01*
X-29065424Y-8330420D01*
X-29128357Y-8311420D01*
X-29186406Y-8280554D01*
X-29237343Y-8239011D01*
X-29279248Y-8188356D01*
X-29310515Y-8130529D01*
X-29329956Y-8067728D01*
X-29340000Y-7972165D01*
X-29340000Y-5401398D01*
X-29304494Y-5430537D01*
X-29194180Y-5489502D01*
X-29074482Y-5525812D01*
X-28950000Y-5538072D01*
X-28285750Y-5535000D01*
X-28127000Y-5376250D01*
X-28127000Y-4127000D01*
X-28147000Y-4127000D01*
X-28147000Y-3873000D01*
X-28127000Y-3873000D01*
X-28127000Y-2623750D01*
X-28285750Y-2465000D01*
X-28950000Y-2461928D01*
X-29074482Y-2474188D01*
X-29194180Y-2510498D01*
X-29304494Y-2569463D01*
X-29340000Y-2598602D01*
X-29340000Y2598602D01*
X-29304494Y2569463D01*
X-29194180Y2510498D01*
X-29074482Y2474188D01*
X-28950000Y2461928D01*
X-28285750Y2465000D01*
X-28127000Y2623750D01*
X-28127000Y3873000D01*
X-28147000Y3873000D01*
X-28147000Y4127000D01*
X-28127000Y4127000D01*
X-28127000Y5376250D01*
X-27873000Y5376250D01*
X-27873000Y4127000D01*
X-27853000Y4127000D01*
X-27853000Y3873000D01*
X-27873000Y3873000D01*
X-27873000Y2623750D01*
X-27714250Y2465000D01*
X-27050000Y2461928D01*
X-26925518Y2474188D01*
X-26886319Y2486079D01*
X-26888072Y2050000D01*
X-26875812Y1925518D01*
X-26839502Y1805820D01*
X-26780537Y1695506D01*
X-26701185Y1598815D01*
X-26629231Y1539764D01*
X-26638072Y1450000D01*
X-26638072Y1150000D01*
X-26625812Y1025518D01*
X-26610488Y975000D01*
X-26625812Y924482D01*
X-26638072Y800000D01*
X-26638072Y500000D01*
X-26625812Y375518D01*
X-26610488Y325000D01*
X-26625812Y274482D01*
X-26638072Y150000D01*
X-26638072Y-150000D01*
X-26625812Y-274482D01*
X-26610488Y-325000D01*
X-26625812Y-375518D01*
X-26638072Y-500000D01*
X-26638072Y-800000D01*
X-26625812Y-924482D01*
X-26622789Y-934448D01*
X-26649099Y-1017199D01*
X-26660000Y-1118250D01*
X-26501250Y-1277000D01*
X-26419729Y-1277000D01*
X-26363678Y-1323000D01*
X-26501250Y-1323000D01*
X-26660000Y-1481750D01*
X-26651748Y-1558243D01*
X-26701185Y-1598815D01*
X-26780537Y-1695506D01*
X-26839502Y-1805820D01*
X-26875812Y-1925518D01*
X-26888072Y-2050000D01*
X-26886319Y-2486079D01*
X-26925518Y-2474188D01*
X-27050000Y-2461928D01*
X-27714250Y-2465000D01*
X-27873000Y-2623750D01*
X-27873000Y-3873000D01*
X-27853000Y-3873000D01*
X-27853000Y-4127000D01*
X-27873000Y-4127000D01*
X-27873000Y-5376250D01*
X-27714250Y-5535000D01*
X-27050000Y-5538072D01*
X-26925518Y-5525812D01*
X-26805820Y-5489502D01*
X-26695506Y-5430537D01*
X-26598815Y-5351185D01*
X-26519463Y-5254494D01*
X-26460498Y-5144180D01*
X-26424188Y-5024482D01*
X-26411928Y-4900000D01*
X-26412607Y-4764247D01*
X-26374482Y-4775812D01*
X-26250000Y-4788072D01*
X-25735750Y-4785000D01*
X-25577000Y-4626250D01*
X-25577000Y-3227000D01*
X-25323000Y-3227000D01*
X-25323000Y-4626250D01*
X-25164250Y-4785000D01*
X-24650000Y-4788072D01*
X-24525518Y-4775812D01*
X-24405820Y-4739502D01*
X-24295506Y-4680537D01*
X-24198815Y-4601185D01*
X-24119463Y-4504494D01*
X-24060498Y-4394180D01*
X-24024188Y-4274482D01*
X-24011928Y-4150000D01*
X-24014570Y-3492702D01*
X-20813097Y-3492702D01*
X-20741514Y-3736671D01*
X-20486004Y-3857571D01*
X-20211816Y-3926300D01*
X-19929488Y-3940217D01*
X-19649870Y-3898787D01*
X-19383708Y-3803603D01*
X-19258486Y-3736671D01*
X-19186903Y-3492702D01*
X-20000000Y-2679605D01*
X-20813097Y-3492702D01*
X-24014570Y-3492702D01*
X-24015000Y-3385750D01*
X-24173750Y-3227000D01*
X-25323000Y-3227000D01*
X-25577000Y-3227000D01*
X-25597000Y-3227000D01*
X-25597000Y-2973000D01*
X-25577000Y-2973000D01*
X-25577000Y-2953000D01*
X-25323000Y-2953000D01*
X-25323000Y-2973000D01*
X-24173750Y-2973000D01*
X-24015000Y-2814250D01*
X-24014021Y-2570512D01*
X-21440217Y-2570512D01*
X-21398787Y-2850130D01*
X-21303603Y-3116292D01*
X-21236671Y-3241514D01*
X-20992702Y-3313097D01*
X-20179605Y-2500000D01*
X-19820395Y-2500000D01*
X-19007298Y-3313097D01*
X-18763329Y-3241514D01*
X-18642429Y-2986004D01*
X-18573700Y-2711816D01*
X-18559783Y-2429488D01*
X-18601213Y-2149870D01*
X-18696397Y-1883708D01*
X-18763329Y-1758486D01*
X-19007298Y-1686903D01*
X-19820395Y-2500000D01*
X-20179605Y-2500000D01*
X-20992702Y-1686903D01*
X-21236671Y-1758486D01*
X-21357571Y-2013996D01*
X-21426300Y-2288184D01*
X-21440217Y-2570512D01*
X-24014021Y-2570512D01*
X-24011928Y-2050000D01*
X-24013910Y-2029876D01*
X-23927600Y-1985209D01*
X-23829861Y-1907151D01*
X-23749228Y-1811524D01*
X-23688801Y-1702005D01*
X-23650901Y-1582801D01*
X-23642757Y-1507298D01*
X-20813097Y-1507298D01*
X-20000000Y-2320395D01*
X-19186903Y-1507298D01*
X-19258486Y-1263329D01*
X-19513996Y-1142429D01*
X-19788184Y-1073700D01*
X-20070512Y-1059783D01*
X-20350130Y-1101213D01*
X-20616292Y-1196397D01*
X-20741514Y-1263329D01*
X-20813097Y-1507298D01*
X-23642757Y-1507298D01*
X-23640000Y-1481750D01*
X-23798750Y-1323000D01*
X-23886322Y-1323000D01*
X-23830271Y-1277000D01*
X-23798750Y-1277000D01*
X-23640000Y-1118250D01*
X-23650901Y-1017199D01*
X-23651624Y-1014926D01*
X-23624188Y-924482D01*
X-23611928Y-800000D01*
X-23611928Y-762000D01*
X-7975981Y-762000D01*
X-7869962Y-832840D01*
X-7698929Y-903684D01*
X-7517362Y-939800D01*
X-7332238Y-939800D01*
X-7150671Y-903684D01*
X-6979638Y-832840D01*
X-6825713Y-729990D01*
X-6694810Y-599087D01*
X-6591960Y-445162D01*
X-6521116Y-274129D01*
X-6488866Y-112000D01*
X-6085877Y-112000D01*
X-6071787Y-126090D01*
X-5917862Y-228940D01*
X-5746829Y-299784D01*
X-5565262Y-335900D01*
X-5380138Y-335900D01*
X-5198571Y-299784D01*
X-5027538Y-228940D01*
X-4873613Y-126090D01*
X-4742710Y4813D01*
X-4639860Y158738D01*
X-4569016Y329771D01*
X-4532900Y511338D01*
X-4532900Y574600D01*
X953819Y574600D01*
X1059838Y503760D01*
X1230871Y432916D01*
X1412438Y396800D01*
X1597562Y396800D01*
X1779129Y432916D01*
X1950162Y503760D01*
X2104087Y606610D01*
X2234990Y737513D01*
X2337840Y891438D01*
X2408684Y1062471D01*
X2444800Y1244038D01*
X2444800Y1429162D01*
X2408684Y1610729D01*
X2337840Y1781762D01*
X2234990Y1935687D01*
X2104087Y2066590D01*
X1950162Y2169440D01*
X1779129Y2240284D01*
X1597562Y2276400D01*
X1412438Y2276400D01*
X1230871Y2240284D01*
X1059838Y2169440D01*
X953819Y2098600D01*
X-5121470Y2098600D01*
X-8564932Y5542062D01*
X-339800Y5542062D01*
X-339800Y5356938D01*
X-303684Y5175371D01*
X-232840Y5004338D01*
X-129990Y4850413D01*
X913Y4719510D01*
X154838Y4616660D01*
X325871Y4545816D01*
X450930Y4520940D01*
X8984221Y-4012352D01*
X9008078Y-4041422D01*
X9124108Y-4136645D01*
X9256485Y-4207402D01*
X9400122Y-4250974D01*
X9512074Y-4262000D01*
X9512076Y-4262000D01*
X9549499Y-4265686D01*
X9586922Y-4262000D01*
X10948819Y-4262000D01*
X11054838Y-4332840D01*
X11225871Y-4403684D01*
X11407438Y-4439800D01*
X11592562Y-4439800D01*
X11774129Y-4403684D01*
X11945162Y-4332840D01*
X12099087Y-4229990D01*
X12229990Y-4099087D01*
X12332840Y-3945162D01*
X12403684Y-3774129D01*
X12439800Y-3592562D01*
X12439800Y-3492702D01*
X19186903Y-3492702D01*
X19258486Y-3736671D01*
X19513996Y-3857571D01*
X19788184Y-3926300D01*
X20070512Y-3940217D01*
X20350130Y-3898787D01*
X20616292Y-3803603D01*
X20741514Y-3736671D01*
X20813097Y-3492702D01*
X20000000Y-2679605D01*
X19186903Y-3492702D01*
X12439800Y-3492702D01*
X12439800Y-3407438D01*
X12403684Y-3225871D01*
X12332840Y-3054838D01*
X12229990Y-2900913D01*
X12099087Y-2770010D01*
X11945162Y-2667160D01*
X11774129Y-2596316D01*
X11644404Y-2570512D01*
X18559783Y-2570512D01*
X18601213Y-2850130D01*
X18696397Y-3116292D01*
X18763329Y-3241514D01*
X19007298Y-3313097D01*
X19820395Y-2500000D01*
X20179605Y-2500000D01*
X20992702Y-3313097D01*
X21236671Y-3241514D01*
X21357571Y-2986004D01*
X21426300Y-2711816D01*
X21440217Y-2429488D01*
X21398787Y-2149870D01*
X21303603Y-1883708D01*
X21236671Y-1758486D01*
X20992702Y-1686903D01*
X20179605Y-2500000D01*
X19820395Y-2500000D01*
X19007298Y-1686903D01*
X18763329Y-1758486D01*
X18642429Y-2013996D01*
X18573700Y-2288184D01*
X18559783Y-2570512D01*
X11644404Y-2570512D01*
X11592562Y-2560200D01*
X11407438Y-2560200D01*
X11225871Y-2596316D01*
X11054838Y-2667160D01*
X10948819Y-2738000D01*
X9865131Y-2738000D01*
X8634429Y-1507298D01*
X19186903Y-1507298D01*
X20000000Y-2320395D01*
X20813097Y-1507298D01*
X20741514Y-1263329D01*
X20486004Y-1142429D01*
X20211816Y-1073700D01*
X19929488Y-1059783D01*
X19649870Y-1101213D01*
X19383708Y-1196397D01*
X19258486Y-1263329D01*
X19186903Y-1507298D01*
X8634429Y-1507298D01*
X4485796Y2641335D01*
X18565000Y2641335D01*
X18565000Y2358665D01*
X18620147Y2081426D01*
X18728320Y1820273D01*
X18885363Y1585241D01*
X19085241Y1385363D01*
X19320273Y1228320D01*
X19581426Y1120147D01*
X19858665Y1065000D01*
X20141335Y1065000D01*
X20418574Y1120147D01*
X20679727Y1228320D01*
X20914759Y1385363D01*
X21114637Y1585241D01*
X21271680Y1820273D01*
X21379853Y2081426D01*
X21435000Y2358665D01*
X21435000Y2641335D01*
X21379853Y2918574D01*
X21271680Y3179727D01*
X21114637Y3414759D01*
X20914759Y3614637D01*
X20679727Y3771680D01*
X20418574Y3879853D01*
X20141335Y3935000D01*
X19858665Y3935000D01*
X19581426Y3879853D01*
X19320273Y3771680D01*
X19085241Y3614637D01*
X18885363Y3414759D01*
X18728320Y3179727D01*
X18620147Y2918574D01*
X18565000Y2641335D01*
X4485796Y2641335D01*
X1528560Y5598570D01*
X1503684Y5723629D01*
X1432840Y5894662D01*
X1329990Y6048587D01*
X1199087Y6179490D01*
X1045162Y6282340D01*
X874129Y6353184D01*
X692562Y6389300D01*
X507438Y6389300D01*
X325871Y6353184D01*
X154838Y6282340D01*
X913Y6179490D01*
X-129990Y6048587D01*
X-232840Y5894662D01*
X-303684Y5723629D01*
X-339800Y5542062D01*
X-8564932Y5542062D01*
X-8887870Y5865000D01*
X-8872998Y5865000D01*
X-8872998Y6023748D01*
X-8714250Y5865000D01*
X-8500000Y5861928D01*
X-8375518Y5874188D01*
X-8255820Y5910498D01*
X-8145506Y5969463D01*
X-8048815Y6048815D01*
X-7969463Y6145506D01*
X-7910498Y6255820D01*
X-7874188Y6375518D01*
X-7861928Y6500000D01*
X-7865000Y6714250D01*
X-8023750Y6873000D01*
X-8873000Y6873000D01*
X-8873000Y6853000D01*
X-9127000Y6853000D01*
X-9127000Y6873000D01*
X-9138026Y6873000D01*
X-9135000Y6888212D01*
X-9135000Y7111788D01*
X-9138026Y7127000D01*
X-9127000Y7127000D01*
X-9127000Y7976250D01*
X-8873000Y7976250D01*
X-8873000Y7127000D01*
X-8023750Y7127000D01*
X-7865000Y7285750D01*
X-7861928Y7500000D01*
X-7874188Y7624482D01*
X-7910498Y7744180D01*
X-7969463Y7854494D01*
X-8048815Y7951185D01*
X-8145506Y8030537D01*
X-8255820Y8089502D01*
X-8375518Y8125812D01*
X-8500000Y8138072D01*
X-8714250Y8135000D01*
X-8873000Y7976250D01*
X-9127000Y7976250D01*
X-9285750Y8135000D01*
X-9500000Y8138072D01*
X-9624482Y8125812D01*
X-9744180Y8089502D01*
X-9827226Y8045112D01*
X-9938933Y8091383D01*
X-10158212Y8135000D01*
X-10381788Y8135000D01*
X-10601067Y8091383D01*
X-10807624Y8005824D01*
X-10905000Y7940759D01*
X-11002376Y8005824D01*
X-11208933Y8091383D01*
X-11428212Y8135000D01*
X-11651788Y8135000D01*
X-11871067Y8091383D01*
X-12077624Y8005824D01*
X-12175000Y7940759D01*
X-12272376Y8005824D01*
X-12478933Y8091383D01*
X-12698212Y8135000D01*
X-12921788Y8135000D01*
X-13141067Y8091383D01*
X-13347624Y8005824D01*
X-13445000Y7940759D01*
X-13542376Y8005824D01*
X-13748933Y8091383D01*
X-13968212Y8135000D01*
X-14191788Y8135000D01*
X-14411067Y8091383D01*
X-14617624Y8005824D01*
X-14803520Y7881612D01*
X-14961612Y7723520D01*
X-15085824Y7537624D01*
X-15171383Y7331067D01*
X-15215000Y7111788D01*
X-15215000Y6888212D01*
X-15171383Y6668933D01*
X-15085824Y6462376D01*
X-14961612Y6276480D01*
X-14803520Y6118388D01*
X-14617624Y5994176D01*
X-14411067Y5908617D01*
X-14191788Y5865000D01*
X-13968212Y5865000D01*
X-13748933Y5908617D01*
X-13542376Y5994176D01*
X-13445000Y6059241D01*
X-13347624Y5994176D01*
X-13141067Y5908617D01*
X-12921788Y5865000D01*
X-12698212Y5865000D01*
X-12478933Y5908617D01*
X-12272376Y5994176D01*
X-12175000Y6059241D01*
X-12077624Y5994176D01*
X-11871067Y5908617D01*
X-11651788Y5865000D01*
X-11428212Y5865000D01*
X-11208933Y5908617D01*
X-11011905Y5990229D01*
X-10977401Y5876485D01*
X-10906645Y5744108D01*
X-10835279Y5657149D01*
X-10811421Y5628078D01*
X-10782351Y5604221D01*
X-6590130Y1412000D01*
X-19058604Y1412000D01*
X-18885363Y1585241D01*
X-18728320Y1820273D01*
X-18620147Y2081426D01*
X-18565000Y2358665D01*
X-18565000Y2641335D01*
X-18620147Y2918574D01*
X-18728320Y3179727D01*
X-18885363Y3414759D01*
X-19085241Y3614637D01*
X-19320273Y3771680D01*
X-19581426Y3879853D01*
X-19858665Y3935000D01*
X-20141335Y3935000D01*
X-20418574Y3879853D01*
X-20679727Y3771680D01*
X-20914759Y3614637D01*
X-21114637Y3414759D01*
X-21271680Y3179727D01*
X-21379853Y2918574D01*
X-21435000Y2641335D01*
X-21435000Y2358665D01*
X-21379853Y2081426D01*
X-21271680Y1820273D01*
X-21114637Y1585241D01*
X-20941396Y1412000D01*
X-21851566Y1412000D01*
X-21883816Y1574129D01*
X-21954660Y1745162D01*
X-22057510Y1899087D01*
X-22188413Y2029990D01*
X-22342338Y2132840D01*
X-22513371Y2203684D01*
X-22694938Y2239800D01*
X-22880062Y2239800D01*
X-23061629Y2203684D01*
X-23232662Y2132840D01*
X-23338681Y2062000D01*
X-24011976Y2062000D01*
X-24015000Y2814250D01*
X-24173750Y2973000D01*
X-25323000Y2973000D01*
X-25323000Y2953000D01*
X-25577000Y2953000D01*
X-25577000Y2973000D01*
X-25597000Y2973000D01*
X-25597000Y3227000D01*
X-25577000Y3227000D01*
X-25577000Y4626250D01*
X-25323000Y4626250D01*
X-25323000Y3227000D01*
X-24173750Y3227000D01*
X-24015000Y3385750D01*
X-24011928Y4150000D01*
X-24024188Y4274482D01*
X-24060498Y4394180D01*
X-24119463Y4504494D01*
X-24198815Y4601185D01*
X-24295506Y4680537D01*
X-24405820Y4739502D01*
X-24525518Y4775812D01*
X-24650000Y4788072D01*
X-25164250Y4785000D01*
X-25323000Y4626250D01*
X-25577000Y4626250D01*
X-25735750Y4785000D01*
X-26250000Y4788072D01*
X-26374482Y4775812D01*
X-26412607Y4764247D01*
X-26411928Y4900000D01*
X-26424188Y5024482D01*
X-26460498Y5144180D01*
X-26519463Y5254494D01*
X-26598815Y5351185D01*
X-26695506Y5430537D01*
X-26805820Y5489502D01*
X-26925518Y5525812D01*
X-27050000Y5538072D01*
X-27714250Y5535000D01*
X-27873000Y5376250D01*
X-28127000Y5376250D01*
X-28285750Y5535000D01*
X-28950000Y5538072D01*
X-29074482Y5525812D01*
X-29194180Y5489502D01*
X-29304494Y5430537D01*
X-29340000Y5401398D01*
X-29340000Y7967721D01*
X-29330420Y8065424D01*
X-29311420Y8128356D01*
X-29280555Y8186405D01*
X-29239011Y8237343D01*
X-29188356Y8279248D01*
X-29130529Y8310515D01*
X-29067728Y8329956D01*
X-28972165Y8340000D01*
X28967721Y8340000D01*
X29065424Y8330420D01*
G37*
X29065424Y8330420D02*
X29128356Y8311420D01*
X29186405Y8280555D01*
X29237343Y8239011D01*
X29279248Y8188356D01*
X29310515Y8130529D01*
X29329956Y8067728D01*
X29340000Y7972165D01*
X29340001Y-7967711D01*
X29330420Y-8065424D01*
X29311420Y-8128357D01*
X29280554Y-8186406D01*
X29239011Y-8237343D01*
X29188356Y-8279248D01*
X29130529Y-8310515D01*
X29067728Y-8329956D01*
X28972165Y-8340000D01*
X-28967721Y-8340000D01*
X-29065424Y-8330420D01*
X-29128357Y-8311420D01*
X-29186406Y-8280554D01*
X-29237343Y-8239011D01*
X-29279248Y-8188356D01*
X-29310515Y-8130529D01*
X-29329956Y-8067728D01*
X-29340000Y-7972165D01*
X-29340000Y-5401398D01*
X-29304494Y-5430537D01*
X-29194180Y-5489502D01*
X-29074482Y-5525812D01*
X-28950000Y-5538072D01*
X-28285750Y-5535000D01*
X-28127000Y-5376250D01*
X-28127000Y-4127000D01*
X-28147000Y-4127000D01*
X-28147000Y-3873000D01*
X-28127000Y-3873000D01*
X-28127000Y-2623750D01*
X-28285750Y-2465000D01*
X-28950000Y-2461928D01*
X-29074482Y-2474188D01*
X-29194180Y-2510498D01*
X-29304494Y-2569463D01*
X-29340000Y-2598602D01*
X-29340000Y2598602D01*
X-29304494Y2569463D01*
X-29194180Y2510498D01*
X-29074482Y2474188D01*
X-28950000Y2461928D01*
X-28285750Y2465000D01*
X-28127000Y2623750D01*
X-28127000Y3873000D01*
X-28147000Y3873000D01*
X-28147000Y4127000D01*
X-28127000Y4127000D01*
X-28127000Y5376250D01*
X-27873000Y5376250D01*
X-27873000Y4127000D01*
X-27853000Y4127000D01*
X-27853000Y3873000D01*
X-27873000Y3873000D01*
X-27873000Y2623750D01*
X-27714250Y2465000D01*
X-27050000Y2461928D01*
X-26925518Y2474188D01*
X-26886319Y2486079D01*
X-26888072Y2050000D01*
X-26875812Y1925518D01*
X-26839502Y1805820D01*
X-26780537Y1695506D01*
X-26701185Y1598815D01*
X-26629231Y1539764D01*
X-26638072Y1450000D01*
X-26638072Y1150000D01*
X-26625812Y1025518D01*
X-26610488Y975000D01*
X-26625812Y924482D01*
X-26638072Y800000D01*
X-26638072Y500000D01*
X-26625812Y375518D01*
X-26610488Y325000D01*
X-26625812Y274482D01*
X-26638072Y150000D01*
X-26638072Y-150000D01*
X-26625812Y-274482D01*
X-26610488Y-325000D01*
X-26625812Y-375518D01*
X-26638072Y-500000D01*
X-26638072Y-800000D01*
X-26625812Y-924482D01*
X-26622789Y-934448D01*
X-26649099Y-1017199D01*
X-26660000Y-1118250D01*
X-26501250Y-1277000D01*
X-26419729Y-1277000D01*
X-26363678Y-1323000D01*
X-26501250Y-1323000D01*
X-26660000Y-1481750D01*
X-26651748Y-1558243D01*
X-26701185Y-1598815D01*
X-26780537Y-1695506D01*
X-26839502Y-1805820D01*
X-26875812Y-1925518D01*
X-26888072Y-2050000D01*
X-26886319Y-2486079D01*
X-26925518Y-2474188D01*
X-27050000Y-2461928D01*
X-27714250Y-2465000D01*
X-27873000Y-2623750D01*
X-27873000Y-3873000D01*
X-27853000Y-3873000D01*
X-27853000Y-4127000D01*
X-27873000Y-4127000D01*
X-27873000Y-5376250D01*
X-27714250Y-5535000D01*
X-27050000Y-5538072D01*
X-26925518Y-5525812D01*
X-26805820Y-5489502D01*
X-26695506Y-5430537D01*
X-26598815Y-5351185D01*
X-26519463Y-5254494D01*
X-26460498Y-5144180D01*
X-26424188Y-5024482D01*
X-26411928Y-4900000D01*
X-26412607Y-4764247D01*
X-26374482Y-4775812D01*
X-26250000Y-4788072D01*
X-25735750Y-4785000D01*
X-25577000Y-4626250D01*
X-25577000Y-3227000D01*
X-25323000Y-3227000D01*
X-25323000Y-4626250D01*
X-25164250Y-4785000D01*
X-24650000Y-4788072D01*
X-24525518Y-4775812D01*
X-24405820Y-4739502D01*
X-24295506Y-4680537D01*
X-24198815Y-4601185D01*
X-24119463Y-4504494D01*
X-24060498Y-4394180D01*
X-24024188Y-4274482D01*
X-24011928Y-4150000D01*
X-24014570Y-3492702D01*
X-20813097Y-3492702D01*
X-20741514Y-3736671D01*
X-20486004Y-3857571D01*
X-20211816Y-3926300D01*
X-19929488Y-3940217D01*
X-19649870Y-3898787D01*
X-19383708Y-3803603D01*
X-19258486Y-3736671D01*
X-19186903Y-3492702D01*
X-20000000Y-2679605D01*
X-20813097Y-3492702D01*
X-24014570Y-3492702D01*
X-24015000Y-3385750D01*
X-24173750Y-3227000D01*
X-25323000Y-3227000D01*
X-25577000Y-3227000D01*
X-25597000Y-3227000D01*
X-25597000Y-2973000D01*
X-25577000Y-2973000D01*
X-25577000Y-2953000D01*
X-25323000Y-2953000D01*
X-25323000Y-2973000D01*
X-24173750Y-2973000D01*
X-24015000Y-2814250D01*
X-24014021Y-2570512D01*
X-21440217Y-2570512D01*
X-21398787Y-2850130D01*
X-21303603Y-3116292D01*
X-21236671Y-3241514D01*
X-20992702Y-3313097D01*
X-20179605Y-2500000D01*
X-19820395Y-2500000D01*
X-19007298Y-3313097D01*
X-18763329Y-3241514D01*
X-18642429Y-2986004D01*
X-18573700Y-2711816D01*
X-18559783Y-2429488D01*
X-18601213Y-2149870D01*
X-18696397Y-1883708D01*
X-18763329Y-1758486D01*
X-19007298Y-1686903D01*
X-19820395Y-2500000D01*
X-20179605Y-2500000D01*
X-20992702Y-1686903D01*
X-21236671Y-1758486D01*
X-21357571Y-2013996D01*
X-21426300Y-2288184D01*
X-21440217Y-2570512D01*
X-24014021Y-2570512D01*
X-24011928Y-2050000D01*
X-24013910Y-2029876D01*
X-23927600Y-1985209D01*
X-23829861Y-1907151D01*
X-23749228Y-1811524D01*
X-23688801Y-1702005D01*
X-23650901Y-1582801D01*
X-23642757Y-1507298D01*
X-20813097Y-1507298D01*
X-20000000Y-2320395D01*
X-19186903Y-1507298D01*
X-19258486Y-1263329D01*
X-19513996Y-1142429D01*
X-19788184Y-1073700D01*
X-20070512Y-1059783D01*
X-20350130Y-1101213D01*
X-20616292Y-1196397D01*
X-20741514Y-1263329D01*
X-20813097Y-1507298D01*
X-23642757Y-1507298D01*
X-23640000Y-1481750D01*
X-23798750Y-1323000D01*
X-23886322Y-1323000D01*
X-23830271Y-1277000D01*
X-23798750Y-1277000D01*
X-23640000Y-1118250D01*
X-23650901Y-1017199D01*
X-23651624Y-1014926D01*
X-23624188Y-924482D01*
X-23611928Y-800000D01*
X-23611928Y-762000D01*
X-7975981Y-762000D01*
X-7869962Y-832840D01*
X-7698929Y-903684D01*
X-7517362Y-939800D01*
X-7332238Y-939800D01*
X-7150671Y-903684D01*
X-6979638Y-832840D01*
X-6825713Y-729990D01*
X-6694810Y-599087D01*
X-6591960Y-445162D01*
X-6521116Y-274129D01*
X-6488866Y-112000D01*
X-6085877Y-112000D01*
X-6071787Y-126090D01*
X-5917862Y-228940D01*
X-5746829Y-299784D01*
X-5565262Y-335900D01*
X-5380138Y-335900D01*
X-5198571Y-299784D01*
X-5027538Y-228940D01*
X-4873613Y-126090D01*
X-4742710Y4813D01*
X-4639860Y158738D01*
X-4569016Y329771D01*
X-4532900Y511338D01*
X-4532900Y574600D01*
X953819Y574600D01*
X1059838Y503760D01*
X1230871Y432916D01*
X1412438Y396800D01*
X1597562Y396800D01*
X1779129Y432916D01*
X1950162Y503760D01*
X2104087Y606610D01*
X2234990Y737513D01*
X2337840Y891438D01*
X2408684Y1062471D01*
X2444800Y1244038D01*
X2444800Y1429162D01*
X2408684Y1610729D01*
X2337840Y1781762D01*
X2234990Y1935687D01*
X2104087Y2066590D01*
X1950162Y2169440D01*
X1779129Y2240284D01*
X1597562Y2276400D01*
X1412438Y2276400D01*
X1230871Y2240284D01*
X1059838Y2169440D01*
X953819Y2098600D01*
X-5121470Y2098600D01*
X-8564932Y5542062D01*
X-339800Y5542062D01*
X-339800Y5356938D01*
X-303684Y5175371D01*
X-232840Y5004338D01*
X-129990Y4850413D01*
X913Y4719510D01*
X154838Y4616660D01*
X325871Y4545816D01*
X450930Y4520940D01*
X8984221Y-4012352D01*
X9008078Y-4041422D01*
X9124108Y-4136645D01*
X9256485Y-4207402D01*
X9400122Y-4250974D01*
X9512074Y-4262000D01*
X9512076Y-4262000D01*
X9549499Y-4265686D01*
X9586922Y-4262000D01*
X10948819Y-4262000D01*
X11054838Y-4332840D01*
X11225871Y-4403684D01*
X11407438Y-4439800D01*
X11592562Y-4439800D01*
X11774129Y-4403684D01*
X11945162Y-4332840D01*
X12099087Y-4229990D01*
X12229990Y-4099087D01*
X12332840Y-3945162D01*
X12403684Y-3774129D01*
X12439800Y-3592562D01*
X12439800Y-3492702D01*
X19186903Y-3492702D01*
X19258486Y-3736671D01*
X19513996Y-3857571D01*
X19788184Y-3926300D01*
X20070512Y-3940217D01*
X20350130Y-3898787D01*
X20616292Y-3803603D01*
X20741514Y-3736671D01*
X20813097Y-3492702D01*
X20000000Y-2679605D01*
X19186903Y-3492702D01*
X12439800Y-3492702D01*
X12439800Y-3407438D01*
X12403684Y-3225871D01*
X12332840Y-3054838D01*
X12229990Y-2900913D01*
X12099087Y-2770010D01*
X11945162Y-2667160D01*
X11774129Y-2596316D01*
X11644404Y-2570512D01*
X18559783Y-2570512D01*
X18601213Y-2850130D01*
X18696397Y-3116292D01*
X18763329Y-3241514D01*
X19007298Y-3313097D01*
X19820395Y-2500000D01*
X20179605Y-2500000D01*
X20992702Y-3313097D01*
X21236671Y-3241514D01*
X21357571Y-2986004D01*
X21426300Y-2711816D01*
X21440217Y-2429488D01*
X21398787Y-2149870D01*
X21303603Y-1883708D01*
X21236671Y-1758486D01*
X20992702Y-1686903D01*
X20179605Y-2500000D01*
X19820395Y-2500000D01*
X19007298Y-1686903D01*
X18763329Y-1758486D01*
X18642429Y-2013996D01*
X18573700Y-2288184D01*
X18559783Y-2570512D01*
X11644404Y-2570512D01*
X11592562Y-2560200D01*
X11407438Y-2560200D01*
X11225871Y-2596316D01*
X11054838Y-2667160D01*
X10948819Y-2738000D01*
X9865131Y-2738000D01*
X8634429Y-1507298D01*
X19186903Y-1507298D01*
X20000000Y-2320395D01*
X20813097Y-1507298D01*
X20741514Y-1263329D01*
X20486004Y-1142429D01*
X20211816Y-1073700D01*
X19929488Y-1059783D01*
X19649870Y-1101213D01*
X19383708Y-1196397D01*
X19258486Y-1263329D01*
X19186903Y-1507298D01*
X8634429Y-1507298D01*
X4485796Y2641335D01*
X18565000Y2641335D01*
X18565000Y2358665D01*
X18620147Y2081426D01*
X18728320Y1820273D01*
X18885363Y1585241D01*
X19085241Y1385363D01*
X19320273Y1228320D01*
X19581426Y1120147D01*
X19858665Y1065000D01*
X20141335Y1065000D01*
X20418574Y1120147D01*
X20679727Y1228320D01*
X20914759Y1385363D01*
X21114637Y1585241D01*
X21271680Y1820273D01*
X21379853Y2081426D01*
X21435000Y2358665D01*
X21435000Y2641335D01*
X21379853Y2918574D01*
X21271680Y3179727D01*
X21114637Y3414759D01*
X20914759Y3614637D01*
X20679727Y3771680D01*
X20418574Y3879853D01*
X20141335Y3935000D01*
X19858665Y3935000D01*
X19581426Y3879853D01*
X19320273Y3771680D01*
X19085241Y3614637D01*
X18885363Y3414759D01*
X18728320Y3179727D01*
X18620147Y2918574D01*
X18565000Y2641335D01*
X4485796Y2641335D01*
X1528560Y5598570D01*
X1503684Y5723629D01*
X1432840Y5894662D01*
X1329990Y6048587D01*
X1199087Y6179490D01*
X1045162Y6282340D01*
X874129Y6353184D01*
X692562Y6389300D01*
X507438Y6389300D01*
X325871Y6353184D01*
X154838Y6282340D01*
X913Y6179490D01*
X-129990Y6048587D01*
X-232840Y5894662D01*
X-303684Y5723629D01*
X-339800Y5542062D01*
X-8564932Y5542062D01*
X-8887870Y5865000D01*
X-8872998Y5865000D01*
X-8872998Y6023748D01*
X-8714250Y5865000D01*
X-8500000Y5861928D01*
X-8375518Y5874188D01*
X-8255820Y5910498D01*
X-8145506Y5969463D01*
X-8048815Y6048815D01*
X-7969463Y6145506D01*
X-7910498Y6255820D01*
X-7874188Y6375518D01*
X-7861928Y6500000D01*
X-7865000Y6714250D01*
X-8023750Y6873000D01*
X-8873000Y6873000D01*
X-8873000Y6853000D01*
X-9127000Y6853000D01*
X-9127000Y6873000D01*
X-9138026Y6873000D01*
X-9135000Y6888212D01*
X-9135000Y7111788D01*
X-9138026Y7127000D01*
X-9127000Y7127000D01*
X-9127000Y7976250D01*
X-8873000Y7976250D01*
X-8873000Y7127000D01*
X-8023750Y7127000D01*
X-7865000Y7285750D01*
X-7861928Y7500000D01*
X-7874188Y7624482D01*
X-7910498Y7744180D01*
X-7969463Y7854494D01*
X-8048815Y7951185D01*
X-8145506Y8030537D01*
X-8255820Y8089502D01*
X-8375518Y8125812D01*
X-8500000Y8138072D01*
X-8714250Y8135000D01*
X-8873000Y7976250D01*
X-9127000Y7976250D01*
X-9285750Y8135000D01*
X-9500000Y8138072D01*
X-9624482Y8125812D01*
X-9744180Y8089502D01*
X-9827226Y8045112D01*
X-9938933Y8091383D01*
X-10158212Y8135000D01*
X-10381788Y8135000D01*
X-10601067Y8091383D01*
X-10807624Y8005824D01*
X-10905000Y7940759D01*
X-11002376Y8005824D01*
X-11208933Y8091383D01*
X-11428212Y8135000D01*
X-11651788Y8135000D01*
X-11871067Y8091383D01*
X-12077624Y8005824D01*
X-12175000Y7940759D01*
X-12272376Y8005824D01*
X-12478933Y8091383D01*
X-12698212Y8135000D01*
X-12921788Y8135000D01*
X-13141067Y8091383D01*
X-13347624Y8005824D01*
X-13445000Y7940759D01*
X-13542376Y8005824D01*
X-13748933Y8091383D01*
X-13968212Y8135000D01*
X-14191788Y8135000D01*
X-14411067Y8091383D01*
X-14617624Y8005824D01*
X-14803520Y7881612D01*
X-14961612Y7723520D01*
X-15085824Y7537624D01*
X-15171383Y7331067D01*
X-15215000Y7111788D01*
X-15215000Y6888212D01*
X-15171383Y6668933D01*
X-15085824Y6462376D01*
X-14961612Y6276480D01*
X-14803520Y6118388D01*
X-14617624Y5994176D01*
X-14411067Y5908617D01*
X-14191788Y5865000D01*
X-13968212Y5865000D01*
X-13748933Y5908617D01*
X-13542376Y5994176D01*
X-13445000Y6059241D01*
X-13347624Y5994176D01*
X-13141067Y5908617D01*
X-12921788Y5865000D01*
X-12698212Y5865000D01*
X-12478933Y5908617D01*
X-12272376Y5994176D01*
X-12175000Y6059241D01*
X-12077624Y5994176D01*
X-11871067Y5908617D01*
X-11651788Y5865000D01*
X-11428212Y5865000D01*
X-11208933Y5908617D01*
X-11011905Y5990229D01*
X-10977401Y5876485D01*
X-10906645Y5744108D01*
X-10835279Y5657149D01*
X-10811421Y5628078D01*
X-10782351Y5604221D01*
X-6590130Y1412000D01*
X-19058604Y1412000D01*
X-18885363Y1585241D01*
X-18728320Y1820273D01*
X-18620147Y2081426D01*
X-18565000Y2358665D01*
X-18565000Y2641335D01*
X-18620147Y2918574D01*
X-18728320Y3179727D01*
X-18885363Y3414759D01*
X-19085241Y3614637D01*
X-19320273Y3771680D01*
X-19581426Y3879853D01*
X-19858665Y3935000D01*
X-20141335Y3935000D01*
X-20418574Y3879853D01*
X-20679727Y3771680D01*
X-20914759Y3614637D01*
X-21114637Y3414759D01*
X-21271680Y3179727D01*
X-21379853Y2918574D01*
X-21435000Y2641335D01*
X-21435000Y2358665D01*
X-21379853Y2081426D01*
X-21271680Y1820273D01*
X-21114637Y1585241D01*
X-20941396Y1412000D01*
X-21851566Y1412000D01*
X-21883816Y1574129D01*
X-21954660Y1745162D01*
X-22057510Y1899087D01*
X-22188413Y2029990D01*
X-22342338Y2132840D01*
X-22513371Y2203684D01*
X-22694938Y2239800D01*
X-22880062Y2239800D01*
X-23061629Y2203684D01*
X-23232662Y2132840D01*
X-23338681Y2062000D01*
X-24011976Y2062000D01*
X-24015000Y2814250D01*
X-24173750Y2973000D01*
X-25323000Y2973000D01*
X-25323000Y2953000D01*
X-25577000Y2953000D01*
X-25577000Y2973000D01*
X-25597000Y2973000D01*
X-25597000Y3227000D01*
X-25577000Y3227000D01*
X-25577000Y4626250D01*
X-25323000Y4626250D01*
X-25323000Y3227000D01*
X-24173750Y3227000D01*
X-24015000Y3385750D01*
X-24011928Y4150000D01*
X-24024188Y4274482D01*
X-24060498Y4394180D01*
X-24119463Y4504494D01*
X-24198815Y4601185D01*
X-24295506Y4680537D01*
X-24405820Y4739502D01*
X-24525518Y4775812D01*
X-24650000Y4788072D01*
X-25164250Y4785000D01*
X-25323000Y4626250D01*
X-25577000Y4626250D01*
X-25735750Y4785000D01*
X-26250000Y4788072D01*
X-26374482Y4775812D01*
X-26412607Y4764247D01*
X-26411928Y4900000D01*
X-26424188Y5024482D01*
X-26460498Y5144180D01*
X-26519463Y5254494D01*
X-26598815Y5351185D01*
X-26695506Y5430537D01*
X-26805820Y5489502D01*
X-26925518Y5525812D01*
X-27050000Y5538072D01*
X-27714250Y5535000D01*
X-27873000Y5376250D01*
X-28127000Y5376250D01*
X-28285750Y5535000D01*
X-28950000Y5538072D01*
X-29074482Y5525812D01*
X-29194180Y5489502D01*
X-29304494Y5430537D01*
X-29340000Y5401398D01*
X-29340000Y7967721D01*
X-29330420Y8065424D01*
X-29311420Y8128356D01*
X-29280555Y8186405D01*
X-29239011Y8237343D01*
X-29188356Y8279248D01*
X-29130529Y8310515D01*
X-29067728Y8329956D01*
X-28972165Y8340000D01*
X28967721Y8340000D01*
X29065424Y8330420D01*
M02*
