G04 #@! TF.GenerationSoftware,KiCad,Pcbnew,(5.1.5-0-10_14)*
G04 #@! TF.CreationDate,2021-02-01T23:02:05+09:00*
G04 #@! TF.ProjectId,StickMouse,53746963-6b4d-46f7-9573-652e6b696361,V1.0*
G04 #@! TF.SameCoordinates,Original*
G04 #@! TF.FileFunction,Soldermask,Bot*
G04 #@! TF.FilePolarity,Negative*
%FSLAX46Y46*%
G04 Gerber Fmt 4.6, Leading zero omitted, Abs format (unit mm)*
G04 Created by KiCad (PCBNEW (5.1.5-0-10_14)) date 2021-02-01 23:02:05*
%MOMM*%
%LPD*%
G04 APERTURE LIST*
%ADD10C,0.100000*%
G04 APERTURE END LIST*
D10*
G36*
X32224549Y-5871116D02*
G01*
X32335734Y-5893232D01*
X32545203Y-5979997D01*
X32733720Y-6105960D01*
X32894040Y-6266280D01*
X33020003Y-6454797D01*
X33106768Y-6664266D01*
X33151000Y-6886636D01*
X33151000Y-7113364D01*
X33106768Y-7335734D01*
X33020003Y-7545203D01*
X32894040Y-7733720D01*
X32733720Y-7894040D01*
X32545203Y-8020003D01*
X32335734Y-8106768D01*
X32224549Y-8128884D01*
X32113365Y-8151000D01*
X31886635Y-8151000D01*
X31775451Y-8128884D01*
X31664266Y-8106768D01*
X31454797Y-8020003D01*
X31266280Y-7894040D01*
X31105960Y-7733720D01*
X30979997Y-7545203D01*
X30893232Y-7335734D01*
X30849000Y-7113364D01*
X30849000Y-6886636D01*
X30893232Y-6664266D01*
X30979997Y-6454797D01*
X31105960Y-6266280D01*
X31266280Y-6105960D01*
X31454797Y-5979997D01*
X31664266Y-5893232D01*
X31775451Y-5871116D01*
X31886635Y-5849000D01*
X32113365Y-5849000D01*
X32224549Y-5871116D01*
G37*
G36*
X-31775451Y-5871116D02*
G01*
X-31664266Y-5893232D01*
X-31454797Y-5979997D01*
X-31266280Y-6105960D01*
X-31105960Y-6266280D01*
X-30979997Y-6454797D01*
X-30893232Y-6664266D01*
X-30849000Y-6886636D01*
X-30849000Y-7113364D01*
X-30893232Y-7335734D01*
X-30979997Y-7545203D01*
X-31105960Y-7733720D01*
X-31266280Y-7894040D01*
X-31454797Y-8020003D01*
X-31664266Y-8106768D01*
X-31775451Y-8128884D01*
X-31886635Y-8151000D01*
X-32113365Y-8151000D01*
X-32224549Y-8128884D01*
X-32335734Y-8106768D01*
X-32545203Y-8020003D01*
X-32733720Y-7894040D01*
X-32894040Y-7733720D01*
X-33020003Y-7545203D01*
X-33106768Y-7335734D01*
X-33151000Y-7113364D01*
X-33151000Y-6886636D01*
X-33106768Y-6664266D01*
X-33020003Y-6454797D01*
X-32894040Y-6266280D01*
X-32733720Y-6105960D01*
X-32545203Y-5979997D01*
X-32335734Y-5893232D01*
X-32224549Y-5871116D01*
X-32113365Y-5849000D01*
X-31886635Y-5849000D01*
X-31775451Y-5871116D01*
G37*
G36*
X22705039Y-4817825D02*
G01*
X22950279Y-4892218D01*
X23176293Y-5013025D01*
X23374396Y-5175604D01*
X23536976Y-5373707D01*
X23625492Y-5539309D01*
X23657782Y-5599720D01*
X23732175Y-5844960D01*
X23751000Y-6036095D01*
X23751000Y-6663904D01*
X23732175Y-6855039D01*
X23657782Y-7100279D01*
X23536975Y-7326294D01*
X23494624Y-7377899D01*
X23374397Y-7524397D01*
X23227899Y-7644624D01*
X23176294Y-7686975D01*
X22950280Y-7807782D01*
X22705040Y-7882175D01*
X22450000Y-7907294D01*
X22194961Y-7882175D01*
X21949721Y-7807782D01*
X21723707Y-7686975D01*
X21597428Y-7583340D01*
X21525604Y-7524396D01*
X21363024Y-7326293D01*
X21242219Y-7100282D01*
X21234237Y-7073968D01*
X21167825Y-6855040D01*
X21149036Y-6664267D01*
X21149000Y-6663906D01*
X21149000Y-6036095D01*
X21167825Y-5844962D01*
X21167825Y-5844961D01*
X21242218Y-5599721D01*
X21363025Y-5373707D01*
X21525604Y-5175604D01*
X21723706Y-5013025D01*
X21723705Y-5013025D01*
X21723707Y-5013024D01*
X21949718Y-4892219D01*
X21949720Y-4892218D01*
X22194960Y-4817825D01*
X22450000Y-4792706D01*
X22705039Y-4817825D01*
G37*
G36*
X27705039Y-4817825D02*
G01*
X27950279Y-4892218D01*
X28176293Y-5013025D01*
X28374396Y-5175604D01*
X28536976Y-5373707D01*
X28625492Y-5539309D01*
X28657782Y-5599720D01*
X28732175Y-5844960D01*
X28751000Y-6036095D01*
X28751000Y-6663904D01*
X28732175Y-6855039D01*
X28657782Y-7100279D01*
X28536975Y-7326294D01*
X28494624Y-7377899D01*
X28374397Y-7524397D01*
X28227899Y-7644624D01*
X28176294Y-7686975D01*
X27950280Y-7807782D01*
X27705040Y-7882175D01*
X27450000Y-7907294D01*
X27194961Y-7882175D01*
X26949721Y-7807782D01*
X26723707Y-7686975D01*
X26597428Y-7583340D01*
X26525604Y-7524396D01*
X26363024Y-7326293D01*
X26242219Y-7100282D01*
X26234237Y-7073968D01*
X26167825Y-6855040D01*
X26149036Y-6664267D01*
X26149000Y-6663906D01*
X26149000Y-6036095D01*
X26167825Y-5844962D01*
X26167825Y-5844961D01*
X26242218Y-5599721D01*
X26363025Y-5373707D01*
X26525604Y-5175604D01*
X26723706Y-5013025D01*
X26723705Y-5013025D01*
X26723707Y-5013024D01*
X26949718Y-4892219D01*
X26949720Y-4892218D01*
X27194960Y-4817825D01*
X27450000Y-4792706D01*
X27705039Y-4817825D01*
G37*
G36*
X-27294961Y-4817825D02*
G01*
X-27049721Y-4892218D01*
X-26823707Y-5013025D01*
X-26625604Y-5175604D01*
X-26463024Y-5373707D01*
X-26374508Y-5539309D01*
X-26342218Y-5599720D01*
X-26267825Y-5844960D01*
X-26249000Y-6036095D01*
X-26249000Y-6663904D01*
X-26267825Y-6855039D01*
X-26342218Y-7100279D01*
X-26463025Y-7326294D01*
X-26505376Y-7377899D01*
X-26625603Y-7524397D01*
X-26772101Y-7644624D01*
X-26823706Y-7686975D01*
X-27049720Y-7807782D01*
X-27294960Y-7882175D01*
X-27550000Y-7907294D01*
X-27805039Y-7882175D01*
X-28050279Y-7807782D01*
X-28276293Y-7686975D01*
X-28402572Y-7583340D01*
X-28474396Y-7524396D01*
X-28636976Y-7326293D01*
X-28757781Y-7100282D01*
X-28765763Y-7073968D01*
X-28832175Y-6855040D01*
X-28850964Y-6664267D01*
X-28851000Y-6663906D01*
X-28851000Y-6036095D01*
X-28832175Y-5844962D01*
X-28832175Y-5844961D01*
X-28757782Y-5599721D01*
X-28636975Y-5373707D01*
X-28474396Y-5175604D01*
X-28276294Y-5013025D01*
X-28276295Y-5013025D01*
X-28276293Y-5013024D01*
X-28050282Y-4892219D01*
X-28050280Y-4892218D01*
X-27805040Y-4817825D01*
X-27550000Y-4792706D01*
X-27294961Y-4817825D01*
G37*
G36*
X-22294961Y-4817825D02*
G01*
X-22049721Y-4892218D01*
X-21823707Y-5013025D01*
X-21625604Y-5175604D01*
X-21463024Y-5373707D01*
X-21374508Y-5539309D01*
X-21342218Y-5599720D01*
X-21267825Y-5844960D01*
X-21249000Y-6036095D01*
X-21249000Y-6663904D01*
X-21267825Y-6855039D01*
X-21342218Y-7100279D01*
X-21463025Y-7326294D01*
X-21505376Y-7377899D01*
X-21625603Y-7524397D01*
X-21772101Y-7644624D01*
X-21823706Y-7686975D01*
X-22049720Y-7807782D01*
X-22294960Y-7882175D01*
X-22550000Y-7907294D01*
X-22805039Y-7882175D01*
X-23050279Y-7807782D01*
X-23276293Y-7686975D01*
X-23402572Y-7583340D01*
X-23474396Y-7524396D01*
X-23636976Y-7326293D01*
X-23757781Y-7100282D01*
X-23765763Y-7073968D01*
X-23832175Y-6855040D01*
X-23850964Y-6664267D01*
X-23851000Y-6663906D01*
X-23851000Y-6036095D01*
X-23832175Y-5844962D01*
X-23832175Y-5844961D01*
X-23757782Y-5599721D01*
X-23636975Y-5373707D01*
X-23474396Y-5175604D01*
X-23276294Y-5013025D01*
X-23276295Y-5013025D01*
X-23276293Y-5013024D01*
X-23050282Y-4892219D01*
X-23050280Y-4892218D01*
X-22805040Y-4817825D01*
X-22550000Y-4792706D01*
X-22294961Y-4817825D01*
G37*
G36*
X-9230941Y-6277860D02*
G01*
X-9094268Y-6334472D01*
X-8971265Y-6416660D01*
X-8866660Y-6521265D01*
X-8866659Y-6521267D01*
X-8784471Y-6644270D01*
X-8727860Y-6780941D01*
X-8699000Y-6926032D01*
X-8699000Y-7073968D01*
X-8727860Y-7219059D01*
X-8776188Y-7335734D01*
X-8784472Y-7355732D01*
X-8866660Y-7478735D01*
X-8971265Y-7583340D01*
X-9094268Y-7665528D01*
X-9094269Y-7665529D01*
X-9094270Y-7665529D01*
X-9230941Y-7722140D01*
X-9376032Y-7751000D01*
X-9523968Y-7751000D01*
X-9669059Y-7722140D01*
X-9805730Y-7665529D01*
X-9805731Y-7665529D01*
X-9805732Y-7665528D01*
X-9928735Y-7583340D01*
X-10033340Y-7478735D01*
X-10115528Y-7355732D01*
X-10123811Y-7335734D01*
X-10172140Y-7219059D01*
X-10201000Y-7073968D01*
X-10201000Y-6926032D01*
X-10172140Y-6780941D01*
X-10115529Y-6644270D01*
X-10033341Y-6521267D01*
X-10033340Y-6521265D01*
X-9928735Y-6416660D01*
X-9805732Y-6334472D01*
X-9669059Y-6277860D01*
X-9523968Y-6249000D01*
X-9376032Y-6249000D01*
X-9230941Y-6277860D01*
G37*
G36*
X-17835501Y-4603445D02*
G01*
X-17798005Y-4614820D01*
X-17763446Y-4633292D01*
X-17733153Y-4658153D01*
X-17708292Y-4688446D01*
X-17689820Y-4723005D01*
X-17678445Y-4760501D01*
X-17674000Y-4805638D01*
X-17674000Y-5544362D01*
X-17678445Y-5589499D01*
X-17689820Y-5626995D01*
X-17708292Y-5661554D01*
X-17733153Y-5691847D01*
X-17763446Y-5716708D01*
X-17798005Y-5735180D01*
X-17835501Y-5746555D01*
X-17880638Y-5751000D01*
X-18519362Y-5751000D01*
X-18564499Y-5746555D01*
X-18601995Y-5735180D01*
X-18636554Y-5716708D01*
X-18666847Y-5691847D01*
X-18691708Y-5661554D01*
X-18710180Y-5626995D01*
X-18721555Y-5589499D01*
X-18726000Y-5544362D01*
X-18726000Y-4805638D01*
X-18721555Y-4760501D01*
X-18710180Y-4723005D01*
X-18691708Y-4688446D01*
X-18666847Y-4658153D01*
X-18636554Y-4633292D01*
X-18601995Y-4614820D01*
X-18564499Y-4603445D01*
X-18519362Y-4599000D01*
X-17880638Y-4599000D01*
X-17835501Y-4603445D01*
G37*
G36*
X-20235501Y-2903445D02*
G01*
X-20198005Y-2914820D01*
X-20163446Y-2933292D01*
X-20133153Y-2958153D01*
X-20108292Y-2988446D01*
X-20089820Y-3023005D01*
X-20078445Y-3060501D01*
X-20074000Y-3105638D01*
X-20074000Y-3844362D01*
X-20078445Y-3889499D01*
X-20089820Y-3926995D01*
X-20108292Y-3961554D01*
X-20133153Y-3991847D01*
X-20163446Y-4016708D01*
X-20198005Y-4035180D01*
X-20235501Y-4046555D01*
X-20280638Y-4051000D01*
X-20919362Y-4051000D01*
X-20964499Y-4046555D01*
X-21001995Y-4035180D01*
X-21036554Y-4016708D01*
X-21066847Y-3991847D01*
X-21091708Y-3961554D01*
X-21110180Y-3926995D01*
X-21121555Y-3889499D01*
X-21126000Y-3844362D01*
X-21126000Y-3105638D01*
X-21121555Y-3060501D01*
X-21110180Y-3023005D01*
X-21091708Y-2988446D01*
X-21066847Y-2958153D01*
X-21036554Y-2933292D01*
X-21001995Y-2914820D01*
X-20964499Y-2903445D01*
X-20919362Y-2899000D01*
X-20280638Y-2899000D01*
X-20235501Y-2903445D01*
G37*
G36*
X-27035501Y-2903445D02*
G01*
X-26998005Y-2914820D01*
X-26963446Y-2933292D01*
X-26933153Y-2958153D01*
X-26908292Y-2988446D01*
X-26889820Y-3023005D01*
X-26878445Y-3060501D01*
X-26874000Y-3105638D01*
X-26874000Y-3844362D01*
X-26878445Y-3889499D01*
X-26889820Y-3926995D01*
X-26908292Y-3961554D01*
X-26933153Y-3991847D01*
X-26963446Y-4016708D01*
X-26998005Y-4035180D01*
X-27035501Y-4046555D01*
X-27080638Y-4051000D01*
X-27719362Y-4051000D01*
X-27764499Y-4046555D01*
X-27801995Y-4035180D01*
X-27836554Y-4016708D01*
X-27866847Y-3991847D01*
X-27891708Y-3961554D01*
X-27910180Y-3926995D01*
X-27921555Y-3889499D01*
X-27926000Y-3844362D01*
X-27926000Y-3105638D01*
X-27921555Y-3060501D01*
X-27910180Y-3023005D01*
X-27891708Y-2988446D01*
X-27866847Y-2958153D01*
X-27836554Y-2933292D01*
X-27801995Y-2914820D01*
X-27764499Y-2903445D01*
X-27719362Y-2899000D01*
X-27080638Y-2899000D01*
X-27035501Y-2903445D01*
G37*
G36*
X-17835501Y-2853445D02*
G01*
X-17798005Y-2864820D01*
X-17763446Y-2883292D01*
X-17733153Y-2908153D01*
X-17708292Y-2938446D01*
X-17689820Y-2973005D01*
X-17678445Y-3010501D01*
X-17674000Y-3055638D01*
X-17674000Y-3794362D01*
X-17678445Y-3839499D01*
X-17689820Y-3876995D01*
X-17708292Y-3911554D01*
X-17733153Y-3941847D01*
X-17763446Y-3966708D01*
X-17798005Y-3985180D01*
X-17835501Y-3996555D01*
X-17880638Y-4001000D01*
X-18519362Y-4001000D01*
X-18564499Y-3996555D01*
X-18601995Y-3985180D01*
X-18636554Y-3966708D01*
X-18666847Y-3941847D01*
X-18691708Y-3911554D01*
X-18710180Y-3876995D01*
X-18721555Y-3839499D01*
X-18726000Y-3794362D01*
X-18726000Y-3055638D01*
X-18721555Y-3010501D01*
X-18710180Y-2973005D01*
X-18691708Y-2938446D01*
X-18666847Y-2908153D01*
X-18636554Y-2883292D01*
X-18601995Y-2864820D01*
X-18564499Y-2853445D01*
X-18519362Y-2849000D01*
X-17880638Y-2849000D01*
X-17835501Y-2853445D01*
G37*
G36*
X-21949000Y-3481000D02*
G01*
X-23051000Y-3481000D01*
X-23051000Y-879000D01*
X-21949000Y-879000D01*
X-21949000Y-3481000D01*
G37*
G36*
X-22949000Y-19001D02*
G01*
X-22946598Y-43387D01*
X-22939485Y-66836D01*
X-22927934Y-88447D01*
X-22912389Y-107389D01*
X-22893447Y-122934D01*
X-22891393Y-124032D01*
X-22928006Y-178951D01*
X-22939535Y-200574D01*
X-22946624Y-224030D01*
X-22949000Y-248288D01*
X-22949000Y-274051D01*
X-22970310Y-280515D01*
X-22991921Y-292066D01*
X-23010863Y-307611D01*
X-23026480Y-326662D01*
X-23265148Y-684664D01*
X-23271493Y-696565D01*
X-23280004Y-706947D01*
X-23428006Y-928950D01*
X-23439535Y-950573D01*
X-23446624Y-974029D01*
X-23449000Y-998287D01*
X-23449000Y-3481000D01*
X-24551000Y-3481000D01*
X-24551000Y-998287D01*
X-24553402Y-973901D01*
X-24560515Y-950452D01*
X-24571994Y-928950D01*
X-24719996Y-706947D01*
X-24728500Y-696563D01*
X-24734852Y-684664D01*
X-24973520Y-326662D01*
X-24989045Y-307704D01*
X-25007971Y-292139D01*
X-25029569Y-280565D01*
X-25051000Y-274039D01*
X-25051000Y-248288D01*
X-25053402Y-223902D01*
X-25060515Y-200453D01*
X-25071994Y-178951D01*
X-25108607Y-124032D01*
X-25106553Y-122934D01*
X-25087611Y-107389D01*
X-25072066Y-88447D01*
X-25060515Y-66836D01*
X-25053402Y-43387D01*
X-25051000Y-19001D01*
X-25051000Y3831000D01*
X-22949000Y3831000D01*
X-22949000Y-19001D01*
G37*
G36*
X-24949000Y-3481000D02*
G01*
X-26051000Y-3481000D01*
X-26051000Y-879000D01*
X-24949000Y-879000D01*
X-24949000Y-3481000D01*
G37*
G36*
X-10999830Y-1875803D02*
G01*
X-10988125Y-1879354D01*
X-10977335Y-1885121D01*
X-10967881Y-1892881D01*
X-10960121Y-1902335D01*
X-10954354Y-1913125D01*
X-10950803Y-1924830D01*
X-10949000Y-1943138D01*
X-10949000Y-3406862D01*
X-10950803Y-3425170D01*
X-10954354Y-3436875D01*
X-10960121Y-3447665D01*
X-10967881Y-3457119D01*
X-10977335Y-3464879D01*
X-10988125Y-3470646D01*
X-10999830Y-3474197D01*
X-11018138Y-3476000D01*
X-11381862Y-3476000D01*
X-11400170Y-3474197D01*
X-11411875Y-3470646D01*
X-11422665Y-3464879D01*
X-11432119Y-3457119D01*
X-11439879Y-3447665D01*
X-11445646Y-3436875D01*
X-11449197Y-3425170D01*
X-11451000Y-3406862D01*
X-11451000Y-1943138D01*
X-11449197Y-1924830D01*
X-11445646Y-1913125D01*
X-11439879Y-1902335D01*
X-11432119Y-1892881D01*
X-11422665Y-1885121D01*
X-11411875Y-1879354D01*
X-11400170Y-1875803D01*
X-11381862Y-1874000D01*
X-11018138Y-1874000D01*
X-10999830Y-1875803D01*
G37*
G36*
X-12599830Y-1875803D02*
G01*
X-12588125Y-1879354D01*
X-12577335Y-1885121D01*
X-12567881Y-1892881D01*
X-12560121Y-1902335D01*
X-12554354Y-1913125D01*
X-12550803Y-1924830D01*
X-12549000Y-1943138D01*
X-12549000Y-3406862D01*
X-12550803Y-3425170D01*
X-12554354Y-3436875D01*
X-12560121Y-3447665D01*
X-12567881Y-3457119D01*
X-12577335Y-3464879D01*
X-12588125Y-3470646D01*
X-12599830Y-3474197D01*
X-12618138Y-3476000D01*
X-12981862Y-3476000D01*
X-13000170Y-3474197D01*
X-13011875Y-3470646D01*
X-13022665Y-3464879D01*
X-13032119Y-3457119D01*
X-13039879Y-3447665D01*
X-13045646Y-3436875D01*
X-13049197Y-3425170D01*
X-13051000Y-3406862D01*
X-13051000Y-1943138D01*
X-13049197Y-1924830D01*
X-13045646Y-1913125D01*
X-13039879Y-1902335D01*
X-13032119Y-1892881D01*
X-13022665Y-1885121D01*
X-13011875Y-1879354D01*
X-13000170Y-1875803D01*
X-12981862Y-1874000D01*
X-12618138Y-1874000D01*
X-12599830Y-1875803D01*
G37*
G36*
X-16599830Y-1875803D02*
G01*
X-16588125Y-1879354D01*
X-16577335Y-1885121D01*
X-16567881Y-1892881D01*
X-16560121Y-1902335D01*
X-16554354Y-1913125D01*
X-16550803Y-1924830D01*
X-16549000Y-1943138D01*
X-16549000Y-3406862D01*
X-16550803Y-3425170D01*
X-16554354Y-3436875D01*
X-16560121Y-3447665D01*
X-16567881Y-3457119D01*
X-16577335Y-3464879D01*
X-16588125Y-3470646D01*
X-16599830Y-3474197D01*
X-16618138Y-3476000D01*
X-16981862Y-3476000D01*
X-17000170Y-3474197D01*
X-17011875Y-3470646D01*
X-17022665Y-3464879D01*
X-17032119Y-3457119D01*
X-17039879Y-3447665D01*
X-17045646Y-3436875D01*
X-17049197Y-3425170D01*
X-17051000Y-3406862D01*
X-17051000Y-1943138D01*
X-17049197Y-1924830D01*
X-17045646Y-1913125D01*
X-17039879Y-1902335D01*
X-17032119Y-1892881D01*
X-17022665Y-1885121D01*
X-17011875Y-1879354D01*
X-17000170Y-1875803D01*
X-16981862Y-1874000D01*
X-16618138Y-1874000D01*
X-16599830Y-1875803D01*
G37*
G36*
X-15799830Y-1875803D02*
G01*
X-15788125Y-1879354D01*
X-15777335Y-1885121D01*
X-15767881Y-1892881D01*
X-15760121Y-1902335D01*
X-15754354Y-1913125D01*
X-15750803Y-1924830D01*
X-15749000Y-1943138D01*
X-15749000Y-3406862D01*
X-15750803Y-3425170D01*
X-15754354Y-3436875D01*
X-15760121Y-3447665D01*
X-15767881Y-3457119D01*
X-15777335Y-3464879D01*
X-15788125Y-3470646D01*
X-15799830Y-3474197D01*
X-15818138Y-3476000D01*
X-16181862Y-3476000D01*
X-16200170Y-3474197D01*
X-16211875Y-3470646D01*
X-16222665Y-3464879D01*
X-16232119Y-3457119D01*
X-16239879Y-3447665D01*
X-16245646Y-3436875D01*
X-16249197Y-3425170D01*
X-16251000Y-3406862D01*
X-16251000Y-1943138D01*
X-16249197Y-1924830D01*
X-16245646Y-1913125D01*
X-16239879Y-1902335D01*
X-16232119Y-1892881D01*
X-16222665Y-1885121D01*
X-16211875Y-1879354D01*
X-16200170Y-1875803D01*
X-16181862Y-1874000D01*
X-15818138Y-1874000D01*
X-15799830Y-1875803D01*
G37*
G36*
X-14999830Y-1875803D02*
G01*
X-14988125Y-1879354D01*
X-14977335Y-1885121D01*
X-14967881Y-1892881D01*
X-14960121Y-1902335D01*
X-14954354Y-1913125D01*
X-14950803Y-1924830D01*
X-14949000Y-1943138D01*
X-14949000Y-3406862D01*
X-14950803Y-3425170D01*
X-14954354Y-3436875D01*
X-14960121Y-3447665D01*
X-14967881Y-3457119D01*
X-14977335Y-3464879D01*
X-14988125Y-3470646D01*
X-14999830Y-3474197D01*
X-15018138Y-3476000D01*
X-15381862Y-3476000D01*
X-15400170Y-3474197D01*
X-15411875Y-3470646D01*
X-15422665Y-3464879D01*
X-15432119Y-3457119D01*
X-15439879Y-3447665D01*
X-15445646Y-3436875D01*
X-15449197Y-3425170D01*
X-15451000Y-3406862D01*
X-15451000Y-1943138D01*
X-15449197Y-1924830D01*
X-15445646Y-1913125D01*
X-15439879Y-1902335D01*
X-15432119Y-1892881D01*
X-15422665Y-1885121D01*
X-15411875Y-1879354D01*
X-15400170Y-1875803D01*
X-15381862Y-1874000D01*
X-15018138Y-1874000D01*
X-14999830Y-1875803D01*
G37*
G36*
X-14199830Y-1875803D02*
G01*
X-14188125Y-1879354D01*
X-14177335Y-1885121D01*
X-14167881Y-1892881D01*
X-14160121Y-1902335D01*
X-14154354Y-1913125D01*
X-14150803Y-1924830D01*
X-14149000Y-1943138D01*
X-14149000Y-3406862D01*
X-14150803Y-3425170D01*
X-14154354Y-3436875D01*
X-14160121Y-3447665D01*
X-14167881Y-3457119D01*
X-14177335Y-3464879D01*
X-14188125Y-3470646D01*
X-14199830Y-3474197D01*
X-14218138Y-3476000D01*
X-14581862Y-3476000D01*
X-14600170Y-3474197D01*
X-14611875Y-3470646D01*
X-14622665Y-3464879D01*
X-14632119Y-3457119D01*
X-14639879Y-3447665D01*
X-14645646Y-3436875D01*
X-14649197Y-3425170D01*
X-14651000Y-3406862D01*
X-14651000Y-1943138D01*
X-14649197Y-1924830D01*
X-14645646Y-1913125D01*
X-14639879Y-1902335D01*
X-14632119Y-1892881D01*
X-14622665Y-1885121D01*
X-14611875Y-1879354D01*
X-14600170Y-1875803D01*
X-14581862Y-1874000D01*
X-14218138Y-1874000D01*
X-14199830Y-1875803D01*
G37*
G36*
X-13399830Y-1875803D02*
G01*
X-13388125Y-1879354D01*
X-13377335Y-1885121D01*
X-13367881Y-1892881D01*
X-13360121Y-1902335D01*
X-13354354Y-1913125D01*
X-13350803Y-1924830D01*
X-13349000Y-1943138D01*
X-13349000Y-3406862D01*
X-13350803Y-3425170D01*
X-13354354Y-3436875D01*
X-13360121Y-3447665D01*
X-13367881Y-3457119D01*
X-13377335Y-3464879D01*
X-13388125Y-3470646D01*
X-13399830Y-3474197D01*
X-13418138Y-3476000D01*
X-13781862Y-3476000D01*
X-13800170Y-3474197D01*
X-13811875Y-3470646D01*
X-13822665Y-3464879D01*
X-13832119Y-3457119D01*
X-13839879Y-3447665D01*
X-13845646Y-3436875D01*
X-13849197Y-3425170D01*
X-13851000Y-3406862D01*
X-13851000Y-1943138D01*
X-13849197Y-1924830D01*
X-13845646Y-1913125D01*
X-13839879Y-1902335D01*
X-13832119Y-1892881D01*
X-13822665Y-1885121D01*
X-13811875Y-1879354D01*
X-13800170Y-1875803D01*
X-13781862Y-1874000D01*
X-13418138Y-1874000D01*
X-13399830Y-1875803D01*
G37*
G36*
X-11799830Y-1875803D02*
G01*
X-11788125Y-1879354D01*
X-11777335Y-1885121D01*
X-11767881Y-1892881D01*
X-11760121Y-1902335D01*
X-11754354Y-1913125D01*
X-11750803Y-1924830D01*
X-11749000Y-1943138D01*
X-11749000Y-3406862D01*
X-11750803Y-3425170D01*
X-11754354Y-3436875D01*
X-11760121Y-3447665D01*
X-11767881Y-3457119D01*
X-11777335Y-3464879D01*
X-11788125Y-3470646D01*
X-11799830Y-3474197D01*
X-11818138Y-3476000D01*
X-12181862Y-3476000D01*
X-12200170Y-3474197D01*
X-12211875Y-3470646D01*
X-12222665Y-3464879D01*
X-12232119Y-3457119D01*
X-12239879Y-3447665D01*
X-12245646Y-3436875D01*
X-12249197Y-3425170D01*
X-12251000Y-3406862D01*
X-12251000Y-1943138D01*
X-12249197Y-1924830D01*
X-12245646Y-1913125D01*
X-12239879Y-1902335D01*
X-12232119Y-1892881D01*
X-12222665Y-1885121D01*
X-12211875Y-1879354D01*
X-12200170Y-1875803D01*
X-12181862Y-1874000D01*
X-11818138Y-1874000D01*
X-11799830Y-1875803D01*
G37*
G36*
X-32499000Y-3451000D02*
G01*
X-34501000Y-3451000D01*
X-34501000Y-1549000D01*
X-32499000Y-1549000D01*
X-32499000Y-3451000D01*
G37*
G36*
X-30099000Y-2701000D02*
G01*
X-31801000Y-2701000D01*
X-31801000Y-499000D01*
X-30099000Y-499000D01*
X-30099000Y-2701000D01*
G37*
G36*
X-20235501Y-1153445D02*
G01*
X-20198005Y-1164820D01*
X-20163446Y-1183292D01*
X-20133153Y-1208153D01*
X-20108292Y-1238446D01*
X-20089820Y-1273005D01*
X-20078445Y-1310501D01*
X-20074000Y-1355638D01*
X-20074000Y-2094362D01*
X-20078445Y-2139499D01*
X-20089820Y-2176995D01*
X-20108292Y-2211554D01*
X-20133153Y-2241847D01*
X-20163446Y-2266708D01*
X-20198005Y-2285180D01*
X-20235501Y-2296555D01*
X-20280638Y-2301000D01*
X-20919362Y-2301000D01*
X-20964499Y-2296555D01*
X-21001995Y-2285180D01*
X-21036554Y-2266708D01*
X-21066847Y-2241847D01*
X-21091708Y-2211554D01*
X-21110180Y-2176995D01*
X-21121555Y-2139499D01*
X-21126000Y-2094362D01*
X-21126000Y-1355638D01*
X-21121555Y-1310501D01*
X-21110180Y-1273005D01*
X-21091708Y-1238446D01*
X-21066847Y-1208153D01*
X-21036554Y-1183292D01*
X-21001995Y-1164820D01*
X-20964499Y-1153445D01*
X-20919362Y-1149000D01*
X-20280638Y-1149000D01*
X-20235501Y-1153445D01*
G37*
G36*
X-27035501Y-1153445D02*
G01*
X-26998005Y-1164820D01*
X-26963446Y-1183292D01*
X-26933153Y-1208153D01*
X-26908292Y-1238446D01*
X-26889820Y-1273005D01*
X-26878445Y-1310501D01*
X-26874000Y-1355638D01*
X-26874000Y-2094362D01*
X-26878445Y-2139499D01*
X-26889820Y-2176995D01*
X-26908292Y-2211554D01*
X-26933153Y-2241847D01*
X-26963446Y-2266708D01*
X-26998005Y-2285180D01*
X-27035501Y-2296555D01*
X-27080638Y-2301000D01*
X-27719362Y-2301000D01*
X-27764499Y-2296555D01*
X-27801995Y-2285180D01*
X-27836554Y-2266708D01*
X-27866847Y-2241847D01*
X-27891708Y-2211554D01*
X-27910180Y-2176995D01*
X-27921555Y-2139499D01*
X-27926000Y-2094362D01*
X-27926000Y-1355638D01*
X-27921555Y-1310501D01*
X-27910180Y-1273005D01*
X-27891708Y-1238446D01*
X-27866847Y-1208153D01*
X-27836554Y-1183292D01*
X-27801995Y-1164820D01*
X-27764499Y-1153445D01*
X-27719362Y-1149000D01*
X-27080638Y-1149000D01*
X-27035501Y-1153445D01*
G37*
G36*
X-9074830Y-1050803D02*
G01*
X-9063125Y-1054354D01*
X-9052335Y-1060121D01*
X-9042881Y-1067881D01*
X-9035121Y-1077335D01*
X-9029354Y-1088125D01*
X-9025803Y-1099830D01*
X-9024000Y-1118138D01*
X-9024000Y-1481862D01*
X-9025803Y-1500170D01*
X-9029354Y-1511875D01*
X-9035121Y-1522665D01*
X-9042881Y-1532119D01*
X-9052335Y-1539879D01*
X-9063125Y-1545646D01*
X-9074830Y-1549197D01*
X-9093138Y-1551000D01*
X-10556862Y-1551000D01*
X-10575170Y-1549197D01*
X-10586875Y-1545646D01*
X-10597665Y-1539879D01*
X-10607119Y-1532119D01*
X-10614879Y-1522665D01*
X-10620646Y-1511875D01*
X-10624197Y-1500170D01*
X-10626000Y-1481862D01*
X-10626000Y-1118138D01*
X-10624197Y-1099830D01*
X-10620646Y-1088125D01*
X-10614879Y-1077335D01*
X-10607119Y-1067881D01*
X-10597665Y-1060121D01*
X-10586875Y-1054354D01*
X-10575170Y-1050803D01*
X-10556862Y-1049000D01*
X-9093138Y-1049000D01*
X-9074830Y-1050803D01*
G37*
G36*
X-17424830Y-1050803D02*
G01*
X-17413125Y-1054354D01*
X-17402335Y-1060121D01*
X-17392881Y-1067881D01*
X-17385121Y-1077335D01*
X-17379354Y-1088125D01*
X-17375803Y-1099830D01*
X-17374000Y-1118138D01*
X-17374000Y-1481862D01*
X-17375803Y-1500170D01*
X-17379354Y-1511875D01*
X-17385121Y-1522665D01*
X-17392881Y-1532119D01*
X-17402335Y-1539879D01*
X-17413125Y-1545646D01*
X-17424830Y-1549197D01*
X-17443138Y-1551000D01*
X-18906862Y-1551000D01*
X-18925170Y-1549197D01*
X-18936875Y-1545646D01*
X-18947665Y-1539879D01*
X-18957119Y-1532119D01*
X-18964879Y-1522665D01*
X-18970646Y-1511875D01*
X-18974197Y-1500170D01*
X-18976000Y-1481862D01*
X-18976000Y-1118138D01*
X-18974197Y-1099830D01*
X-18970646Y-1088125D01*
X-18964879Y-1077335D01*
X-18957119Y-1067881D01*
X-18947665Y-1060121D01*
X-18936875Y-1054354D01*
X-18925170Y-1050803D01*
X-18906862Y-1049000D01*
X-17443138Y-1049000D01*
X-17424830Y-1050803D01*
G37*
G36*
X13626000Y-1051000D02*
G01*
X11374000Y-1051000D01*
X11374000Y1051000D01*
X13626000Y1051000D01*
X13626000Y-1051000D01*
G37*
G36*
X-9074830Y-250803D02*
G01*
X-9063125Y-254354D01*
X-9052335Y-260121D01*
X-9042881Y-267881D01*
X-9035121Y-277335D01*
X-9029354Y-288125D01*
X-9025803Y-299830D01*
X-9024000Y-318138D01*
X-9024000Y-681862D01*
X-9025803Y-700170D01*
X-9029354Y-711875D01*
X-9035121Y-722665D01*
X-9042881Y-732119D01*
X-9052335Y-739879D01*
X-9063125Y-745646D01*
X-9074830Y-749197D01*
X-9093138Y-751000D01*
X-10556862Y-751000D01*
X-10575170Y-749197D01*
X-10586875Y-745646D01*
X-10597665Y-739879D01*
X-10607119Y-732119D01*
X-10614879Y-722665D01*
X-10620646Y-711875D01*
X-10624197Y-700170D01*
X-10626000Y-681862D01*
X-10626000Y-318138D01*
X-10624197Y-299830D01*
X-10620646Y-288125D01*
X-10614879Y-277335D01*
X-10607119Y-267881D01*
X-10597665Y-260121D01*
X-10586875Y-254354D01*
X-10575170Y-250803D01*
X-10556862Y-249000D01*
X-9093138Y-249000D01*
X-9074830Y-250803D01*
G37*
G36*
X-17424830Y-250803D02*
G01*
X-17413125Y-254354D01*
X-17402335Y-260121D01*
X-17392881Y-267881D01*
X-17385121Y-277335D01*
X-17379354Y-288125D01*
X-17375803Y-299830D01*
X-17374000Y-318138D01*
X-17374000Y-681862D01*
X-17375803Y-700170D01*
X-17379354Y-711875D01*
X-17385121Y-722665D01*
X-17392881Y-732119D01*
X-17402335Y-739879D01*
X-17413125Y-745646D01*
X-17424830Y-749197D01*
X-17443138Y-751000D01*
X-18906862Y-751000D01*
X-18925170Y-749197D01*
X-18936875Y-745646D01*
X-18947665Y-739879D01*
X-18957119Y-732119D01*
X-18964879Y-722665D01*
X-18970646Y-711875D01*
X-18974197Y-700170D01*
X-18976000Y-681862D01*
X-18976000Y-318138D01*
X-18974197Y-299830D01*
X-18970646Y-288125D01*
X-18964879Y-277335D01*
X-18957119Y-267881D01*
X-18947665Y-260121D01*
X-18936875Y-254354D01*
X-18925170Y-250803D01*
X-18906862Y-249000D01*
X-17443138Y-249000D01*
X-17424830Y-250803D01*
G37*
G36*
X-27024438Y871819D02*
G01*
X-26989519Y861226D01*
X-26957337Y844024D01*
X-26929127Y820873D01*
X-26905976Y792663D01*
X-26888774Y760481D01*
X-26878181Y725562D01*
X-26874000Y683105D01*
X-26874000Y-458105D01*
X-26878181Y-500562D01*
X-26888774Y-535481D01*
X-26905976Y-567663D01*
X-26929127Y-595873D01*
X-26957337Y-619024D01*
X-26989519Y-636226D01*
X-27024438Y-646819D01*
X-27066895Y-651000D01*
X-28533105Y-651000D01*
X-28575562Y-646819D01*
X-28610481Y-636226D01*
X-28642663Y-619024D01*
X-28670873Y-595873D01*
X-28694024Y-567663D01*
X-28711226Y-535481D01*
X-28721819Y-500562D01*
X-28726000Y-458105D01*
X-28726000Y683105D01*
X-28721819Y725562D01*
X-28711226Y760481D01*
X-28694024Y792663D01*
X-28670873Y820873D01*
X-28642663Y844024D01*
X-28610481Y861226D01*
X-28575562Y871819D01*
X-28533105Y876000D01*
X-27066895Y876000D01*
X-27024438Y871819D01*
G37*
G36*
X-29724000Y2475999D02*
G01*
X-29721598Y2451613D01*
X-29714485Y2428164D01*
X-29702934Y2406553D01*
X-29699000Y2401759D01*
X-29699000Y-1000D01*
X-31551000Y-1000D01*
X-31551000Y2474001D01*
X-31553402Y2498387D01*
X-31560515Y2521836D01*
X-31572066Y2543447D01*
X-31576000Y2548241D01*
X-31576000Y3001000D01*
X-29724000Y3001000D01*
X-29724000Y2475999D01*
G37*
G36*
X-9074830Y549197D02*
G01*
X-9063125Y545646D01*
X-9052335Y539879D01*
X-9042881Y532119D01*
X-9035121Y522665D01*
X-9029354Y511875D01*
X-9025803Y500170D01*
X-9024000Y481862D01*
X-9024000Y118138D01*
X-9025803Y99830D01*
X-9029354Y88125D01*
X-9035121Y77335D01*
X-9042881Y67881D01*
X-9052335Y60121D01*
X-9063125Y54354D01*
X-9074830Y50803D01*
X-9093138Y49000D01*
X-10556862Y49000D01*
X-10575170Y50803D01*
X-10586875Y54354D01*
X-10597665Y60121D01*
X-10607119Y67881D01*
X-10614879Y77335D01*
X-10620646Y88125D01*
X-10624197Y99830D01*
X-10626000Y118138D01*
X-10626000Y481862D01*
X-10624197Y500170D01*
X-10620646Y511875D01*
X-10614879Y522665D01*
X-10607119Y532119D01*
X-10597665Y539879D01*
X-10586875Y545646D01*
X-10575170Y549197D01*
X-10556862Y551000D01*
X-9093138Y551000D01*
X-9074830Y549197D01*
G37*
G36*
X-17424830Y549197D02*
G01*
X-17413125Y545646D01*
X-17402335Y539879D01*
X-17392881Y532119D01*
X-17385121Y522665D01*
X-17379354Y511875D01*
X-17375803Y500170D01*
X-17374000Y481862D01*
X-17374000Y118138D01*
X-17375803Y99830D01*
X-17379354Y88125D01*
X-17385121Y77335D01*
X-17392881Y67881D01*
X-17402335Y60121D01*
X-17413125Y54354D01*
X-17424830Y50803D01*
X-17443138Y49000D01*
X-18906862Y49000D01*
X-18925170Y50803D01*
X-18936875Y54354D01*
X-18947665Y60121D01*
X-18957119Y67881D01*
X-18964879Y77335D01*
X-18970646Y88125D01*
X-18974197Y99830D01*
X-18976000Y118138D01*
X-18976000Y481862D01*
X-18974197Y500170D01*
X-18970646Y511875D01*
X-18964879Y522665D01*
X-18957119Y532119D01*
X-18947665Y539879D01*
X-18936875Y545646D01*
X-18925170Y549197D01*
X-18906862Y551000D01*
X-17443138Y551000D01*
X-17424830Y549197D01*
G37*
G36*
X-17424830Y1349197D02*
G01*
X-17413125Y1345646D01*
X-17402335Y1339879D01*
X-17392881Y1332119D01*
X-17385121Y1322665D01*
X-17379354Y1311875D01*
X-17375803Y1300170D01*
X-17374000Y1281862D01*
X-17374000Y918138D01*
X-17375803Y899830D01*
X-17379354Y888125D01*
X-17385121Y877335D01*
X-17392881Y867881D01*
X-17402335Y860121D01*
X-17413125Y854354D01*
X-17424830Y850803D01*
X-17443138Y849000D01*
X-18906862Y849000D01*
X-18925170Y850803D01*
X-18936875Y854354D01*
X-18947665Y860121D01*
X-18957119Y867881D01*
X-18964879Y877335D01*
X-18970646Y888125D01*
X-18974197Y899830D01*
X-18976000Y918138D01*
X-18976000Y1281862D01*
X-18974197Y1300170D01*
X-18970646Y1311875D01*
X-18964879Y1322665D01*
X-18957119Y1332119D01*
X-18947665Y1339879D01*
X-18936875Y1345646D01*
X-18925170Y1349197D01*
X-18906862Y1351000D01*
X-17443138Y1351000D01*
X-17424830Y1349197D01*
G37*
G36*
X-9074830Y1349197D02*
G01*
X-9063125Y1345646D01*
X-9052335Y1339879D01*
X-9042881Y1332119D01*
X-9035121Y1322665D01*
X-9029354Y1311875D01*
X-9025803Y1300170D01*
X-9024000Y1281862D01*
X-9024000Y918138D01*
X-9025803Y899830D01*
X-9029354Y888125D01*
X-9035121Y877335D01*
X-9042881Y867881D01*
X-9052335Y860121D01*
X-9063125Y854354D01*
X-9074830Y850803D01*
X-9093138Y849000D01*
X-10556862Y849000D01*
X-10575170Y850803D01*
X-10586875Y854354D01*
X-10597665Y860121D01*
X-10607119Y867881D01*
X-10614879Y877335D01*
X-10620646Y888125D01*
X-10624197Y899830D01*
X-10626000Y918138D01*
X-10626000Y1281862D01*
X-10624197Y1300170D01*
X-10620646Y1311875D01*
X-10614879Y1322665D01*
X-10607119Y1332119D01*
X-10597665Y1339879D01*
X-10586875Y1345646D01*
X-10575170Y1349197D01*
X-10556862Y1351000D01*
X-9093138Y1351000D01*
X-9074830Y1349197D01*
G37*
G36*
X-17424830Y2149197D02*
G01*
X-17413125Y2145646D01*
X-17402335Y2139879D01*
X-17392881Y2132119D01*
X-17385121Y2122665D01*
X-17379354Y2111875D01*
X-17375803Y2100170D01*
X-17374000Y2081862D01*
X-17374000Y1718138D01*
X-17375803Y1699830D01*
X-17379354Y1688125D01*
X-17385121Y1677335D01*
X-17392881Y1667881D01*
X-17402335Y1660121D01*
X-17413125Y1654354D01*
X-17424830Y1650803D01*
X-17443138Y1649000D01*
X-18906862Y1649000D01*
X-18925170Y1650803D01*
X-18936875Y1654354D01*
X-18947665Y1660121D01*
X-18957119Y1667881D01*
X-18964879Y1677335D01*
X-18970646Y1688125D01*
X-18974197Y1699830D01*
X-18976000Y1718138D01*
X-18976000Y2081862D01*
X-18974197Y2100170D01*
X-18970646Y2111875D01*
X-18964879Y2122665D01*
X-18957119Y2132119D01*
X-18947665Y2139879D01*
X-18936875Y2145646D01*
X-18925170Y2149197D01*
X-18906862Y2151000D01*
X-17443138Y2151000D01*
X-17424830Y2149197D01*
G37*
G36*
X-9074830Y2149197D02*
G01*
X-9063125Y2145646D01*
X-9052335Y2139879D01*
X-9042881Y2132119D01*
X-9035121Y2122665D01*
X-9029354Y2111875D01*
X-9025803Y2100170D01*
X-9024000Y2081862D01*
X-9024000Y1718138D01*
X-9025803Y1699830D01*
X-9029354Y1688125D01*
X-9035121Y1677335D01*
X-9042881Y1667881D01*
X-9052335Y1660121D01*
X-9063125Y1654354D01*
X-9074830Y1650803D01*
X-9093138Y1649000D01*
X-10556862Y1649000D01*
X-10575170Y1650803D01*
X-10586875Y1654354D01*
X-10597665Y1660121D01*
X-10607119Y1667881D01*
X-10614879Y1677335D01*
X-10620646Y1688125D01*
X-10624197Y1699830D01*
X-10626000Y1718138D01*
X-10626000Y2081862D01*
X-10624197Y2100170D01*
X-10620646Y2111875D01*
X-10614879Y2122665D01*
X-10607119Y2132119D01*
X-10597665Y2139879D01*
X-10586875Y2145646D01*
X-10575170Y2149197D01*
X-10556862Y2151000D01*
X-9093138Y2151000D01*
X-9074830Y2149197D01*
G37*
G36*
X-27024438Y3846819D02*
G01*
X-26989519Y3836226D01*
X-26957337Y3819024D01*
X-26929127Y3795873D01*
X-26905976Y3767663D01*
X-26888774Y3735481D01*
X-26878181Y3700562D01*
X-26874000Y3658105D01*
X-26874000Y2516895D01*
X-26878181Y2474438D01*
X-26888774Y2439519D01*
X-26905976Y2407337D01*
X-26929127Y2379127D01*
X-26957337Y2355976D01*
X-26989519Y2338774D01*
X-27024438Y2328181D01*
X-27066895Y2324000D01*
X-28533105Y2324000D01*
X-28575562Y2328181D01*
X-28610481Y2338774D01*
X-28642663Y2355976D01*
X-28670873Y2379127D01*
X-28694024Y2407337D01*
X-28711226Y2439519D01*
X-28721819Y2474438D01*
X-28726000Y2516895D01*
X-28726000Y3658105D01*
X-28721819Y3700562D01*
X-28711226Y3735481D01*
X-28694024Y3767663D01*
X-28670873Y3795873D01*
X-28642663Y3819024D01*
X-28610481Y3836226D01*
X-28575562Y3846819D01*
X-28533105Y3851000D01*
X-27066895Y3851000D01*
X-27024438Y3846819D01*
G37*
G36*
X-17424830Y2949197D02*
G01*
X-17413125Y2945646D01*
X-17402335Y2939879D01*
X-17392881Y2932119D01*
X-17385121Y2922665D01*
X-17379354Y2911875D01*
X-17375803Y2900170D01*
X-17374000Y2881862D01*
X-17374000Y2518138D01*
X-17375803Y2499830D01*
X-17379354Y2488125D01*
X-17385121Y2477335D01*
X-17392881Y2467881D01*
X-17402335Y2460121D01*
X-17413125Y2454354D01*
X-17424830Y2450803D01*
X-17443138Y2449000D01*
X-18906862Y2449000D01*
X-18925170Y2450803D01*
X-18936875Y2454354D01*
X-18947665Y2460121D01*
X-18957119Y2467881D01*
X-18964879Y2477335D01*
X-18970646Y2488125D01*
X-18974197Y2499830D01*
X-18976000Y2518138D01*
X-18976000Y2881862D01*
X-18974197Y2900170D01*
X-18970646Y2911875D01*
X-18964879Y2922665D01*
X-18957119Y2932119D01*
X-18947665Y2939879D01*
X-18936875Y2945646D01*
X-18925170Y2949197D01*
X-18906862Y2951000D01*
X-17443138Y2951000D01*
X-17424830Y2949197D01*
G37*
G36*
X-9074830Y2949197D02*
G01*
X-9063125Y2945646D01*
X-9052335Y2939879D01*
X-9042881Y2932119D01*
X-9035121Y2922665D01*
X-9029354Y2911875D01*
X-9025803Y2900170D01*
X-9024000Y2881862D01*
X-9024000Y2518138D01*
X-9025803Y2499830D01*
X-9029354Y2488125D01*
X-9035121Y2477335D01*
X-9042881Y2467881D01*
X-9052335Y2460121D01*
X-9063125Y2454354D01*
X-9074830Y2450803D01*
X-9093138Y2449000D01*
X-10556862Y2449000D01*
X-10575170Y2450803D01*
X-10586875Y2454354D01*
X-10597665Y2460121D01*
X-10607119Y2467881D01*
X-10614879Y2477335D01*
X-10620646Y2488125D01*
X-10624197Y2499830D01*
X-10626000Y2518138D01*
X-10626000Y2881862D01*
X-10624197Y2900170D01*
X-10620646Y2911875D01*
X-10614879Y2922665D01*
X-10607119Y2932119D01*
X-10597665Y2939879D01*
X-10586875Y2945646D01*
X-10575170Y2949197D01*
X-10556862Y2951000D01*
X-9093138Y2951000D01*
X-9074830Y2949197D01*
G37*
G36*
X-17424830Y3749197D02*
G01*
X-17413125Y3745646D01*
X-17402335Y3739879D01*
X-17392881Y3732119D01*
X-17385121Y3722665D01*
X-17379354Y3711875D01*
X-17375803Y3700170D01*
X-17374000Y3681862D01*
X-17374000Y3318138D01*
X-17375803Y3299830D01*
X-17379354Y3288125D01*
X-17385121Y3277335D01*
X-17392881Y3267881D01*
X-17402335Y3260121D01*
X-17413125Y3254354D01*
X-17424830Y3250803D01*
X-17443138Y3249000D01*
X-18906862Y3249000D01*
X-18925170Y3250803D01*
X-18936875Y3254354D01*
X-18947665Y3260121D01*
X-18957119Y3267881D01*
X-18964879Y3277335D01*
X-18970646Y3288125D01*
X-18974197Y3299830D01*
X-18976000Y3318138D01*
X-18976000Y3681862D01*
X-18974197Y3700170D01*
X-18970646Y3711875D01*
X-18964879Y3722665D01*
X-18957119Y3732119D01*
X-18947665Y3739879D01*
X-18936875Y3745646D01*
X-18925170Y3749197D01*
X-18906862Y3751000D01*
X-17443138Y3751000D01*
X-17424830Y3749197D01*
G37*
G36*
X-9074830Y3749197D02*
G01*
X-9063125Y3745646D01*
X-9052335Y3739879D01*
X-9042881Y3732119D01*
X-9035121Y3722665D01*
X-9029354Y3711875D01*
X-9025803Y3700170D01*
X-9024000Y3681862D01*
X-9024000Y3318138D01*
X-9025803Y3299830D01*
X-9029354Y3288125D01*
X-9035121Y3277335D01*
X-9042881Y3267881D01*
X-9052335Y3260121D01*
X-9063125Y3254354D01*
X-9074830Y3250803D01*
X-9093138Y3249000D01*
X-10556862Y3249000D01*
X-10575170Y3250803D01*
X-10586875Y3254354D01*
X-10597665Y3260121D01*
X-10607119Y3267881D01*
X-10614879Y3277335D01*
X-10620646Y3288125D01*
X-10624197Y3299830D01*
X-10626000Y3318138D01*
X-10626000Y3681862D01*
X-10624197Y3700170D01*
X-10620646Y3711875D01*
X-10614879Y3722665D01*
X-10607119Y3732119D01*
X-10597665Y3739879D01*
X-10586875Y3745646D01*
X-10575170Y3749197D01*
X-10556862Y3751000D01*
X-9093138Y3751000D01*
X-9074830Y3749197D01*
G37*
G36*
X-30099000Y3499000D02*
G01*
X-31801000Y3499000D01*
X-31801000Y5701000D01*
X-30099000Y5701000D01*
X-30099000Y3499000D01*
G37*
G36*
X-17424830Y4549197D02*
G01*
X-17413125Y4545646D01*
X-17402335Y4539879D01*
X-17392881Y4532119D01*
X-17385121Y4522665D01*
X-17379354Y4511875D01*
X-17375803Y4500170D01*
X-17374000Y4481862D01*
X-17374000Y4118138D01*
X-17375803Y4099830D01*
X-17379354Y4088125D01*
X-17385121Y4077335D01*
X-17392881Y4067881D01*
X-17402335Y4060121D01*
X-17413125Y4054354D01*
X-17424830Y4050803D01*
X-17443138Y4049000D01*
X-18906862Y4049000D01*
X-18925170Y4050803D01*
X-18936875Y4054354D01*
X-18947665Y4060121D01*
X-18957119Y4067881D01*
X-18964879Y4077335D01*
X-18970646Y4088125D01*
X-18974197Y4099830D01*
X-18976000Y4118138D01*
X-18976000Y4481862D01*
X-18974197Y4500170D01*
X-18970646Y4511875D01*
X-18964879Y4522665D01*
X-18957119Y4532119D01*
X-18947665Y4539879D01*
X-18936875Y4545646D01*
X-18925170Y4549197D01*
X-18906862Y4551000D01*
X-17443138Y4551000D01*
X-17424830Y4549197D01*
G37*
G36*
X-9074830Y4549197D02*
G01*
X-9063125Y4545646D01*
X-9052335Y4539879D01*
X-9042881Y4532119D01*
X-9035121Y4522665D01*
X-9029354Y4511875D01*
X-9025803Y4500170D01*
X-9024000Y4481862D01*
X-9024000Y4118138D01*
X-9025803Y4099830D01*
X-9029354Y4088125D01*
X-9035121Y4077335D01*
X-9042881Y4067881D01*
X-9052335Y4060121D01*
X-9063125Y4054354D01*
X-9074830Y4050803D01*
X-9093138Y4049000D01*
X-10556862Y4049000D01*
X-10575170Y4050803D01*
X-10586875Y4054354D01*
X-10597665Y4060121D01*
X-10607119Y4067881D01*
X-10614879Y4077335D01*
X-10620646Y4088125D01*
X-10624197Y4099830D01*
X-10626000Y4118138D01*
X-10626000Y4481862D01*
X-10624197Y4500170D01*
X-10620646Y4511875D01*
X-10614879Y4522665D01*
X-10607119Y4532119D01*
X-10597665Y4539879D01*
X-10586875Y4545646D01*
X-10575170Y4549197D01*
X-10556862Y4551000D01*
X-9093138Y4551000D01*
X-9074830Y4549197D01*
G37*
G36*
X-32499000Y4549000D02*
G01*
X-34501000Y4549000D01*
X-34501000Y6451000D01*
X-32499000Y6451000D01*
X-32499000Y4549000D01*
G37*
G36*
X-22294961Y7682175D02*
G01*
X-22049721Y7607782D01*
X-21823707Y7486975D01*
X-21625604Y7324396D01*
X-21463025Y7126294D01*
X-21342218Y6900280D01*
X-21267825Y6655040D01*
X-21249000Y6463905D01*
X-21249000Y5836096D01*
X-21267825Y5644961D01*
X-21342218Y5399721D01*
X-21463025Y5173706D01*
X-21505376Y5122101D01*
X-21625603Y4975603D01*
X-21742884Y4879354D01*
X-21823706Y4813025D01*
X-22049720Y4692218D01*
X-22294960Y4617825D01*
X-22550000Y4592706D01*
X-22805039Y4617825D01*
X-23050279Y4692218D01*
X-23276293Y4813025D01*
X-23385117Y4902335D01*
X-23474396Y4975604D01*
X-23636976Y5173707D01*
X-23757781Y5399718D01*
X-23832175Y5644961D01*
X-23851000Y5836094D01*
X-23851000Y6463905D01*
X-23832175Y6655038D01*
X-23832175Y6655039D01*
X-23757782Y6900279D01*
X-23636975Y7126293D01*
X-23474396Y7324396D01*
X-23276294Y7486975D01*
X-23276295Y7486975D01*
X-23276293Y7486976D01*
X-23050282Y7607781D01*
X-23050280Y7607782D01*
X-22805040Y7682175D01*
X-22550000Y7707294D01*
X-22294961Y7682175D01*
G37*
G36*
X22705039Y7682175D02*
G01*
X22950279Y7607782D01*
X23176293Y7486975D01*
X23374396Y7324396D01*
X23536975Y7126294D01*
X23657782Y6900280D01*
X23732175Y6655040D01*
X23751000Y6463905D01*
X23751000Y5836096D01*
X23732175Y5644961D01*
X23657782Y5399721D01*
X23536975Y5173706D01*
X23494624Y5122101D01*
X23374397Y4975603D01*
X23257116Y4879354D01*
X23176294Y4813025D01*
X22950280Y4692218D01*
X22705040Y4617825D01*
X22450000Y4592706D01*
X22194961Y4617825D01*
X21949721Y4692218D01*
X21723707Y4813025D01*
X21614883Y4902335D01*
X21525604Y4975604D01*
X21363024Y5173707D01*
X21242219Y5399718D01*
X21167825Y5644961D01*
X21149000Y5836094D01*
X21149000Y6463905D01*
X21167825Y6655038D01*
X21167825Y6655039D01*
X21242218Y6900279D01*
X21363025Y7126293D01*
X21525604Y7324396D01*
X21723706Y7486975D01*
X21723705Y7486975D01*
X21723707Y7486976D01*
X21949718Y7607781D01*
X21949720Y7607782D01*
X22194960Y7682175D01*
X22450000Y7707294D01*
X22705039Y7682175D01*
G37*
G36*
X27705039Y7682175D02*
G01*
X27950279Y7607782D01*
X28176293Y7486975D01*
X28374396Y7324396D01*
X28536975Y7126294D01*
X28657782Y6900280D01*
X28732175Y6655040D01*
X28751000Y6463905D01*
X28751000Y5836096D01*
X28732175Y5644961D01*
X28657782Y5399721D01*
X28536975Y5173706D01*
X28494624Y5122101D01*
X28374397Y4975603D01*
X28257116Y4879354D01*
X28176294Y4813025D01*
X27950280Y4692218D01*
X27705040Y4617825D01*
X27450000Y4592706D01*
X27194961Y4617825D01*
X26949721Y4692218D01*
X26723707Y4813025D01*
X26614883Y4902335D01*
X26525604Y4975604D01*
X26363024Y5173707D01*
X26242219Y5399718D01*
X26167825Y5644961D01*
X26149000Y5836094D01*
X26149000Y6463905D01*
X26167825Y6655038D01*
X26167825Y6655039D01*
X26242218Y6900279D01*
X26363025Y7126293D01*
X26525604Y7324396D01*
X26723706Y7486975D01*
X26723705Y7486975D01*
X26723707Y7486976D01*
X26949718Y7607781D01*
X26949720Y7607782D01*
X27194960Y7682175D01*
X27450000Y7707294D01*
X27705039Y7682175D01*
G37*
G36*
X-27294961Y7682175D02*
G01*
X-27049721Y7607782D01*
X-26823707Y7486975D01*
X-26625604Y7324396D01*
X-26463025Y7126294D01*
X-26342218Y6900280D01*
X-26267825Y6655040D01*
X-26249000Y6463905D01*
X-26249000Y5836096D01*
X-26267825Y5644961D01*
X-26342218Y5399721D01*
X-26463025Y5173706D01*
X-26505376Y5122101D01*
X-26625603Y4975603D01*
X-26742884Y4879354D01*
X-26823706Y4813025D01*
X-27049720Y4692218D01*
X-27294960Y4617825D01*
X-27550000Y4592706D01*
X-27805039Y4617825D01*
X-28050279Y4692218D01*
X-28276293Y4813025D01*
X-28385117Y4902335D01*
X-28474396Y4975604D01*
X-28636976Y5173707D01*
X-28757781Y5399718D01*
X-28832175Y5644961D01*
X-28851000Y5836094D01*
X-28851000Y6463905D01*
X-28832175Y6655038D01*
X-28832175Y6655039D01*
X-28757782Y6900279D01*
X-28636975Y7126293D01*
X-28474396Y7324396D01*
X-28276294Y7486975D01*
X-28276295Y7486975D01*
X-28276293Y7486976D01*
X-28050282Y7607781D01*
X-28050280Y7607782D01*
X-27805040Y7682175D01*
X-27550000Y7707294D01*
X-27294961Y7682175D01*
G37*
G36*
X-15799830Y6474197D02*
G01*
X-15788125Y6470646D01*
X-15777335Y6464879D01*
X-15767881Y6457119D01*
X-15760121Y6447665D01*
X-15754354Y6436875D01*
X-15750803Y6425170D01*
X-15749000Y6406862D01*
X-15749000Y4943138D01*
X-15750803Y4924830D01*
X-15754354Y4913125D01*
X-15760121Y4902335D01*
X-15767881Y4892881D01*
X-15777335Y4885121D01*
X-15788125Y4879354D01*
X-15799830Y4875803D01*
X-15818138Y4874000D01*
X-16181862Y4874000D01*
X-16200170Y4875803D01*
X-16211875Y4879354D01*
X-16222665Y4885121D01*
X-16232119Y4892881D01*
X-16239879Y4902335D01*
X-16245646Y4913125D01*
X-16249197Y4924830D01*
X-16251000Y4943138D01*
X-16251000Y6406862D01*
X-16249197Y6425170D01*
X-16245646Y6436875D01*
X-16239879Y6447665D01*
X-16232119Y6457119D01*
X-16222665Y6464879D01*
X-16211875Y6470646D01*
X-16200170Y6474197D01*
X-16181862Y6476000D01*
X-15818138Y6476000D01*
X-15799830Y6474197D01*
G37*
G36*
X-10999830Y6474197D02*
G01*
X-10988125Y6470646D01*
X-10977335Y6464879D01*
X-10967881Y6457119D01*
X-10960121Y6447665D01*
X-10954354Y6436875D01*
X-10950803Y6425170D01*
X-10949000Y6406862D01*
X-10949000Y4943138D01*
X-10950803Y4924830D01*
X-10954354Y4913125D01*
X-10960121Y4902335D01*
X-10967881Y4892881D01*
X-10977335Y4885121D01*
X-10988125Y4879354D01*
X-10999830Y4875803D01*
X-11018138Y4874000D01*
X-11381862Y4874000D01*
X-11400170Y4875803D01*
X-11411875Y4879354D01*
X-11422665Y4885121D01*
X-11432119Y4892881D01*
X-11439879Y4902335D01*
X-11445646Y4913125D01*
X-11449197Y4924830D01*
X-11451000Y4943138D01*
X-11451000Y6406862D01*
X-11449197Y6425170D01*
X-11445646Y6436875D01*
X-11439879Y6447665D01*
X-11432119Y6457119D01*
X-11422665Y6464879D01*
X-11411875Y6470646D01*
X-11400170Y6474197D01*
X-11381862Y6476000D01*
X-11018138Y6476000D01*
X-10999830Y6474197D01*
G37*
G36*
X-11799830Y6474197D02*
G01*
X-11788125Y6470646D01*
X-11777335Y6464879D01*
X-11767881Y6457119D01*
X-11760121Y6447665D01*
X-11754354Y6436875D01*
X-11750803Y6425170D01*
X-11749000Y6406862D01*
X-11749000Y4943138D01*
X-11750803Y4924830D01*
X-11754354Y4913125D01*
X-11760121Y4902335D01*
X-11767881Y4892881D01*
X-11777335Y4885121D01*
X-11788125Y4879354D01*
X-11799830Y4875803D01*
X-11818138Y4874000D01*
X-12181862Y4874000D01*
X-12200170Y4875803D01*
X-12211875Y4879354D01*
X-12222665Y4885121D01*
X-12232119Y4892881D01*
X-12239879Y4902335D01*
X-12245646Y4913125D01*
X-12249197Y4924830D01*
X-12251000Y4943138D01*
X-12251000Y6406862D01*
X-12249197Y6425170D01*
X-12245646Y6436875D01*
X-12239879Y6447665D01*
X-12232119Y6457119D01*
X-12222665Y6464879D01*
X-12211875Y6470646D01*
X-12200170Y6474197D01*
X-12181862Y6476000D01*
X-11818138Y6476000D01*
X-11799830Y6474197D01*
G37*
G36*
X-12599830Y6474197D02*
G01*
X-12588125Y6470646D01*
X-12577335Y6464879D01*
X-12567881Y6457119D01*
X-12560121Y6447665D01*
X-12554354Y6436875D01*
X-12550803Y6425170D01*
X-12549000Y6406862D01*
X-12549000Y4943138D01*
X-12550803Y4924830D01*
X-12554354Y4913125D01*
X-12560121Y4902335D01*
X-12567881Y4892881D01*
X-12577335Y4885121D01*
X-12588125Y4879354D01*
X-12599830Y4875803D01*
X-12618138Y4874000D01*
X-12981862Y4874000D01*
X-13000170Y4875803D01*
X-13011875Y4879354D01*
X-13022665Y4885121D01*
X-13032119Y4892881D01*
X-13039879Y4902335D01*
X-13045646Y4913125D01*
X-13049197Y4924830D01*
X-13051000Y4943138D01*
X-13051000Y6406862D01*
X-13049197Y6425170D01*
X-13045646Y6436875D01*
X-13039879Y6447665D01*
X-13032119Y6457119D01*
X-13022665Y6464879D01*
X-13011875Y6470646D01*
X-13000170Y6474197D01*
X-12981862Y6476000D01*
X-12618138Y6476000D01*
X-12599830Y6474197D01*
G37*
G36*
X-13399830Y6474197D02*
G01*
X-13388125Y6470646D01*
X-13377335Y6464879D01*
X-13367881Y6457119D01*
X-13360121Y6447665D01*
X-13354354Y6436875D01*
X-13350803Y6425170D01*
X-13349000Y6406862D01*
X-13349000Y4943138D01*
X-13350803Y4924830D01*
X-13354354Y4913125D01*
X-13360121Y4902335D01*
X-13367881Y4892881D01*
X-13377335Y4885121D01*
X-13388125Y4879354D01*
X-13399830Y4875803D01*
X-13418138Y4874000D01*
X-13781862Y4874000D01*
X-13800170Y4875803D01*
X-13811875Y4879354D01*
X-13822665Y4885121D01*
X-13832119Y4892881D01*
X-13839879Y4902335D01*
X-13845646Y4913125D01*
X-13849197Y4924830D01*
X-13851000Y4943138D01*
X-13851000Y6406862D01*
X-13849197Y6425170D01*
X-13845646Y6436875D01*
X-13839879Y6447665D01*
X-13832119Y6457119D01*
X-13822665Y6464879D01*
X-13811875Y6470646D01*
X-13800170Y6474197D01*
X-13781862Y6476000D01*
X-13418138Y6476000D01*
X-13399830Y6474197D01*
G37*
G36*
X-14199830Y6474197D02*
G01*
X-14188125Y6470646D01*
X-14177335Y6464879D01*
X-14167881Y6457119D01*
X-14160121Y6447665D01*
X-14154354Y6436875D01*
X-14150803Y6425170D01*
X-14149000Y6406862D01*
X-14149000Y4943138D01*
X-14150803Y4924830D01*
X-14154354Y4913125D01*
X-14160121Y4902335D01*
X-14167881Y4892881D01*
X-14177335Y4885121D01*
X-14188125Y4879354D01*
X-14199830Y4875803D01*
X-14218138Y4874000D01*
X-14581862Y4874000D01*
X-14600170Y4875803D01*
X-14611875Y4879354D01*
X-14622665Y4885121D01*
X-14632119Y4892881D01*
X-14639879Y4902335D01*
X-14645646Y4913125D01*
X-14649197Y4924830D01*
X-14651000Y4943138D01*
X-14651000Y6406862D01*
X-14649197Y6425170D01*
X-14645646Y6436875D01*
X-14639879Y6447665D01*
X-14632119Y6457119D01*
X-14622665Y6464879D01*
X-14611875Y6470646D01*
X-14600170Y6474197D01*
X-14581862Y6476000D01*
X-14218138Y6476000D01*
X-14199830Y6474197D01*
G37*
G36*
X-16599830Y6474197D02*
G01*
X-16588125Y6470646D01*
X-16577335Y6464879D01*
X-16567881Y6457119D01*
X-16560121Y6447665D01*
X-16554354Y6436875D01*
X-16550803Y6425170D01*
X-16549000Y6406862D01*
X-16549000Y4943138D01*
X-16550803Y4924830D01*
X-16554354Y4913125D01*
X-16560121Y4902335D01*
X-16567881Y4892881D01*
X-16577335Y4885121D01*
X-16588125Y4879354D01*
X-16599830Y4875803D01*
X-16618138Y4874000D01*
X-16981862Y4874000D01*
X-17000170Y4875803D01*
X-17011875Y4879354D01*
X-17022665Y4885121D01*
X-17032119Y4892881D01*
X-17039879Y4902335D01*
X-17045646Y4913125D01*
X-17049197Y4924830D01*
X-17051000Y4943138D01*
X-17051000Y6406862D01*
X-17049197Y6425170D01*
X-17045646Y6436875D01*
X-17039879Y6447665D01*
X-17032119Y6457119D01*
X-17022665Y6464879D01*
X-17011875Y6470646D01*
X-17000170Y6474197D01*
X-16981862Y6476000D01*
X-16618138Y6476000D01*
X-16599830Y6474197D01*
G37*
G36*
X-14999830Y6474197D02*
G01*
X-14988125Y6470646D01*
X-14977335Y6464879D01*
X-14967881Y6457119D01*
X-14960121Y6447665D01*
X-14954354Y6436875D01*
X-14950803Y6425170D01*
X-14949000Y6406862D01*
X-14949000Y4943138D01*
X-14950803Y4924830D01*
X-14954354Y4913125D01*
X-14960121Y4902335D01*
X-14967881Y4892881D01*
X-14977335Y4885121D01*
X-14988125Y4879354D01*
X-14999830Y4875803D01*
X-15018138Y4874000D01*
X-15381862Y4874000D01*
X-15400170Y4875803D01*
X-15411875Y4879354D01*
X-15422665Y4885121D01*
X-15432119Y4892881D01*
X-15439879Y4902335D01*
X-15445646Y4913125D01*
X-15449197Y4924830D01*
X-15451000Y4943138D01*
X-15451000Y6406862D01*
X-15449197Y6425170D01*
X-15445646Y6436875D01*
X-15439879Y6447665D01*
X-15432119Y6457119D01*
X-15422665Y6464879D01*
X-15411875Y6470646D01*
X-15400170Y6474197D01*
X-15381862Y6476000D01*
X-15018138Y6476000D01*
X-14999830Y6474197D01*
G37*
G36*
X-9435501Y8696555D02*
G01*
X-9398005Y8685180D01*
X-9363446Y8666708D01*
X-9333153Y8641847D01*
X-9308292Y8611554D01*
X-9289820Y8576995D01*
X-9278445Y8539499D01*
X-9274000Y8494362D01*
X-9274000Y7755638D01*
X-9278445Y7710501D01*
X-9289820Y7673005D01*
X-9308292Y7638446D01*
X-9333153Y7608153D01*
X-9363446Y7583292D01*
X-9398005Y7564820D01*
X-9435501Y7553445D01*
X-9480638Y7549000D01*
X-10119362Y7549000D01*
X-10164499Y7553445D01*
X-10201995Y7564820D01*
X-10236554Y7583292D01*
X-10266847Y7608153D01*
X-10291708Y7638446D01*
X-10310180Y7673005D01*
X-10321555Y7710501D01*
X-10326000Y7755638D01*
X-10326000Y8494362D01*
X-10321555Y8539499D01*
X-10310180Y8576995D01*
X-10291708Y8611554D01*
X-10266847Y8641847D01*
X-10236554Y8666708D01*
X-10201995Y8685180D01*
X-10164499Y8696555D01*
X-10119362Y8701000D01*
X-9480638Y8701000D01*
X-9435501Y8696555D01*
G37*
G36*
X-10935501Y8696555D02*
G01*
X-10898005Y8685180D01*
X-10863446Y8666708D01*
X-10833153Y8641847D01*
X-10808292Y8611554D01*
X-10789820Y8576995D01*
X-10778445Y8539499D01*
X-10774000Y8494362D01*
X-10774000Y7755638D01*
X-10778445Y7710501D01*
X-10789820Y7673005D01*
X-10808292Y7638446D01*
X-10833153Y7608153D01*
X-10863446Y7583292D01*
X-10898005Y7564820D01*
X-10935501Y7553445D01*
X-10980638Y7549000D01*
X-11619362Y7549000D01*
X-11664499Y7553445D01*
X-11701995Y7564820D01*
X-11736554Y7583292D01*
X-11766847Y7608153D01*
X-11791708Y7638446D01*
X-11810180Y7673005D01*
X-11821555Y7710501D01*
X-11826000Y7755638D01*
X-11826000Y8494362D01*
X-11821555Y8539499D01*
X-11810180Y8576995D01*
X-11791708Y8611554D01*
X-11766847Y8641847D01*
X-11736554Y8666708D01*
X-11701995Y8685180D01*
X-11664499Y8696555D01*
X-11619362Y8701000D01*
X-10980638Y8701000D01*
X-10935501Y8696555D01*
G37*
G36*
X-31775451Y11128884D02*
G01*
X-31664266Y11106768D01*
X-31529630Y11051000D01*
X-31458543Y11021555D01*
X-31454797Y11020003D01*
X-31266280Y10894040D01*
X-31105960Y10733720D01*
X-30986055Y10554269D01*
X-30979996Y10545201D01*
X-30979610Y10544268D01*
X-30893232Y10335734D01*
X-30849000Y10113364D01*
X-30849000Y9886636D01*
X-30893232Y9664266D01*
X-30979997Y9454797D01*
X-31105960Y9266280D01*
X-31266280Y9105960D01*
X-31454797Y8979997D01*
X-31664266Y8893232D01*
X-31775451Y8871116D01*
X-31886635Y8849000D01*
X-32113365Y8849000D01*
X-32224549Y8871116D01*
X-32335734Y8893232D01*
X-32545203Y8979997D01*
X-32733720Y9105960D01*
X-32894040Y9266280D01*
X-33020003Y9454797D01*
X-33106768Y9664266D01*
X-33151000Y9886636D01*
X-33151000Y10113364D01*
X-33106768Y10335734D01*
X-33020390Y10544268D01*
X-33020004Y10545201D01*
X-33013945Y10554269D01*
X-32894040Y10733720D01*
X-32733720Y10894040D01*
X-32545203Y11020003D01*
X-32541456Y11021555D01*
X-32470370Y11051000D01*
X-32335734Y11106768D01*
X-32224549Y11128884D01*
X-32113365Y11151000D01*
X-31886635Y11151000D01*
X-31775451Y11128884D01*
G37*
G36*
X32224549Y11128884D02*
G01*
X32335734Y11106768D01*
X32470370Y11051000D01*
X32541457Y11021555D01*
X32545203Y11020003D01*
X32733720Y10894040D01*
X32894040Y10733720D01*
X33013945Y10554269D01*
X33020004Y10545201D01*
X33020390Y10544268D01*
X33106768Y10335734D01*
X33151000Y10113364D01*
X33151000Y9886636D01*
X33106768Y9664266D01*
X33020003Y9454797D01*
X32894040Y9266280D01*
X32733720Y9105960D01*
X32545203Y8979997D01*
X32335734Y8893232D01*
X32224549Y8871116D01*
X32113365Y8849000D01*
X31886635Y8849000D01*
X31775451Y8871116D01*
X31664266Y8893232D01*
X31454797Y8979997D01*
X31266280Y9105960D01*
X31105960Y9266280D01*
X30979997Y9454797D01*
X30893232Y9664266D01*
X30849000Y9886636D01*
X30849000Y10113364D01*
X30893232Y10335734D01*
X30979610Y10544268D01*
X30979996Y10545201D01*
X30986055Y10554269D01*
X31105960Y10733720D01*
X31266280Y10894040D01*
X31454797Y11020003D01*
X31458544Y11021555D01*
X31529630Y11051000D01*
X31664266Y11106768D01*
X31775451Y11128884D01*
X31886635Y11151000D01*
X32113365Y11151000D01*
X32224549Y11128884D01*
G37*
G36*
X-10935501Y10446555D02*
G01*
X-10898005Y10435180D01*
X-10863446Y10416708D01*
X-10833153Y10391847D01*
X-10808292Y10361554D01*
X-10789820Y10326995D01*
X-10778445Y10289499D01*
X-10774000Y10244362D01*
X-10774000Y9505638D01*
X-10778445Y9460501D01*
X-10789820Y9423005D01*
X-10808292Y9388446D01*
X-10833153Y9358153D01*
X-10863446Y9333292D01*
X-10898005Y9314820D01*
X-10935501Y9303445D01*
X-10980638Y9299000D01*
X-11619362Y9299000D01*
X-11664499Y9303445D01*
X-11701995Y9314820D01*
X-11736554Y9333292D01*
X-11766847Y9358153D01*
X-11791708Y9388446D01*
X-11810180Y9423005D01*
X-11821555Y9460501D01*
X-11826000Y9505638D01*
X-11826000Y10244362D01*
X-11821555Y10289499D01*
X-11810180Y10326995D01*
X-11791708Y10361554D01*
X-11766847Y10391847D01*
X-11736554Y10416708D01*
X-11701995Y10435180D01*
X-11664499Y10446555D01*
X-11619362Y10451000D01*
X-10980638Y10451000D01*
X-10935501Y10446555D01*
G37*
G36*
X-9435501Y10446555D02*
G01*
X-9398005Y10435180D01*
X-9363446Y10416708D01*
X-9333153Y10391847D01*
X-9308292Y10361554D01*
X-9289820Y10326995D01*
X-9278445Y10289499D01*
X-9274000Y10244362D01*
X-9274000Y9505638D01*
X-9278445Y9460501D01*
X-9289820Y9423005D01*
X-9308292Y9388446D01*
X-9333153Y9358153D01*
X-9363446Y9333292D01*
X-9398005Y9314820D01*
X-9435501Y9303445D01*
X-9480638Y9299000D01*
X-10119362Y9299000D01*
X-10164499Y9303445D01*
X-10201995Y9314820D01*
X-10236554Y9333292D01*
X-10266847Y9358153D01*
X-10291708Y9388446D01*
X-10310180Y9423005D01*
X-10321555Y9460501D01*
X-10326000Y9505638D01*
X-10326000Y10244362D01*
X-10321555Y10289499D01*
X-10310180Y10326995D01*
X-10291708Y10361554D01*
X-10266847Y10391847D01*
X-10236554Y10416708D01*
X-10201995Y10435180D01*
X-10164499Y10446555D01*
X-10119362Y10451000D01*
X-9480638Y10451000D01*
X-9435501Y10446555D01*
G37*
G36*
X-27379279Y11029826D02*
G01*
X-27279005Y10988291D01*
X-27257569Y10973968D01*
X-27188758Y10927990D01*
X-27112010Y10851242D01*
X-27112009Y10851240D01*
X-27051709Y10760995D01*
X-27020484Y10685611D01*
X-27008933Y10664000D01*
X-26993388Y10645059D01*
X-26974446Y10629513D01*
X-26952835Y10617962D01*
X-26929386Y10610849D01*
X-26905000Y10608447D01*
X-26880614Y10610849D01*
X-26857165Y10617962D01*
X-26835554Y10629513D01*
X-26816613Y10645058D01*
X-26801067Y10664000D01*
X-26789516Y10685611D01*
X-26758291Y10760995D01*
X-26697991Y10851240D01*
X-26697990Y10851242D01*
X-26621242Y10927990D01*
X-26552431Y10973968D01*
X-26530995Y10988291D01*
X-26430721Y11029826D01*
X-26324270Y11051000D01*
X-26215730Y11051000D01*
X-26109279Y11029826D01*
X-26009005Y10988291D01*
X-25987569Y10973968D01*
X-25918758Y10927990D01*
X-25842010Y10851242D01*
X-25842009Y10851240D01*
X-25781709Y10760995D01*
X-25750484Y10685611D01*
X-25738933Y10664000D01*
X-25723388Y10645059D01*
X-25704446Y10629513D01*
X-25682835Y10617962D01*
X-25659386Y10610849D01*
X-25635000Y10608447D01*
X-25610614Y10610849D01*
X-25587165Y10617962D01*
X-25565554Y10629513D01*
X-25546613Y10645058D01*
X-25531067Y10664000D01*
X-25519516Y10685611D01*
X-25488291Y10760995D01*
X-25427991Y10851240D01*
X-25427990Y10851242D01*
X-25351242Y10927990D01*
X-25282431Y10973968D01*
X-25260995Y10988291D01*
X-25160721Y11029826D01*
X-25054270Y11051000D01*
X-24945730Y11051000D01*
X-24839279Y11029826D01*
X-24739005Y10988291D01*
X-24717569Y10973968D01*
X-24648758Y10927990D01*
X-24572010Y10851242D01*
X-24572009Y10851240D01*
X-24511709Y10760995D01*
X-24480484Y10685611D01*
X-24468933Y10664000D01*
X-24453388Y10645059D01*
X-24434446Y10629513D01*
X-24412835Y10617962D01*
X-24389386Y10610849D01*
X-24365000Y10608447D01*
X-24340614Y10610849D01*
X-24317165Y10617962D01*
X-24295554Y10629513D01*
X-24276613Y10645058D01*
X-24261067Y10664000D01*
X-24249516Y10685611D01*
X-24218291Y10760995D01*
X-24157991Y10851240D01*
X-24157990Y10851242D01*
X-24081242Y10927990D01*
X-24012431Y10973968D01*
X-23990995Y10988291D01*
X-23890721Y11029826D01*
X-23784270Y11051000D01*
X-23675730Y11051000D01*
X-23569279Y11029826D01*
X-23469005Y10988291D01*
X-23447569Y10973968D01*
X-23378758Y10927990D01*
X-23302010Y10851242D01*
X-23302009Y10851240D01*
X-23239932Y10758336D01*
X-23224386Y10739394D01*
X-23205444Y10723849D01*
X-23183833Y10712298D01*
X-23160385Y10705185D01*
X-23135998Y10702783D01*
X-23111612Y10705185D01*
X-23088163Y10712298D01*
X-23066553Y10723849D01*
X-23047611Y10739395D01*
X-23032066Y10758337D01*
X-23020515Y10779948D01*
X-23013402Y10803396D01*
X-23011000Y10827782D01*
X-23011000Y11051000D01*
X-21909000Y11051000D01*
X-21909000Y9949000D01*
X-23011000Y9949000D01*
X-23011000Y10172218D01*
X-23013402Y10196604D01*
X-23020515Y10220053D01*
X-23032066Y10241664D01*
X-23047611Y10260606D01*
X-23066553Y10276151D01*
X-23088164Y10287702D01*
X-23111613Y10294815D01*
X-23135999Y10297217D01*
X-23160385Y10294815D01*
X-23183834Y10287702D01*
X-23205445Y10276151D01*
X-23224387Y10260606D01*
X-23239932Y10241664D01*
X-23277332Y10185691D01*
X-23302010Y10148758D01*
X-23378758Y10072010D01*
X-23391575Y10063446D01*
X-23469005Y10011709D01*
X-23569279Y9970174D01*
X-23675730Y9949000D01*
X-23784270Y9949000D01*
X-23890721Y9970174D01*
X-23990995Y10011709D01*
X-24068425Y10063446D01*
X-24081242Y10072010D01*
X-24157990Y10148758D01*
X-24189959Y10196604D01*
X-24218291Y10239005D01*
X-24249516Y10314389D01*
X-24261067Y10336000D01*
X-24276612Y10354941D01*
X-24295554Y10370487D01*
X-24317165Y10382038D01*
X-24340614Y10389151D01*
X-24365000Y10391553D01*
X-24389386Y10389151D01*
X-24412835Y10382038D01*
X-24434446Y10370487D01*
X-24453387Y10354942D01*
X-24468933Y10336000D01*
X-24480484Y10314389D01*
X-24511709Y10239005D01*
X-24540041Y10196604D01*
X-24572010Y10148758D01*
X-24648758Y10072010D01*
X-24661575Y10063446D01*
X-24739005Y10011709D01*
X-24839279Y9970174D01*
X-24945730Y9949000D01*
X-25054270Y9949000D01*
X-25160721Y9970174D01*
X-25260995Y10011709D01*
X-25338425Y10063446D01*
X-25351242Y10072010D01*
X-25427990Y10148758D01*
X-25459959Y10196604D01*
X-25488291Y10239005D01*
X-25519516Y10314389D01*
X-25531067Y10336000D01*
X-25546612Y10354941D01*
X-25565554Y10370487D01*
X-25587165Y10382038D01*
X-25610614Y10389151D01*
X-25635000Y10391553D01*
X-25659386Y10389151D01*
X-25682835Y10382038D01*
X-25704446Y10370487D01*
X-25723387Y10354942D01*
X-25738933Y10336000D01*
X-25750484Y10314389D01*
X-25781709Y10239005D01*
X-25810041Y10196604D01*
X-25842010Y10148758D01*
X-25918758Y10072010D01*
X-25931575Y10063446D01*
X-26009005Y10011709D01*
X-26109279Y9970174D01*
X-26215730Y9949000D01*
X-26324270Y9949000D01*
X-26430721Y9970174D01*
X-26530995Y10011709D01*
X-26608425Y10063446D01*
X-26621242Y10072010D01*
X-26697990Y10148758D01*
X-26729959Y10196604D01*
X-26758291Y10239005D01*
X-26789516Y10314389D01*
X-26801067Y10336000D01*
X-26816612Y10354941D01*
X-26835554Y10370487D01*
X-26857165Y10382038D01*
X-26880614Y10389151D01*
X-26905000Y10391553D01*
X-26929386Y10389151D01*
X-26952835Y10382038D01*
X-26974446Y10370487D01*
X-26993387Y10354942D01*
X-27008933Y10336000D01*
X-27020484Y10314389D01*
X-27051709Y10239005D01*
X-27080041Y10196604D01*
X-27112010Y10148758D01*
X-27188758Y10072010D01*
X-27201575Y10063446D01*
X-27279005Y10011709D01*
X-27379279Y9970174D01*
X-27485730Y9949000D01*
X-27594270Y9949000D01*
X-27700721Y9970174D01*
X-27800995Y10011709D01*
X-27878425Y10063446D01*
X-27891242Y10072010D01*
X-27967990Y10148758D01*
X-27999959Y10196604D01*
X-28028291Y10239005D01*
X-28069826Y10339279D01*
X-28091000Y10445730D01*
X-28091000Y10554270D01*
X-28069826Y10660721D01*
X-28028291Y10760995D01*
X-27967991Y10851240D01*
X-27967990Y10851242D01*
X-27891242Y10927990D01*
X-27822431Y10973968D01*
X-27800995Y10988291D01*
X-27700721Y11029826D01*
X-27594270Y11051000D01*
X-27485730Y11051000D01*
X-27379279Y11029826D01*
G37*
G36*
X1289499Y11021555D02*
G01*
X1326995Y11010180D01*
X1361554Y10991708D01*
X1391847Y10966847D01*
X1416708Y10936554D01*
X1435180Y10901995D01*
X1446555Y10864499D01*
X1451000Y10819362D01*
X1451000Y10180638D01*
X1446555Y10135501D01*
X1435180Y10098005D01*
X1416708Y10063446D01*
X1391847Y10033153D01*
X1361554Y10008292D01*
X1326995Y9989820D01*
X1289499Y9978445D01*
X1244362Y9974000D01*
X505638Y9974000D01*
X460501Y9978445D01*
X423005Y9989820D01*
X388446Y10008292D01*
X358153Y10033153D01*
X333292Y10063446D01*
X314820Y10098005D01*
X303445Y10135501D01*
X299000Y10180638D01*
X299000Y10819362D01*
X303445Y10864499D01*
X314820Y10901995D01*
X333292Y10936554D01*
X358153Y10966847D01*
X388446Y10991708D01*
X423005Y11010180D01*
X460501Y11021555D01*
X505638Y11026000D01*
X1244362Y11026000D01*
X1289499Y11021555D01*
G37*
G36*
X-460501Y11021555D02*
G01*
X-423005Y11010180D01*
X-388446Y10991708D01*
X-358153Y10966847D01*
X-333292Y10936554D01*
X-314820Y10901995D01*
X-303445Y10864499D01*
X-299000Y10819362D01*
X-299000Y10180638D01*
X-303445Y10135501D01*
X-314820Y10098005D01*
X-333292Y10063446D01*
X-358153Y10033153D01*
X-388446Y10008292D01*
X-423005Y9989820D01*
X-460501Y9978445D01*
X-505638Y9974000D01*
X-1244362Y9974000D01*
X-1289499Y9978445D01*
X-1326995Y9989820D01*
X-1361554Y10008292D01*
X-1391847Y10033153D01*
X-1416708Y10063446D01*
X-1435180Y10098005D01*
X-1446555Y10135501D01*
X-1451000Y10180638D01*
X-1451000Y10819362D01*
X-1446555Y10864499D01*
X-1435180Y10901995D01*
X-1416708Y10936554D01*
X-1391847Y10966847D01*
X-1361554Y10991708D01*
X-1326995Y11010180D01*
X-1289499Y11021555D01*
X-1244362Y11026000D01*
X-505638Y11026000D01*
X-460501Y11021555D01*
G37*
G36*
X7269059Y11622140D02*
G01*
X7405732Y11565528D01*
X7528735Y11483340D01*
X7633340Y11378735D01*
X7633341Y11378733D01*
X7715529Y11255730D01*
X7772140Y11119059D01*
X7801000Y10973968D01*
X7801000Y10826032D01*
X7772140Y10680941D01*
X7715915Y10545201D01*
X7715528Y10544268D01*
X7633340Y10421265D01*
X7528735Y10316660D01*
X7405732Y10234472D01*
X7405731Y10234471D01*
X7405730Y10234471D01*
X7269059Y10177860D01*
X7123968Y10149000D01*
X6976032Y10149000D01*
X6830941Y10177860D01*
X6694270Y10234471D01*
X6694269Y10234471D01*
X6694268Y10234472D01*
X6571265Y10316660D01*
X6466660Y10421265D01*
X6384472Y10544268D01*
X6384086Y10545201D01*
X6327860Y10680941D01*
X6299000Y10826032D01*
X6299000Y10973968D01*
X6327860Y11119059D01*
X6384471Y11255730D01*
X6466659Y11378733D01*
X6466660Y11378735D01*
X6571265Y11483340D01*
X6694268Y11565528D01*
X6830941Y11622140D01*
X6976032Y11651000D01*
X7123968Y11651000D01*
X7269059Y11622140D01*
G37*
M02*
