G04 #@! TF.GenerationSoftware,KiCad,Pcbnew,(5.1.5-0-10_14)*
G04 #@! TF.CreationDate,2021-02-01T23:02:05+09:00*
G04 #@! TF.ProjectId,StickMouse,53746963-6b4d-46f7-9573-652e6b696361,V1.0*
G04 #@! TF.SameCoordinates,Original*
G04 #@! TF.FileFunction,Soldermask,Top*
G04 #@! TF.FilePolarity,Negative*
%FSLAX46Y46*%
G04 Gerber Fmt 4.6, Leading zero omitted, Abs format (unit mm)*
G04 Created by KiCad (PCBNEW (5.1.5-0-10_14)) date 2021-02-01 23:02:05*
%MOMM*%
%LPD*%
G04 APERTURE LIST*
%ADD10C,0.100000*%
G04 APERTURE END LIST*
D10*
G36*
X32224549Y-5871116D02*
G01*
X32335734Y-5893232D01*
X32545203Y-5979997D01*
X32733720Y-6105960D01*
X32894040Y-6266280D01*
X33020003Y-6454797D01*
X33106768Y-6664266D01*
X33151000Y-6886636D01*
X33151000Y-7113364D01*
X33106768Y-7335734D01*
X33020003Y-7545203D01*
X32894040Y-7733720D01*
X32733720Y-7894040D01*
X32545203Y-8020003D01*
X32335734Y-8106768D01*
X32224549Y-8128884D01*
X32113365Y-8151000D01*
X31886635Y-8151000D01*
X31775451Y-8128884D01*
X31664266Y-8106768D01*
X31454797Y-8020003D01*
X31266280Y-7894040D01*
X31105960Y-7733720D01*
X30979997Y-7545203D01*
X30893232Y-7335734D01*
X30849000Y-7113364D01*
X30849000Y-6886636D01*
X30893232Y-6664266D01*
X30979997Y-6454797D01*
X31105960Y-6266280D01*
X31266280Y-6105960D01*
X31454797Y-5979997D01*
X31664266Y-5893232D01*
X31775451Y-5871116D01*
X31886635Y-5849000D01*
X32113365Y-5849000D01*
X32224549Y-5871116D01*
G37*
G36*
X-31775451Y-5871116D02*
G01*
X-31664266Y-5893232D01*
X-31454797Y-5979997D01*
X-31266280Y-6105960D01*
X-31105960Y-6266280D01*
X-30979997Y-6454797D01*
X-30893232Y-6664266D01*
X-30849000Y-6886636D01*
X-30849000Y-7113364D01*
X-30893232Y-7335734D01*
X-30979997Y-7545203D01*
X-31105960Y-7733720D01*
X-31266280Y-7894040D01*
X-31454797Y-8020003D01*
X-31664266Y-8106768D01*
X-31775451Y-8128884D01*
X-31886635Y-8151000D01*
X-32113365Y-8151000D01*
X-32224549Y-8128884D01*
X-32335734Y-8106768D01*
X-32545203Y-8020003D01*
X-32733720Y-7894040D01*
X-32894040Y-7733720D01*
X-33020003Y-7545203D01*
X-33106768Y-7335734D01*
X-33151000Y-7113364D01*
X-33151000Y-6886636D01*
X-33106768Y-6664266D01*
X-33020003Y-6454797D01*
X-32894040Y-6266280D01*
X-32733720Y-6105960D01*
X-32545203Y-5979997D01*
X-32335734Y-5893232D01*
X-32224549Y-5871116D01*
X-32113365Y-5849000D01*
X-31886635Y-5849000D01*
X-31775451Y-5871116D01*
G37*
G36*
X-27294961Y-4817825D02*
G01*
X-27049721Y-4892218D01*
X-26823707Y-5013025D01*
X-26625604Y-5175604D01*
X-26463025Y-5373706D01*
X-26342218Y-5599720D01*
X-26267825Y-5844960D01*
X-26249000Y-6036095D01*
X-26249000Y-6663904D01*
X-26267825Y-6855039D01*
X-26342218Y-7100279D01*
X-26463025Y-7326294D01*
X-26505376Y-7377899D01*
X-26625603Y-7524397D01*
X-26772101Y-7644624D01*
X-26823706Y-7686975D01*
X-27049720Y-7807782D01*
X-27294960Y-7882175D01*
X-27550000Y-7907294D01*
X-27805039Y-7882175D01*
X-28050279Y-7807782D01*
X-28276293Y-7686975D01*
X-28402572Y-7583340D01*
X-28474396Y-7524396D01*
X-28636976Y-7326293D01*
X-28757781Y-7100282D01*
X-28765763Y-7073968D01*
X-28832175Y-6855040D01*
X-28850964Y-6664267D01*
X-28851000Y-6663906D01*
X-28851000Y-6036095D01*
X-28832175Y-5844962D01*
X-28832175Y-5844961D01*
X-28757782Y-5599721D01*
X-28636975Y-5373707D01*
X-28474396Y-5175604D01*
X-28276294Y-5013025D01*
X-28276295Y-5013025D01*
X-28276293Y-5013024D01*
X-28050282Y-4892219D01*
X-28050280Y-4892218D01*
X-27805040Y-4817825D01*
X-27550000Y-4792706D01*
X-27294961Y-4817825D01*
G37*
G36*
X-22294961Y-4817825D02*
G01*
X-22049721Y-4892218D01*
X-21823707Y-5013025D01*
X-21625604Y-5175604D01*
X-21463025Y-5373706D01*
X-21342218Y-5599720D01*
X-21267825Y-5844960D01*
X-21249000Y-6036095D01*
X-21249000Y-6663904D01*
X-21267825Y-6855039D01*
X-21342218Y-7100279D01*
X-21463025Y-7326294D01*
X-21505376Y-7377899D01*
X-21625603Y-7524397D01*
X-21772101Y-7644624D01*
X-21823706Y-7686975D01*
X-22049720Y-7807782D01*
X-22294960Y-7882175D01*
X-22550000Y-7907294D01*
X-22805039Y-7882175D01*
X-23050279Y-7807782D01*
X-23276293Y-7686975D01*
X-23402572Y-7583340D01*
X-23474396Y-7524396D01*
X-23636976Y-7326293D01*
X-23757781Y-7100282D01*
X-23765763Y-7073968D01*
X-23832175Y-6855040D01*
X-23850964Y-6664267D01*
X-23851000Y-6663906D01*
X-23851000Y-6036095D01*
X-23832175Y-5844962D01*
X-23832175Y-5844961D01*
X-23757782Y-5599721D01*
X-23636975Y-5373707D01*
X-23474396Y-5175604D01*
X-23276294Y-5013025D01*
X-23276295Y-5013025D01*
X-23276293Y-5013024D01*
X-23050282Y-4892219D01*
X-23050280Y-4892218D01*
X-22805040Y-4817825D01*
X-22550000Y-4792706D01*
X-22294961Y-4817825D01*
G37*
G36*
X22705039Y-4817825D02*
G01*
X22950279Y-4892218D01*
X23176293Y-5013025D01*
X23374396Y-5175604D01*
X23536975Y-5373706D01*
X23657782Y-5599720D01*
X23732175Y-5844960D01*
X23751000Y-6036095D01*
X23751000Y-6663904D01*
X23732175Y-6855039D01*
X23657782Y-7100279D01*
X23536975Y-7326294D01*
X23494624Y-7377899D01*
X23374397Y-7524397D01*
X23227899Y-7644624D01*
X23176294Y-7686975D01*
X22950280Y-7807782D01*
X22705040Y-7882175D01*
X22450000Y-7907294D01*
X22194961Y-7882175D01*
X21949721Y-7807782D01*
X21723707Y-7686975D01*
X21597428Y-7583340D01*
X21525604Y-7524396D01*
X21363024Y-7326293D01*
X21242219Y-7100282D01*
X21234237Y-7073968D01*
X21167825Y-6855040D01*
X21149036Y-6664267D01*
X21149000Y-6663906D01*
X21149000Y-6036095D01*
X21167825Y-5844962D01*
X21167825Y-5844961D01*
X21242218Y-5599721D01*
X21363025Y-5373707D01*
X21525604Y-5175604D01*
X21723706Y-5013025D01*
X21723705Y-5013025D01*
X21723707Y-5013024D01*
X21949718Y-4892219D01*
X21949720Y-4892218D01*
X22194960Y-4817825D01*
X22450000Y-4792706D01*
X22705039Y-4817825D01*
G37*
G36*
X27705039Y-4817825D02*
G01*
X27950279Y-4892218D01*
X28176293Y-5013025D01*
X28374396Y-5175604D01*
X28536975Y-5373706D01*
X28657782Y-5599720D01*
X28732175Y-5844960D01*
X28751000Y-6036095D01*
X28751000Y-6663904D01*
X28732175Y-6855039D01*
X28657782Y-7100279D01*
X28536975Y-7326294D01*
X28494624Y-7377899D01*
X28374397Y-7524397D01*
X28227899Y-7644624D01*
X28176294Y-7686975D01*
X27950280Y-7807782D01*
X27705040Y-7882175D01*
X27450000Y-7907294D01*
X27194961Y-7882175D01*
X26949721Y-7807782D01*
X26723707Y-7686975D01*
X26597428Y-7583340D01*
X26525604Y-7524396D01*
X26363024Y-7326293D01*
X26242219Y-7100282D01*
X26234237Y-7073968D01*
X26167825Y-6855040D01*
X26149036Y-6664267D01*
X26149000Y-6663906D01*
X26149000Y-6036095D01*
X26167825Y-5844962D01*
X26167825Y-5844961D01*
X26242218Y-5599721D01*
X26363025Y-5373707D01*
X26525604Y-5175604D01*
X26723706Y-5013025D01*
X26723705Y-5013025D01*
X26723707Y-5013024D01*
X26949718Y-4892219D01*
X26949720Y-4892218D01*
X27194960Y-4817825D01*
X27450000Y-4792706D01*
X27705039Y-4817825D01*
G37*
G36*
X-9230941Y-6277860D02*
G01*
X-9094268Y-6334472D01*
X-8971265Y-6416660D01*
X-8866660Y-6521265D01*
X-8866659Y-6521267D01*
X-8784471Y-6644270D01*
X-8727860Y-6780941D01*
X-8699000Y-6926032D01*
X-8699000Y-7073968D01*
X-8727860Y-7219059D01*
X-8776188Y-7335734D01*
X-8784472Y-7355732D01*
X-8866660Y-7478735D01*
X-8971265Y-7583340D01*
X-9094268Y-7665528D01*
X-9094269Y-7665529D01*
X-9094270Y-7665529D01*
X-9230941Y-7722140D01*
X-9376032Y-7751000D01*
X-9523968Y-7751000D01*
X-9669059Y-7722140D01*
X-9805730Y-7665529D01*
X-9805731Y-7665529D01*
X-9805732Y-7665528D01*
X-9928735Y-7583340D01*
X-10033340Y-7478735D01*
X-10115528Y-7355732D01*
X-10123811Y-7335734D01*
X-10172140Y-7219059D01*
X-10201000Y-7073968D01*
X-10201000Y-6926032D01*
X-10172140Y-6780941D01*
X-10115529Y-6644270D01*
X-10033341Y-6521267D01*
X-10033340Y-6521265D01*
X-9928735Y-6416660D01*
X-9805732Y-6334472D01*
X-9669059Y-6277860D01*
X-9523968Y-6249000D01*
X-9376032Y-6249000D01*
X-9230941Y-6277860D01*
G37*
G36*
X-22294961Y7682175D02*
G01*
X-22049721Y7607782D01*
X-21823707Y7486975D01*
X-21625604Y7324396D01*
X-21463025Y7126294D01*
X-21342218Y6900280D01*
X-21267825Y6655040D01*
X-21249000Y6463905D01*
X-21249000Y5836096D01*
X-21267825Y5644961D01*
X-21342218Y5399721D01*
X-21463025Y5173706D01*
X-21505376Y5122101D01*
X-21625603Y4975603D01*
X-21772101Y4855376D01*
X-21823706Y4813025D01*
X-22049720Y4692218D01*
X-22294960Y4617825D01*
X-22550000Y4592706D01*
X-22805039Y4617825D01*
X-23050279Y4692218D01*
X-23276293Y4813025D01*
X-23363195Y4884344D01*
X-23474396Y4975604D01*
X-23636976Y5173707D01*
X-23757781Y5399718D01*
X-23832175Y5644961D01*
X-23851000Y5836094D01*
X-23851000Y6463905D01*
X-23832175Y6655038D01*
X-23832175Y6655039D01*
X-23757782Y6900279D01*
X-23636975Y7126293D01*
X-23474396Y7324396D01*
X-23276294Y7486975D01*
X-23276295Y7486975D01*
X-23276293Y7486976D01*
X-23050282Y7607781D01*
X-23050280Y7607782D01*
X-22805040Y7682175D01*
X-22550000Y7707294D01*
X-22294961Y7682175D01*
G37*
G36*
X-27294961Y7682175D02*
G01*
X-27049721Y7607782D01*
X-26823707Y7486975D01*
X-26625604Y7324396D01*
X-26463025Y7126294D01*
X-26342218Y6900280D01*
X-26267825Y6655040D01*
X-26249000Y6463905D01*
X-26249000Y5836096D01*
X-26267825Y5644961D01*
X-26342218Y5399721D01*
X-26463025Y5173706D01*
X-26505376Y5122101D01*
X-26625603Y4975603D01*
X-26772101Y4855376D01*
X-26823706Y4813025D01*
X-27049720Y4692218D01*
X-27294960Y4617825D01*
X-27550000Y4592706D01*
X-27805039Y4617825D01*
X-28050279Y4692218D01*
X-28276293Y4813025D01*
X-28363195Y4884344D01*
X-28474396Y4975604D01*
X-28636976Y5173707D01*
X-28757781Y5399718D01*
X-28832175Y5644961D01*
X-28851000Y5836094D01*
X-28851000Y6463905D01*
X-28832175Y6655038D01*
X-28832175Y6655039D01*
X-28757782Y6900279D01*
X-28636975Y7126293D01*
X-28474396Y7324396D01*
X-28276294Y7486975D01*
X-28276295Y7486975D01*
X-28276293Y7486976D01*
X-28050282Y7607781D01*
X-28050280Y7607782D01*
X-27805040Y7682175D01*
X-27550000Y7707294D01*
X-27294961Y7682175D01*
G37*
G36*
X27705039Y7682175D02*
G01*
X27950279Y7607782D01*
X28176293Y7486975D01*
X28374396Y7324396D01*
X28536975Y7126294D01*
X28657782Y6900280D01*
X28732175Y6655040D01*
X28751000Y6463905D01*
X28751000Y5836096D01*
X28732175Y5644961D01*
X28657782Y5399721D01*
X28536975Y5173706D01*
X28494624Y5122101D01*
X28374397Y4975603D01*
X28227899Y4855376D01*
X28176294Y4813025D01*
X27950280Y4692218D01*
X27705040Y4617825D01*
X27450000Y4592706D01*
X27194961Y4617825D01*
X26949721Y4692218D01*
X26723707Y4813025D01*
X26636805Y4884344D01*
X26525604Y4975604D01*
X26363024Y5173707D01*
X26242219Y5399718D01*
X26167825Y5644961D01*
X26149000Y5836094D01*
X26149000Y6463905D01*
X26167825Y6655038D01*
X26167825Y6655039D01*
X26242218Y6900279D01*
X26363025Y7126293D01*
X26525604Y7324396D01*
X26723706Y7486975D01*
X26723705Y7486975D01*
X26723707Y7486976D01*
X26949718Y7607781D01*
X26949720Y7607782D01*
X27194960Y7682175D01*
X27450000Y7707294D01*
X27705039Y7682175D01*
G37*
G36*
X22705039Y7682175D02*
G01*
X22950279Y7607782D01*
X23176293Y7486975D01*
X23374396Y7324396D01*
X23536975Y7126294D01*
X23657782Y6900280D01*
X23732175Y6655040D01*
X23751000Y6463905D01*
X23751000Y5836096D01*
X23732175Y5644961D01*
X23657782Y5399721D01*
X23536975Y5173706D01*
X23494624Y5122101D01*
X23374397Y4975603D01*
X23227899Y4855376D01*
X23176294Y4813025D01*
X22950280Y4692218D01*
X22705040Y4617825D01*
X22450000Y4592706D01*
X22194961Y4617825D01*
X21949721Y4692218D01*
X21723707Y4813025D01*
X21636805Y4884344D01*
X21525604Y4975604D01*
X21363024Y5173707D01*
X21242219Y5399718D01*
X21167825Y5644961D01*
X21149000Y5836094D01*
X21149000Y6463905D01*
X21167825Y6655038D01*
X21167825Y6655039D01*
X21242218Y6900279D01*
X21363025Y7126293D01*
X21525604Y7324396D01*
X21723706Y7486975D01*
X21723705Y7486975D01*
X21723707Y7486976D01*
X21949718Y7607781D01*
X21949720Y7607782D01*
X22194960Y7682175D01*
X22450000Y7707294D01*
X22705039Y7682175D01*
G37*
G36*
X32224549Y11128884D02*
G01*
X32335734Y11106768D01*
X32470370Y11051000D01*
X32541457Y11021555D01*
X32545203Y11020003D01*
X32733720Y10894040D01*
X32894040Y10733720D01*
X33013945Y10554269D01*
X33020004Y10545201D01*
X33020390Y10544268D01*
X33106768Y10335734D01*
X33151000Y10113364D01*
X33151000Y9886636D01*
X33106768Y9664266D01*
X33020003Y9454797D01*
X32894040Y9266280D01*
X32733720Y9105960D01*
X32545203Y8979997D01*
X32335734Y8893232D01*
X32224549Y8871116D01*
X32113365Y8849000D01*
X31886635Y8849000D01*
X31775451Y8871116D01*
X31664266Y8893232D01*
X31454797Y8979997D01*
X31266280Y9105960D01*
X31105960Y9266280D01*
X30979997Y9454797D01*
X30893232Y9664266D01*
X30849000Y9886636D01*
X30849000Y10113364D01*
X30893232Y10335734D01*
X30979610Y10544268D01*
X30979996Y10545201D01*
X30986055Y10554269D01*
X31105960Y10733720D01*
X31266280Y10894040D01*
X31454797Y11020003D01*
X31458544Y11021555D01*
X31529630Y11051000D01*
X31664266Y11106768D01*
X31775451Y11128884D01*
X31886635Y11151000D01*
X32113365Y11151000D01*
X32224549Y11128884D01*
G37*
G36*
X-31775451Y11128884D02*
G01*
X-31664266Y11106768D01*
X-31529630Y11051000D01*
X-31458543Y11021555D01*
X-31454797Y11020003D01*
X-31266280Y10894040D01*
X-31105960Y10733720D01*
X-30986055Y10554269D01*
X-30979996Y10545201D01*
X-30979610Y10544268D01*
X-30893232Y10335734D01*
X-30849000Y10113364D01*
X-30849000Y9886636D01*
X-30893232Y9664266D01*
X-30979997Y9454797D01*
X-31105960Y9266280D01*
X-31266280Y9105960D01*
X-31454797Y8979997D01*
X-31664266Y8893232D01*
X-31775451Y8871116D01*
X-31886635Y8849000D01*
X-32113365Y8849000D01*
X-32224549Y8871116D01*
X-32335734Y8893232D01*
X-32545203Y8979997D01*
X-32733720Y9105960D01*
X-32894040Y9266280D01*
X-33020003Y9454797D01*
X-33106768Y9664266D01*
X-33151000Y9886636D01*
X-33151000Y10113364D01*
X-33106768Y10335734D01*
X-33020390Y10544268D01*
X-33020004Y10545201D01*
X-33013945Y10554269D01*
X-32894040Y10733720D01*
X-32733720Y10894040D01*
X-32545203Y11020003D01*
X-32541456Y11021555D01*
X-32470370Y11051000D01*
X-32335734Y11106768D01*
X-32224549Y11128884D01*
X-32113365Y11151000D01*
X-31886635Y11151000D01*
X-31775451Y11128884D01*
G37*
G36*
X-27379279Y11029826D02*
G01*
X-27279005Y10988291D01*
X-27257569Y10973968D01*
X-27188758Y10927990D01*
X-27112010Y10851242D01*
X-27112009Y10851240D01*
X-27051709Y10760995D01*
X-27020484Y10685611D01*
X-27008933Y10664000D01*
X-26993388Y10645059D01*
X-26974446Y10629513D01*
X-26952835Y10617962D01*
X-26929386Y10610849D01*
X-26905000Y10608447D01*
X-26880614Y10610849D01*
X-26857165Y10617962D01*
X-26835554Y10629513D01*
X-26816613Y10645058D01*
X-26801067Y10664000D01*
X-26789516Y10685611D01*
X-26758291Y10760995D01*
X-26697991Y10851240D01*
X-26697990Y10851242D01*
X-26621242Y10927990D01*
X-26552431Y10973968D01*
X-26530995Y10988291D01*
X-26430721Y11029826D01*
X-26324270Y11051000D01*
X-26215730Y11051000D01*
X-26109279Y11029826D01*
X-26009005Y10988291D01*
X-25987569Y10973968D01*
X-25918758Y10927990D01*
X-25842010Y10851242D01*
X-25842009Y10851240D01*
X-25781709Y10760995D01*
X-25750484Y10685611D01*
X-25738933Y10664000D01*
X-25723388Y10645059D01*
X-25704446Y10629513D01*
X-25682835Y10617962D01*
X-25659386Y10610849D01*
X-25635000Y10608447D01*
X-25610614Y10610849D01*
X-25587165Y10617962D01*
X-25565554Y10629513D01*
X-25546613Y10645058D01*
X-25531067Y10664000D01*
X-25519516Y10685611D01*
X-25488291Y10760995D01*
X-25427991Y10851240D01*
X-25427990Y10851242D01*
X-25351242Y10927990D01*
X-25282431Y10973968D01*
X-25260995Y10988291D01*
X-25160721Y11029826D01*
X-25054270Y11051000D01*
X-24945730Y11051000D01*
X-24839279Y11029826D01*
X-24739005Y10988291D01*
X-24717569Y10973968D01*
X-24648758Y10927990D01*
X-24572010Y10851242D01*
X-24572009Y10851240D01*
X-24511709Y10760995D01*
X-24480484Y10685611D01*
X-24468933Y10664000D01*
X-24453388Y10645059D01*
X-24434446Y10629513D01*
X-24412835Y10617962D01*
X-24389386Y10610849D01*
X-24365000Y10608447D01*
X-24340614Y10610849D01*
X-24317165Y10617962D01*
X-24295554Y10629513D01*
X-24276613Y10645058D01*
X-24261067Y10664000D01*
X-24249516Y10685611D01*
X-24218291Y10760995D01*
X-24157991Y10851240D01*
X-24157990Y10851242D01*
X-24081242Y10927990D01*
X-24012431Y10973968D01*
X-23990995Y10988291D01*
X-23890721Y11029826D01*
X-23784270Y11051000D01*
X-23675730Y11051000D01*
X-23569279Y11029826D01*
X-23469005Y10988291D01*
X-23447569Y10973968D01*
X-23378758Y10927990D01*
X-23302010Y10851242D01*
X-23302009Y10851240D01*
X-23239932Y10758336D01*
X-23224386Y10739394D01*
X-23205444Y10723849D01*
X-23183833Y10712298D01*
X-23160385Y10705185D01*
X-23135998Y10702783D01*
X-23111612Y10705185D01*
X-23088163Y10712298D01*
X-23066553Y10723849D01*
X-23047611Y10739395D01*
X-23032066Y10758337D01*
X-23020515Y10779948D01*
X-23013402Y10803396D01*
X-23011000Y10827782D01*
X-23011000Y11051000D01*
X-21909000Y11051000D01*
X-21909000Y9949000D01*
X-23011000Y9949000D01*
X-23011000Y10172218D01*
X-23013402Y10196604D01*
X-23020515Y10220053D01*
X-23032066Y10241664D01*
X-23047611Y10260606D01*
X-23066553Y10276151D01*
X-23088164Y10287702D01*
X-23111613Y10294815D01*
X-23135999Y10297217D01*
X-23160385Y10294815D01*
X-23183834Y10287702D01*
X-23205445Y10276151D01*
X-23224387Y10260606D01*
X-23239932Y10241664D01*
X-23277332Y10185691D01*
X-23302010Y10148758D01*
X-23378758Y10072010D01*
X-23391575Y10063446D01*
X-23469005Y10011709D01*
X-23569279Y9970174D01*
X-23675730Y9949000D01*
X-23784270Y9949000D01*
X-23890721Y9970174D01*
X-23990995Y10011709D01*
X-24068425Y10063446D01*
X-24081242Y10072010D01*
X-24157990Y10148758D01*
X-24189959Y10196604D01*
X-24218291Y10239005D01*
X-24249516Y10314389D01*
X-24261067Y10336000D01*
X-24276612Y10354941D01*
X-24295554Y10370487D01*
X-24317165Y10382038D01*
X-24340614Y10389151D01*
X-24365000Y10391553D01*
X-24389386Y10389151D01*
X-24412835Y10382038D01*
X-24434446Y10370487D01*
X-24453387Y10354942D01*
X-24468933Y10336000D01*
X-24480484Y10314389D01*
X-24511709Y10239005D01*
X-24540041Y10196604D01*
X-24572010Y10148758D01*
X-24648758Y10072010D01*
X-24661575Y10063446D01*
X-24739005Y10011709D01*
X-24839279Y9970174D01*
X-24945730Y9949000D01*
X-25054270Y9949000D01*
X-25160721Y9970174D01*
X-25260995Y10011709D01*
X-25338425Y10063446D01*
X-25351242Y10072010D01*
X-25427990Y10148758D01*
X-25459959Y10196604D01*
X-25488291Y10239005D01*
X-25519516Y10314389D01*
X-25531067Y10336000D01*
X-25546612Y10354941D01*
X-25565554Y10370487D01*
X-25587165Y10382038D01*
X-25610614Y10389151D01*
X-25635000Y10391553D01*
X-25659386Y10389151D01*
X-25682835Y10382038D01*
X-25704446Y10370487D01*
X-25723387Y10354942D01*
X-25738933Y10336000D01*
X-25750484Y10314389D01*
X-25781709Y10239005D01*
X-25810041Y10196604D01*
X-25842010Y10148758D01*
X-25918758Y10072010D01*
X-25931575Y10063446D01*
X-26009005Y10011709D01*
X-26109279Y9970174D01*
X-26215730Y9949000D01*
X-26324270Y9949000D01*
X-26430721Y9970174D01*
X-26530995Y10011709D01*
X-26608425Y10063446D01*
X-26621242Y10072010D01*
X-26697990Y10148758D01*
X-26729959Y10196604D01*
X-26758291Y10239005D01*
X-26789516Y10314389D01*
X-26801067Y10336000D01*
X-26816612Y10354941D01*
X-26835554Y10370487D01*
X-26857165Y10382038D01*
X-26880614Y10389151D01*
X-26905000Y10391553D01*
X-26929386Y10389151D01*
X-26952835Y10382038D01*
X-26974446Y10370487D01*
X-26993387Y10354942D01*
X-27008933Y10336000D01*
X-27020484Y10314389D01*
X-27051709Y10239005D01*
X-27080041Y10196604D01*
X-27112010Y10148758D01*
X-27188758Y10072010D01*
X-27201575Y10063446D01*
X-27279005Y10011709D01*
X-27379279Y9970174D01*
X-27485730Y9949000D01*
X-27594270Y9949000D01*
X-27700721Y9970174D01*
X-27800995Y10011709D01*
X-27878425Y10063446D01*
X-27891242Y10072010D01*
X-27967990Y10148758D01*
X-27999959Y10196604D01*
X-28028291Y10239005D01*
X-28069826Y10339279D01*
X-28091000Y10445730D01*
X-28091000Y10554270D01*
X-28069826Y10660721D01*
X-28028291Y10760995D01*
X-27967991Y10851240D01*
X-27967990Y10851242D01*
X-27891242Y10927990D01*
X-27822431Y10973968D01*
X-27800995Y10988291D01*
X-27700721Y11029826D01*
X-27594270Y11051000D01*
X-27485730Y11051000D01*
X-27379279Y11029826D01*
G37*
G36*
X-460501Y11021555D02*
G01*
X-423005Y11010180D01*
X-388446Y10991708D01*
X-358153Y10966847D01*
X-333292Y10936554D01*
X-314820Y10901995D01*
X-303445Y10864499D01*
X-299000Y10819362D01*
X-299000Y10180638D01*
X-303445Y10135501D01*
X-314820Y10098005D01*
X-333292Y10063446D01*
X-358153Y10033153D01*
X-388446Y10008292D01*
X-423005Y9989820D01*
X-460501Y9978445D01*
X-505638Y9974000D01*
X-1244362Y9974000D01*
X-1289499Y9978445D01*
X-1326995Y9989820D01*
X-1361554Y10008292D01*
X-1391847Y10033153D01*
X-1416708Y10063446D01*
X-1435180Y10098005D01*
X-1446555Y10135501D01*
X-1451000Y10180638D01*
X-1451000Y10819362D01*
X-1446555Y10864499D01*
X-1435180Y10901995D01*
X-1416708Y10936554D01*
X-1391847Y10966847D01*
X-1361554Y10991708D01*
X-1326995Y11010180D01*
X-1289499Y11021555D01*
X-1244362Y11026000D01*
X-505638Y11026000D01*
X-460501Y11021555D01*
G37*
G36*
X1289499Y11021555D02*
G01*
X1326995Y11010180D01*
X1361554Y10991708D01*
X1391847Y10966847D01*
X1416708Y10936554D01*
X1435180Y10901995D01*
X1446555Y10864499D01*
X1451000Y10819362D01*
X1451000Y10180638D01*
X1446555Y10135501D01*
X1435180Y10098005D01*
X1416708Y10063446D01*
X1391847Y10033153D01*
X1361554Y10008292D01*
X1326995Y9989820D01*
X1289499Y9978445D01*
X1244362Y9974000D01*
X505638Y9974000D01*
X460501Y9978445D01*
X423005Y9989820D01*
X388446Y10008292D01*
X358153Y10033153D01*
X333292Y10063446D01*
X314820Y10098005D01*
X303445Y10135501D01*
X299000Y10180638D01*
X299000Y10819362D01*
X303445Y10864499D01*
X314820Y10901995D01*
X333292Y10936554D01*
X358153Y10966847D01*
X388446Y10991708D01*
X423005Y11010180D01*
X460501Y11021555D01*
X505638Y11026000D01*
X1244362Y11026000D01*
X1289499Y11021555D01*
G37*
G36*
X7269059Y11622140D02*
G01*
X7405732Y11565528D01*
X7528735Y11483340D01*
X7633340Y11378735D01*
X7633341Y11378733D01*
X7715529Y11255730D01*
X7772140Y11119059D01*
X7801000Y10973968D01*
X7801000Y10826032D01*
X7772140Y10680941D01*
X7715915Y10545201D01*
X7715528Y10544268D01*
X7633340Y10421265D01*
X7528735Y10316660D01*
X7405732Y10234472D01*
X7405731Y10234471D01*
X7405730Y10234471D01*
X7269059Y10177860D01*
X7123968Y10149000D01*
X6976032Y10149000D01*
X6830941Y10177860D01*
X6694270Y10234471D01*
X6694269Y10234471D01*
X6694268Y10234472D01*
X6571265Y10316660D01*
X6466660Y10421265D01*
X6384472Y10544268D01*
X6384086Y10545201D01*
X6327860Y10680941D01*
X6299000Y10826032D01*
X6299000Y10973968D01*
X6327860Y11119059D01*
X6384471Y11255730D01*
X6466659Y11378733D01*
X6466660Y11378735D01*
X6571265Y11483340D01*
X6694268Y11565528D01*
X6830941Y11622140D01*
X6976032Y11651000D01*
X7123968Y11651000D01*
X7269059Y11622140D01*
G37*
M02*
