G04 #@! TF.GenerationSoftware,KiCad,Pcbnew,(5.1.5-0-10_14)*
G04 #@! TF.CreationDate,2021-02-01T23:02:05+09:00*
G04 #@! TF.ProjectId,StickMouse,53746963-6b4d-46f7-9573-652e6b696361,V1.0*
G04 #@! TF.SameCoordinates,Original*
G04 #@! TF.FileFunction,Copper,L2,Bot*
G04 #@! TF.FilePolarity,Positive*
%FSLAX46Y46*%
G04 Gerber Fmt 4.6, Leading zero omitted, Abs format (unit mm)*
G04 Created by KiCad (PCBNEW (5.1.5-0-10_14)) date 2021-02-01 23:02:05*
%MOMM*%
%LPD*%
G04 APERTURE LIST*
%ADD10O,2.500000X3.000000*%
%ADD11O,1.000000X1.000000*%
%ADD12R,1.000000X1.000000*%
%ADD13C,0.100000*%
%ADD14R,2.000000X4.000000*%
%ADD15R,1.000000X2.500000*%
%ADD16R,0.150000X2.000000*%
%ADD17C,1.400000*%
%ADD18R,1.900000X1.800000*%
%ADD19R,1.600000X2.100000*%
%ADD20R,1.750000X0.300000*%
%ADD21C,0.609600*%
%ADD22C,0.254000*%
G04 APERTURE END LIST*
D10*
X27450000Y-6350000D03*
X22450000Y-6350000D03*
X27450000Y6150000D03*
X22450000Y6150000D03*
X-22550000Y-6350000D03*
X-27550000Y-6350000D03*
X-22550000Y6150000D03*
X-27550000Y6150000D03*
D11*
X-27540000Y10500000D03*
X-26270000Y10500000D03*
X-25000000Y10500000D03*
X-23730000Y10500000D03*
D12*
X-22460000Y10500000D03*
G04 #@! TA.AperFunction,SMDPad,CuDef*
D13*
G36*
X-17939221Y-4651144D02*
G01*
X-17916166Y-4654563D01*
X-17893557Y-4660227D01*
X-17871613Y-4668079D01*
X-17850543Y-4678044D01*
X-17830552Y-4690026D01*
X-17811832Y-4703910D01*
X-17794562Y-4719562D01*
X-17778910Y-4736832D01*
X-17765026Y-4755552D01*
X-17753044Y-4775543D01*
X-17743079Y-4796613D01*
X-17735227Y-4818557D01*
X-17729563Y-4841166D01*
X-17726144Y-4864221D01*
X-17725000Y-4887500D01*
X-17725000Y-5462500D01*
X-17726144Y-5485779D01*
X-17729563Y-5508834D01*
X-17735227Y-5531443D01*
X-17743079Y-5553387D01*
X-17753044Y-5574457D01*
X-17765026Y-5594448D01*
X-17778910Y-5613168D01*
X-17794562Y-5630438D01*
X-17811832Y-5646090D01*
X-17830552Y-5659974D01*
X-17850543Y-5671956D01*
X-17871613Y-5681921D01*
X-17893557Y-5689773D01*
X-17916166Y-5695437D01*
X-17939221Y-5698856D01*
X-17962500Y-5700000D01*
X-18437500Y-5700000D01*
X-18460779Y-5698856D01*
X-18483834Y-5695437D01*
X-18506443Y-5689773D01*
X-18528387Y-5681921D01*
X-18549457Y-5671956D01*
X-18569448Y-5659974D01*
X-18588168Y-5646090D01*
X-18605438Y-5630438D01*
X-18621090Y-5613168D01*
X-18634974Y-5594448D01*
X-18646956Y-5574457D01*
X-18656921Y-5553387D01*
X-18664773Y-5531443D01*
X-18670437Y-5508834D01*
X-18673856Y-5485779D01*
X-18675000Y-5462500D01*
X-18675000Y-4887500D01*
X-18673856Y-4864221D01*
X-18670437Y-4841166D01*
X-18664773Y-4818557D01*
X-18656921Y-4796613D01*
X-18646956Y-4775543D01*
X-18634974Y-4755552D01*
X-18621090Y-4736832D01*
X-18605438Y-4719562D01*
X-18588168Y-4703910D01*
X-18569448Y-4690026D01*
X-18549457Y-4678044D01*
X-18528387Y-4668079D01*
X-18506443Y-4660227D01*
X-18483834Y-4654563D01*
X-18460779Y-4651144D01*
X-18437500Y-4650000D01*
X-17962500Y-4650000D01*
X-17939221Y-4651144D01*
G37*
G04 #@! TD.AperFunction*
G04 #@! TA.AperFunction,SMDPad,CuDef*
G36*
X-17939221Y-2901144D02*
G01*
X-17916166Y-2904563D01*
X-17893557Y-2910227D01*
X-17871613Y-2918079D01*
X-17850543Y-2928044D01*
X-17830552Y-2940026D01*
X-17811832Y-2953910D01*
X-17794562Y-2969562D01*
X-17778910Y-2986832D01*
X-17765026Y-3005552D01*
X-17753044Y-3025543D01*
X-17743079Y-3046613D01*
X-17735227Y-3068557D01*
X-17729563Y-3091166D01*
X-17726144Y-3114221D01*
X-17725000Y-3137500D01*
X-17725000Y-3712500D01*
X-17726144Y-3735779D01*
X-17729563Y-3758834D01*
X-17735227Y-3781443D01*
X-17743079Y-3803387D01*
X-17753044Y-3824457D01*
X-17765026Y-3844448D01*
X-17778910Y-3863168D01*
X-17794562Y-3880438D01*
X-17811832Y-3896090D01*
X-17830552Y-3909974D01*
X-17850543Y-3921956D01*
X-17871613Y-3931921D01*
X-17893557Y-3939773D01*
X-17916166Y-3945437D01*
X-17939221Y-3948856D01*
X-17962500Y-3950000D01*
X-18437500Y-3950000D01*
X-18460779Y-3948856D01*
X-18483834Y-3945437D01*
X-18506443Y-3939773D01*
X-18528387Y-3931921D01*
X-18549457Y-3921956D01*
X-18569448Y-3909974D01*
X-18588168Y-3896090D01*
X-18605438Y-3880438D01*
X-18621090Y-3863168D01*
X-18634974Y-3844448D01*
X-18646956Y-3824457D01*
X-18656921Y-3803387D01*
X-18664773Y-3781443D01*
X-18670437Y-3758834D01*
X-18673856Y-3735779D01*
X-18675000Y-3712500D01*
X-18675000Y-3137500D01*
X-18673856Y-3114221D01*
X-18670437Y-3091166D01*
X-18664773Y-3068557D01*
X-18656921Y-3046613D01*
X-18646956Y-3025543D01*
X-18634974Y-3005552D01*
X-18621090Y-2986832D01*
X-18605438Y-2969562D01*
X-18588168Y-2953910D01*
X-18569448Y-2940026D01*
X-18549457Y-2928044D01*
X-18528387Y-2918079D01*
X-18506443Y-2910227D01*
X-18483834Y-2904563D01*
X-18460779Y-2901144D01*
X-18437500Y-2900000D01*
X-17962500Y-2900000D01*
X-17939221Y-2901144D01*
G37*
G04 #@! TD.AperFunction*
G04 #@! TA.AperFunction,SMDPad,CuDef*
G36*
X-27139221Y-2951144D02*
G01*
X-27116166Y-2954563D01*
X-27093557Y-2960227D01*
X-27071613Y-2968079D01*
X-27050543Y-2978044D01*
X-27030552Y-2990026D01*
X-27011832Y-3003910D01*
X-26994562Y-3019562D01*
X-26978910Y-3036832D01*
X-26965026Y-3055552D01*
X-26953044Y-3075543D01*
X-26943079Y-3096613D01*
X-26935227Y-3118557D01*
X-26929563Y-3141166D01*
X-26926144Y-3164221D01*
X-26925000Y-3187500D01*
X-26925000Y-3762500D01*
X-26926144Y-3785779D01*
X-26929563Y-3808834D01*
X-26935227Y-3831443D01*
X-26943079Y-3853387D01*
X-26953044Y-3874457D01*
X-26965026Y-3894448D01*
X-26978910Y-3913168D01*
X-26994562Y-3930438D01*
X-27011832Y-3946090D01*
X-27030552Y-3959974D01*
X-27050543Y-3971956D01*
X-27071613Y-3981921D01*
X-27093557Y-3989773D01*
X-27116166Y-3995437D01*
X-27139221Y-3998856D01*
X-27162500Y-4000000D01*
X-27637500Y-4000000D01*
X-27660779Y-3998856D01*
X-27683834Y-3995437D01*
X-27706443Y-3989773D01*
X-27728387Y-3981921D01*
X-27749457Y-3971956D01*
X-27769448Y-3959974D01*
X-27788168Y-3946090D01*
X-27805438Y-3930438D01*
X-27821090Y-3913168D01*
X-27834974Y-3894448D01*
X-27846956Y-3874457D01*
X-27856921Y-3853387D01*
X-27864773Y-3831443D01*
X-27870437Y-3808834D01*
X-27873856Y-3785779D01*
X-27875000Y-3762500D01*
X-27875000Y-3187500D01*
X-27873856Y-3164221D01*
X-27870437Y-3141166D01*
X-27864773Y-3118557D01*
X-27856921Y-3096613D01*
X-27846956Y-3075543D01*
X-27834974Y-3055552D01*
X-27821090Y-3036832D01*
X-27805438Y-3019562D01*
X-27788168Y-3003910D01*
X-27769448Y-2990026D01*
X-27749457Y-2978044D01*
X-27728387Y-2968079D01*
X-27706443Y-2960227D01*
X-27683834Y-2954563D01*
X-27660779Y-2951144D01*
X-27637500Y-2950000D01*
X-27162500Y-2950000D01*
X-27139221Y-2951144D01*
G37*
G04 #@! TD.AperFunction*
G04 #@! TA.AperFunction,SMDPad,CuDef*
G36*
X-27139221Y-1201144D02*
G01*
X-27116166Y-1204563D01*
X-27093557Y-1210227D01*
X-27071613Y-1218079D01*
X-27050543Y-1228044D01*
X-27030552Y-1240026D01*
X-27011832Y-1253910D01*
X-26994562Y-1269562D01*
X-26978910Y-1286832D01*
X-26965026Y-1305552D01*
X-26953044Y-1325543D01*
X-26943079Y-1346613D01*
X-26935227Y-1368557D01*
X-26929563Y-1391166D01*
X-26926144Y-1414221D01*
X-26925000Y-1437500D01*
X-26925000Y-2012500D01*
X-26926144Y-2035779D01*
X-26929563Y-2058834D01*
X-26935227Y-2081443D01*
X-26943079Y-2103387D01*
X-26953044Y-2124457D01*
X-26965026Y-2144448D01*
X-26978910Y-2163168D01*
X-26994562Y-2180438D01*
X-27011832Y-2196090D01*
X-27030552Y-2209974D01*
X-27050543Y-2221956D01*
X-27071613Y-2231921D01*
X-27093557Y-2239773D01*
X-27116166Y-2245437D01*
X-27139221Y-2248856D01*
X-27162500Y-2250000D01*
X-27637500Y-2250000D01*
X-27660779Y-2248856D01*
X-27683834Y-2245437D01*
X-27706443Y-2239773D01*
X-27728387Y-2231921D01*
X-27749457Y-2221956D01*
X-27769448Y-2209974D01*
X-27788168Y-2196090D01*
X-27805438Y-2180438D01*
X-27821090Y-2163168D01*
X-27834974Y-2144448D01*
X-27846956Y-2124457D01*
X-27856921Y-2103387D01*
X-27864773Y-2081443D01*
X-27870437Y-2058834D01*
X-27873856Y-2035779D01*
X-27875000Y-2012500D01*
X-27875000Y-1437500D01*
X-27873856Y-1414221D01*
X-27870437Y-1391166D01*
X-27864773Y-1368557D01*
X-27856921Y-1346613D01*
X-27846956Y-1325543D01*
X-27834974Y-1305552D01*
X-27821090Y-1286832D01*
X-27805438Y-1269562D01*
X-27788168Y-1253910D01*
X-27769448Y-1240026D01*
X-27749457Y-1228044D01*
X-27728387Y-1218079D01*
X-27706443Y-1210227D01*
X-27683834Y-1204563D01*
X-27660779Y-1201144D01*
X-27637500Y-1200000D01*
X-27162500Y-1200000D01*
X-27139221Y-1201144D01*
G37*
G04 #@! TD.AperFunction*
G04 #@! TA.AperFunction,SMDPad,CuDef*
G36*
X-9165198Y4499518D02*
G01*
X-9155491Y4498079D01*
X-9145972Y4495694D01*
X-9136732Y4492388D01*
X-9127860Y4488192D01*
X-9119443Y4483147D01*
X-9111561Y4477301D01*
X-9104289Y4470711D01*
X-9097699Y4463439D01*
X-9091853Y4455557D01*
X-9086808Y4447140D01*
X-9082612Y4438268D01*
X-9079306Y4429028D01*
X-9076921Y4419509D01*
X-9075482Y4409802D01*
X-9075000Y4400000D01*
X-9075000Y4200000D01*
X-9075482Y4190198D01*
X-9076921Y4180491D01*
X-9079306Y4170972D01*
X-9082612Y4161732D01*
X-9086808Y4152860D01*
X-9091853Y4144443D01*
X-9097699Y4136561D01*
X-9104289Y4129289D01*
X-9111561Y4122699D01*
X-9119443Y4116853D01*
X-9127860Y4111808D01*
X-9136732Y4107612D01*
X-9145972Y4104306D01*
X-9155491Y4101921D01*
X-9165198Y4100482D01*
X-9175000Y4100000D01*
X-10475000Y4100000D01*
X-10484802Y4100482D01*
X-10494509Y4101921D01*
X-10504028Y4104306D01*
X-10513268Y4107612D01*
X-10522140Y4111808D01*
X-10530557Y4116853D01*
X-10538439Y4122699D01*
X-10545711Y4129289D01*
X-10552301Y4136561D01*
X-10558147Y4144443D01*
X-10563192Y4152860D01*
X-10567388Y4161732D01*
X-10570694Y4170972D01*
X-10573079Y4180491D01*
X-10574518Y4190198D01*
X-10575000Y4200000D01*
X-10575000Y4400000D01*
X-10574518Y4409802D01*
X-10573079Y4419509D01*
X-10570694Y4429028D01*
X-10567388Y4438268D01*
X-10563192Y4447140D01*
X-10558147Y4455557D01*
X-10552301Y4463439D01*
X-10545711Y4470711D01*
X-10538439Y4477301D01*
X-10530557Y4483147D01*
X-10522140Y4488192D01*
X-10513268Y4492388D01*
X-10504028Y4495694D01*
X-10494509Y4498079D01*
X-10484802Y4499518D01*
X-10475000Y4500000D01*
X-9175000Y4500000D01*
X-9165198Y4499518D01*
G37*
G04 #@! TD.AperFunction*
G04 #@! TA.AperFunction,SMDPad,CuDef*
G36*
X-9165198Y3699518D02*
G01*
X-9155491Y3698079D01*
X-9145972Y3695694D01*
X-9136732Y3692388D01*
X-9127860Y3688192D01*
X-9119443Y3683147D01*
X-9111561Y3677301D01*
X-9104289Y3670711D01*
X-9097699Y3663439D01*
X-9091853Y3655557D01*
X-9086808Y3647140D01*
X-9082612Y3638268D01*
X-9079306Y3629028D01*
X-9076921Y3619509D01*
X-9075482Y3609802D01*
X-9075000Y3600000D01*
X-9075000Y3400000D01*
X-9075482Y3390198D01*
X-9076921Y3380491D01*
X-9079306Y3370972D01*
X-9082612Y3361732D01*
X-9086808Y3352860D01*
X-9091853Y3344443D01*
X-9097699Y3336561D01*
X-9104289Y3329289D01*
X-9111561Y3322699D01*
X-9119443Y3316853D01*
X-9127860Y3311808D01*
X-9136732Y3307612D01*
X-9145972Y3304306D01*
X-9155491Y3301921D01*
X-9165198Y3300482D01*
X-9175000Y3300000D01*
X-10475000Y3300000D01*
X-10484802Y3300482D01*
X-10494509Y3301921D01*
X-10504028Y3304306D01*
X-10513268Y3307612D01*
X-10522140Y3311808D01*
X-10530557Y3316853D01*
X-10538439Y3322699D01*
X-10545711Y3329289D01*
X-10552301Y3336561D01*
X-10558147Y3344443D01*
X-10563192Y3352860D01*
X-10567388Y3361732D01*
X-10570694Y3370972D01*
X-10573079Y3380491D01*
X-10574518Y3390198D01*
X-10575000Y3400000D01*
X-10575000Y3600000D01*
X-10574518Y3609802D01*
X-10573079Y3619509D01*
X-10570694Y3629028D01*
X-10567388Y3638268D01*
X-10563192Y3647140D01*
X-10558147Y3655557D01*
X-10552301Y3663439D01*
X-10545711Y3670711D01*
X-10538439Y3677301D01*
X-10530557Y3683147D01*
X-10522140Y3688192D01*
X-10513268Y3692388D01*
X-10504028Y3695694D01*
X-10494509Y3698079D01*
X-10484802Y3699518D01*
X-10475000Y3700000D01*
X-9175000Y3700000D01*
X-9165198Y3699518D01*
G37*
G04 #@! TD.AperFunction*
G04 #@! TA.AperFunction,SMDPad,CuDef*
G36*
X-9165198Y2899518D02*
G01*
X-9155491Y2898079D01*
X-9145972Y2895694D01*
X-9136732Y2892388D01*
X-9127860Y2888192D01*
X-9119443Y2883147D01*
X-9111561Y2877301D01*
X-9104289Y2870711D01*
X-9097699Y2863439D01*
X-9091853Y2855557D01*
X-9086808Y2847140D01*
X-9082612Y2838268D01*
X-9079306Y2829028D01*
X-9076921Y2819509D01*
X-9075482Y2809802D01*
X-9075000Y2800000D01*
X-9075000Y2600000D01*
X-9075482Y2590198D01*
X-9076921Y2580491D01*
X-9079306Y2570972D01*
X-9082612Y2561732D01*
X-9086808Y2552860D01*
X-9091853Y2544443D01*
X-9097699Y2536561D01*
X-9104289Y2529289D01*
X-9111561Y2522699D01*
X-9119443Y2516853D01*
X-9127860Y2511808D01*
X-9136732Y2507612D01*
X-9145972Y2504306D01*
X-9155491Y2501921D01*
X-9165198Y2500482D01*
X-9175000Y2500000D01*
X-10475000Y2500000D01*
X-10484802Y2500482D01*
X-10494509Y2501921D01*
X-10504028Y2504306D01*
X-10513268Y2507612D01*
X-10522140Y2511808D01*
X-10530557Y2516853D01*
X-10538439Y2522699D01*
X-10545711Y2529289D01*
X-10552301Y2536561D01*
X-10558147Y2544443D01*
X-10563192Y2552860D01*
X-10567388Y2561732D01*
X-10570694Y2570972D01*
X-10573079Y2580491D01*
X-10574518Y2590198D01*
X-10575000Y2600000D01*
X-10575000Y2800000D01*
X-10574518Y2809802D01*
X-10573079Y2819509D01*
X-10570694Y2829028D01*
X-10567388Y2838268D01*
X-10563192Y2847140D01*
X-10558147Y2855557D01*
X-10552301Y2863439D01*
X-10545711Y2870711D01*
X-10538439Y2877301D01*
X-10530557Y2883147D01*
X-10522140Y2888192D01*
X-10513268Y2892388D01*
X-10504028Y2895694D01*
X-10494509Y2898079D01*
X-10484802Y2899518D01*
X-10475000Y2900000D01*
X-9175000Y2900000D01*
X-9165198Y2899518D01*
G37*
G04 #@! TD.AperFunction*
G04 #@! TA.AperFunction,SMDPad,CuDef*
G36*
X-9165198Y2099518D02*
G01*
X-9155491Y2098079D01*
X-9145972Y2095694D01*
X-9136732Y2092388D01*
X-9127860Y2088192D01*
X-9119443Y2083147D01*
X-9111561Y2077301D01*
X-9104289Y2070711D01*
X-9097699Y2063439D01*
X-9091853Y2055557D01*
X-9086808Y2047140D01*
X-9082612Y2038268D01*
X-9079306Y2029028D01*
X-9076921Y2019509D01*
X-9075482Y2009802D01*
X-9075000Y2000000D01*
X-9075000Y1800000D01*
X-9075482Y1790198D01*
X-9076921Y1780491D01*
X-9079306Y1770972D01*
X-9082612Y1761732D01*
X-9086808Y1752860D01*
X-9091853Y1744443D01*
X-9097699Y1736561D01*
X-9104289Y1729289D01*
X-9111561Y1722699D01*
X-9119443Y1716853D01*
X-9127860Y1711808D01*
X-9136732Y1707612D01*
X-9145972Y1704306D01*
X-9155491Y1701921D01*
X-9165198Y1700482D01*
X-9175000Y1700000D01*
X-10475000Y1700000D01*
X-10484802Y1700482D01*
X-10494509Y1701921D01*
X-10504028Y1704306D01*
X-10513268Y1707612D01*
X-10522140Y1711808D01*
X-10530557Y1716853D01*
X-10538439Y1722699D01*
X-10545711Y1729289D01*
X-10552301Y1736561D01*
X-10558147Y1744443D01*
X-10563192Y1752860D01*
X-10567388Y1761732D01*
X-10570694Y1770972D01*
X-10573079Y1780491D01*
X-10574518Y1790198D01*
X-10575000Y1800000D01*
X-10575000Y2000000D01*
X-10574518Y2009802D01*
X-10573079Y2019509D01*
X-10570694Y2029028D01*
X-10567388Y2038268D01*
X-10563192Y2047140D01*
X-10558147Y2055557D01*
X-10552301Y2063439D01*
X-10545711Y2070711D01*
X-10538439Y2077301D01*
X-10530557Y2083147D01*
X-10522140Y2088192D01*
X-10513268Y2092388D01*
X-10504028Y2095694D01*
X-10494509Y2098079D01*
X-10484802Y2099518D01*
X-10475000Y2100000D01*
X-9175000Y2100000D01*
X-9165198Y2099518D01*
G37*
G04 #@! TD.AperFunction*
G04 #@! TA.AperFunction,SMDPad,CuDef*
G36*
X-9165198Y1299518D02*
G01*
X-9155491Y1298079D01*
X-9145972Y1295694D01*
X-9136732Y1292388D01*
X-9127860Y1288192D01*
X-9119443Y1283147D01*
X-9111561Y1277301D01*
X-9104289Y1270711D01*
X-9097699Y1263439D01*
X-9091853Y1255557D01*
X-9086808Y1247140D01*
X-9082612Y1238268D01*
X-9079306Y1229028D01*
X-9076921Y1219509D01*
X-9075482Y1209802D01*
X-9075000Y1200000D01*
X-9075000Y1000000D01*
X-9075482Y990198D01*
X-9076921Y980491D01*
X-9079306Y970972D01*
X-9082612Y961732D01*
X-9086808Y952860D01*
X-9091853Y944443D01*
X-9097699Y936561D01*
X-9104289Y929289D01*
X-9111561Y922699D01*
X-9119443Y916853D01*
X-9127860Y911808D01*
X-9136732Y907612D01*
X-9145972Y904306D01*
X-9155491Y901921D01*
X-9165198Y900482D01*
X-9175000Y900000D01*
X-10475000Y900000D01*
X-10484802Y900482D01*
X-10494509Y901921D01*
X-10504028Y904306D01*
X-10513268Y907612D01*
X-10522140Y911808D01*
X-10530557Y916853D01*
X-10538439Y922699D01*
X-10545711Y929289D01*
X-10552301Y936561D01*
X-10558147Y944443D01*
X-10563192Y952860D01*
X-10567388Y961732D01*
X-10570694Y970972D01*
X-10573079Y980491D01*
X-10574518Y990198D01*
X-10575000Y1000000D01*
X-10575000Y1200000D01*
X-10574518Y1209802D01*
X-10573079Y1219509D01*
X-10570694Y1229028D01*
X-10567388Y1238268D01*
X-10563192Y1247140D01*
X-10558147Y1255557D01*
X-10552301Y1263439D01*
X-10545711Y1270711D01*
X-10538439Y1277301D01*
X-10530557Y1283147D01*
X-10522140Y1288192D01*
X-10513268Y1292388D01*
X-10504028Y1295694D01*
X-10494509Y1298079D01*
X-10484802Y1299518D01*
X-10475000Y1300000D01*
X-9175000Y1300000D01*
X-9165198Y1299518D01*
G37*
G04 #@! TD.AperFunction*
G04 #@! TA.AperFunction,SMDPad,CuDef*
G36*
X-9165198Y499518D02*
G01*
X-9155491Y498079D01*
X-9145972Y495694D01*
X-9136732Y492388D01*
X-9127860Y488192D01*
X-9119443Y483147D01*
X-9111561Y477301D01*
X-9104289Y470711D01*
X-9097699Y463439D01*
X-9091853Y455557D01*
X-9086808Y447140D01*
X-9082612Y438268D01*
X-9079306Y429028D01*
X-9076921Y419509D01*
X-9075482Y409802D01*
X-9075000Y400000D01*
X-9075000Y200000D01*
X-9075482Y190198D01*
X-9076921Y180491D01*
X-9079306Y170972D01*
X-9082612Y161732D01*
X-9086808Y152860D01*
X-9091853Y144443D01*
X-9097699Y136561D01*
X-9104289Y129289D01*
X-9111561Y122699D01*
X-9119443Y116853D01*
X-9127860Y111808D01*
X-9136732Y107612D01*
X-9145972Y104306D01*
X-9155491Y101921D01*
X-9165198Y100482D01*
X-9175000Y100000D01*
X-10475000Y100000D01*
X-10484802Y100482D01*
X-10494509Y101921D01*
X-10504028Y104306D01*
X-10513268Y107612D01*
X-10522140Y111808D01*
X-10530557Y116853D01*
X-10538439Y122699D01*
X-10545711Y129289D01*
X-10552301Y136561D01*
X-10558147Y144443D01*
X-10563192Y152860D01*
X-10567388Y161732D01*
X-10570694Y170972D01*
X-10573079Y180491D01*
X-10574518Y190198D01*
X-10575000Y200000D01*
X-10575000Y400000D01*
X-10574518Y409802D01*
X-10573079Y419509D01*
X-10570694Y429028D01*
X-10567388Y438268D01*
X-10563192Y447140D01*
X-10558147Y455557D01*
X-10552301Y463439D01*
X-10545711Y470711D01*
X-10538439Y477301D01*
X-10530557Y483147D01*
X-10522140Y488192D01*
X-10513268Y492388D01*
X-10504028Y495694D01*
X-10494509Y498079D01*
X-10484802Y499518D01*
X-10475000Y500000D01*
X-9175000Y500000D01*
X-9165198Y499518D01*
G37*
G04 #@! TD.AperFunction*
G04 #@! TA.AperFunction,SMDPad,CuDef*
G36*
X-9165198Y-300482D02*
G01*
X-9155491Y-301921D01*
X-9145972Y-304306D01*
X-9136732Y-307612D01*
X-9127860Y-311808D01*
X-9119443Y-316853D01*
X-9111561Y-322699D01*
X-9104289Y-329289D01*
X-9097699Y-336561D01*
X-9091853Y-344443D01*
X-9086808Y-352860D01*
X-9082612Y-361732D01*
X-9079306Y-370972D01*
X-9076921Y-380491D01*
X-9075482Y-390198D01*
X-9075000Y-400000D01*
X-9075000Y-600000D01*
X-9075482Y-609802D01*
X-9076921Y-619509D01*
X-9079306Y-629028D01*
X-9082612Y-638268D01*
X-9086808Y-647140D01*
X-9091853Y-655557D01*
X-9097699Y-663439D01*
X-9104289Y-670711D01*
X-9111561Y-677301D01*
X-9119443Y-683147D01*
X-9127860Y-688192D01*
X-9136732Y-692388D01*
X-9145972Y-695694D01*
X-9155491Y-698079D01*
X-9165198Y-699518D01*
X-9175000Y-700000D01*
X-10475000Y-700000D01*
X-10484802Y-699518D01*
X-10494509Y-698079D01*
X-10504028Y-695694D01*
X-10513268Y-692388D01*
X-10522140Y-688192D01*
X-10530557Y-683147D01*
X-10538439Y-677301D01*
X-10545711Y-670711D01*
X-10552301Y-663439D01*
X-10558147Y-655557D01*
X-10563192Y-647140D01*
X-10567388Y-638268D01*
X-10570694Y-629028D01*
X-10573079Y-619509D01*
X-10574518Y-609802D01*
X-10575000Y-600000D01*
X-10575000Y-400000D01*
X-10574518Y-390198D01*
X-10573079Y-380491D01*
X-10570694Y-370972D01*
X-10567388Y-361732D01*
X-10563192Y-352860D01*
X-10558147Y-344443D01*
X-10552301Y-336561D01*
X-10545711Y-329289D01*
X-10538439Y-322699D01*
X-10530557Y-316853D01*
X-10522140Y-311808D01*
X-10513268Y-307612D01*
X-10504028Y-304306D01*
X-10494509Y-301921D01*
X-10484802Y-300482D01*
X-10475000Y-300000D01*
X-9175000Y-300000D01*
X-9165198Y-300482D01*
G37*
G04 #@! TD.AperFunction*
G04 #@! TA.AperFunction,SMDPad,CuDef*
G36*
X-9165198Y-1100482D02*
G01*
X-9155491Y-1101921D01*
X-9145972Y-1104306D01*
X-9136732Y-1107612D01*
X-9127860Y-1111808D01*
X-9119443Y-1116853D01*
X-9111561Y-1122699D01*
X-9104289Y-1129289D01*
X-9097699Y-1136561D01*
X-9091853Y-1144443D01*
X-9086808Y-1152860D01*
X-9082612Y-1161732D01*
X-9079306Y-1170972D01*
X-9076921Y-1180491D01*
X-9075482Y-1190198D01*
X-9075000Y-1200000D01*
X-9075000Y-1400000D01*
X-9075482Y-1409802D01*
X-9076921Y-1419509D01*
X-9079306Y-1429028D01*
X-9082612Y-1438268D01*
X-9086808Y-1447140D01*
X-9091853Y-1455557D01*
X-9097699Y-1463439D01*
X-9104289Y-1470711D01*
X-9111561Y-1477301D01*
X-9119443Y-1483147D01*
X-9127860Y-1488192D01*
X-9136732Y-1492388D01*
X-9145972Y-1495694D01*
X-9155491Y-1498079D01*
X-9165198Y-1499518D01*
X-9175000Y-1500000D01*
X-10475000Y-1500000D01*
X-10484802Y-1499518D01*
X-10494509Y-1498079D01*
X-10504028Y-1495694D01*
X-10513268Y-1492388D01*
X-10522140Y-1488192D01*
X-10530557Y-1483147D01*
X-10538439Y-1477301D01*
X-10545711Y-1470711D01*
X-10552301Y-1463439D01*
X-10558147Y-1455557D01*
X-10563192Y-1447140D01*
X-10567388Y-1438268D01*
X-10570694Y-1429028D01*
X-10573079Y-1419509D01*
X-10574518Y-1409802D01*
X-10575000Y-1400000D01*
X-10575000Y-1200000D01*
X-10574518Y-1190198D01*
X-10573079Y-1180491D01*
X-10570694Y-1170972D01*
X-10567388Y-1161732D01*
X-10563192Y-1152860D01*
X-10558147Y-1144443D01*
X-10552301Y-1136561D01*
X-10545711Y-1129289D01*
X-10538439Y-1122699D01*
X-10530557Y-1116853D01*
X-10522140Y-1111808D01*
X-10513268Y-1107612D01*
X-10504028Y-1104306D01*
X-10494509Y-1101921D01*
X-10484802Y-1100482D01*
X-10475000Y-1100000D01*
X-9175000Y-1100000D01*
X-9165198Y-1100482D01*
G37*
G04 #@! TD.AperFunction*
G04 #@! TA.AperFunction,SMDPad,CuDef*
G36*
X-11090198Y-1925482D02*
G01*
X-11080491Y-1926921D01*
X-11070972Y-1929306D01*
X-11061732Y-1932612D01*
X-11052860Y-1936808D01*
X-11044443Y-1941853D01*
X-11036561Y-1947699D01*
X-11029289Y-1954289D01*
X-11022699Y-1961561D01*
X-11016853Y-1969443D01*
X-11011808Y-1977860D01*
X-11007612Y-1986732D01*
X-11004306Y-1995972D01*
X-11001921Y-2005491D01*
X-11000482Y-2015198D01*
X-11000000Y-2025000D01*
X-11000000Y-3325000D01*
X-11000482Y-3334802D01*
X-11001921Y-3344509D01*
X-11004306Y-3354028D01*
X-11007612Y-3363268D01*
X-11011808Y-3372140D01*
X-11016853Y-3380557D01*
X-11022699Y-3388439D01*
X-11029289Y-3395711D01*
X-11036561Y-3402301D01*
X-11044443Y-3408147D01*
X-11052860Y-3413192D01*
X-11061732Y-3417388D01*
X-11070972Y-3420694D01*
X-11080491Y-3423079D01*
X-11090198Y-3424518D01*
X-11100000Y-3425000D01*
X-11300000Y-3425000D01*
X-11309802Y-3424518D01*
X-11319509Y-3423079D01*
X-11329028Y-3420694D01*
X-11338268Y-3417388D01*
X-11347140Y-3413192D01*
X-11355557Y-3408147D01*
X-11363439Y-3402301D01*
X-11370711Y-3395711D01*
X-11377301Y-3388439D01*
X-11383147Y-3380557D01*
X-11388192Y-3372140D01*
X-11392388Y-3363268D01*
X-11395694Y-3354028D01*
X-11398079Y-3344509D01*
X-11399518Y-3334802D01*
X-11400000Y-3325000D01*
X-11400000Y-2025000D01*
X-11399518Y-2015198D01*
X-11398079Y-2005491D01*
X-11395694Y-1995972D01*
X-11392388Y-1986732D01*
X-11388192Y-1977860D01*
X-11383147Y-1969443D01*
X-11377301Y-1961561D01*
X-11370711Y-1954289D01*
X-11363439Y-1947699D01*
X-11355557Y-1941853D01*
X-11347140Y-1936808D01*
X-11338268Y-1932612D01*
X-11329028Y-1929306D01*
X-11319509Y-1926921D01*
X-11309802Y-1925482D01*
X-11300000Y-1925000D01*
X-11100000Y-1925000D01*
X-11090198Y-1925482D01*
G37*
G04 #@! TD.AperFunction*
G04 #@! TA.AperFunction,SMDPad,CuDef*
G36*
X-11890198Y-1925482D02*
G01*
X-11880491Y-1926921D01*
X-11870972Y-1929306D01*
X-11861732Y-1932612D01*
X-11852860Y-1936808D01*
X-11844443Y-1941853D01*
X-11836561Y-1947699D01*
X-11829289Y-1954289D01*
X-11822699Y-1961561D01*
X-11816853Y-1969443D01*
X-11811808Y-1977860D01*
X-11807612Y-1986732D01*
X-11804306Y-1995972D01*
X-11801921Y-2005491D01*
X-11800482Y-2015198D01*
X-11800000Y-2025000D01*
X-11800000Y-3325000D01*
X-11800482Y-3334802D01*
X-11801921Y-3344509D01*
X-11804306Y-3354028D01*
X-11807612Y-3363268D01*
X-11811808Y-3372140D01*
X-11816853Y-3380557D01*
X-11822699Y-3388439D01*
X-11829289Y-3395711D01*
X-11836561Y-3402301D01*
X-11844443Y-3408147D01*
X-11852860Y-3413192D01*
X-11861732Y-3417388D01*
X-11870972Y-3420694D01*
X-11880491Y-3423079D01*
X-11890198Y-3424518D01*
X-11900000Y-3425000D01*
X-12100000Y-3425000D01*
X-12109802Y-3424518D01*
X-12119509Y-3423079D01*
X-12129028Y-3420694D01*
X-12138268Y-3417388D01*
X-12147140Y-3413192D01*
X-12155557Y-3408147D01*
X-12163439Y-3402301D01*
X-12170711Y-3395711D01*
X-12177301Y-3388439D01*
X-12183147Y-3380557D01*
X-12188192Y-3372140D01*
X-12192388Y-3363268D01*
X-12195694Y-3354028D01*
X-12198079Y-3344509D01*
X-12199518Y-3334802D01*
X-12200000Y-3325000D01*
X-12200000Y-2025000D01*
X-12199518Y-2015198D01*
X-12198079Y-2005491D01*
X-12195694Y-1995972D01*
X-12192388Y-1986732D01*
X-12188192Y-1977860D01*
X-12183147Y-1969443D01*
X-12177301Y-1961561D01*
X-12170711Y-1954289D01*
X-12163439Y-1947699D01*
X-12155557Y-1941853D01*
X-12147140Y-1936808D01*
X-12138268Y-1932612D01*
X-12129028Y-1929306D01*
X-12119509Y-1926921D01*
X-12109802Y-1925482D01*
X-12100000Y-1925000D01*
X-11900000Y-1925000D01*
X-11890198Y-1925482D01*
G37*
G04 #@! TD.AperFunction*
G04 #@! TA.AperFunction,SMDPad,CuDef*
G36*
X-12690198Y-1925482D02*
G01*
X-12680491Y-1926921D01*
X-12670972Y-1929306D01*
X-12661732Y-1932612D01*
X-12652860Y-1936808D01*
X-12644443Y-1941853D01*
X-12636561Y-1947699D01*
X-12629289Y-1954289D01*
X-12622699Y-1961561D01*
X-12616853Y-1969443D01*
X-12611808Y-1977860D01*
X-12607612Y-1986732D01*
X-12604306Y-1995972D01*
X-12601921Y-2005491D01*
X-12600482Y-2015198D01*
X-12600000Y-2025000D01*
X-12600000Y-3325000D01*
X-12600482Y-3334802D01*
X-12601921Y-3344509D01*
X-12604306Y-3354028D01*
X-12607612Y-3363268D01*
X-12611808Y-3372140D01*
X-12616853Y-3380557D01*
X-12622699Y-3388439D01*
X-12629289Y-3395711D01*
X-12636561Y-3402301D01*
X-12644443Y-3408147D01*
X-12652860Y-3413192D01*
X-12661732Y-3417388D01*
X-12670972Y-3420694D01*
X-12680491Y-3423079D01*
X-12690198Y-3424518D01*
X-12700000Y-3425000D01*
X-12900000Y-3425000D01*
X-12909802Y-3424518D01*
X-12919509Y-3423079D01*
X-12929028Y-3420694D01*
X-12938268Y-3417388D01*
X-12947140Y-3413192D01*
X-12955557Y-3408147D01*
X-12963439Y-3402301D01*
X-12970711Y-3395711D01*
X-12977301Y-3388439D01*
X-12983147Y-3380557D01*
X-12988192Y-3372140D01*
X-12992388Y-3363268D01*
X-12995694Y-3354028D01*
X-12998079Y-3344509D01*
X-12999518Y-3334802D01*
X-13000000Y-3325000D01*
X-13000000Y-2025000D01*
X-12999518Y-2015198D01*
X-12998079Y-2005491D01*
X-12995694Y-1995972D01*
X-12992388Y-1986732D01*
X-12988192Y-1977860D01*
X-12983147Y-1969443D01*
X-12977301Y-1961561D01*
X-12970711Y-1954289D01*
X-12963439Y-1947699D01*
X-12955557Y-1941853D01*
X-12947140Y-1936808D01*
X-12938268Y-1932612D01*
X-12929028Y-1929306D01*
X-12919509Y-1926921D01*
X-12909802Y-1925482D01*
X-12900000Y-1925000D01*
X-12700000Y-1925000D01*
X-12690198Y-1925482D01*
G37*
G04 #@! TD.AperFunction*
G04 #@! TA.AperFunction,SMDPad,CuDef*
G36*
X-13490198Y-1925482D02*
G01*
X-13480491Y-1926921D01*
X-13470972Y-1929306D01*
X-13461732Y-1932612D01*
X-13452860Y-1936808D01*
X-13444443Y-1941853D01*
X-13436561Y-1947699D01*
X-13429289Y-1954289D01*
X-13422699Y-1961561D01*
X-13416853Y-1969443D01*
X-13411808Y-1977860D01*
X-13407612Y-1986732D01*
X-13404306Y-1995972D01*
X-13401921Y-2005491D01*
X-13400482Y-2015198D01*
X-13400000Y-2025000D01*
X-13400000Y-3325000D01*
X-13400482Y-3334802D01*
X-13401921Y-3344509D01*
X-13404306Y-3354028D01*
X-13407612Y-3363268D01*
X-13411808Y-3372140D01*
X-13416853Y-3380557D01*
X-13422699Y-3388439D01*
X-13429289Y-3395711D01*
X-13436561Y-3402301D01*
X-13444443Y-3408147D01*
X-13452860Y-3413192D01*
X-13461732Y-3417388D01*
X-13470972Y-3420694D01*
X-13480491Y-3423079D01*
X-13490198Y-3424518D01*
X-13500000Y-3425000D01*
X-13700000Y-3425000D01*
X-13709802Y-3424518D01*
X-13719509Y-3423079D01*
X-13729028Y-3420694D01*
X-13738268Y-3417388D01*
X-13747140Y-3413192D01*
X-13755557Y-3408147D01*
X-13763439Y-3402301D01*
X-13770711Y-3395711D01*
X-13777301Y-3388439D01*
X-13783147Y-3380557D01*
X-13788192Y-3372140D01*
X-13792388Y-3363268D01*
X-13795694Y-3354028D01*
X-13798079Y-3344509D01*
X-13799518Y-3334802D01*
X-13800000Y-3325000D01*
X-13800000Y-2025000D01*
X-13799518Y-2015198D01*
X-13798079Y-2005491D01*
X-13795694Y-1995972D01*
X-13792388Y-1986732D01*
X-13788192Y-1977860D01*
X-13783147Y-1969443D01*
X-13777301Y-1961561D01*
X-13770711Y-1954289D01*
X-13763439Y-1947699D01*
X-13755557Y-1941853D01*
X-13747140Y-1936808D01*
X-13738268Y-1932612D01*
X-13729028Y-1929306D01*
X-13719509Y-1926921D01*
X-13709802Y-1925482D01*
X-13700000Y-1925000D01*
X-13500000Y-1925000D01*
X-13490198Y-1925482D01*
G37*
G04 #@! TD.AperFunction*
G04 #@! TA.AperFunction,SMDPad,CuDef*
G36*
X-14290198Y-1925482D02*
G01*
X-14280491Y-1926921D01*
X-14270972Y-1929306D01*
X-14261732Y-1932612D01*
X-14252860Y-1936808D01*
X-14244443Y-1941853D01*
X-14236561Y-1947699D01*
X-14229289Y-1954289D01*
X-14222699Y-1961561D01*
X-14216853Y-1969443D01*
X-14211808Y-1977860D01*
X-14207612Y-1986732D01*
X-14204306Y-1995972D01*
X-14201921Y-2005491D01*
X-14200482Y-2015198D01*
X-14200000Y-2025000D01*
X-14200000Y-3325000D01*
X-14200482Y-3334802D01*
X-14201921Y-3344509D01*
X-14204306Y-3354028D01*
X-14207612Y-3363268D01*
X-14211808Y-3372140D01*
X-14216853Y-3380557D01*
X-14222699Y-3388439D01*
X-14229289Y-3395711D01*
X-14236561Y-3402301D01*
X-14244443Y-3408147D01*
X-14252860Y-3413192D01*
X-14261732Y-3417388D01*
X-14270972Y-3420694D01*
X-14280491Y-3423079D01*
X-14290198Y-3424518D01*
X-14300000Y-3425000D01*
X-14500000Y-3425000D01*
X-14509802Y-3424518D01*
X-14519509Y-3423079D01*
X-14529028Y-3420694D01*
X-14538268Y-3417388D01*
X-14547140Y-3413192D01*
X-14555557Y-3408147D01*
X-14563439Y-3402301D01*
X-14570711Y-3395711D01*
X-14577301Y-3388439D01*
X-14583147Y-3380557D01*
X-14588192Y-3372140D01*
X-14592388Y-3363268D01*
X-14595694Y-3354028D01*
X-14598079Y-3344509D01*
X-14599518Y-3334802D01*
X-14600000Y-3325000D01*
X-14600000Y-2025000D01*
X-14599518Y-2015198D01*
X-14598079Y-2005491D01*
X-14595694Y-1995972D01*
X-14592388Y-1986732D01*
X-14588192Y-1977860D01*
X-14583147Y-1969443D01*
X-14577301Y-1961561D01*
X-14570711Y-1954289D01*
X-14563439Y-1947699D01*
X-14555557Y-1941853D01*
X-14547140Y-1936808D01*
X-14538268Y-1932612D01*
X-14529028Y-1929306D01*
X-14519509Y-1926921D01*
X-14509802Y-1925482D01*
X-14500000Y-1925000D01*
X-14300000Y-1925000D01*
X-14290198Y-1925482D01*
G37*
G04 #@! TD.AperFunction*
G04 #@! TA.AperFunction,SMDPad,CuDef*
G36*
X-15090198Y-1925482D02*
G01*
X-15080491Y-1926921D01*
X-15070972Y-1929306D01*
X-15061732Y-1932612D01*
X-15052860Y-1936808D01*
X-15044443Y-1941853D01*
X-15036561Y-1947699D01*
X-15029289Y-1954289D01*
X-15022699Y-1961561D01*
X-15016853Y-1969443D01*
X-15011808Y-1977860D01*
X-15007612Y-1986732D01*
X-15004306Y-1995972D01*
X-15001921Y-2005491D01*
X-15000482Y-2015198D01*
X-15000000Y-2025000D01*
X-15000000Y-3325000D01*
X-15000482Y-3334802D01*
X-15001921Y-3344509D01*
X-15004306Y-3354028D01*
X-15007612Y-3363268D01*
X-15011808Y-3372140D01*
X-15016853Y-3380557D01*
X-15022699Y-3388439D01*
X-15029289Y-3395711D01*
X-15036561Y-3402301D01*
X-15044443Y-3408147D01*
X-15052860Y-3413192D01*
X-15061732Y-3417388D01*
X-15070972Y-3420694D01*
X-15080491Y-3423079D01*
X-15090198Y-3424518D01*
X-15100000Y-3425000D01*
X-15300000Y-3425000D01*
X-15309802Y-3424518D01*
X-15319509Y-3423079D01*
X-15329028Y-3420694D01*
X-15338268Y-3417388D01*
X-15347140Y-3413192D01*
X-15355557Y-3408147D01*
X-15363439Y-3402301D01*
X-15370711Y-3395711D01*
X-15377301Y-3388439D01*
X-15383147Y-3380557D01*
X-15388192Y-3372140D01*
X-15392388Y-3363268D01*
X-15395694Y-3354028D01*
X-15398079Y-3344509D01*
X-15399518Y-3334802D01*
X-15400000Y-3325000D01*
X-15400000Y-2025000D01*
X-15399518Y-2015198D01*
X-15398079Y-2005491D01*
X-15395694Y-1995972D01*
X-15392388Y-1986732D01*
X-15388192Y-1977860D01*
X-15383147Y-1969443D01*
X-15377301Y-1961561D01*
X-15370711Y-1954289D01*
X-15363439Y-1947699D01*
X-15355557Y-1941853D01*
X-15347140Y-1936808D01*
X-15338268Y-1932612D01*
X-15329028Y-1929306D01*
X-15319509Y-1926921D01*
X-15309802Y-1925482D01*
X-15300000Y-1925000D01*
X-15100000Y-1925000D01*
X-15090198Y-1925482D01*
G37*
G04 #@! TD.AperFunction*
G04 #@! TA.AperFunction,SMDPad,CuDef*
G36*
X-15890198Y-1925482D02*
G01*
X-15880491Y-1926921D01*
X-15870972Y-1929306D01*
X-15861732Y-1932612D01*
X-15852860Y-1936808D01*
X-15844443Y-1941853D01*
X-15836561Y-1947699D01*
X-15829289Y-1954289D01*
X-15822699Y-1961561D01*
X-15816853Y-1969443D01*
X-15811808Y-1977860D01*
X-15807612Y-1986732D01*
X-15804306Y-1995972D01*
X-15801921Y-2005491D01*
X-15800482Y-2015198D01*
X-15800000Y-2025000D01*
X-15800000Y-3325000D01*
X-15800482Y-3334802D01*
X-15801921Y-3344509D01*
X-15804306Y-3354028D01*
X-15807612Y-3363268D01*
X-15811808Y-3372140D01*
X-15816853Y-3380557D01*
X-15822699Y-3388439D01*
X-15829289Y-3395711D01*
X-15836561Y-3402301D01*
X-15844443Y-3408147D01*
X-15852860Y-3413192D01*
X-15861732Y-3417388D01*
X-15870972Y-3420694D01*
X-15880491Y-3423079D01*
X-15890198Y-3424518D01*
X-15900000Y-3425000D01*
X-16100000Y-3425000D01*
X-16109802Y-3424518D01*
X-16119509Y-3423079D01*
X-16129028Y-3420694D01*
X-16138268Y-3417388D01*
X-16147140Y-3413192D01*
X-16155557Y-3408147D01*
X-16163439Y-3402301D01*
X-16170711Y-3395711D01*
X-16177301Y-3388439D01*
X-16183147Y-3380557D01*
X-16188192Y-3372140D01*
X-16192388Y-3363268D01*
X-16195694Y-3354028D01*
X-16198079Y-3344509D01*
X-16199518Y-3334802D01*
X-16200000Y-3325000D01*
X-16200000Y-2025000D01*
X-16199518Y-2015198D01*
X-16198079Y-2005491D01*
X-16195694Y-1995972D01*
X-16192388Y-1986732D01*
X-16188192Y-1977860D01*
X-16183147Y-1969443D01*
X-16177301Y-1961561D01*
X-16170711Y-1954289D01*
X-16163439Y-1947699D01*
X-16155557Y-1941853D01*
X-16147140Y-1936808D01*
X-16138268Y-1932612D01*
X-16129028Y-1929306D01*
X-16119509Y-1926921D01*
X-16109802Y-1925482D01*
X-16100000Y-1925000D01*
X-15900000Y-1925000D01*
X-15890198Y-1925482D01*
G37*
G04 #@! TD.AperFunction*
G04 #@! TA.AperFunction,SMDPad,CuDef*
G36*
X-16690198Y-1925482D02*
G01*
X-16680491Y-1926921D01*
X-16670972Y-1929306D01*
X-16661732Y-1932612D01*
X-16652860Y-1936808D01*
X-16644443Y-1941853D01*
X-16636561Y-1947699D01*
X-16629289Y-1954289D01*
X-16622699Y-1961561D01*
X-16616853Y-1969443D01*
X-16611808Y-1977860D01*
X-16607612Y-1986732D01*
X-16604306Y-1995972D01*
X-16601921Y-2005491D01*
X-16600482Y-2015198D01*
X-16600000Y-2025000D01*
X-16600000Y-3325000D01*
X-16600482Y-3334802D01*
X-16601921Y-3344509D01*
X-16604306Y-3354028D01*
X-16607612Y-3363268D01*
X-16611808Y-3372140D01*
X-16616853Y-3380557D01*
X-16622699Y-3388439D01*
X-16629289Y-3395711D01*
X-16636561Y-3402301D01*
X-16644443Y-3408147D01*
X-16652860Y-3413192D01*
X-16661732Y-3417388D01*
X-16670972Y-3420694D01*
X-16680491Y-3423079D01*
X-16690198Y-3424518D01*
X-16700000Y-3425000D01*
X-16900000Y-3425000D01*
X-16909802Y-3424518D01*
X-16919509Y-3423079D01*
X-16929028Y-3420694D01*
X-16938268Y-3417388D01*
X-16947140Y-3413192D01*
X-16955557Y-3408147D01*
X-16963439Y-3402301D01*
X-16970711Y-3395711D01*
X-16977301Y-3388439D01*
X-16983147Y-3380557D01*
X-16988192Y-3372140D01*
X-16992388Y-3363268D01*
X-16995694Y-3354028D01*
X-16998079Y-3344509D01*
X-16999518Y-3334802D01*
X-17000000Y-3325000D01*
X-17000000Y-2025000D01*
X-16999518Y-2015198D01*
X-16998079Y-2005491D01*
X-16995694Y-1995972D01*
X-16992388Y-1986732D01*
X-16988192Y-1977860D01*
X-16983147Y-1969443D01*
X-16977301Y-1961561D01*
X-16970711Y-1954289D01*
X-16963439Y-1947699D01*
X-16955557Y-1941853D01*
X-16947140Y-1936808D01*
X-16938268Y-1932612D01*
X-16929028Y-1929306D01*
X-16919509Y-1926921D01*
X-16909802Y-1925482D01*
X-16900000Y-1925000D01*
X-16700000Y-1925000D01*
X-16690198Y-1925482D01*
G37*
G04 #@! TD.AperFunction*
G04 #@! TA.AperFunction,SMDPad,CuDef*
G36*
X-17515198Y-1100482D02*
G01*
X-17505491Y-1101921D01*
X-17495972Y-1104306D01*
X-17486732Y-1107612D01*
X-17477860Y-1111808D01*
X-17469443Y-1116853D01*
X-17461561Y-1122699D01*
X-17454289Y-1129289D01*
X-17447699Y-1136561D01*
X-17441853Y-1144443D01*
X-17436808Y-1152860D01*
X-17432612Y-1161732D01*
X-17429306Y-1170972D01*
X-17426921Y-1180491D01*
X-17425482Y-1190198D01*
X-17425000Y-1200000D01*
X-17425000Y-1400000D01*
X-17425482Y-1409802D01*
X-17426921Y-1419509D01*
X-17429306Y-1429028D01*
X-17432612Y-1438268D01*
X-17436808Y-1447140D01*
X-17441853Y-1455557D01*
X-17447699Y-1463439D01*
X-17454289Y-1470711D01*
X-17461561Y-1477301D01*
X-17469443Y-1483147D01*
X-17477860Y-1488192D01*
X-17486732Y-1492388D01*
X-17495972Y-1495694D01*
X-17505491Y-1498079D01*
X-17515198Y-1499518D01*
X-17525000Y-1500000D01*
X-18825000Y-1500000D01*
X-18834802Y-1499518D01*
X-18844509Y-1498079D01*
X-18854028Y-1495694D01*
X-18863268Y-1492388D01*
X-18872140Y-1488192D01*
X-18880557Y-1483147D01*
X-18888439Y-1477301D01*
X-18895711Y-1470711D01*
X-18902301Y-1463439D01*
X-18908147Y-1455557D01*
X-18913192Y-1447140D01*
X-18917388Y-1438268D01*
X-18920694Y-1429028D01*
X-18923079Y-1419509D01*
X-18924518Y-1409802D01*
X-18925000Y-1400000D01*
X-18925000Y-1200000D01*
X-18924518Y-1190198D01*
X-18923079Y-1180491D01*
X-18920694Y-1170972D01*
X-18917388Y-1161732D01*
X-18913192Y-1152860D01*
X-18908147Y-1144443D01*
X-18902301Y-1136561D01*
X-18895711Y-1129289D01*
X-18888439Y-1122699D01*
X-18880557Y-1116853D01*
X-18872140Y-1111808D01*
X-18863268Y-1107612D01*
X-18854028Y-1104306D01*
X-18844509Y-1101921D01*
X-18834802Y-1100482D01*
X-18825000Y-1100000D01*
X-17525000Y-1100000D01*
X-17515198Y-1100482D01*
G37*
G04 #@! TD.AperFunction*
G04 #@! TA.AperFunction,SMDPad,CuDef*
G36*
X-17515198Y-300482D02*
G01*
X-17505491Y-301921D01*
X-17495972Y-304306D01*
X-17486732Y-307612D01*
X-17477860Y-311808D01*
X-17469443Y-316853D01*
X-17461561Y-322699D01*
X-17454289Y-329289D01*
X-17447699Y-336561D01*
X-17441853Y-344443D01*
X-17436808Y-352860D01*
X-17432612Y-361732D01*
X-17429306Y-370972D01*
X-17426921Y-380491D01*
X-17425482Y-390198D01*
X-17425000Y-400000D01*
X-17425000Y-600000D01*
X-17425482Y-609802D01*
X-17426921Y-619509D01*
X-17429306Y-629028D01*
X-17432612Y-638268D01*
X-17436808Y-647140D01*
X-17441853Y-655557D01*
X-17447699Y-663439D01*
X-17454289Y-670711D01*
X-17461561Y-677301D01*
X-17469443Y-683147D01*
X-17477860Y-688192D01*
X-17486732Y-692388D01*
X-17495972Y-695694D01*
X-17505491Y-698079D01*
X-17515198Y-699518D01*
X-17525000Y-700000D01*
X-18825000Y-700000D01*
X-18834802Y-699518D01*
X-18844509Y-698079D01*
X-18854028Y-695694D01*
X-18863268Y-692388D01*
X-18872140Y-688192D01*
X-18880557Y-683147D01*
X-18888439Y-677301D01*
X-18895711Y-670711D01*
X-18902301Y-663439D01*
X-18908147Y-655557D01*
X-18913192Y-647140D01*
X-18917388Y-638268D01*
X-18920694Y-629028D01*
X-18923079Y-619509D01*
X-18924518Y-609802D01*
X-18925000Y-600000D01*
X-18925000Y-400000D01*
X-18924518Y-390198D01*
X-18923079Y-380491D01*
X-18920694Y-370972D01*
X-18917388Y-361732D01*
X-18913192Y-352860D01*
X-18908147Y-344443D01*
X-18902301Y-336561D01*
X-18895711Y-329289D01*
X-18888439Y-322699D01*
X-18880557Y-316853D01*
X-18872140Y-311808D01*
X-18863268Y-307612D01*
X-18854028Y-304306D01*
X-18844509Y-301921D01*
X-18834802Y-300482D01*
X-18825000Y-300000D01*
X-17525000Y-300000D01*
X-17515198Y-300482D01*
G37*
G04 #@! TD.AperFunction*
G04 #@! TA.AperFunction,SMDPad,CuDef*
G36*
X-17515198Y499518D02*
G01*
X-17505491Y498079D01*
X-17495972Y495694D01*
X-17486732Y492388D01*
X-17477860Y488192D01*
X-17469443Y483147D01*
X-17461561Y477301D01*
X-17454289Y470711D01*
X-17447699Y463439D01*
X-17441853Y455557D01*
X-17436808Y447140D01*
X-17432612Y438268D01*
X-17429306Y429028D01*
X-17426921Y419509D01*
X-17425482Y409802D01*
X-17425000Y400000D01*
X-17425000Y200000D01*
X-17425482Y190198D01*
X-17426921Y180491D01*
X-17429306Y170972D01*
X-17432612Y161732D01*
X-17436808Y152860D01*
X-17441853Y144443D01*
X-17447699Y136561D01*
X-17454289Y129289D01*
X-17461561Y122699D01*
X-17469443Y116853D01*
X-17477860Y111808D01*
X-17486732Y107612D01*
X-17495972Y104306D01*
X-17505491Y101921D01*
X-17515198Y100482D01*
X-17525000Y100000D01*
X-18825000Y100000D01*
X-18834802Y100482D01*
X-18844509Y101921D01*
X-18854028Y104306D01*
X-18863268Y107612D01*
X-18872140Y111808D01*
X-18880557Y116853D01*
X-18888439Y122699D01*
X-18895711Y129289D01*
X-18902301Y136561D01*
X-18908147Y144443D01*
X-18913192Y152860D01*
X-18917388Y161732D01*
X-18920694Y170972D01*
X-18923079Y180491D01*
X-18924518Y190198D01*
X-18925000Y200000D01*
X-18925000Y400000D01*
X-18924518Y409802D01*
X-18923079Y419509D01*
X-18920694Y429028D01*
X-18917388Y438268D01*
X-18913192Y447140D01*
X-18908147Y455557D01*
X-18902301Y463439D01*
X-18895711Y470711D01*
X-18888439Y477301D01*
X-18880557Y483147D01*
X-18872140Y488192D01*
X-18863268Y492388D01*
X-18854028Y495694D01*
X-18844509Y498079D01*
X-18834802Y499518D01*
X-18825000Y500000D01*
X-17525000Y500000D01*
X-17515198Y499518D01*
G37*
G04 #@! TD.AperFunction*
G04 #@! TA.AperFunction,SMDPad,CuDef*
G36*
X-17515198Y1299518D02*
G01*
X-17505491Y1298079D01*
X-17495972Y1295694D01*
X-17486732Y1292388D01*
X-17477860Y1288192D01*
X-17469443Y1283147D01*
X-17461561Y1277301D01*
X-17454289Y1270711D01*
X-17447699Y1263439D01*
X-17441853Y1255557D01*
X-17436808Y1247140D01*
X-17432612Y1238268D01*
X-17429306Y1229028D01*
X-17426921Y1219509D01*
X-17425482Y1209802D01*
X-17425000Y1200000D01*
X-17425000Y1000000D01*
X-17425482Y990198D01*
X-17426921Y980491D01*
X-17429306Y970972D01*
X-17432612Y961732D01*
X-17436808Y952860D01*
X-17441853Y944443D01*
X-17447699Y936561D01*
X-17454289Y929289D01*
X-17461561Y922699D01*
X-17469443Y916853D01*
X-17477860Y911808D01*
X-17486732Y907612D01*
X-17495972Y904306D01*
X-17505491Y901921D01*
X-17515198Y900482D01*
X-17525000Y900000D01*
X-18825000Y900000D01*
X-18834802Y900482D01*
X-18844509Y901921D01*
X-18854028Y904306D01*
X-18863268Y907612D01*
X-18872140Y911808D01*
X-18880557Y916853D01*
X-18888439Y922699D01*
X-18895711Y929289D01*
X-18902301Y936561D01*
X-18908147Y944443D01*
X-18913192Y952860D01*
X-18917388Y961732D01*
X-18920694Y970972D01*
X-18923079Y980491D01*
X-18924518Y990198D01*
X-18925000Y1000000D01*
X-18925000Y1200000D01*
X-18924518Y1209802D01*
X-18923079Y1219509D01*
X-18920694Y1229028D01*
X-18917388Y1238268D01*
X-18913192Y1247140D01*
X-18908147Y1255557D01*
X-18902301Y1263439D01*
X-18895711Y1270711D01*
X-18888439Y1277301D01*
X-18880557Y1283147D01*
X-18872140Y1288192D01*
X-18863268Y1292388D01*
X-18854028Y1295694D01*
X-18844509Y1298079D01*
X-18834802Y1299518D01*
X-18825000Y1300000D01*
X-17525000Y1300000D01*
X-17515198Y1299518D01*
G37*
G04 #@! TD.AperFunction*
G04 #@! TA.AperFunction,SMDPad,CuDef*
G36*
X-17515198Y2099518D02*
G01*
X-17505491Y2098079D01*
X-17495972Y2095694D01*
X-17486732Y2092388D01*
X-17477860Y2088192D01*
X-17469443Y2083147D01*
X-17461561Y2077301D01*
X-17454289Y2070711D01*
X-17447699Y2063439D01*
X-17441853Y2055557D01*
X-17436808Y2047140D01*
X-17432612Y2038268D01*
X-17429306Y2029028D01*
X-17426921Y2019509D01*
X-17425482Y2009802D01*
X-17425000Y2000000D01*
X-17425000Y1800000D01*
X-17425482Y1790198D01*
X-17426921Y1780491D01*
X-17429306Y1770972D01*
X-17432612Y1761732D01*
X-17436808Y1752860D01*
X-17441853Y1744443D01*
X-17447699Y1736561D01*
X-17454289Y1729289D01*
X-17461561Y1722699D01*
X-17469443Y1716853D01*
X-17477860Y1711808D01*
X-17486732Y1707612D01*
X-17495972Y1704306D01*
X-17505491Y1701921D01*
X-17515198Y1700482D01*
X-17525000Y1700000D01*
X-18825000Y1700000D01*
X-18834802Y1700482D01*
X-18844509Y1701921D01*
X-18854028Y1704306D01*
X-18863268Y1707612D01*
X-18872140Y1711808D01*
X-18880557Y1716853D01*
X-18888439Y1722699D01*
X-18895711Y1729289D01*
X-18902301Y1736561D01*
X-18908147Y1744443D01*
X-18913192Y1752860D01*
X-18917388Y1761732D01*
X-18920694Y1770972D01*
X-18923079Y1780491D01*
X-18924518Y1790198D01*
X-18925000Y1800000D01*
X-18925000Y2000000D01*
X-18924518Y2009802D01*
X-18923079Y2019509D01*
X-18920694Y2029028D01*
X-18917388Y2038268D01*
X-18913192Y2047140D01*
X-18908147Y2055557D01*
X-18902301Y2063439D01*
X-18895711Y2070711D01*
X-18888439Y2077301D01*
X-18880557Y2083147D01*
X-18872140Y2088192D01*
X-18863268Y2092388D01*
X-18854028Y2095694D01*
X-18844509Y2098079D01*
X-18834802Y2099518D01*
X-18825000Y2100000D01*
X-17525000Y2100000D01*
X-17515198Y2099518D01*
G37*
G04 #@! TD.AperFunction*
G04 #@! TA.AperFunction,SMDPad,CuDef*
G36*
X-17515198Y2899518D02*
G01*
X-17505491Y2898079D01*
X-17495972Y2895694D01*
X-17486732Y2892388D01*
X-17477860Y2888192D01*
X-17469443Y2883147D01*
X-17461561Y2877301D01*
X-17454289Y2870711D01*
X-17447699Y2863439D01*
X-17441853Y2855557D01*
X-17436808Y2847140D01*
X-17432612Y2838268D01*
X-17429306Y2829028D01*
X-17426921Y2819509D01*
X-17425482Y2809802D01*
X-17425000Y2800000D01*
X-17425000Y2600000D01*
X-17425482Y2590198D01*
X-17426921Y2580491D01*
X-17429306Y2570972D01*
X-17432612Y2561732D01*
X-17436808Y2552860D01*
X-17441853Y2544443D01*
X-17447699Y2536561D01*
X-17454289Y2529289D01*
X-17461561Y2522699D01*
X-17469443Y2516853D01*
X-17477860Y2511808D01*
X-17486732Y2507612D01*
X-17495972Y2504306D01*
X-17505491Y2501921D01*
X-17515198Y2500482D01*
X-17525000Y2500000D01*
X-18825000Y2500000D01*
X-18834802Y2500482D01*
X-18844509Y2501921D01*
X-18854028Y2504306D01*
X-18863268Y2507612D01*
X-18872140Y2511808D01*
X-18880557Y2516853D01*
X-18888439Y2522699D01*
X-18895711Y2529289D01*
X-18902301Y2536561D01*
X-18908147Y2544443D01*
X-18913192Y2552860D01*
X-18917388Y2561732D01*
X-18920694Y2570972D01*
X-18923079Y2580491D01*
X-18924518Y2590198D01*
X-18925000Y2600000D01*
X-18925000Y2800000D01*
X-18924518Y2809802D01*
X-18923079Y2819509D01*
X-18920694Y2829028D01*
X-18917388Y2838268D01*
X-18913192Y2847140D01*
X-18908147Y2855557D01*
X-18902301Y2863439D01*
X-18895711Y2870711D01*
X-18888439Y2877301D01*
X-18880557Y2883147D01*
X-18872140Y2888192D01*
X-18863268Y2892388D01*
X-18854028Y2895694D01*
X-18844509Y2898079D01*
X-18834802Y2899518D01*
X-18825000Y2900000D01*
X-17525000Y2900000D01*
X-17515198Y2899518D01*
G37*
G04 #@! TD.AperFunction*
G04 #@! TA.AperFunction,SMDPad,CuDef*
G36*
X-17515198Y3699518D02*
G01*
X-17505491Y3698079D01*
X-17495972Y3695694D01*
X-17486732Y3692388D01*
X-17477860Y3688192D01*
X-17469443Y3683147D01*
X-17461561Y3677301D01*
X-17454289Y3670711D01*
X-17447699Y3663439D01*
X-17441853Y3655557D01*
X-17436808Y3647140D01*
X-17432612Y3638268D01*
X-17429306Y3629028D01*
X-17426921Y3619509D01*
X-17425482Y3609802D01*
X-17425000Y3600000D01*
X-17425000Y3400000D01*
X-17425482Y3390198D01*
X-17426921Y3380491D01*
X-17429306Y3370972D01*
X-17432612Y3361732D01*
X-17436808Y3352860D01*
X-17441853Y3344443D01*
X-17447699Y3336561D01*
X-17454289Y3329289D01*
X-17461561Y3322699D01*
X-17469443Y3316853D01*
X-17477860Y3311808D01*
X-17486732Y3307612D01*
X-17495972Y3304306D01*
X-17505491Y3301921D01*
X-17515198Y3300482D01*
X-17525000Y3300000D01*
X-18825000Y3300000D01*
X-18834802Y3300482D01*
X-18844509Y3301921D01*
X-18854028Y3304306D01*
X-18863268Y3307612D01*
X-18872140Y3311808D01*
X-18880557Y3316853D01*
X-18888439Y3322699D01*
X-18895711Y3329289D01*
X-18902301Y3336561D01*
X-18908147Y3344443D01*
X-18913192Y3352860D01*
X-18917388Y3361732D01*
X-18920694Y3370972D01*
X-18923079Y3380491D01*
X-18924518Y3390198D01*
X-18925000Y3400000D01*
X-18925000Y3600000D01*
X-18924518Y3609802D01*
X-18923079Y3619509D01*
X-18920694Y3629028D01*
X-18917388Y3638268D01*
X-18913192Y3647140D01*
X-18908147Y3655557D01*
X-18902301Y3663439D01*
X-18895711Y3670711D01*
X-18888439Y3677301D01*
X-18880557Y3683147D01*
X-18872140Y3688192D01*
X-18863268Y3692388D01*
X-18854028Y3695694D01*
X-18844509Y3698079D01*
X-18834802Y3699518D01*
X-18825000Y3700000D01*
X-17525000Y3700000D01*
X-17515198Y3699518D01*
G37*
G04 #@! TD.AperFunction*
G04 #@! TA.AperFunction,SMDPad,CuDef*
G36*
X-17515198Y4499518D02*
G01*
X-17505491Y4498079D01*
X-17495972Y4495694D01*
X-17486732Y4492388D01*
X-17477860Y4488192D01*
X-17469443Y4483147D01*
X-17461561Y4477301D01*
X-17454289Y4470711D01*
X-17447699Y4463439D01*
X-17441853Y4455557D01*
X-17436808Y4447140D01*
X-17432612Y4438268D01*
X-17429306Y4429028D01*
X-17426921Y4419509D01*
X-17425482Y4409802D01*
X-17425000Y4400000D01*
X-17425000Y4200000D01*
X-17425482Y4190198D01*
X-17426921Y4180491D01*
X-17429306Y4170972D01*
X-17432612Y4161732D01*
X-17436808Y4152860D01*
X-17441853Y4144443D01*
X-17447699Y4136561D01*
X-17454289Y4129289D01*
X-17461561Y4122699D01*
X-17469443Y4116853D01*
X-17477860Y4111808D01*
X-17486732Y4107612D01*
X-17495972Y4104306D01*
X-17505491Y4101921D01*
X-17515198Y4100482D01*
X-17525000Y4100000D01*
X-18825000Y4100000D01*
X-18834802Y4100482D01*
X-18844509Y4101921D01*
X-18854028Y4104306D01*
X-18863268Y4107612D01*
X-18872140Y4111808D01*
X-18880557Y4116853D01*
X-18888439Y4122699D01*
X-18895711Y4129289D01*
X-18902301Y4136561D01*
X-18908147Y4144443D01*
X-18913192Y4152860D01*
X-18917388Y4161732D01*
X-18920694Y4170972D01*
X-18923079Y4180491D01*
X-18924518Y4190198D01*
X-18925000Y4200000D01*
X-18925000Y4400000D01*
X-18924518Y4409802D01*
X-18923079Y4419509D01*
X-18920694Y4429028D01*
X-18917388Y4438268D01*
X-18913192Y4447140D01*
X-18908147Y4455557D01*
X-18902301Y4463439D01*
X-18895711Y4470711D01*
X-18888439Y4477301D01*
X-18880557Y4483147D01*
X-18872140Y4488192D01*
X-18863268Y4492388D01*
X-18854028Y4495694D01*
X-18844509Y4498079D01*
X-18834802Y4499518D01*
X-18825000Y4500000D01*
X-17525000Y4500000D01*
X-17515198Y4499518D01*
G37*
G04 #@! TD.AperFunction*
G04 #@! TA.AperFunction,SMDPad,CuDef*
G36*
X-16690198Y6424518D02*
G01*
X-16680491Y6423079D01*
X-16670972Y6420694D01*
X-16661732Y6417388D01*
X-16652860Y6413192D01*
X-16644443Y6408147D01*
X-16636561Y6402301D01*
X-16629289Y6395711D01*
X-16622699Y6388439D01*
X-16616853Y6380557D01*
X-16611808Y6372140D01*
X-16607612Y6363268D01*
X-16604306Y6354028D01*
X-16601921Y6344509D01*
X-16600482Y6334802D01*
X-16600000Y6325000D01*
X-16600000Y5025000D01*
X-16600482Y5015198D01*
X-16601921Y5005491D01*
X-16604306Y4995972D01*
X-16607612Y4986732D01*
X-16611808Y4977860D01*
X-16616853Y4969443D01*
X-16622699Y4961561D01*
X-16629289Y4954289D01*
X-16636561Y4947699D01*
X-16644443Y4941853D01*
X-16652860Y4936808D01*
X-16661732Y4932612D01*
X-16670972Y4929306D01*
X-16680491Y4926921D01*
X-16690198Y4925482D01*
X-16700000Y4925000D01*
X-16900000Y4925000D01*
X-16909802Y4925482D01*
X-16919509Y4926921D01*
X-16929028Y4929306D01*
X-16938268Y4932612D01*
X-16947140Y4936808D01*
X-16955557Y4941853D01*
X-16963439Y4947699D01*
X-16970711Y4954289D01*
X-16977301Y4961561D01*
X-16983147Y4969443D01*
X-16988192Y4977860D01*
X-16992388Y4986732D01*
X-16995694Y4995972D01*
X-16998079Y5005491D01*
X-16999518Y5015198D01*
X-17000000Y5025000D01*
X-17000000Y6325000D01*
X-16999518Y6334802D01*
X-16998079Y6344509D01*
X-16995694Y6354028D01*
X-16992388Y6363268D01*
X-16988192Y6372140D01*
X-16983147Y6380557D01*
X-16977301Y6388439D01*
X-16970711Y6395711D01*
X-16963439Y6402301D01*
X-16955557Y6408147D01*
X-16947140Y6413192D01*
X-16938268Y6417388D01*
X-16929028Y6420694D01*
X-16919509Y6423079D01*
X-16909802Y6424518D01*
X-16900000Y6425000D01*
X-16700000Y6425000D01*
X-16690198Y6424518D01*
G37*
G04 #@! TD.AperFunction*
G04 #@! TA.AperFunction,SMDPad,CuDef*
G36*
X-15890198Y6424518D02*
G01*
X-15880491Y6423079D01*
X-15870972Y6420694D01*
X-15861732Y6417388D01*
X-15852860Y6413192D01*
X-15844443Y6408147D01*
X-15836561Y6402301D01*
X-15829289Y6395711D01*
X-15822699Y6388439D01*
X-15816853Y6380557D01*
X-15811808Y6372140D01*
X-15807612Y6363268D01*
X-15804306Y6354028D01*
X-15801921Y6344509D01*
X-15800482Y6334802D01*
X-15800000Y6325000D01*
X-15800000Y5025000D01*
X-15800482Y5015198D01*
X-15801921Y5005491D01*
X-15804306Y4995972D01*
X-15807612Y4986732D01*
X-15811808Y4977860D01*
X-15816853Y4969443D01*
X-15822699Y4961561D01*
X-15829289Y4954289D01*
X-15836561Y4947699D01*
X-15844443Y4941853D01*
X-15852860Y4936808D01*
X-15861732Y4932612D01*
X-15870972Y4929306D01*
X-15880491Y4926921D01*
X-15890198Y4925482D01*
X-15900000Y4925000D01*
X-16100000Y4925000D01*
X-16109802Y4925482D01*
X-16119509Y4926921D01*
X-16129028Y4929306D01*
X-16138268Y4932612D01*
X-16147140Y4936808D01*
X-16155557Y4941853D01*
X-16163439Y4947699D01*
X-16170711Y4954289D01*
X-16177301Y4961561D01*
X-16183147Y4969443D01*
X-16188192Y4977860D01*
X-16192388Y4986732D01*
X-16195694Y4995972D01*
X-16198079Y5005491D01*
X-16199518Y5015198D01*
X-16200000Y5025000D01*
X-16200000Y6325000D01*
X-16199518Y6334802D01*
X-16198079Y6344509D01*
X-16195694Y6354028D01*
X-16192388Y6363268D01*
X-16188192Y6372140D01*
X-16183147Y6380557D01*
X-16177301Y6388439D01*
X-16170711Y6395711D01*
X-16163439Y6402301D01*
X-16155557Y6408147D01*
X-16147140Y6413192D01*
X-16138268Y6417388D01*
X-16129028Y6420694D01*
X-16119509Y6423079D01*
X-16109802Y6424518D01*
X-16100000Y6425000D01*
X-15900000Y6425000D01*
X-15890198Y6424518D01*
G37*
G04 #@! TD.AperFunction*
G04 #@! TA.AperFunction,SMDPad,CuDef*
G36*
X-15090198Y6424518D02*
G01*
X-15080491Y6423079D01*
X-15070972Y6420694D01*
X-15061732Y6417388D01*
X-15052860Y6413192D01*
X-15044443Y6408147D01*
X-15036561Y6402301D01*
X-15029289Y6395711D01*
X-15022699Y6388439D01*
X-15016853Y6380557D01*
X-15011808Y6372140D01*
X-15007612Y6363268D01*
X-15004306Y6354028D01*
X-15001921Y6344509D01*
X-15000482Y6334802D01*
X-15000000Y6325000D01*
X-15000000Y5025000D01*
X-15000482Y5015198D01*
X-15001921Y5005491D01*
X-15004306Y4995972D01*
X-15007612Y4986732D01*
X-15011808Y4977860D01*
X-15016853Y4969443D01*
X-15022699Y4961561D01*
X-15029289Y4954289D01*
X-15036561Y4947699D01*
X-15044443Y4941853D01*
X-15052860Y4936808D01*
X-15061732Y4932612D01*
X-15070972Y4929306D01*
X-15080491Y4926921D01*
X-15090198Y4925482D01*
X-15100000Y4925000D01*
X-15300000Y4925000D01*
X-15309802Y4925482D01*
X-15319509Y4926921D01*
X-15329028Y4929306D01*
X-15338268Y4932612D01*
X-15347140Y4936808D01*
X-15355557Y4941853D01*
X-15363439Y4947699D01*
X-15370711Y4954289D01*
X-15377301Y4961561D01*
X-15383147Y4969443D01*
X-15388192Y4977860D01*
X-15392388Y4986732D01*
X-15395694Y4995972D01*
X-15398079Y5005491D01*
X-15399518Y5015198D01*
X-15400000Y5025000D01*
X-15400000Y6325000D01*
X-15399518Y6334802D01*
X-15398079Y6344509D01*
X-15395694Y6354028D01*
X-15392388Y6363268D01*
X-15388192Y6372140D01*
X-15383147Y6380557D01*
X-15377301Y6388439D01*
X-15370711Y6395711D01*
X-15363439Y6402301D01*
X-15355557Y6408147D01*
X-15347140Y6413192D01*
X-15338268Y6417388D01*
X-15329028Y6420694D01*
X-15319509Y6423079D01*
X-15309802Y6424518D01*
X-15300000Y6425000D01*
X-15100000Y6425000D01*
X-15090198Y6424518D01*
G37*
G04 #@! TD.AperFunction*
G04 #@! TA.AperFunction,SMDPad,CuDef*
G36*
X-14290198Y6424518D02*
G01*
X-14280491Y6423079D01*
X-14270972Y6420694D01*
X-14261732Y6417388D01*
X-14252860Y6413192D01*
X-14244443Y6408147D01*
X-14236561Y6402301D01*
X-14229289Y6395711D01*
X-14222699Y6388439D01*
X-14216853Y6380557D01*
X-14211808Y6372140D01*
X-14207612Y6363268D01*
X-14204306Y6354028D01*
X-14201921Y6344509D01*
X-14200482Y6334802D01*
X-14200000Y6325000D01*
X-14200000Y5025000D01*
X-14200482Y5015198D01*
X-14201921Y5005491D01*
X-14204306Y4995972D01*
X-14207612Y4986732D01*
X-14211808Y4977860D01*
X-14216853Y4969443D01*
X-14222699Y4961561D01*
X-14229289Y4954289D01*
X-14236561Y4947699D01*
X-14244443Y4941853D01*
X-14252860Y4936808D01*
X-14261732Y4932612D01*
X-14270972Y4929306D01*
X-14280491Y4926921D01*
X-14290198Y4925482D01*
X-14300000Y4925000D01*
X-14500000Y4925000D01*
X-14509802Y4925482D01*
X-14519509Y4926921D01*
X-14529028Y4929306D01*
X-14538268Y4932612D01*
X-14547140Y4936808D01*
X-14555557Y4941853D01*
X-14563439Y4947699D01*
X-14570711Y4954289D01*
X-14577301Y4961561D01*
X-14583147Y4969443D01*
X-14588192Y4977860D01*
X-14592388Y4986732D01*
X-14595694Y4995972D01*
X-14598079Y5005491D01*
X-14599518Y5015198D01*
X-14600000Y5025000D01*
X-14600000Y6325000D01*
X-14599518Y6334802D01*
X-14598079Y6344509D01*
X-14595694Y6354028D01*
X-14592388Y6363268D01*
X-14588192Y6372140D01*
X-14583147Y6380557D01*
X-14577301Y6388439D01*
X-14570711Y6395711D01*
X-14563439Y6402301D01*
X-14555557Y6408147D01*
X-14547140Y6413192D01*
X-14538268Y6417388D01*
X-14529028Y6420694D01*
X-14519509Y6423079D01*
X-14509802Y6424518D01*
X-14500000Y6425000D01*
X-14300000Y6425000D01*
X-14290198Y6424518D01*
G37*
G04 #@! TD.AperFunction*
G04 #@! TA.AperFunction,SMDPad,CuDef*
G36*
X-13490198Y6424518D02*
G01*
X-13480491Y6423079D01*
X-13470972Y6420694D01*
X-13461732Y6417388D01*
X-13452860Y6413192D01*
X-13444443Y6408147D01*
X-13436561Y6402301D01*
X-13429289Y6395711D01*
X-13422699Y6388439D01*
X-13416853Y6380557D01*
X-13411808Y6372140D01*
X-13407612Y6363268D01*
X-13404306Y6354028D01*
X-13401921Y6344509D01*
X-13400482Y6334802D01*
X-13400000Y6325000D01*
X-13400000Y5025000D01*
X-13400482Y5015198D01*
X-13401921Y5005491D01*
X-13404306Y4995972D01*
X-13407612Y4986732D01*
X-13411808Y4977860D01*
X-13416853Y4969443D01*
X-13422699Y4961561D01*
X-13429289Y4954289D01*
X-13436561Y4947699D01*
X-13444443Y4941853D01*
X-13452860Y4936808D01*
X-13461732Y4932612D01*
X-13470972Y4929306D01*
X-13480491Y4926921D01*
X-13490198Y4925482D01*
X-13500000Y4925000D01*
X-13700000Y4925000D01*
X-13709802Y4925482D01*
X-13719509Y4926921D01*
X-13729028Y4929306D01*
X-13738268Y4932612D01*
X-13747140Y4936808D01*
X-13755557Y4941853D01*
X-13763439Y4947699D01*
X-13770711Y4954289D01*
X-13777301Y4961561D01*
X-13783147Y4969443D01*
X-13788192Y4977860D01*
X-13792388Y4986732D01*
X-13795694Y4995972D01*
X-13798079Y5005491D01*
X-13799518Y5015198D01*
X-13800000Y5025000D01*
X-13800000Y6325000D01*
X-13799518Y6334802D01*
X-13798079Y6344509D01*
X-13795694Y6354028D01*
X-13792388Y6363268D01*
X-13788192Y6372140D01*
X-13783147Y6380557D01*
X-13777301Y6388439D01*
X-13770711Y6395711D01*
X-13763439Y6402301D01*
X-13755557Y6408147D01*
X-13747140Y6413192D01*
X-13738268Y6417388D01*
X-13729028Y6420694D01*
X-13719509Y6423079D01*
X-13709802Y6424518D01*
X-13700000Y6425000D01*
X-13500000Y6425000D01*
X-13490198Y6424518D01*
G37*
G04 #@! TD.AperFunction*
G04 #@! TA.AperFunction,SMDPad,CuDef*
G36*
X-12690198Y6424518D02*
G01*
X-12680491Y6423079D01*
X-12670972Y6420694D01*
X-12661732Y6417388D01*
X-12652860Y6413192D01*
X-12644443Y6408147D01*
X-12636561Y6402301D01*
X-12629289Y6395711D01*
X-12622699Y6388439D01*
X-12616853Y6380557D01*
X-12611808Y6372140D01*
X-12607612Y6363268D01*
X-12604306Y6354028D01*
X-12601921Y6344509D01*
X-12600482Y6334802D01*
X-12600000Y6325000D01*
X-12600000Y5025000D01*
X-12600482Y5015198D01*
X-12601921Y5005491D01*
X-12604306Y4995972D01*
X-12607612Y4986732D01*
X-12611808Y4977860D01*
X-12616853Y4969443D01*
X-12622699Y4961561D01*
X-12629289Y4954289D01*
X-12636561Y4947699D01*
X-12644443Y4941853D01*
X-12652860Y4936808D01*
X-12661732Y4932612D01*
X-12670972Y4929306D01*
X-12680491Y4926921D01*
X-12690198Y4925482D01*
X-12700000Y4925000D01*
X-12900000Y4925000D01*
X-12909802Y4925482D01*
X-12919509Y4926921D01*
X-12929028Y4929306D01*
X-12938268Y4932612D01*
X-12947140Y4936808D01*
X-12955557Y4941853D01*
X-12963439Y4947699D01*
X-12970711Y4954289D01*
X-12977301Y4961561D01*
X-12983147Y4969443D01*
X-12988192Y4977860D01*
X-12992388Y4986732D01*
X-12995694Y4995972D01*
X-12998079Y5005491D01*
X-12999518Y5015198D01*
X-13000000Y5025000D01*
X-13000000Y6325000D01*
X-12999518Y6334802D01*
X-12998079Y6344509D01*
X-12995694Y6354028D01*
X-12992388Y6363268D01*
X-12988192Y6372140D01*
X-12983147Y6380557D01*
X-12977301Y6388439D01*
X-12970711Y6395711D01*
X-12963439Y6402301D01*
X-12955557Y6408147D01*
X-12947140Y6413192D01*
X-12938268Y6417388D01*
X-12929028Y6420694D01*
X-12919509Y6423079D01*
X-12909802Y6424518D01*
X-12900000Y6425000D01*
X-12700000Y6425000D01*
X-12690198Y6424518D01*
G37*
G04 #@! TD.AperFunction*
G04 #@! TA.AperFunction,SMDPad,CuDef*
G36*
X-11890198Y6424518D02*
G01*
X-11880491Y6423079D01*
X-11870972Y6420694D01*
X-11861732Y6417388D01*
X-11852860Y6413192D01*
X-11844443Y6408147D01*
X-11836561Y6402301D01*
X-11829289Y6395711D01*
X-11822699Y6388439D01*
X-11816853Y6380557D01*
X-11811808Y6372140D01*
X-11807612Y6363268D01*
X-11804306Y6354028D01*
X-11801921Y6344509D01*
X-11800482Y6334802D01*
X-11800000Y6325000D01*
X-11800000Y5025000D01*
X-11800482Y5015198D01*
X-11801921Y5005491D01*
X-11804306Y4995972D01*
X-11807612Y4986732D01*
X-11811808Y4977860D01*
X-11816853Y4969443D01*
X-11822699Y4961561D01*
X-11829289Y4954289D01*
X-11836561Y4947699D01*
X-11844443Y4941853D01*
X-11852860Y4936808D01*
X-11861732Y4932612D01*
X-11870972Y4929306D01*
X-11880491Y4926921D01*
X-11890198Y4925482D01*
X-11900000Y4925000D01*
X-12100000Y4925000D01*
X-12109802Y4925482D01*
X-12119509Y4926921D01*
X-12129028Y4929306D01*
X-12138268Y4932612D01*
X-12147140Y4936808D01*
X-12155557Y4941853D01*
X-12163439Y4947699D01*
X-12170711Y4954289D01*
X-12177301Y4961561D01*
X-12183147Y4969443D01*
X-12188192Y4977860D01*
X-12192388Y4986732D01*
X-12195694Y4995972D01*
X-12198079Y5005491D01*
X-12199518Y5015198D01*
X-12200000Y5025000D01*
X-12200000Y6325000D01*
X-12199518Y6334802D01*
X-12198079Y6344509D01*
X-12195694Y6354028D01*
X-12192388Y6363268D01*
X-12188192Y6372140D01*
X-12183147Y6380557D01*
X-12177301Y6388439D01*
X-12170711Y6395711D01*
X-12163439Y6402301D01*
X-12155557Y6408147D01*
X-12147140Y6413192D01*
X-12138268Y6417388D01*
X-12129028Y6420694D01*
X-12119509Y6423079D01*
X-12109802Y6424518D01*
X-12100000Y6425000D01*
X-11900000Y6425000D01*
X-11890198Y6424518D01*
G37*
G04 #@! TD.AperFunction*
G04 #@! TA.AperFunction,SMDPad,CuDef*
G36*
X-11090198Y6424518D02*
G01*
X-11080491Y6423079D01*
X-11070972Y6420694D01*
X-11061732Y6417388D01*
X-11052860Y6413192D01*
X-11044443Y6408147D01*
X-11036561Y6402301D01*
X-11029289Y6395711D01*
X-11022699Y6388439D01*
X-11016853Y6380557D01*
X-11011808Y6372140D01*
X-11007612Y6363268D01*
X-11004306Y6354028D01*
X-11001921Y6344509D01*
X-11000482Y6334802D01*
X-11000000Y6325000D01*
X-11000000Y5025000D01*
X-11000482Y5015198D01*
X-11001921Y5005491D01*
X-11004306Y4995972D01*
X-11007612Y4986732D01*
X-11011808Y4977860D01*
X-11016853Y4969443D01*
X-11022699Y4961561D01*
X-11029289Y4954289D01*
X-11036561Y4947699D01*
X-11044443Y4941853D01*
X-11052860Y4936808D01*
X-11061732Y4932612D01*
X-11070972Y4929306D01*
X-11080491Y4926921D01*
X-11090198Y4925482D01*
X-11100000Y4925000D01*
X-11300000Y4925000D01*
X-11309802Y4925482D01*
X-11319509Y4926921D01*
X-11329028Y4929306D01*
X-11338268Y4932612D01*
X-11347140Y4936808D01*
X-11355557Y4941853D01*
X-11363439Y4947699D01*
X-11370711Y4954289D01*
X-11377301Y4961561D01*
X-11383147Y4969443D01*
X-11388192Y4977860D01*
X-11392388Y4986732D01*
X-11395694Y4995972D01*
X-11398079Y5005491D01*
X-11399518Y5015198D01*
X-11400000Y5025000D01*
X-11400000Y6325000D01*
X-11399518Y6334802D01*
X-11398079Y6344509D01*
X-11395694Y6354028D01*
X-11392388Y6363268D01*
X-11388192Y6372140D01*
X-11383147Y6380557D01*
X-11377301Y6388439D01*
X-11370711Y6395711D01*
X-11363439Y6402301D01*
X-11355557Y6408147D01*
X-11347140Y6413192D01*
X-11338268Y6417388D01*
X-11329028Y6420694D01*
X-11319509Y6423079D01*
X-11309802Y6424518D01*
X-11300000Y6425000D01*
X-11100000Y6425000D01*
X-11090198Y6424518D01*
G37*
G04 #@! TD.AperFunction*
G04 #@! TA.AperFunction,SMDPad,CuDef*
G36*
X-24500000Y-945000D02*
G01*
X-25000000Y-195000D01*
X-23000000Y-195000D01*
X-23500000Y-945000D01*
X-24500000Y-945000D01*
G37*
G04 #@! TD.AperFunction*
D14*
X-24000000Y1780000D03*
D15*
X-25500000Y-2180000D03*
X-24000000Y-2180000D03*
X-22500000Y-2180000D03*
G04 #@! TA.AperFunction,SMDPad,CuDef*
D13*
G36*
X-564221Y10973856D02*
G01*
X-541166Y10970437D01*
X-518557Y10964773D01*
X-496613Y10956921D01*
X-475543Y10946956D01*
X-455552Y10934974D01*
X-436832Y10921090D01*
X-419562Y10905438D01*
X-403910Y10888168D01*
X-390026Y10869448D01*
X-378044Y10849457D01*
X-368079Y10828387D01*
X-360227Y10806443D01*
X-354563Y10783834D01*
X-351144Y10760779D01*
X-350000Y10737500D01*
X-350000Y10262500D01*
X-351144Y10239221D01*
X-354563Y10216166D01*
X-360227Y10193557D01*
X-368079Y10171613D01*
X-378044Y10150543D01*
X-390026Y10130552D01*
X-403910Y10111832D01*
X-419562Y10094562D01*
X-436832Y10078910D01*
X-455552Y10065026D01*
X-475543Y10053044D01*
X-496613Y10043079D01*
X-518557Y10035227D01*
X-541166Y10029563D01*
X-564221Y10026144D01*
X-587500Y10025000D01*
X-1162500Y10025000D01*
X-1185779Y10026144D01*
X-1208834Y10029563D01*
X-1231443Y10035227D01*
X-1253387Y10043079D01*
X-1274457Y10053044D01*
X-1294448Y10065026D01*
X-1313168Y10078910D01*
X-1330438Y10094562D01*
X-1346090Y10111832D01*
X-1359974Y10130552D01*
X-1371956Y10150543D01*
X-1381921Y10171613D01*
X-1389773Y10193557D01*
X-1395437Y10216166D01*
X-1398856Y10239221D01*
X-1400000Y10262500D01*
X-1400000Y10737500D01*
X-1398856Y10760779D01*
X-1395437Y10783834D01*
X-1389773Y10806443D01*
X-1381921Y10828387D01*
X-1371956Y10849457D01*
X-1359974Y10869448D01*
X-1346090Y10888168D01*
X-1330438Y10905438D01*
X-1313168Y10921090D01*
X-1294448Y10934974D01*
X-1274457Y10946956D01*
X-1253387Y10956921D01*
X-1231443Y10964773D01*
X-1208834Y10970437D01*
X-1185779Y10973856D01*
X-1162500Y10975000D01*
X-587500Y10975000D01*
X-564221Y10973856D01*
G37*
G04 #@! TD.AperFunction*
G04 #@! TA.AperFunction,SMDPad,CuDef*
G36*
X1185779Y10973856D02*
G01*
X1208834Y10970437D01*
X1231443Y10964773D01*
X1253387Y10956921D01*
X1274457Y10946956D01*
X1294448Y10934974D01*
X1313168Y10921090D01*
X1330438Y10905438D01*
X1346090Y10888168D01*
X1359974Y10869448D01*
X1371956Y10849457D01*
X1381921Y10828387D01*
X1389773Y10806443D01*
X1395437Y10783834D01*
X1398856Y10760779D01*
X1400000Y10737500D01*
X1400000Y10262500D01*
X1398856Y10239221D01*
X1395437Y10216166D01*
X1389773Y10193557D01*
X1381921Y10171613D01*
X1371956Y10150543D01*
X1359974Y10130552D01*
X1346090Y10111832D01*
X1330438Y10094562D01*
X1313168Y10078910D01*
X1294448Y10065026D01*
X1274457Y10053044D01*
X1253387Y10043079D01*
X1231443Y10035227D01*
X1208834Y10029563D01*
X1185779Y10026144D01*
X1162500Y10025000D01*
X587500Y10025000D01*
X564221Y10026144D01*
X541166Y10029563D01*
X518557Y10035227D01*
X496613Y10043079D01*
X475543Y10053044D01*
X455552Y10065026D01*
X436832Y10078910D01*
X419562Y10094562D01*
X403910Y10111832D01*
X390026Y10130552D01*
X378044Y10150543D01*
X368079Y10171613D01*
X360227Y10193557D01*
X354563Y10216166D01*
X351144Y10239221D01*
X350000Y10262500D01*
X350000Y10737500D01*
X351144Y10760779D01*
X354563Y10783834D01*
X360227Y10806443D01*
X368079Y10828387D01*
X378044Y10849457D01*
X390026Y10869448D01*
X403910Y10888168D01*
X419562Y10905438D01*
X436832Y10921090D01*
X455552Y10934974D01*
X475543Y10946956D01*
X496613Y10956921D01*
X518557Y10964773D01*
X541166Y10970437D01*
X564221Y10973856D01*
X587500Y10975000D01*
X1162500Y10975000D01*
X1185779Y10973856D01*
G37*
G04 #@! TD.AperFunction*
G04 #@! TA.AperFunction,SMDPad,CuDef*
G36*
X-11039221Y10398856D02*
G01*
X-11016166Y10395437D01*
X-10993557Y10389773D01*
X-10971613Y10381921D01*
X-10950543Y10371956D01*
X-10930552Y10359974D01*
X-10911832Y10346090D01*
X-10894562Y10330438D01*
X-10878910Y10313168D01*
X-10865026Y10294448D01*
X-10853044Y10274457D01*
X-10843079Y10253387D01*
X-10835227Y10231443D01*
X-10829563Y10208834D01*
X-10826144Y10185779D01*
X-10825000Y10162500D01*
X-10825000Y9587500D01*
X-10826144Y9564221D01*
X-10829563Y9541166D01*
X-10835227Y9518557D01*
X-10843079Y9496613D01*
X-10853044Y9475543D01*
X-10865026Y9455552D01*
X-10878910Y9436832D01*
X-10894562Y9419562D01*
X-10911832Y9403910D01*
X-10930552Y9390026D01*
X-10950543Y9378044D01*
X-10971613Y9368079D01*
X-10993557Y9360227D01*
X-11016166Y9354563D01*
X-11039221Y9351144D01*
X-11062500Y9350000D01*
X-11537500Y9350000D01*
X-11560779Y9351144D01*
X-11583834Y9354563D01*
X-11606443Y9360227D01*
X-11628387Y9368079D01*
X-11649457Y9378044D01*
X-11669448Y9390026D01*
X-11688168Y9403910D01*
X-11705438Y9419562D01*
X-11721090Y9436832D01*
X-11734974Y9455552D01*
X-11746956Y9475543D01*
X-11756921Y9496613D01*
X-11764773Y9518557D01*
X-11770437Y9541166D01*
X-11773856Y9564221D01*
X-11775000Y9587500D01*
X-11775000Y10162500D01*
X-11773856Y10185779D01*
X-11770437Y10208834D01*
X-11764773Y10231443D01*
X-11756921Y10253387D01*
X-11746956Y10274457D01*
X-11734974Y10294448D01*
X-11721090Y10313168D01*
X-11705438Y10330438D01*
X-11688168Y10346090D01*
X-11669448Y10359974D01*
X-11649457Y10371956D01*
X-11628387Y10381921D01*
X-11606443Y10389773D01*
X-11583834Y10395437D01*
X-11560779Y10398856D01*
X-11537500Y10400000D01*
X-11062500Y10400000D01*
X-11039221Y10398856D01*
G37*
G04 #@! TD.AperFunction*
G04 #@! TA.AperFunction,SMDPad,CuDef*
G36*
X-11039221Y8648856D02*
G01*
X-11016166Y8645437D01*
X-10993557Y8639773D01*
X-10971613Y8631921D01*
X-10950543Y8621956D01*
X-10930552Y8609974D01*
X-10911832Y8596090D01*
X-10894562Y8580438D01*
X-10878910Y8563168D01*
X-10865026Y8544448D01*
X-10853044Y8524457D01*
X-10843079Y8503387D01*
X-10835227Y8481443D01*
X-10829563Y8458834D01*
X-10826144Y8435779D01*
X-10825000Y8412500D01*
X-10825000Y7837500D01*
X-10826144Y7814221D01*
X-10829563Y7791166D01*
X-10835227Y7768557D01*
X-10843079Y7746613D01*
X-10853044Y7725543D01*
X-10865026Y7705552D01*
X-10878910Y7686832D01*
X-10894562Y7669562D01*
X-10911832Y7653910D01*
X-10930552Y7640026D01*
X-10950543Y7628044D01*
X-10971613Y7618079D01*
X-10993557Y7610227D01*
X-11016166Y7604563D01*
X-11039221Y7601144D01*
X-11062500Y7600000D01*
X-11537500Y7600000D01*
X-11560779Y7601144D01*
X-11583834Y7604563D01*
X-11606443Y7610227D01*
X-11628387Y7618079D01*
X-11649457Y7628044D01*
X-11669448Y7640026D01*
X-11688168Y7653910D01*
X-11705438Y7669562D01*
X-11721090Y7686832D01*
X-11734974Y7705552D01*
X-11746956Y7725543D01*
X-11756921Y7746613D01*
X-11764773Y7768557D01*
X-11770437Y7791166D01*
X-11773856Y7814221D01*
X-11775000Y7837500D01*
X-11775000Y8412500D01*
X-11773856Y8435779D01*
X-11770437Y8458834D01*
X-11764773Y8481443D01*
X-11756921Y8503387D01*
X-11746956Y8524457D01*
X-11734974Y8544448D01*
X-11721090Y8563168D01*
X-11705438Y8580438D01*
X-11688168Y8596090D01*
X-11669448Y8609974D01*
X-11649457Y8621956D01*
X-11628387Y8631921D01*
X-11606443Y8639773D01*
X-11583834Y8645437D01*
X-11560779Y8648856D01*
X-11537500Y8650000D01*
X-11062500Y8650000D01*
X-11039221Y8648856D01*
G37*
G04 #@! TD.AperFunction*
D16*
X13500000Y0D03*
X13000000Y0D03*
X12500000Y0D03*
X12000000Y0D03*
X11500000Y0D03*
D17*
X-9450000Y-7000000D03*
X7050000Y10900000D03*
D18*
X-33500000Y5500000D03*
X-33500000Y-2500000D03*
D19*
X-30950000Y4600000D03*
X-30950000Y-1600000D03*
D20*
X-30650000Y2800000D03*
X-30625000Y2150000D03*
X-30625000Y1500000D03*
X-30625000Y850000D03*
X-30625000Y200000D03*
G04 #@! TA.AperFunction,SMDPad,CuDef*
D13*
G36*
X-27150496Y3798796D02*
G01*
X-27126227Y3795196D01*
X-27102429Y3789235D01*
X-27079329Y3780970D01*
X-27057151Y3770480D01*
X-27036107Y3757867D01*
X-27016402Y3743253D01*
X-26998223Y3726777D01*
X-26981747Y3708598D01*
X-26967133Y3688893D01*
X-26954520Y3667849D01*
X-26944030Y3645671D01*
X-26935765Y3622571D01*
X-26929804Y3598773D01*
X-26926204Y3574504D01*
X-26925000Y3550000D01*
X-26925000Y2625000D01*
X-26926204Y2600496D01*
X-26929804Y2576227D01*
X-26935765Y2552429D01*
X-26944030Y2529329D01*
X-26954520Y2507151D01*
X-26967133Y2486107D01*
X-26981747Y2466402D01*
X-26998223Y2448223D01*
X-27016402Y2431747D01*
X-27036107Y2417133D01*
X-27057151Y2404520D01*
X-27079329Y2394030D01*
X-27102429Y2385765D01*
X-27126227Y2379804D01*
X-27150496Y2376204D01*
X-27175000Y2375000D01*
X-28425000Y2375000D01*
X-28449504Y2376204D01*
X-28473773Y2379804D01*
X-28497571Y2385765D01*
X-28520671Y2394030D01*
X-28542849Y2404520D01*
X-28563893Y2417133D01*
X-28583598Y2431747D01*
X-28601777Y2448223D01*
X-28618253Y2466402D01*
X-28632867Y2486107D01*
X-28645480Y2507151D01*
X-28655970Y2529329D01*
X-28664235Y2552429D01*
X-28670196Y2576227D01*
X-28673796Y2600496D01*
X-28675000Y2625000D01*
X-28675000Y3550000D01*
X-28673796Y3574504D01*
X-28670196Y3598773D01*
X-28664235Y3622571D01*
X-28655970Y3645671D01*
X-28645480Y3667849D01*
X-28632867Y3688893D01*
X-28618253Y3708598D01*
X-28601777Y3726777D01*
X-28583598Y3743253D01*
X-28563893Y3757867D01*
X-28542849Y3770480D01*
X-28520671Y3780970D01*
X-28497571Y3789235D01*
X-28473773Y3795196D01*
X-28449504Y3798796D01*
X-28425000Y3800000D01*
X-27175000Y3800000D01*
X-27150496Y3798796D01*
G37*
G04 #@! TD.AperFunction*
G04 #@! TA.AperFunction,SMDPad,CuDef*
G36*
X-27150496Y823796D02*
G01*
X-27126227Y820196D01*
X-27102429Y814235D01*
X-27079329Y805970D01*
X-27057151Y795480D01*
X-27036107Y782867D01*
X-27016402Y768253D01*
X-26998223Y751777D01*
X-26981747Y733598D01*
X-26967133Y713893D01*
X-26954520Y692849D01*
X-26944030Y670671D01*
X-26935765Y647571D01*
X-26929804Y623773D01*
X-26926204Y599504D01*
X-26925000Y575000D01*
X-26925000Y-350000D01*
X-26926204Y-374504D01*
X-26929804Y-398773D01*
X-26935765Y-422571D01*
X-26944030Y-445671D01*
X-26954520Y-467849D01*
X-26967133Y-488893D01*
X-26981747Y-508598D01*
X-26998223Y-526777D01*
X-27016402Y-543253D01*
X-27036107Y-557867D01*
X-27057151Y-570480D01*
X-27079329Y-580970D01*
X-27102429Y-589235D01*
X-27126227Y-595196D01*
X-27150496Y-598796D01*
X-27175000Y-600000D01*
X-28425000Y-600000D01*
X-28449504Y-598796D01*
X-28473773Y-595196D01*
X-28497571Y-589235D01*
X-28520671Y-580970D01*
X-28542849Y-570480D01*
X-28563893Y-557867D01*
X-28583598Y-543253D01*
X-28601777Y-526777D01*
X-28618253Y-508598D01*
X-28632867Y-488893D01*
X-28645480Y-467849D01*
X-28655970Y-445671D01*
X-28664235Y-422571D01*
X-28670196Y-398773D01*
X-28673796Y-374504D01*
X-28675000Y-350000D01*
X-28675000Y575000D01*
X-28673796Y599504D01*
X-28670196Y623773D01*
X-28664235Y647571D01*
X-28655970Y670671D01*
X-28645480Y692849D01*
X-28632867Y713893D01*
X-28618253Y733598D01*
X-28601777Y751777D01*
X-28583598Y768253D01*
X-28563893Y782867D01*
X-28542849Y795480D01*
X-28520671Y805970D01*
X-28497571Y814235D01*
X-28473773Y820196D01*
X-28449504Y823796D01*
X-28425000Y825000D01*
X-27175000Y825000D01*
X-27150496Y823796D01*
G37*
G04 #@! TD.AperFunction*
G04 #@! TA.AperFunction,SMDPad,CuDef*
G36*
X-9539221Y10398856D02*
G01*
X-9516166Y10395437D01*
X-9493557Y10389773D01*
X-9471613Y10381921D01*
X-9450543Y10371956D01*
X-9430552Y10359974D01*
X-9411832Y10346090D01*
X-9394562Y10330438D01*
X-9378910Y10313168D01*
X-9365026Y10294448D01*
X-9353044Y10274457D01*
X-9343079Y10253387D01*
X-9335227Y10231443D01*
X-9329563Y10208834D01*
X-9326144Y10185779D01*
X-9325000Y10162500D01*
X-9325000Y9587500D01*
X-9326144Y9564221D01*
X-9329563Y9541166D01*
X-9335227Y9518557D01*
X-9343079Y9496613D01*
X-9353044Y9475543D01*
X-9365026Y9455552D01*
X-9378910Y9436832D01*
X-9394562Y9419562D01*
X-9411832Y9403910D01*
X-9430552Y9390026D01*
X-9450543Y9378044D01*
X-9471613Y9368079D01*
X-9493557Y9360227D01*
X-9516166Y9354563D01*
X-9539221Y9351144D01*
X-9562500Y9350000D01*
X-10037500Y9350000D01*
X-10060779Y9351144D01*
X-10083834Y9354563D01*
X-10106443Y9360227D01*
X-10128387Y9368079D01*
X-10149457Y9378044D01*
X-10169448Y9390026D01*
X-10188168Y9403910D01*
X-10205438Y9419562D01*
X-10221090Y9436832D01*
X-10234974Y9455552D01*
X-10246956Y9475543D01*
X-10256921Y9496613D01*
X-10264773Y9518557D01*
X-10270437Y9541166D01*
X-10273856Y9564221D01*
X-10275000Y9587500D01*
X-10275000Y10162500D01*
X-10273856Y10185779D01*
X-10270437Y10208834D01*
X-10264773Y10231443D01*
X-10256921Y10253387D01*
X-10246956Y10274457D01*
X-10234974Y10294448D01*
X-10221090Y10313168D01*
X-10205438Y10330438D01*
X-10188168Y10346090D01*
X-10169448Y10359974D01*
X-10149457Y10371956D01*
X-10128387Y10381921D01*
X-10106443Y10389773D01*
X-10083834Y10395437D01*
X-10060779Y10398856D01*
X-10037500Y10400000D01*
X-9562500Y10400000D01*
X-9539221Y10398856D01*
G37*
G04 #@! TD.AperFunction*
G04 #@! TA.AperFunction,SMDPad,CuDef*
G36*
X-9539221Y8648856D02*
G01*
X-9516166Y8645437D01*
X-9493557Y8639773D01*
X-9471613Y8631921D01*
X-9450543Y8621956D01*
X-9430552Y8609974D01*
X-9411832Y8596090D01*
X-9394562Y8580438D01*
X-9378910Y8563168D01*
X-9365026Y8544448D01*
X-9353044Y8524457D01*
X-9343079Y8503387D01*
X-9335227Y8481443D01*
X-9329563Y8458834D01*
X-9326144Y8435779D01*
X-9325000Y8412500D01*
X-9325000Y7837500D01*
X-9326144Y7814221D01*
X-9329563Y7791166D01*
X-9335227Y7768557D01*
X-9343079Y7746613D01*
X-9353044Y7725543D01*
X-9365026Y7705552D01*
X-9378910Y7686832D01*
X-9394562Y7669562D01*
X-9411832Y7653910D01*
X-9430552Y7640026D01*
X-9450543Y7628044D01*
X-9471613Y7618079D01*
X-9493557Y7610227D01*
X-9516166Y7604563D01*
X-9539221Y7601144D01*
X-9562500Y7600000D01*
X-10037500Y7600000D01*
X-10060779Y7601144D01*
X-10083834Y7604563D01*
X-10106443Y7610227D01*
X-10128387Y7618079D01*
X-10149457Y7628044D01*
X-10169448Y7640026D01*
X-10188168Y7653910D01*
X-10205438Y7669562D01*
X-10221090Y7686832D01*
X-10234974Y7705552D01*
X-10246956Y7725543D01*
X-10256921Y7746613D01*
X-10264773Y7768557D01*
X-10270437Y7791166D01*
X-10273856Y7814221D01*
X-10275000Y7837500D01*
X-10275000Y8412500D01*
X-10273856Y8435779D01*
X-10270437Y8458834D01*
X-10264773Y8481443D01*
X-10256921Y8503387D01*
X-10246956Y8524457D01*
X-10234974Y8544448D01*
X-10221090Y8563168D01*
X-10205438Y8580438D01*
X-10188168Y8596090D01*
X-10169448Y8609974D01*
X-10149457Y8621956D01*
X-10128387Y8631921D01*
X-10106443Y8639773D01*
X-10083834Y8645437D01*
X-10060779Y8648856D01*
X-10037500Y8650000D01*
X-9562500Y8650000D01*
X-9539221Y8648856D01*
G37*
G04 #@! TD.AperFunction*
G04 #@! TA.AperFunction,SMDPad,CuDef*
G36*
X-20339221Y-2951144D02*
G01*
X-20316166Y-2954563D01*
X-20293557Y-2960227D01*
X-20271613Y-2968079D01*
X-20250543Y-2978044D01*
X-20230552Y-2990026D01*
X-20211832Y-3003910D01*
X-20194562Y-3019562D01*
X-20178910Y-3036832D01*
X-20165026Y-3055552D01*
X-20153044Y-3075543D01*
X-20143079Y-3096613D01*
X-20135227Y-3118557D01*
X-20129563Y-3141166D01*
X-20126144Y-3164221D01*
X-20125000Y-3187500D01*
X-20125000Y-3762500D01*
X-20126144Y-3785779D01*
X-20129563Y-3808834D01*
X-20135227Y-3831443D01*
X-20143079Y-3853387D01*
X-20153044Y-3874457D01*
X-20165026Y-3894448D01*
X-20178910Y-3913168D01*
X-20194562Y-3930438D01*
X-20211832Y-3946090D01*
X-20230552Y-3959974D01*
X-20250543Y-3971956D01*
X-20271613Y-3981921D01*
X-20293557Y-3989773D01*
X-20316166Y-3995437D01*
X-20339221Y-3998856D01*
X-20362500Y-4000000D01*
X-20837500Y-4000000D01*
X-20860779Y-3998856D01*
X-20883834Y-3995437D01*
X-20906443Y-3989773D01*
X-20928387Y-3981921D01*
X-20949457Y-3971956D01*
X-20969448Y-3959974D01*
X-20988168Y-3946090D01*
X-21005438Y-3930438D01*
X-21021090Y-3913168D01*
X-21034974Y-3894448D01*
X-21046956Y-3874457D01*
X-21056921Y-3853387D01*
X-21064773Y-3831443D01*
X-21070437Y-3808834D01*
X-21073856Y-3785779D01*
X-21075000Y-3762500D01*
X-21075000Y-3187500D01*
X-21073856Y-3164221D01*
X-21070437Y-3141166D01*
X-21064773Y-3118557D01*
X-21056921Y-3096613D01*
X-21046956Y-3075543D01*
X-21034974Y-3055552D01*
X-21021090Y-3036832D01*
X-21005438Y-3019562D01*
X-20988168Y-3003910D01*
X-20969448Y-2990026D01*
X-20949457Y-2978044D01*
X-20928387Y-2968079D01*
X-20906443Y-2960227D01*
X-20883834Y-2954563D01*
X-20860779Y-2951144D01*
X-20837500Y-2950000D01*
X-20362500Y-2950000D01*
X-20339221Y-2951144D01*
G37*
G04 #@! TD.AperFunction*
G04 #@! TA.AperFunction,SMDPad,CuDef*
G36*
X-20339221Y-1201144D02*
G01*
X-20316166Y-1204563D01*
X-20293557Y-1210227D01*
X-20271613Y-1218079D01*
X-20250543Y-1228044D01*
X-20230552Y-1240026D01*
X-20211832Y-1253910D01*
X-20194562Y-1269562D01*
X-20178910Y-1286832D01*
X-20165026Y-1305552D01*
X-20153044Y-1325543D01*
X-20143079Y-1346613D01*
X-20135227Y-1368557D01*
X-20129563Y-1391166D01*
X-20126144Y-1414221D01*
X-20125000Y-1437500D01*
X-20125000Y-2012500D01*
X-20126144Y-2035779D01*
X-20129563Y-2058834D01*
X-20135227Y-2081443D01*
X-20143079Y-2103387D01*
X-20153044Y-2124457D01*
X-20165026Y-2144448D01*
X-20178910Y-2163168D01*
X-20194562Y-2180438D01*
X-20211832Y-2196090D01*
X-20230552Y-2209974D01*
X-20250543Y-2221956D01*
X-20271613Y-2231921D01*
X-20293557Y-2239773D01*
X-20316166Y-2245437D01*
X-20339221Y-2248856D01*
X-20362500Y-2250000D01*
X-20837500Y-2250000D01*
X-20860779Y-2248856D01*
X-20883834Y-2245437D01*
X-20906443Y-2239773D01*
X-20928387Y-2231921D01*
X-20949457Y-2221956D01*
X-20969448Y-2209974D01*
X-20988168Y-2196090D01*
X-21005438Y-2180438D01*
X-21021090Y-2163168D01*
X-21034974Y-2144448D01*
X-21046956Y-2124457D01*
X-21056921Y-2103387D01*
X-21064773Y-2081443D01*
X-21070437Y-2058834D01*
X-21073856Y-2035779D01*
X-21075000Y-2012500D01*
X-21075000Y-1437500D01*
X-21073856Y-1414221D01*
X-21070437Y-1391166D01*
X-21064773Y-1368557D01*
X-21056921Y-1346613D01*
X-21046956Y-1325543D01*
X-21034974Y-1305552D01*
X-21021090Y-1286832D01*
X-21005438Y-1269562D01*
X-20988168Y-1253910D01*
X-20969448Y-1240026D01*
X-20949457Y-1228044D01*
X-20928387Y-1218079D01*
X-20906443Y-1210227D01*
X-20883834Y-1204563D01*
X-20860779Y-1201144D01*
X-20837500Y-1200000D01*
X-20362500Y-1200000D01*
X-20339221Y-1201144D01*
G37*
G04 #@! TD.AperFunction*
D21*
X11400000Y2300000D03*
X-11200000Y7000000D03*
X-6550000Y7000000D03*
X-21300000Y4100000D03*
X8700000Y7700000D03*
X-6550000Y5950000D03*
X2500000Y10500000D03*
X-12800000Y8650000D03*
X-32800000Y1500000D03*
X-20500000Y2700000D03*
X-32200000Y850000D03*
X-19900000Y1900000D03*
X5700000Y-6900000D03*
X-6650000Y-6100000D03*
X-15200000Y7300000D03*
D22*
X-27400000Y-3475000D02*
X-26355201Y-3475000D01*
X-24000000Y-3684000D02*
X-24000000Y-2180000D01*
X-26264161Y-3760201D02*
X-24076201Y-3760201D01*
X-26330201Y-3694161D02*
X-26264161Y-3760201D01*
X-26330201Y-3500000D02*
X-26330201Y-3694161D01*
X-24076201Y-3760201D02*
X-24000000Y-3684000D01*
X-26355201Y-3475000D02*
X-26330201Y-3500000D01*
X-27875000Y-3475000D02*
X-27400000Y-3475000D01*
X-30950000Y-2904000D02*
X-30379000Y-3475000D01*
X-30379000Y-3475000D02*
X-27875000Y-3475000D01*
X-30950000Y-1600000D02*
X-30950000Y-2904000D01*
X-32296000Y-2500000D02*
X-31321000Y-3475000D01*
X-31321000Y-3475000D02*
X-30379000Y-3475000D01*
X-33500000Y-2500000D02*
X-32296000Y-2500000D01*
X-33500000Y2800000D02*
X-33500000Y-2500000D01*
X-30650000Y2800000D02*
X-33500000Y2800000D01*
X-33500000Y5500000D02*
X-33500000Y2800000D01*
X-20600000Y-3475000D02*
X-21525000Y-3475000D01*
X-21735839Y-3760201D02*
X-23923799Y-3760201D01*
X-23923799Y-3760201D02*
X-24000000Y-3684000D01*
X-21525000Y-3549362D02*
X-21735839Y-3760201D01*
X-21525000Y-3475000D02*
X-21525000Y-3549362D01*
X-20600000Y-4000000D02*
X-20600000Y-3475000D01*
X-19425000Y-5175000D02*
X-20600000Y-4000000D01*
X-18200000Y-5175000D02*
X-19425000Y-5175000D01*
X-22746000Y1780000D02*
X-24000000Y1780000D01*
X-22550000Y1976000D02*
X-22746000Y1780000D01*
X-22550000Y6150000D02*
X-22550000Y1976000D01*
X-24000000Y1780000D02*
X-24000000Y-2180000D01*
X-22550000Y-4596000D02*
X-22550000Y-3760201D01*
X-22550000Y-6350000D02*
X-22550000Y-4596000D01*
X27450000Y6150000D02*
X27450000Y-6350000D01*
X12000000Y0D02*
X12000000Y1254000D01*
X12000000Y1700000D02*
X11400000Y2300000D01*
X12000000Y1254000D02*
X12000000Y1700000D01*
X-9800000Y9875000D02*
X-11300000Y9875000D01*
X-11200000Y5675000D02*
X-11200000Y7000000D01*
X-9325000Y9875000D02*
X-9800000Y9875000D01*
X-6854799Y7404799D02*
X-9325000Y9875000D01*
X-6854799Y7304799D02*
X-6854799Y7404799D01*
X-6550000Y7000000D02*
X-6854799Y7304799D01*
X-17025000Y-5175000D02*
X-18200000Y-5175000D01*
X-16800000Y-4950000D02*
X-17025000Y-5175000D01*
X-16800000Y-2675000D02*
X-16800000Y-4950000D01*
X-32296000Y5500000D02*
X-32200000Y5404000D01*
X-33500000Y5500000D02*
X-32296000Y5500000D01*
X-32004000Y4600000D02*
X-30950000Y4600000D01*
X-32200000Y4796000D02*
X-32004000Y4600000D01*
X-32200000Y5404000D02*
X-32200000Y4796000D01*
X-27400000Y-287500D02*
X-27800000Y112500D01*
X-27400000Y-1725000D02*
X-27400000Y-287500D01*
X-25955000Y-1725000D02*
X-25500000Y-2180000D01*
X-27400000Y-1725000D02*
X-25955000Y-1725000D01*
X-25500000Y6584754D02*
X-29150000Y10234754D01*
X-25500000Y-2180000D02*
X-25500000Y6584754D01*
X-29150000Y10234754D02*
X-29150000Y11550000D01*
X-29150000Y11550000D02*
X-28650000Y12050000D01*
X-875000Y10975000D02*
X-875000Y10500000D01*
X-1950000Y12050000D02*
X-875000Y10975000D01*
X-28650000Y12050000D02*
X-1950000Y12050000D01*
X-22045000Y-1725000D02*
X-22500000Y-2180000D01*
X-20600000Y-1725000D02*
X-22045000Y-1725000D01*
X-18175000Y-1300000D02*
X-19400000Y-1300000D01*
X-19825000Y-1725000D02*
X-20600000Y-1725000D01*
X-19400000Y-1300000D02*
X-19825000Y-1725000D01*
X-18200000Y-2900000D02*
X-18200000Y-3425000D01*
X-19375000Y-1725000D02*
X-18200000Y-2900000D01*
X-20600000Y-1725000D02*
X-19375000Y-1725000D01*
X-18175000Y-1300000D02*
X-14350000Y-1300000D01*
X-11950000Y1100000D02*
X-9825000Y1100000D01*
X-14350000Y-1300000D02*
X-11950000Y1100000D01*
X-9825000Y4300000D02*
X-8550000Y4300000D01*
X-8550000Y4300000D02*
X-8000000Y4850000D01*
X-8000000Y4850000D02*
X-8000000Y7500000D01*
X-8625000Y8125000D02*
X-9800000Y8125000D01*
X-8000000Y7500000D02*
X-8625000Y8125000D01*
X-21300000Y524000D02*
X-21300000Y4100000D01*
X-22500000Y-676000D02*
X-21300000Y524000D01*
X-22500000Y-2180000D02*
X-22500000Y-676000D01*
X13500000Y2900000D02*
X8700000Y7700000D01*
X13500000Y0D02*
X13500000Y2900000D01*
X-7650000Y4850000D02*
X-8000000Y4850000D01*
X-6550000Y5950000D02*
X-7650000Y4850000D01*
X-9825000Y1100000D02*
X-8450000Y1100000D01*
X-8450000Y4200000D02*
X-8550000Y4300000D01*
X-8450000Y1100000D02*
X-8450000Y4200000D01*
X2500000Y10500000D02*
X875000Y10500000D01*
X-12800000Y5675000D02*
X-12800000Y8650000D01*
X-27800000Y2375000D02*
X-27800000Y3087500D01*
X-27800000Y2055638D02*
X-27800000Y2375000D01*
X-29655638Y200000D02*
X-27800000Y2055638D01*
X-30625000Y200000D02*
X-29655638Y200000D01*
X-30625000Y1500000D02*
X-32800000Y1500000D01*
X-20500000Y2700000D02*
X-18175000Y2700000D01*
X-30625000Y850000D02*
X-32200000Y850000D01*
X-19900000Y1900000D02*
X-18175000Y1900000D01*
X-9825000Y300000D02*
X-8350000Y300000D01*
X13000000Y-1254000D02*
X13000000Y0D01*
X6397115Y-7856885D02*
X13000000Y-1254000D01*
X-3256134Y-7856885D02*
X6397115Y-7856885D01*
X-8192790Y-2920229D02*
X-3256134Y-7856885D01*
X-8192790Y142790D02*
X-8192790Y-2920229D01*
X-8350000Y300000D02*
X-8192790Y142790D01*
X-13600000Y8902866D02*
X-13600000Y6425000D01*
X-11772656Y10730210D02*
X-13600000Y8902866D01*
X-6547134Y7950000D02*
X-9327344Y10730210D01*
X-13600000Y6425000D02*
X-13600000Y5675000D01*
X-9327344Y10730210D02*
X-11772656Y10730210D01*
X6850000Y7950000D02*
X-6547134Y7950000D01*
X12500000Y2300000D02*
X6850000Y7950000D01*
X12500000Y0D02*
X12500000Y2300000D01*
X-9825000Y-500000D02*
X-8650000Y-500000D01*
X11500000Y-1254000D02*
X5854000Y-6900000D01*
X5854000Y-6900000D02*
X5700000Y-6900000D01*
X11500000Y0D02*
X11500000Y-1254000D01*
X-8650000Y-4100000D02*
X-8650000Y-500000D01*
X-6650000Y-6100000D02*
X-8650000Y-4100000D01*
X-18175000Y3500000D02*
X-20350000Y3500000D01*
X-20350000Y6434754D02*
X-22265246Y8350000D01*
X-20350000Y3500000D02*
X-20350000Y6434754D01*
X-26097106Y8350000D02*
X-22265246Y8350000D01*
X-27540000Y9792894D02*
X-26097106Y8350000D01*
X-27540000Y10500000D02*
X-27540000Y9792894D01*
X-18175000Y4300000D02*
X-19750000Y4300000D01*
X-19750000Y6481346D02*
X-22075864Y8807210D01*
X-19750000Y4300000D02*
X-19750000Y6481346D01*
X-25284316Y8807210D02*
X-22075864Y8807210D01*
X-26270000Y9792894D02*
X-25284316Y8807210D01*
X-26270000Y10500000D02*
X-26270000Y9792894D01*
X-23606905Y11330201D02*
X-23730000Y11207106D01*
X-21695839Y11330201D02*
X-23606905Y11330201D01*
X-20392982Y10027344D02*
X-21695839Y11330201D01*
X-20392982Y7876392D02*
X-20392982Y10027344D01*
X-14216590Y1700000D02*
X-20392982Y7876392D01*
X-23730000Y11207106D02*
X-23730000Y10500000D01*
X-10025000Y1700000D02*
X-14216590Y1700000D01*
X-9825000Y1900000D02*
X-10025000Y1700000D01*
X-12000000Y7900000D02*
X-11775000Y8125000D01*
X-11775000Y8125000D02*
X-11300000Y8125000D01*
X-12000000Y5675000D02*
X-12000000Y7900000D01*
X-15200000Y5675000D02*
X-15200000Y7300000D01*
X22450000Y7904000D02*
X22450000Y6150000D01*
X-110076Y8407210D02*
X21946790Y8407210D01*
X-2890286Y11187420D02*
X-110076Y8407210D01*
X-14400000Y8749458D02*
X-11962038Y11187420D01*
X21946790Y8407210D02*
X22450000Y7904000D01*
X-11962038Y11187420D02*
X-2890286Y11187420D01*
X-14400000Y5675000D02*
X-14400000Y8749458D01*
X22450000Y6150000D02*
X22450000Y-6350000D01*
G36*
X-29662351Y12115279D02*
G01*
X-29691421Y12091422D01*
X-29715278Y12062352D01*
X-29715279Y12062351D01*
X-29786645Y11975392D01*
X-29857401Y11843015D01*
X-29900973Y11699378D01*
X-29915686Y11550000D01*
X-29911999Y11512567D01*
X-29912000Y10272178D01*
X-29915686Y10234754D01*
X-29912000Y10197331D01*
X-29912000Y10197329D01*
X-29900974Y10085377D01*
X-29857402Y9941740D01*
X-29824465Y9880119D01*
X-29786645Y9809362D01*
X-29759659Y9776480D01*
X-29691422Y9693332D01*
X-29662346Y9669470D01*
X-28173545Y8180669D01*
X-28274848Y8149939D01*
X-28602317Y7974903D01*
X-28889345Y7739345D01*
X-29124903Y7452317D01*
X-29299939Y7124847D01*
X-29407725Y6769523D01*
X-29435000Y6492596D01*
X-29435000Y5807403D01*
X-29407725Y5530476D01*
X-29299939Y5175152D01*
X-29124903Y4847683D01*
X-28889345Y4560655D01*
X-28686548Y4394224D01*
X-28764850Y4370472D01*
X-28918386Y4288405D01*
X-29052962Y4177962D01*
X-29163405Y4043386D01*
X-29245472Y3889850D01*
X-29296008Y3723254D01*
X-29313072Y3550000D01*
X-29313072Y3387240D01*
X-29329861Y3407151D01*
X-29427600Y3485209D01*
X-29513910Y3529876D01*
X-29511928Y3550000D01*
X-29515000Y4314250D01*
X-29673750Y4473000D01*
X-30823000Y4473000D01*
X-30823000Y4453000D01*
X-31077000Y4453000D01*
X-31077000Y4473000D01*
X-31097000Y4473000D01*
X-31097000Y4727000D01*
X-31077000Y4727000D01*
X-31077000Y6126250D01*
X-30823000Y6126250D01*
X-30823000Y4727000D01*
X-29673750Y4727000D01*
X-29515000Y4885750D01*
X-29511928Y5650000D01*
X-29524188Y5774482D01*
X-29560498Y5894180D01*
X-29619463Y6004494D01*
X-29698815Y6101185D01*
X-29795506Y6180537D01*
X-29905820Y6239502D01*
X-30025518Y6275812D01*
X-30150000Y6288072D01*
X-30664250Y6285000D01*
X-30823000Y6126250D01*
X-31077000Y6126250D01*
X-31235750Y6285000D01*
X-31750000Y6288072D01*
X-31874482Y6275812D01*
X-31912607Y6264247D01*
X-31911928Y6400000D01*
X-31924188Y6524482D01*
X-31960498Y6644180D01*
X-32019463Y6754494D01*
X-32098815Y6851185D01*
X-32195506Y6930537D01*
X-32305820Y6989502D01*
X-32425518Y7025812D01*
X-32550000Y7038072D01*
X-33214250Y7035000D01*
X-33373000Y6876250D01*
X-33373000Y5627000D01*
X-33353000Y5627000D01*
X-33353000Y5373000D01*
X-33373000Y5373000D01*
X-33373000Y4123750D01*
X-33214250Y3965000D01*
X-32550000Y3961928D01*
X-32425518Y3974188D01*
X-32386319Y3986079D01*
X-32388072Y3550000D01*
X-32375812Y3425518D01*
X-32339502Y3305820D01*
X-32280537Y3195506D01*
X-32201185Y3098815D01*
X-32151748Y3058243D01*
X-32160000Y2981750D01*
X-32001250Y2823000D01*
X-31863678Y2823000D01*
X-31919729Y2777000D01*
X-32001250Y2777000D01*
X-32160000Y2618250D01*
X-32149099Y2517199D01*
X-32122789Y2434448D01*
X-32125812Y2424482D01*
X-32138072Y2300000D01*
X-32138072Y2262000D01*
X-32248819Y2262000D01*
X-32354838Y2332840D01*
X-32525871Y2403684D01*
X-32707438Y2439800D01*
X-32892562Y2439800D01*
X-33074129Y2403684D01*
X-33245162Y2332840D01*
X-33399087Y2229990D01*
X-33529990Y2099087D01*
X-33632840Y1945162D01*
X-33703684Y1774129D01*
X-33739800Y1592562D01*
X-33739800Y1407438D01*
X-33703684Y1225871D01*
X-33632840Y1054838D01*
X-33529990Y900913D01*
X-33399087Y770010D01*
X-33245162Y667160D01*
X-33110770Y611493D01*
X-33103684Y575871D01*
X-33032840Y404838D01*
X-32929990Y250913D01*
X-32799087Y120010D01*
X-32645162Y17160D01*
X-32474129Y-53684D01*
X-32292562Y-89800D01*
X-32190200Y-89800D01*
X-32201185Y-98815D01*
X-32280537Y-195506D01*
X-32339502Y-305820D01*
X-32375812Y-425518D01*
X-32388072Y-550000D01*
X-32386319Y-986079D01*
X-32425518Y-974188D01*
X-32550000Y-961928D01*
X-33214250Y-965000D01*
X-33373000Y-1123750D01*
X-33373000Y-2373000D01*
X-33353000Y-2373000D01*
X-33353000Y-2627000D01*
X-33373000Y-2627000D01*
X-33373000Y-3876250D01*
X-33214250Y-4035000D01*
X-32550000Y-4038072D01*
X-32425518Y-4025812D01*
X-32305820Y-3989502D01*
X-32195506Y-3930537D01*
X-32098815Y-3851185D01*
X-32019463Y-3754494D01*
X-31960498Y-3644180D01*
X-31924188Y-3524482D01*
X-31911928Y-3400000D01*
X-31912607Y-3264247D01*
X-31874482Y-3275812D01*
X-31750000Y-3288072D01*
X-31235750Y-3285000D01*
X-31077000Y-3126250D01*
X-31077000Y-1727000D01*
X-30823000Y-1727000D01*
X-30823000Y-3126250D01*
X-30664250Y-3285000D01*
X-30150000Y-3288072D01*
X-30025518Y-3275812D01*
X-29905820Y-3239502D01*
X-29795506Y-3180537D01*
X-29698815Y-3101185D01*
X-29619463Y-3004494D01*
X-29560498Y-2894180D01*
X-29524188Y-2774482D01*
X-29511928Y-2650000D01*
X-29515000Y-1885750D01*
X-29673750Y-1727000D01*
X-30823000Y-1727000D01*
X-31077000Y-1727000D01*
X-31097000Y-1727000D01*
X-31097000Y-1473000D01*
X-31077000Y-1473000D01*
X-31077000Y-1453000D01*
X-30823000Y-1453000D01*
X-30823000Y-1473000D01*
X-29673750Y-1473000D01*
X-29515000Y-1314250D01*
X-29511934Y-551533D01*
X-29506260Y-550974D01*
X-29362623Y-507402D01*
X-29300823Y-474369D01*
X-29296008Y-523254D01*
X-29245472Y-689850D01*
X-29163405Y-843386D01*
X-29052962Y-977962D01*
X-28918386Y-1088405D01*
X-28764850Y-1170472D01*
X-28598254Y-1221008D01*
X-28485754Y-1232088D01*
X-28496248Y-1266684D01*
X-28513072Y-1437500D01*
X-28513072Y-2012500D01*
X-28496248Y-2183316D01*
X-28446423Y-2347567D01*
X-28365512Y-2498942D01*
X-28345901Y-2522839D01*
X-28405537Y-2595506D01*
X-28464502Y-2705820D01*
X-28500812Y-2825518D01*
X-28513072Y-2950000D01*
X-28510000Y-3189250D01*
X-28351250Y-3348000D01*
X-27527000Y-3348000D01*
X-27527000Y-3328000D01*
X-27273000Y-3328000D01*
X-27273000Y-3348000D01*
X-27253000Y-3348000D01*
X-27253000Y-3602000D01*
X-27273000Y-3602000D01*
X-27273000Y-3622000D01*
X-27527000Y-3622000D01*
X-27527000Y-3602000D01*
X-28351250Y-3602000D01*
X-28510000Y-3760750D01*
X-28513072Y-4000000D01*
X-28500812Y-4124482D01*
X-28464502Y-4244180D01*
X-28405537Y-4354494D01*
X-28368218Y-4399968D01*
X-28602317Y-4525097D01*
X-28889345Y-4760655D01*
X-29124903Y-5047683D01*
X-29299939Y-5375153D01*
X-29407725Y-5730477D01*
X-29435000Y-6007404D01*
X-29435000Y-6692597D01*
X-29407725Y-6969524D01*
X-29299939Y-7324848D01*
X-29124903Y-7652317D01*
X-28889345Y-7939345D01*
X-28602316Y-8174903D01*
X-28274847Y-8349939D01*
X-27919523Y-8457725D01*
X-27550000Y-8494120D01*
X-27180476Y-8457725D01*
X-26825152Y-8349939D01*
X-26497683Y-8174903D01*
X-26210655Y-7939345D01*
X-25975097Y-7652317D01*
X-25800061Y-7324848D01*
X-25692275Y-6969523D01*
X-25673022Y-6774040D01*
X-24435118Y-6774040D01*
X-24364942Y-7138464D01*
X-24225019Y-7482195D01*
X-24020726Y-7792024D01*
X-23759914Y-8056044D01*
X-23452606Y-8264109D01*
X-23110611Y-8408223D01*
X-22969645Y-8437695D01*
X-22677000Y-8321572D01*
X-22677000Y-6477000D01*
X-22423000Y-6477000D01*
X-22423000Y-8321572D01*
X-22130355Y-8437695D01*
X-21989389Y-8408223D01*
X-21647394Y-8264109D01*
X-21340086Y-8056044D01*
X-21079274Y-7792024D01*
X-20874981Y-7482195D01*
X-20735058Y-7138464D01*
X-20683075Y-6868514D01*
X-10785000Y-6868514D01*
X-10785000Y-7131486D01*
X-10733696Y-7389405D01*
X-10633061Y-7632359D01*
X-10486962Y-7851013D01*
X-10301013Y-8036962D01*
X-10082359Y-8183061D01*
X-9839405Y-8283696D01*
X-9581486Y-8335000D01*
X-9318514Y-8335000D01*
X-9060595Y-8283696D01*
X-8817641Y-8183061D01*
X-8598987Y-8036962D01*
X-8413038Y-7851013D01*
X-8266939Y-7632359D01*
X-8166304Y-7389405D01*
X-8115000Y-7131486D01*
X-8115000Y-6868514D01*
X-8166304Y-6610595D01*
X-8266939Y-6367641D01*
X-8413038Y-6148987D01*
X-8598987Y-5963038D01*
X-8817641Y-5816939D01*
X-9060595Y-5716304D01*
X-9318514Y-5665000D01*
X-9581486Y-5665000D01*
X-9839405Y-5716304D01*
X-10082359Y-5816939D01*
X-10301013Y-5963038D01*
X-10486962Y-6148987D01*
X-10633061Y-6367641D01*
X-10733696Y-6610595D01*
X-10785000Y-6868514D01*
X-20683075Y-6868514D01*
X-20664882Y-6774040D01*
X-20819615Y-6477000D01*
X-22423000Y-6477000D01*
X-22677000Y-6477000D01*
X-24280385Y-6477000D01*
X-24435118Y-6774040D01*
X-25673022Y-6774040D01*
X-25665000Y-6692596D01*
X-25665000Y-6007403D01*
X-25673021Y-5925960D01*
X-24435118Y-5925960D01*
X-24280385Y-6223000D01*
X-22677000Y-6223000D01*
X-22677000Y-4378428D01*
X-22423000Y-4378428D01*
X-22423000Y-6223000D01*
X-20819615Y-6223000D01*
X-20664882Y-5925960D01*
X-20708394Y-5700000D01*
X-19313072Y-5700000D01*
X-19300812Y-5824482D01*
X-19264502Y-5944180D01*
X-19205537Y-6054494D01*
X-19126185Y-6151185D01*
X-19029494Y-6230537D01*
X-18919180Y-6289502D01*
X-18799482Y-6325812D01*
X-18675000Y-6338072D01*
X-18485750Y-6335000D01*
X-18327000Y-6176250D01*
X-18327000Y-5302000D01*
X-18073000Y-5302000D01*
X-18073000Y-6176250D01*
X-17914250Y-6335000D01*
X-17725000Y-6338072D01*
X-17600518Y-6325812D01*
X-17480820Y-6289502D01*
X-17370506Y-6230537D01*
X-17273815Y-6151185D01*
X-17194463Y-6054494D01*
X-17135498Y-5944180D01*
X-17099188Y-5824482D01*
X-17086928Y-5700000D01*
X-17090000Y-5460750D01*
X-17248750Y-5302000D01*
X-18073000Y-5302000D01*
X-18327000Y-5302000D01*
X-19151250Y-5302000D01*
X-19310000Y-5460750D01*
X-19313072Y-5700000D01*
X-20708394Y-5700000D01*
X-20735058Y-5561536D01*
X-20874981Y-5217805D01*
X-21079274Y-4907976D01*
X-21340086Y-4643956D01*
X-21647394Y-4435891D01*
X-21989389Y-4291777D01*
X-22130355Y-4262305D01*
X-22423000Y-4378428D01*
X-22677000Y-4378428D01*
X-22969645Y-4262305D01*
X-23110611Y-4291777D01*
X-23452606Y-4435891D01*
X-23759914Y-4643956D01*
X-24020726Y-4907976D01*
X-24225019Y-5217805D01*
X-24364942Y-5561536D01*
X-24435118Y-5925960D01*
X-25673021Y-5925960D01*
X-25692275Y-5730476D01*
X-25800061Y-5375152D01*
X-25975097Y-5047683D01*
X-26210655Y-4760655D01*
X-26497683Y-4525097D01*
X-26537769Y-4503671D01*
X-26473815Y-4451185D01*
X-26394463Y-4354494D01*
X-26335498Y-4244180D01*
X-26299188Y-4124482D01*
X-26286928Y-4000000D01*
X-26286971Y-3996629D01*
X-26244180Y-4019502D01*
X-26124482Y-4055812D01*
X-26000000Y-4068072D01*
X-25000000Y-4068072D01*
X-24875518Y-4055812D01*
X-24755820Y-4019502D01*
X-24750000Y-4016391D01*
X-24744180Y-4019502D01*
X-24624482Y-4055812D01*
X-24500000Y-4068072D01*
X-24285750Y-4065000D01*
X-24127000Y-3906250D01*
X-24127000Y-2307000D01*
X-24147000Y-2307000D01*
X-24147000Y-2053000D01*
X-24127000Y-2053000D01*
X-24127000Y1653000D01*
X-24147000Y1653000D01*
X-24147000Y1907000D01*
X-24127000Y1907000D01*
X-24127000Y4256250D01*
X-24285750Y4415000D01*
X-24738000Y4416945D01*
X-24738000Y6547331D01*
X-24734314Y6584754D01*
X-24738000Y6622180D01*
X-24749026Y6734132D01*
X-24792598Y6877769D01*
X-24841902Y6970010D01*
X-24863355Y7010147D01*
X-24913624Y7071399D01*
X-24958578Y7126176D01*
X-24987654Y7150038D01*
X-25425616Y7588000D01*
X-24023379Y7588000D01*
X-24225019Y7282195D01*
X-24364942Y6938464D01*
X-24435118Y6574040D01*
X-24280385Y6277000D01*
X-22677000Y6277000D01*
X-22677000Y6297000D01*
X-22423000Y6297000D01*
X-22423000Y6277000D01*
X-22403000Y6277000D01*
X-22403000Y6023000D01*
X-22423000Y6023000D01*
X-22423000Y6003000D01*
X-22677000Y6003000D01*
X-22677000Y6023000D01*
X-24280385Y6023000D01*
X-24435118Y5725960D01*
X-24364942Y5361536D01*
X-24225019Y5017805D01*
X-24020726Y4707976D01*
X-23759914Y4443956D01*
X-23715419Y4413831D01*
X-23873000Y4256250D01*
X-23873000Y1907000D01*
X-22523750Y1907000D01*
X-22365000Y2065750D01*
X-22361928Y3780000D01*
X-22374188Y3904482D01*
X-22410498Y4024180D01*
X-22422998Y4047565D01*
X-22422998Y4178427D01*
X-22239800Y4105733D01*
X-22239800Y4007438D01*
X-22203684Y3825871D01*
X-22132840Y3654838D01*
X-22061999Y3548818D01*
X-22062000Y839631D01*
X-22363287Y538344D01*
X-22365000Y1494250D01*
X-22523750Y1653000D01*
X-23873000Y1653000D01*
X-23873000Y-2053000D01*
X-23853000Y-2053000D01*
X-23853000Y-2307000D01*
X-23873000Y-2307000D01*
X-23873000Y-3906250D01*
X-23714250Y-4065000D01*
X-23500000Y-4068072D01*
X-23375518Y-4055812D01*
X-23255820Y-4019502D01*
X-23250000Y-4016391D01*
X-23244180Y-4019502D01*
X-23124482Y-4055812D01*
X-23000000Y-4068072D01*
X-22000000Y-4068072D01*
X-21875518Y-4055812D01*
X-21755820Y-4019502D01*
X-21713029Y-3996629D01*
X-21713072Y-4000000D01*
X-21700812Y-4124482D01*
X-21664502Y-4244180D01*
X-21605537Y-4354494D01*
X-21526185Y-4451185D01*
X-21429494Y-4530537D01*
X-21319180Y-4589502D01*
X-21199482Y-4625812D01*
X-21075000Y-4638072D01*
X-20885750Y-4635000D01*
X-20727000Y-4476250D01*
X-20727000Y-3602000D01*
X-20473000Y-3602000D01*
X-20473000Y-4476250D01*
X-20314250Y-4635000D01*
X-20125000Y-4638072D01*
X-20000518Y-4625812D01*
X-19880820Y-4589502D01*
X-19770506Y-4530537D01*
X-19673815Y-4451185D01*
X-19594463Y-4354494D01*
X-19535498Y-4244180D01*
X-19499188Y-4124482D01*
X-19486928Y-4000000D01*
X-19490000Y-3760750D01*
X-19648750Y-3602000D01*
X-20473000Y-3602000D01*
X-20727000Y-3602000D01*
X-20747000Y-3602000D01*
X-20747000Y-3348000D01*
X-20727000Y-3348000D01*
X-20727000Y-3328000D01*
X-20473000Y-3328000D01*
X-20473000Y-3348000D01*
X-19648750Y-3348000D01*
X-19490000Y-3189250D01*
X-19486928Y-2950000D01*
X-19499188Y-2825518D01*
X-19535498Y-2705820D01*
X-19594463Y-2595506D01*
X-19650931Y-2526699D01*
X-19276395Y-2901236D01*
X-19296248Y-2966684D01*
X-19313072Y-3137500D01*
X-19313072Y-3712500D01*
X-19296248Y-3883316D01*
X-19246423Y-4047567D01*
X-19165512Y-4198942D01*
X-19145901Y-4222839D01*
X-19205537Y-4295506D01*
X-19264502Y-4405820D01*
X-19300812Y-4525518D01*
X-19313072Y-4650000D01*
X-19310000Y-4889250D01*
X-19151250Y-5048000D01*
X-18327000Y-5048000D01*
X-18327000Y-5028000D01*
X-18073000Y-5028000D01*
X-18073000Y-5048000D01*
X-17248750Y-5048000D01*
X-17090000Y-4889250D01*
X-17086928Y-4650000D01*
X-17099188Y-4525518D01*
X-17135498Y-4405820D01*
X-17194463Y-4295506D01*
X-17254099Y-4222839D01*
X-17234488Y-4198942D01*
X-17153577Y-4047567D01*
X-17152193Y-4043003D01*
X-17133773Y-4048891D01*
X-17031750Y-4060000D01*
X-16873000Y-3901250D01*
X-16873000Y-2802000D01*
X-16947000Y-2802000D01*
X-16947000Y-2548000D01*
X-16873000Y-2548000D01*
X-16873000Y-2528000D01*
X-16838072Y-2528000D01*
X-16838072Y-3325000D01*
X-16823890Y-3468991D01*
X-16781890Y-3607448D01*
X-16727000Y-3710139D01*
X-16727000Y-3901250D01*
X-16568250Y-4060000D01*
X-16466227Y-4048891D01*
X-16358016Y-4014301D01*
X-16243991Y-4048890D01*
X-16100000Y-4063072D01*
X-15900000Y-4063072D01*
X-15756009Y-4048890D01*
X-15617552Y-4006890D01*
X-15600000Y-3997508D01*
X-15582448Y-4006890D01*
X-15443991Y-4048890D01*
X-15300000Y-4063072D01*
X-15100000Y-4063072D01*
X-14956009Y-4048890D01*
X-14817552Y-4006890D01*
X-14800000Y-3997508D01*
X-14782448Y-4006890D01*
X-14643991Y-4048890D01*
X-14500000Y-4063072D01*
X-14300000Y-4063072D01*
X-14156009Y-4048890D01*
X-14017552Y-4006890D01*
X-14000000Y-3997508D01*
X-13982448Y-4006890D01*
X-13843991Y-4048890D01*
X-13700000Y-4063072D01*
X-13500000Y-4063072D01*
X-13356009Y-4048890D01*
X-13217552Y-4006890D01*
X-13200000Y-3997508D01*
X-13182448Y-4006890D01*
X-13043991Y-4048890D01*
X-12900000Y-4063072D01*
X-12700000Y-4063072D01*
X-12556009Y-4048890D01*
X-12417552Y-4006890D01*
X-12400000Y-3997508D01*
X-12382448Y-4006890D01*
X-12243991Y-4048890D01*
X-12100000Y-4063072D01*
X-11900000Y-4063072D01*
X-11756009Y-4048890D01*
X-11617552Y-4006890D01*
X-11600000Y-3997508D01*
X-11582448Y-4006890D01*
X-11443991Y-4048890D01*
X-11300000Y-4063072D01*
X-11100000Y-4063072D01*
X-10956009Y-4048890D01*
X-10817552Y-4006890D01*
X-10689949Y-3938684D01*
X-10578104Y-3846896D01*
X-10486316Y-3735051D01*
X-10418110Y-3607448D01*
X-10376110Y-3468991D01*
X-10361928Y-3325000D01*
X-10361928Y-2138072D01*
X-9411999Y-2138072D01*
X-9412000Y-4062577D01*
X-9415686Y-4100000D01*
X-9412000Y-4137423D01*
X-9412000Y-4137425D01*
X-9400974Y-4249377D01*
X-9357402Y-4393014D01*
X-9357401Y-4393015D01*
X-9286645Y-4525392D01*
X-9249012Y-4571248D01*
X-9191422Y-4641422D01*
X-9162346Y-4665284D01*
X-7578560Y-6249071D01*
X-7553684Y-6374129D01*
X-7482840Y-6545162D01*
X-7379990Y-6699087D01*
X-7249087Y-6829990D01*
X-7095162Y-6932840D01*
X-6924129Y-7003684D01*
X-6742562Y-7039800D01*
X-6557438Y-7039800D01*
X-6375871Y-7003684D01*
X-6204838Y-6932840D01*
X-6050913Y-6829990D01*
X-5920010Y-6699087D01*
X-5817160Y-6545162D01*
X-5766878Y-6423771D01*
X-3821413Y-8369237D01*
X-3797556Y-8398307D01*
X-3768486Y-8422164D01*
X-3681527Y-8493530D01*
X-3610770Y-8531350D01*
X-3549149Y-8564287D01*
X-3405512Y-8607859D01*
X-3293560Y-8618885D01*
X-3293557Y-8618885D01*
X-3256134Y-8622571D01*
X-3218711Y-8618885D01*
X6359692Y-8618885D01*
X6397115Y-8622571D01*
X6434538Y-8618885D01*
X6434541Y-8618885D01*
X6546493Y-8607859D01*
X6690130Y-8564287D01*
X6822507Y-8493530D01*
X6938537Y-8398307D01*
X6962399Y-8369231D01*
X13512347Y-1819283D01*
X13541422Y-1795422D01*
X13628257Y-1689613D01*
X13636645Y-1679393D01*
X13663384Y-1629367D01*
X13699482Y-1625812D01*
X13819180Y-1589502D01*
X13929494Y-1530537D01*
X14026185Y-1451185D01*
X14105537Y-1354494D01*
X14164502Y-1244180D01*
X14200812Y-1124482D01*
X14213072Y-1000000D01*
X14213072Y-274324D01*
X14250974Y-149378D01*
X14262000Y-37426D01*
X14262000Y2862578D01*
X14265686Y2900001D01*
X14261353Y2943991D01*
X14250974Y3049378D01*
X14207402Y3193015D01*
X14136645Y3325392D01*
X14041422Y3441422D01*
X14012352Y3465279D01*
X9832420Y7645210D01*
X21033400Y7645210D01*
X20875097Y7452317D01*
X20700061Y7124847D01*
X20592275Y6769523D01*
X20565000Y6492596D01*
X20565000Y5807403D01*
X20592275Y5530476D01*
X20700061Y5175152D01*
X20875097Y4847683D01*
X21110655Y4560655D01*
X21397684Y4325097D01*
X21688000Y4169920D01*
X21688001Y-4369919D01*
X21397683Y-4525097D01*
X21110655Y-4760655D01*
X20875097Y-5047683D01*
X20700061Y-5375153D01*
X20592275Y-5730477D01*
X20565000Y-6007404D01*
X20565000Y-6692597D01*
X20592275Y-6969524D01*
X20700061Y-7324848D01*
X20875097Y-7652317D01*
X21110655Y-7939345D01*
X21397684Y-8174903D01*
X21725153Y-8349939D01*
X22080477Y-8457725D01*
X22450000Y-8494120D01*
X22819524Y-8457725D01*
X23174848Y-8349939D01*
X23502317Y-8174903D01*
X23789345Y-7939345D01*
X24024903Y-7652317D01*
X24199939Y-7324848D01*
X24307725Y-6969523D01*
X24326978Y-6774040D01*
X25564882Y-6774040D01*
X25635058Y-7138464D01*
X25774981Y-7482195D01*
X25979274Y-7792024D01*
X26240086Y-8056044D01*
X26547394Y-8264109D01*
X26889389Y-8408223D01*
X27030355Y-8437695D01*
X27323000Y-8321572D01*
X27323000Y-6477000D01*
X27577000Y-6477000D01*
X27577000Y-8321572D01*
X27869645Y-8437695D01*
X28010611Y-8408223D01*
X28352606Y-8264109D01*
X28659914Y-8056044D01*
X28920726Y-7792024D01*
X29125019Y-7482195D01*
X29264942Y-7138464D01*
X29324511Y-6829117D01*
X30265000Y-6829117D01*
X30265000Y-7170883D01*
X30331675Y-7506081D01*
X30462463Y-7821831D01*
X30652337Y-8105998D01*
X30894002Y-8347663D01*
X31178169Y-8537537D01*
X31493919Y-8668325D01*
X31829117Y-8735000D01*
X32170883Y-8735000D01*
X32506081Y-8668325D01*
X32821831Y-8537537D01*
X33105998Y-8347663D01*
X33347663Y-8105998D01*
X33537537Y-7821831D01*
X33668325Y-7506081D01*
X33735000Y-7170883D01*
X33735000Y-6829117D01*
X33668325Y-6493919D01*
X33537537Y-6178169D01*
X33347663Y-5894002D01*
X33105998Y-5652337D01*
X32821831Y-5462463D01*
X32506081Y-5331675D01*
X32170883Y-5265000D01*
X31829117Y-5265000D01*
X31493919Y-5331675D01*
X31178169Y-5462463D01*
X30894002Y-5652337D01*
X30652337Y-5894002D01*
X30462463Y-6178169D01*
X30331675Y-6493919D01*
X30265000Y-6829117D01*
X29324511Y-6829117D01*
X29335118Y-6774040D01*
X29180385Y-6477000D01*
X27577000Y-6477000D01*
X27323000Y-6477000D01*
X25719615Y-6477000D01*
X25564882Y-6774040D01*
X24326978Y-6774040D01*
X24335000Y-6692596D01*
X24335000Y-6007403D01*
X24326979Y-5925960D01*
X25564882Y-5925960D01*
X25719615Y-6223000D01*
X27323000Y-6223000D01*
X27323000Y-4378428D01*
X27577000Y-4378428D01*
X27577000Y-6223000D01*
X29180385Y-6223000D01*
X29335118Y-5925960D01*
X29264942Y-5561536D01*
X29125019Y-5217805D01*
X28920726Y-4907976D01*
X28659914Y-4643956D01*
X28352606Y-4435891D01*
X28010611Y-4291777D01*
X27869645Y-4262305D01*
X27577000Y-4378428D01*
X27323000Y-4378428D01*
X27030355Y-4262305D01*
X26889389Y-4291777D01*
X26547394Y-4435891D01*
X26240086Y-4643956D01*
X25979274Y-4907976D01*
X25774981Y-5217805D01*
X25635058Y-5561536D01*
X25564882Y-5925960D01*
X24326979Y-5925960D01*
X24307725Y-5730476D01*
X24199939Y-5375152D01*
X24024903Y-5047683D01*
X23789345Y-4760655D01*
X23502317Y-4525097D01*
X23212000Y-4369920D01*
X23212000Y4169919D01*
X23502317Y4325097D01*
X23789345Y4560655D01*
X24024903Y4847683D01*
X24199939Y5175152D01*
X24307725Y5530477D01*
X24326978Y5725960D01*
X25564882Y5725960D01*
X25635058Y5361536D01*
X25774981Y5017805D01*
X25979274Y4707976D01*
X26240086Y4443956D01*
X26547394Y4235891D01*
X26889389Y4091777D01*
X27030355Y4062305D01*
X27323000Y4178428D01*
X27323000Y6023000D01*
X27577000Y6023000D01*
X27577000Y4178428D01*
X27869645Y4062305D01*
X28010611Y4091777D01*
X28352606Y4235891D01*
X28659914Y4443956D01*
X28920726Y4707976D01*
X29125019Y5017805D01*
X29264942Y5361536D01*
X29335118Y5725960D01*
X29180385Y6023000D01*
X27577000Y6023000D01*
X27323000Y6023000D01*
X25719615Y6023000D01*
X25564882Y5725960D01*
X24326978Y5725960D01*
X24335000Y5807404D01*
X24335000Y6492597D01*
X24326979Y6574040D01*
X25564882Y6574040D01*
X25719615Y6277000D01*
X27323000Y6277000D01*
X27323000Y8121572D01*
X27577000Y8121572D01*
X27577000Y6277000D01*
X29180385Y6277000D01*
X29335118Y6574040D01*
X29264942Y6938464D01*
X29125019Y7282195D01*
X28920726Y7592024D01*
X28659914Y7856044D01*
X28352606Y8064109D01*
X28010611Y8208223D01*
X27869645Y8237695D01*
X27577000Y8121572D01*
X27323000Y8121572D01*
X27030355Y8237695D01*
X26889389Y8208223D01*
X26547394Y8064109D01*
X26240086Y7856044D01*
X25979274Y7592024D01*
X25774981Y7282195D01*
X25635058Y6938464D01*
X25564882Y6574040D01*
X24326979Y6574040D01*
X24307725Y6769524D01*
X24199939Y7124848D01*
X24024903Y7452317D01*
X23789345Y7739345D01*
X23502317Y7974903D01*
X23174847Y8149939D01*
X23171362Y8150996D01*
X23157402Y8197015D01*
X23086645Y8329392D01*
X22991422Y8445422D01*
X22962347Y8469283D01*
X22512074Y8919556D01*
X22488212Y8948632D01*
X22372182Y9043855D01*
X22239805Y9114612D01*
X22096168Y9158184D01*
X21984216Y9169210D01*
X21984213Y9169210D01*
X21946790Y9172896D01*
X21909367Y9169210D01*
X205554Y9169210D01*
X-139289Y9514053D01*
X-101058Y9534488D01*
X0Y9617425D01*
X101058Y9534488D01*
X252433Y9453577D01*
X416684Y9403752D01*
X587500Y9386928D01*
X1162500Y9386928D01*
X1333316Y9403752D01*
X1497567Y9453577D01*
X1648942Y9534488D01*
X1781623Y9643377D01*
X1859278Y9738000D01*
X1948819Y9738000D01*
X2054838Y9667160D01*
X2225871Y9596316D01*
X2407438Y9560200D01*
X2592562Y9560200D01*
X2774129Y9596316D01*
X2945162Y9667160D01*
X3099087Y9770010D01*
X3229990Y9900913D01*
X3332840Y10054838D01*
X3403684Y10225871D01*
X3439800Y10407438D01*
X3439800Y10592562D01*
X3403684Y10774129D01*
X3332840Y10945162D01*
X3275160Y11031486D01*
X5715000Y11031486D01*
X5715000Y10768514D01*
X5766304Y10510595D01*
X5866939Y10267641D01*
X6013038Y10048987D01*
X6198987Y9863038D01*
X6417641Y9716939D01*
X6660595Y9616304D01*
X6918514Y9565000D01*
X7181486Y9565000D01*
X7439405Y9616304D01*
X7682359Y9716939D01*
X7901013Y9863038D01*
X8086962Y10048987D01*
X8168409Y10170883D01*
X30265000Y10170883D01*
X30265000Y9829117D01*
X30331675Y9493919D01*
X30462463Y9178169D01*
X30652337Y8894002D01*
X30894002Y8652337D01*
X31178169Y8462463D01*
X31493919Y8331675D01*
X31829117Y8265000D01*
X32170883Y8265000D01*
X32506081Y8331675D01*
X32821831Y8462463D01*
X33105998Y8652337D01*
X33347663Y8894002D01*
X33537537Y9178169D01*
X33668325Y9493919D01*
X33735000Y9829117D01*
X33735000Y10170883D01*
X33668325Y10506081D01*
X33537537Y10821831D01*
X33347663Y11105998D01*
X33105998Y11347663D01*
X32821831Y11537537D01*
X32506081Y11668325D01*
X32170883Y11735000D01*
X31829117Y11735000D01*
X31493919Y11668325D01*
X31178169Y11537537D01*
X30894002Y11347663D01*
X30652337Y11105998D01*
X30462463Y10821831D01*
X30331675Y10506081D01*
X30265000Y10170883D01*
X8168409Y10170883D01*
X8233061Y10267641D01*
X8333696Y10510595D01*
X8385000Y10768514D01*
X8385000Y11031486D01*
X8333696Y11289405D01*
X8233061Y11532359D01*
X8086962Y11751013D01*
X7901013Y11936962D01*
X7682359Y12083061D01*
X7439405Y12183696D01*
X7181486Y12235000D01*
X6918514Y12235000D01*
X6660595Y12183696D01*
X6417641Y12083061D01*
X6198987Y11936962D01*
X6013038Y11751013D01*
X5866939Y11532359D01*
X5766304Y11289405D01*
X5715000Y11031486D01*
X3275160Y11031486D01*
X3229990Y11099087D01*
X3099087Y11229990D01*
X2945162Y11332840D01*
X2774129Y11403684D01*
X2592562Y11439800D01*
X2407438Y11439800D01*
X2225871Y11403684D01*
X2054838Y11332840D01*
X1948819Y11262000D01*
X1859278Y11262000D01*
X1781623Y11356623D01*
X1648942Y11465512D01*
X1497567Y11546423D01*
X1333316Y11596248D01*
X1162500Y11613072D01*
X587500Y11613072D01*
X416684Y11596248D01*
X252433Y11546423D01*
X101058Y11465512D01*
X0Y11382575D01*
X-101058Y11465512D01*
X-252433Y11546423D01*
X-416684Y11596248D01*
X-418829Y11596459D01*
X-1162370Y12340000D01*
X31967721Y12340000D01*
X32453893Y12292330D01*
X32890498Y12160511D01*
X33293185Y11946400D01*
X33646612Y11658152D01*
X33937327Y11306739D01*
X34154242Y10905561D01*
X34289106Y10469887D01*
X34340000Y9985656D01*
X34340001Y-6967711D01*
X34292330Y-7453894D01*
X34160512Y-7890497D01*
X33946399Y-8293186D01*
X33658150Y-8646613D01*
X33306739Y-8937327D01*
X32905564Y-9154240D01*
X32469886Y-9289106D01*
X31985664Y-9340000D01*
X-31967721Y-9340000D01*
X-32453894Y-9292330D01*
X-32890497Y-9160512D01*
X-33293186Y-8946399D01*
X-33646613Y-8658150D01*
X-33937327Y-8306739D01*
X-34154240Y-7905564D01*
X-34289106Y-7469886D01*
X-34340000Y-6985664D01*
X-34340000Y-6829117D01*
X-33735000Y-6829117D01*
X-33735000Y-7170883D01*
X-33668325Y-7506081D01*
X-33537537Y-7821831D01*
X-33347663Y-8105998D01*
X-33105998Y-8347663D01*
X-32821831Y-8537537D01*
X-32506081Y-8668325D01*
X-32170883Y-8735000D01*
X-31829117Y-8735000D01*
X-31493919Y-8668325D01*
X-31178169Y-8537537D01*
X-30894002Y-8347663D01*
X-30652337Y-8105998D01*
X-30462463Y-7821831D01*
X-30331675Y-7506081D01*
X-30265000Y-7170883D01*
X-30265000Y-6829117D01*
X-30331675Y-6493919D01*
X-30462463Y-6178169D01*
X-30652337Y-5894002D01*
X-30894002Y-5652337D01*
X-31178169Y-5462463D01*
X-31493919Y-5331675D01*
X-31829117Y-5265000D01*
X-32170883Y-5265000D01*
X-32506081Y-5331675D01*
X-32821831Y-5462463D01*
X-33105998Y-5652337D01*
X-33347663Y-5894002D01*
X-33537537Y-6178169D01*
X-33668325Y-6493919D01*
X-33735000Y-6829117D01*
X-34340000Y-6829117D01*
X-34340000Y-4037563D01*
X-33785750Y-4035000D01*
X-33627000Y-3876250D01*
X-33627000Y-2627000D01*
X-33647000Y-2627000D01*
X-33647000Y-2373000D01*
X-33627000Y-2373000D01*
X-33627000Y-1123750D01*
X-33785750Y-965000D01*
X-34340000Y-962437D01*
X-34340000Y3962437D01*
X-33785750Y3965000D01*
X-33627000Y4123750D01*
X-33627000Y5373000D01*
X-33647000Y5373000D01*
X-33647000Y5627000D01*
X-33627000Y5627000D01*
X-33627000Y6876250D01*
X-33785750Y7035000D01*
X-34340000Y7037563D01*
X-34340000Y9967721D01*
X-34320080Y10170883D01*
X-33735000Y10170883D01*
X-33735000Y9829117D01*
X-33668325Y9493919D01*
X-33537537Y9178169D01*
X-33347663Y8894002D01*
X-33105998Y8652337D01*
X-32821831Y8462463D01*
X-32506081Y8331675D01*
X-32170883Y8265000D01*
X-31829117Y8265000D01*
X-31493919Y8331675D01*
X-31178169Y8462463D01*
X-30894002Y8652337D01*
X-30652337Y8894002D01*
X-30462463Y9178169D01*
X-30331675Y9493919D01*
X-30265000Y9829117D01*
X-30265000Y10170883D01*
X-30331675Y10506081D01*
X-30462463Y10821831D01*
X-30652337Y11105998D01*
X-30894002Y11347663D01*
X-31178169Y11537537D01*
X-31493919Y11668325D01*
X-31829117Y11735000D01*
X-32170883Y11735000D01*
X-32506081Y11668325D01*
X-32821831Y11537537D01*
X-33105998Y11347663D01*
X-33347663Y11105998D01*
X-33537537Y10821831D01*
X-33668325Y10506081D01*
X-33735000Y10170883D01*
X-34320080Y10170883D01*
X-34292330Y10453893D01*
X-34160511Y10890498D01*
X-33946400Y11293185D01*
X-33658152Y11646612D01*
X-33306739Y11937327D01*
X-32905561Y12154242D01*
X-32469887Y12289106D01*
X-31985656Y12340000D01*
X-29437630Y12340000D01*
X-29662351Y12115279D01*
G37*
X-29662351Y12115279D02*
X-29691421Y12091422D01*
X-29715278Y12062352D01*
X-29715279Y12062351D01*
X-29786645Y11975392D01*
X-29857401Y11843015D01*
X-29900973Y11699378D01*
X-29915686Y11550000D01*
X-29911999Y11512567D01*
X-29912000Y10272178D01*
X-29915686Y10234754D01*
X-29912000Y10197331D01*
X-29912000Y10197329D01*
X-29900974Y10085377D01*
X-29857402Y9941740D01*
X-29824465Y9880119D01*
X-29786645Y9809362D01*
X-29759659Y9776480D01*
X-29691422Y9693332D01*
X-29662346Y9669470D01*
X-28173545Y8180669D01*
X-28274848Y8149939D01*
X-28602317Y7974903D01*
X-28889345Y7739345D01*
X-29124903Y7452317D01*
X-29299939Y7124847D01*
X-29407725Y6769523D01*
X-29435000Y6492596D01*
X-29435000Y5807403D01*
X-29407725Y5530476D01*
X-29299939Y5175152D01*
X-29124903Y4847683D01*
X-28889345Y4560655D01*
X-28686548Y4394224D01*
X-28764850Y4370472D01*
X-28918386Y4288405D01*
X-29052962Y4177962D01*
X-29163405Y4043386D01*
X-29245472Y3889850D01*
X-29296008Y3723254D01*
X-29313072Y3550000D01*
X-29313072Y3387240D01*
X-29329861Y3407151D01*
X-29427600Y3485209D01*
X-29513910Y3529876D01*
X-29511928Y3550000D01*
X-29515000Y4314250D01*
X-29673750Y4473000D01*
X-30823000Y4473000D01*
X-30823000Y4453000D01*
X-31077000Y4453000D01*
X-31077000Y4473000D01*
X-31097000Y4473000D01*
X-31097000Y4727000D01*
X-31077000Y4727000D01*
X-31077000Y6126250D01*
X-30823000Y6126250D01*
X-30823000Y4727000D01*
X-29673750Y4727000D01*
X-29515000Y4885750D01*
X-29511928Y5650000D01*
X-29524188Y5774482D01*
X-29560498Y5894180D01*
X-29619463Y6004494D01*
X-29698815Y6101185D01*
X-29795506Y6180537D01*
X-29905820Y6239502D01*
X-30025518Y6275812D01*
X-30150000Y6288072D01*
X-30664250Y6285000D01*
X-30823000Y6126250D01*
X-31077000Y6126250D01*
X-31235750Y6285000D01*
X-31750000Y6288072D01*
X-31874482Y6275812D01*
X-31912607Y6264247D01*
X-31911928Y6400000D01*
X-31924188Y6524482D01*
X-31960498Y6644180D01*
X-32019463Y6754494D01*
X-32098815Y6851185D01*
X-32195506Y6930537D01*
X-32305820Y6989502D01*
X-32425518Y7025812D01*
X-32550000Y7038072D01*
X-33214250Y7035000D01*
X-33373000Y6876250D01*
X-33373000Y5627000D01*
X-33353000Y5627000D01*
X-33353000Y5373000D01*
X-33373000Y5373000D01*
X-33373000Y4123750D01*
X-33214250Y3965000D01*
X-32550000Y3961928D01*
X-32425518Y3974188D01*
X-32386319Y3986079D01*
X-32388072Y3550000D01*
X-32375812Y3425518D01*
X-32339502Y3305820D01*
X-32280537Y3195506D01*
X-32201185Y3098815D01*
X-32151748Y3058243D01*
X-32160000Y2981750D01*
X-32001250Y2823000D01*
X-31863678Y2823000D01*
X-31919729Y2777000D01*
X-32001250Y2777000D01*
X-32160000Y2618250D01*
X-32149099Y2517199D01*
X-32122789Y2434448D01*
X-32125812Y2424482D01*
X-32138072Y2300000D01*
X-32138072Y2262000D01*
X-32248819Y2262000D01*
X-32354838Y2332840D01*
X-32525871Y2403684D01*
X-32707438Y2439800D01*
X-32892562Y2439800D01*
X-33074129Y2403684D01*
X-33245162Y2332840D01*
X-33399087Y2229990D01*
X-33529990Y2099087D01*
X-33632840Y1945162D01*
X-33703684Y1774129D01*
X-33739800Y1592562D01*
X-33739800Y1407438D01*
X-33703684Y1225871D01*
X-33632840Y1054838D01*
X-33529990Y900913D01*
X-33399087Y770010D01*
X-33245162Y667160D01*
X-33110770Y611493D01*
X-33103684Y575871D01*
X-33032840Y404838D01*
X-32929990Y250913D01*
X-32799087Y120010D01*
X-32645162Y17160D01*
X-32474129Y-53684D01*
X-32292562Y-89800D01*
X-32190200Y-89800D01*
X-32201185Y-98815D01*
X-32280537Y-195506D01*
X-32339502Y-305820D01*
X-32375812Y-425518D01*
X-32388072Y-550000D01*
X-32386319Y-986079D01*
X-32425518Y-974188D01*
X-32550000Y-961928D01*
X-33214250Y-965000D01*
X-33373000Y-1123750D01*
X-33373000Y-2373000D01*
X-33353000Y-2373000D01*
X-33353000Y-2627000D01*
X-33373000Y-2627000D01*
X-33373000Y-3876250D01*
X-33214250Y-4035000D01*
X-32550000Y-4038072D01*
X-32425518Y-4025812D01*
X-32305820Y-3989502D01*
X-32195506Y-3930537D01*
X-32098815Y-3851185D01*
X-32019463Y-3754494D01*
X-31960498Y-3644180D01*
X-31924188Y-3524482D01*
X-31911928Y-3400000D01*
X-31912607Y-3264247D01*
X-31874482Y-3275812D01*
X-31750000Y-3288072D01*
X-31235750Y-3285000D01*
X-31077000Y-3126250D01*
X-31077000Y-1727000D01*
X-30823000Y-1727000D01*
X-30823000Y-3126250D01*
X-30664250Y-3285000D01*
X-30150000Y-3288072D01*
X-30025518Y-3275812D01*
X-29905820Y-3239502D01*
X-29795506Y-3180537D01*
X-29698815Y-3101185D01*
X-29619463Y-3004494D01*
X-29560498Y-2894180D01*
X-29524188Y-2774482D01*
X-29511928Y-2650000D01*
X-29515000Y-1885750D01*
X-29673750Y-1727000D01*
X-30823000Y-1727000D01*
X-31077000Y-1727000D01*
X-31097000Y-1727000D01*
X-31097000Y-1473000D01*
X-31077000Y-1473000D01*
X-31077000Y-1453000D01*
X-30823000Y-1453000D01*
X-30823000Y-1473000D01*
X-29673750Y-1473000D01*
X-29515000Y-1314250D01*
X-29511934Y-551533D01*
X-29506260Y-550974D01*
X-29362623Y-507402D01*
X-29300823Y-474369D01*
X-29296008Y-523254D01*
X-29245472Y-689850D01*
X-29163405Y-843386D01*
X-29052962Y-977962D01*
X-28918386Y-1088405D01*
X-28764850Y-1170472D01*
X-28598254Y-1221008D01*
X-28485754Y-1232088D01*
X-28496248Y-1266684D01*
X-28513072Y-1437500D01*
X-28513072Y-2012500D01*
X-28496248Y-2183316D01*
X-28446423Y-2347567D01*
X-28365512Y-2498942D01*
X-28345901Y-2522839D01*
X-28405537Y-2595506D01*
X-28464502Y-2705820D01*
X-28500812Y-2825518D01*
X-28513072Y-2950000D01*
X-28510000Y-3189250D01*
X-28351250Y-3348000D01*
X-27527000Y-3348000D01*
X-27527000Y-3328000D01*
X-27273000Y-3328000D01*
X-27273000Y-3348000D01*
X-27253000Y-3348000D01*
X-27253000Y-3602000D01*
X-27273000Y-3602000D01*
X-27273000Y-3622000D01*
X-27527000Y-3622000D01*
X-27527000Y-3602000D01*
X-28351250Y-3602000D01*
X-28510000Y-3760750D01*
X-28513072Y-4000000D01*
X-28500812Y-4124482D01*
X-28464502Y-4244180D01*
X-28405537Y-4354494D01*
X-28368218Y-4399968D01*
X-28602317Y-4525097D01*
X-28889345Y-4760655D01*
X-29124903Y-5047683D01*
X-29299939Y-5375153D01*
X-29407725Y-5730477D01*
X-29435000Y-6007404D01*
X-29435000Y-6692597D01*
X-29407725Y-6969524D01*
X-29299939Y-7324848D01*
X-29124903Y-7652317D01*
X-28889345Y-7939345D01*
X-28602316Y-8174903D01*
X-28274847Y-8349939D01*
X-27919523Y-8457725D01*
X-27550000Y-8494120D01*
X-27180476Y-8457725D01*
X-26825152Y-8349939D01*
X-26497683Y-8174903D01*
X-26210655Y-7939345D01*
X-25975097Y-7652317D01*
X-25800061Y-7324848D01*
X-25692275Y-6969523D01*
X-25673022Y-6774040D01*
X-24435118Y-6774040D01*
X-24364942Y-7138464D01*
X-24225019Y-7482195D01*
X-24020726Y-7792024D01*
X-23759914Y-8056044D01*
X-23452606Y-8264109D01*
X-23110611Y-8408223D01*
X-22969645Y-8437695D01*
X-22677000Y-8321572D01*
X-22677000Y-6477000D01*
X-22423000Y-6477000D01*
X-22423000Y-8321572D01*
X-22130355Y-8437695D01*
X-21989389Y-8408223D01*
X-21647394Y-8264109D01*
X-21340086Y-8056044D01*
X-21079274Y-7792024D01*
X-20874981Y-7482195D01*
X-20735058Y-7138464D01*
X-20683075Y-6868514D01*
X-10785000Y-6868514D01*
X-10785000Y-7131486D01*
X-10733696Y-7389405D01*
X-10633061Y-7632359D01*
X-10486962Y-7851013D01*
X-10301013Y-8036962D01*
X-10082359Y-8183061D01*
X-9839405Y-8283696D01*
X-9581486Y-8335000D01*
X-9318514Y-8335000D01*
X-9060595Y-8283696D01*
X-8817641Y-8183061D01*
X-8598987Y-8036962D01*
X-8413038Y-7851013D01*
X-8266939Y-7632359D01*
X-8166304Y-7389405D01*
X-8115000Y-7131486D01*
X-8115000Y-6868514D01*
X-8166304Y-6610595D01*
X-8266939Y-6367641D01*
X-8413038Y-6148987D01*
X-8598987Y-5963038D01*
X-8817641Y-5816939D01*
X-9060595Y-5716304D01*
X-9318514Y-5665000D01*
X-9581486Y-5665000D01*
X-9839405Y-5716304D01*
X-10082359Y-5816939D01*
X-10301013Y-5963038D01*
X-10486962Y-6148987D01*
X-10633061Y-6367641D01*
X-10733696Y-6610595D01*
X-10785000Y-6868514D01*
X-20683075Y-6868514D01*
X-20664882Y-6774040D01*
X-20819615Y-6477000D01*
X-22423000Y-6477000D01*
X-22677000Y-6477000D01*
X-24280385Y-6477000D01*
X-24435118Y-6774040D01*
X-25673022Y-6774040D01*
X-25665000Y-6692596D01*
X-25665000Y-6007403D01*
X-25673021Y-5925960D01*
X-24435118Y-5925960D01*
X-24280385Y-6223000D01*
X-22677000Y-6223000D01*
X-22677000Y-4378428D01*
X-22423000Y-4378428D01*
X-22423000Y-6223000D01*
X-20819615Y-6223000D01*
X-20664882Y-5925960D01*
X-20708394Y-5700000D01*
X-19313072Y-5700000D01*
X-19300812Y-5824482D01*
X-19264502Y-5944180D01*
X-19205537Y-6054494D01*
X-19126185Y-6151185D01*
X-19029494Y-6230537D01*
X-18919180Y-6289502D01*
X-18799482Y-6325812D01*
X-18675000Y-6338072D01*
X-18485750Y-6335000D01*
X-18327000Y-6176250D01*
X-18327000Y-5302000D01*
X-18073000Y-5302000D01*
X-18073000Y-6176250D01*
X-17914250Y-6335000D01*
X-17725000Y-6338072D01*
X-17600518Y-6325812D01*
X-17480820Y-6289502D01*
X-17370506Y-6230537D01*
X-17273815Y-6151185D01*
X-17194463Y-6054494D01*
X-17135498Y-5944180D01*
X-17099188Y-5824482D01*
X-17086928Y-5700000D01*
X-17090000Y-5460750D01*
X-17248750Y-5302000D01*
X-18073000Y-5302000D01*
X-18327000Y-5302000D01*
X-19151250Y-5302000D01*
X-19310000Y-5460750D01*
X-19313072Y-5700000D01*
X-20708394Y-5700000D01*
X-20735058Y-5561536D01*
X-20874981Y-5217805D01*
X-21079274Y-4907976D01*
X-21340086Y-4643956D01*
X-21647394Y-4435891D01*
X-21989389Y-4291777D01*
X-22130355Y-4262305D01*
X-22423000Y-4378428D01*
X-22677000Y-4378428D01*
X-22969645Y-4262305D01*
X-23110611Y-4291777D01*
X-23452606Y-4435891D01*
X-23759914Y-4643956D01*
X-24020726Y-4907976D01*
X-24225019Y-5217805D01*
X-24364942Y-5561536D01*
X-24435118Y-5925960D01*
X-25673021Y-5925960D01*
X-25692275Y-5730476D01*
X-25800061Y-5375152D01*
X-25975097Y-5047683D01*
X-26210655Y-4760655D01*
X-26497683Y-4525097D01*
X-26537769Y-4503671D01*
X-26473815Y-4451185D01*
X-26394463Y-4354494D01*
X-26335498Y-4244180D01*
X-26299188Y-4124482D01*
X-26286928Y-4000000D01*
X-26286971Y-3996629D01*
X-26244180Y-4019502D01*
X-26124482Y-4055812D01*
X-26000000Y-4068072D01*
X-25000000Y-4068072D01*
X-24875518Y-4055812D01*
X-24755820Y-4019502D01*
X-24750000Y-4016391D01*
X-24744180Y-4019502D01*
X-24624482Y-4055812D01*
X-24500000Y-4068072D01*
X-24285750Y-4065000D01*
X-24127000Y-3906250D01*
X-24127000Y-2307000D01*
X-24147000Y-2307000D01*
X-24147000Y-2053000D01*
X-24127000Y-2053000D01*
X-24127000Y1653000D01*
X-24147000Y1653000D01*
X-24147000Y1907000D01*
X-24127000Y1907000D01*
X-24127000Y4256250D01*
X-24285750Y4415000D01*
X-24738000Y4416945D01*
X-24738000Y6547331D01*
X-24734314Y6584754D01*
X-24738000Y6622180D01*
X-24749026Y6734132D01*
X-24792598Y6877769D01*
X-24841902Y6970010D01*
X-24863355Y7010147D01*
X-24913624Y7071399D01*
X-24958578Y7126176D01*
X-24987654Y7150038D01*
X-25425616Y7588000D01*
X-24023379Y7588000D01*
X-24225019Y7282195D01*
X-24364942Y6938464D01*
X-24435118Y6574040D01*
X-24280385Y6277000D01*
X-22677000Y6277000D01*
X-22677000Y6297000D01*
X-22423000Y6297000D01*
X-22423000Y6277000D01*
X-22403000Y6277000D01*
X-22403000Y6023000D01*
X-22423000Y6023000D01*
X-22423000Y6003000D01*
X-22677000Y6003000D01*
X-22677000Y6023000D01*
X-24280385Y6023000D01*
X-24435118Y5725960D01*
X-24364942Y5361536D01*
X-24225019Y5017805D01*
X-24020726Y4707976D01*
X-23759914Y4443956D01*
X-23715419Y4413831D01*
X-23873000Y4256250D01*
X-23873000Y1907000D01*
X-22523750Y1907000D01*
X-22365000Y2065750D01*
X-22361928Y3780000D01*
X-22374188Y3904482D01*
X-22410498Y4024180D01*
X-22422998Y4047565D01*
X-22422998Y4178427D01*
X-22239800Y4105733D01*
X-22239800Y4007438D01*
X-22203684Y3825871D01*
X-22132840Y3654838D01*
X-22061999Y3548818D01*
X-22062000Y839631D01*
X-22363287Y538344D01*
X-22365000Y1494250D01*
X-22523750Y1653000D01*
X-23873000Y1653000D01*
X-23873000Y-2053000D01*
X-23853000Y-2053000D01*
X-23853000Y-2307000D01*
X-23873000Y-2307000D01*
X-23873000Y-3906250D01*
X-23714250Y-4065000D01*
X-23500000Y-4068072D01*
X-23375518Y-4055812D01*
X-23255820Y-4019502D01*
X-23250000Y-4016391D01*
X-23244180Y-4019502D01*
X-23124482Y-4055812D01*
X-23000000Y-4068072D01*
X-22000000Y-4068072D01*
X-21875518Y-4055812D01*
X-21755820Y-4019502D01*
X-21713029Y-3996629D01*
X-21713072Y-4000000D01*
X-21700812Y-4124482D01*
X-21664502Y-4244180D01*
X-21605537Y-4354494D01*
X-21526185Y-4451185D01*
X-21429494Y-4530537D01*
X-21319180Y-4589502D01*
X-21199482Y-4625812D01*
X-21075000Y-4638072D01*
X-20885750Y-4635000D01*
X-20727000Y-4476250D01*
X-20727000Y-3602000D01*
X-20473000Y-3602000D01*
X-20473000Y-4476250D01*
X-20314250Y-4635000D01*
X-20125000Y-4638072D01*
X-20000518Y-4625812D01*
X-19880820Y-4589502D01*
X-19770506Y-4530537D01*
X-19673815Y-4451185D01*
X-19594463Y-4354494D01*
X-19535498Y-4244180D01*
X-19499188Y-4124482D01*
X-19486928Y-4000000D01*
X-19490000Y-3760750D01*
X-19648750Y-3602000D01*
X-20473000Y-3602000D01*
X-20727000Y-3602000D01*
X-20747000Y-3602000D01*
X-20747000Y-3348000D01*
X-20727000Y-3348000D01*
X-20727000Y-3328000D01*
X-20473000Y-3328000D01*
X-20473000Y-3348000D01*
X-19648750Y-3348000D01*
X-19490000Y-3189250D01*
X-19486928Y-2950000D01*
X-19499188Y-2825518D01*
X-19535498Y-2705820D01*
X-19594463Y-2595506D01*
X-19650931Y-2526699D01*
X-19276395Y-2901236D01*
X-19296248Y-2966684D01*
X-19313072Y-3137500D01*
X-19313072Y-3712500D01*
X-19296248Y-3883316D01*
X-19246423Y-4047567D01*
X-19165512Y-4198942D01*
X-19145901Y-4222839D01*
X-19205537Y-4295506D01*
X-19264502Y-4405820D01*
X-19300812Y-4525518D01*
X-19313072Y-4650000D01*
X-19310000Y-4889250D01*
X-19151250Y-5048000D01*
X-18327000Y-5048000D01*
X-18327000Y-5028000D01*
X-18073000Y-5028000D01*
X-18073000Y-5048000D01*
X-17248750Y-5048000D01*
X-17090000Y-4889250D01*
X-17086928Y-4650000D01*
X-17099188Y-4525518D01*
X-17135498Y-4405820D01*
X-17194463Y-4295506D01*
X-17254099Y-4222839D01*
X-17234488Y-4198942D01*
X-17153577Y-4047567D01*
X-17152193Y-4043003D01*
X-17133773Y-4048891D01*
X-17031750Y-4060000D01*
X-16873000Y-3901250D01*
X-16873000Y-2802000D01*
X-16947000Y-2802000D01*
X-16947000Y-2548000D01*
X-16873000Y-2548000D01*
X-16873000Y-2528000D01*
X-16838072Y-2528000D01*
X-16838072Y-3325000D01*
X-16823890Y-3468991D01*
X-16781890Y-3607448D01*
X-16727000Y-3710139D01*
X-16727000Y-3901250D01*
X-16568250Y-4060000D01*
X-16466227Y-4048891D01*
X-16358016Y-4014301D01*
X-16243991Y-4048890D01*
X-16100000Y-4063072D01*
X-15900000Y-4063072D01*
X-15756009Y-4048890D01*
X-15617552Y-4006890D01*
X-15600000Y-3997508D01*
X-15582448Y-4006890D01*
X-15443991Y-4048890D01*
X-15300000Y-4063072D01*
X-15100000Y-4063072D01*
X-14956009Y-4048890D01*
X-14817552Y-4006890D01*
X-14800000Y-3997508D01*
X-14782448Y-4006890D01*
X-14643991Y-4048890D01*
X-14500000Y-4063072D01*
X-14300000Y-4063072D01*
X-14156009Y-4048890D01*
X-14017552Y-4006890D01*
X-14000000Y-3997508D01*
X-13982448Y-4006890D01*
X-13843991Y-4048890D01*
X-13700000Y-4063072D01*
X-13500000Y-4063072D01*
X-13356009Y-4048890D01*
X-13217552Y-4006890D01*
X-13200000Y-3997508D01*
X-13182448Y-4006890D01*
X-13043991Y-4048890D01*
X-12900000Y-4063072D01*
X-12700000Y-4063072D01*
X-12556009Y-4048890D01*
X-12417552Y-4006890D01*
X-12400000Y-3997508D01*
X-12382448Y-4006890D01*
X-12243991Y-4048890D01*
X-12100000Y-4063072D01*
X-11900000Y-4063072D01*
X-11756009Y-4048890D01*
X-11617552Y-4006890D01*
X-11600000Y-3997508D01*
X-11582448Y-4006890D01*
X-11443991Y-4048890D01*
X-11300000Y-4063072D01*
X-11100000Y-4063072D01*
X-10956009Y-4048890D01*
X-10817552Y-4006890D01*
X-10689949Y-3938684D01*
X-10578104Y-3846896D01*
X-10486316Y-3735051D01*
X-10418110Y-3607448D01*
X-10376110Y-3468991D01*
X-10361928Y-3325000D01*
X-10361928Y-2138072D01*
X-9411999Y-2138072D01*
X-9412000Y-4062577D01*
X-9415686Y-4100000D01*
X-9412000Y-4137423D01*
X-9412000Y-4137425D01*
X-9400974Y-4249377D01*
X-9357402Y-4393014D01*
X-9357401Y-4393015D01*
X-9286645Y-4525392D01*
X-9249012Y-4571248D01*
X-9191422Y-4641422D01*
X-9162346Y-4665284D01*
X-7578560Y-6249071D01*
X-7553684Y-6374129D01*
X-7482840Y-6545162D01*
X-7379990Y-6699087D01*
X-7249087Y-6829990D01*
X-7095162Y-6932840D01*
X-6924129Y-7003684D01*
X-6742562Y-7039800D01*
X-6557438Y-7039800D01*
X-6375871Y-7003684D01*
X-6204838Y-6932840D01*
X-6050913Y-6829990D01*
X-5920010Y-6699087D01*
X-5817160Y-6545162D01*
X-5766878Y-6423771D01*
X-3821413Y-8369237D01*
X-3797556Y-8398307D01*
X-3768486Y-8422164D01*
X-3681527Y-8493530D01*
X-3610770Y-8531350D01*
X-3549149Y-8564287D01*
X-3405512Y-8607859D01*
X-3293560Y-8618885D01*
X-3293557Y-8618885D01*
X-3256134Y-8622571D01*
X-3218711Y-8618885D01*
X6359692Y-8618885D01*
X6397115Y-8622571D01*
X6434538Y-8618885D01*
X6434541Y-8618885D01*
X6546493Y-8607859D01*
X6690130Y-8564287D01*
X6822507Y-8493530D01*
X6938537Y-8398307D01*
X6962399Y-8369231D01*
X13512347Y-1819283D01*
X13541422Y-1795422D01*
X13628257Y-1689613D01*
X13636645Y-1679393D01*
X13663384Y-1629367D01*
X13699482Y-1625812D01*
X13819180Y-1589502D01*
X13929494Y-1530537D01*
X14026185Y-1451185D01*
X14105537Y-1354494D01*
X14164502Y-1244180D01*
X14200812Y-1124482D01*
X14213072Y-1000000D01*
X14213072Y-274324D01*
X14250974Y-149378D01*
X14262000Y-37426D01*
X14262000Y2862578D01*
X14265686Y2900001D01*
X14261353Y2943991D01*
X14250974Y3049378D01*
X14207402Y3193015D01*
X14136645Y3325392D01*
X14041422Y3441422D01*
X14012352Y3465279D01*
X9832420Y7645210D01*
X21033400Y7645210D01*
X20875097Y7452317D01*
X20700061Y7124847D01*
X20592275Y6769523D01*
X20565000Y6492596D01*
X20565000Y5807403D01*
X20592275Y5530476D01*
X20700061Y5175152D01*
X20875097Y4847683D01*
X21110655Y4560655D01*
X21397684Y4325097D01*
X21688000Y4169920D01*
X21688001Y-4369919D01*
X21397683Y-4525097D01*
X21110655Y-4760655D01*
X20875097Y-5047683D01*
X20700061Y-5375153D01*
X20592275Y-5730477D01*
X20565000Y-6007404D01*
X20565000Y-6692597D01*
X20592275Y-6969524D01*
X20700061Y-7324848D01*
X20875097Y-7652317D01*
X21110655Y-7939345D01*
X21397684Y-8174903D01*
X21725153Y-8349939D01*
X22080477Y-8457725D01*
X22450000Y-8494120D01*
X22819524Y-8457725D01*
X23174848Y-8349939D01*
X23502317Y-8174903D01*
X23789345Y-7939345D01*
X24024903Y-7652317D01*
X24199939Y-7324848D01*
X24307725Y-6969523D01*
X24326978Y-6774040D01*
X25564882Y-6774040D01*
X25635058Y-7138464D01*
X25774981Y-7482195D01*
X25979274Y-7792024D01*
X26240086Y-8056044D01*
X26547394Y-8264109D01*
X26889389Y-8408223D01*
X27030355Y-8437695D01*
X27323000Y-8321572D01*
X27323000Y-6477000D01*
X27577000Y-6477000D01*
X27577000Y-8321572D01*
X27869645Y-8437695D01*
X28010611Y-8408223D01*
X28352606Y-8264109D01*
X28659914Y-8056044D01*
X28920726Y-7792024D01*
X29125019Y-7482195D01*
X29264942Y-7138464D01*
X29324511Y-6829117D01*
X30265000Y-6829117D01*
X30265000Y-7170883D01*
X30331675Y-7506081D01*
X30462463Y-7821831D01*
X30652337Y-8105998D01*
X30894002Y-8347663D01*
X31178169Y-8537537D01*
X31493919Y-8668325D01*
X31829117Y-8735000D01*
X32170883Y-8735000D01*
X32506081Y-8668325D01*
X32821831Y-8537537D01*
X33105998Y-8347663D01*
X33347663Y-8105998D01*
X33537537Y-7821831D01*
X33668325Y-7506081D01*
X33735000Y-7170883D01*
X33735000Y-6829117D01*
X33668325Y-6493919D01*
X33537537Y-6178169D01*
X33347663Y-5894002D01*
X33105998Y-5652337D01*
X32821831Y-5462463D01*
X32506081Y-5331675D01*
X32170883Y-5265000D01*
X31829117Y-5265000D01*
X31493919Y-5331675D01*
X31178169Y-5462463D01*
X30894002Y-5652337D01*
X30652337Y-5894002D01*
X30462463Y-6178169D01*
X30331675Y-6493919D01*
X30265000Y-6829117D01*
X29324511Y-6829117D01*
X29335118Y-6774040D01*
X29180385Y-6477000D01*
X27577000Y-6477000D01*
X27323000Y-6477000D01*
X25719615Y-6477000D01*
X25564882Y-6774040D01*
X24326978Y-6774040D01*
X24335000Y-6692596D01*
X24335000Y-6007403D01*
X24326979Y-5925960D01*
X25564882Y-5925960D01*
X25719615Y-6223000D01*
X27323000Y-6223000D01*
X27323000Y-4378428D01*
X27577000Y-4378428D01*
X27577000Y-6223000D01*
X29180385Y-6223000D01*
X29335118Y-5925960D01*
X29264942Y-5561536D01*
X29125019Y-5217805D01*
X28920726Y-4907976D01*
X28659914Y-4643956D01*
X28352606Y-4435891D01*
X28010611Y-4291777D01*
X27869645Y-4262305D01*
X27577000Y-4378428D01*
X27323000Y-4378428D01*
X27030355Y-4262305D01*
X26889389Y-4291777D01*
X26547394Y-4435891D01*
X26240086Y-4643956D01*
X25979274Y-4907976D01*
X25774981Y-5217805D01*
X25635058Y-5561536D01*
X25564882Y-5925960D01*
X24326979Y-5925960D01*
X24307725Y-5730476D01*
X24199939Y-5375152D01*
X24024903Y-5047683D01*
X23789345Y-4760655D01*
X23502317Y-4525097D01*
X23212000Y-4369920D01*
X23212000Y4169919D01*
X23502317Y4325097D01*
X23789345Y4560655D01*
X24024903Y4847683D01*
X24199939Y5175152D01*
X24307725Y5530477D01*
X24326978Y5725960D01*
X25564882Y5725960D01*
X25635058Y5361536D01*
X25774981Y5017805D01*
X25979274Y4707976D01*
X26240086Y4443956D01*
X26547394Y4235891D01*
X26889389Y4091777D01*
X27030355Y4062305D01*
X27323000Y4178428D01*
X27323000Y6023000D01*
X27577000Y6023000D01*
X27577000Y4178428D01*
X27869645Y4062305D01*
X28010611Y4091777D01*
X28352606Y4235891D01*
X28659914Y4443956D01*
X28920726Y4707976D01*
X29125019Y5017805D01*
X29264942Y5361536D01*
X29335118Y5725960D01*
X29180385Y6023000D01*
X27577000Y6023000D01*
X27323000Y6023000D01*
X25719615Y6023000D01*
X25564882Y5725960D01*
X24326978Y5725960D01*
X24335000Y5807404D01*
X24335000Y6492597D01*
X24326979Y6574040D01*
X25564882Y6574040D01*
X25719615Y6277000D01*
X27323000Y6277000D01*
X27323000Y8121572D01*
X27577000Y8121572D01*
X27577000Y6277000D01*
X29180385Y6277000D01*
X29335118Y6574040D01*
X29264942Y6938464D01*
X29125019Y7282195D01*
X28920726Y7592024D01*
X28659914Y7856044D01*
X28352606Y8064109D01*
X28010611Y8208223D01*
X27869645Y8237695D01*
X27577000Y8121572D01*
X27323000Y8121572D01*
X27030355Y8237695D01*
X26889389Y8208223D01*
X26547394Y8064109D01*
X26240086Y7856044D01*
X25979274Y7592024D01*
X25774981Y7282195D01*
X25635058Y6938464D01*
X25564882Y6574040D01*
X24326979Y6574040D01*
X24307725Y6769524D01*
X24199939Y7124848D01*
X24024903Y7452317D01*
X23789345Y7739345D01*
X23502317Y7974903D01*
X23174847Y8149939D01*
X23171362Y8150996D01*
X23157402Y8197015D01*
X23086645Y8329392D01*
X22991422Y8445422D01*
X22962347Y8469283D01*
X22512074Y8919556D01*
X22488212Y8948632D01*
X22372182Y9043855D01*
X22239805Y9114612D01*
X22096168Y9158184D01*
X21984216Y9169210D01*
X21984213Y9169210D01*
X21946790Y9172896D01*
X21909367Y9169210D01*
X205554Y9169210D01*
X-139289Y9514053D01*
X-101058Y9534488D01*
X0Y9617425D01*
X101058Y9534488D01*
X252433Y9453577D01*
X416684Y9403752D01*
X587500Y9386928D01*
X1162500Y9386928D01*
X1333316Y9403752D01*
X1497567Y9453577D01*
X1648942Y9534488D01*
X1781623Y9643377D01*
X1859278Y9738000D01*
X1948819Y9738000D01*
X2054838Y9667160D01*
X2225871Y9596316D01*
X2407438Y9560200D01*
X2592562Y9560200D01*
X2774129Y9596316D01*
X2945162Y9667160D01*
X3099087Y9770010D01*
X3229990Y9900913D01*
X3332840Y10054838D01*
X3403684Y10225871D01*
X3439800Y10407438D01*
X3439800Y10592562D01*
X3403684Y10774129D01*
X3332840Y10945162D01*
X3275160Y11031486D01*
X5715000Y11031486D01*
X5715000Y10768514D01*
X5766304Y10510595D01*
X5866939Y10267641D01*
X6013038Y10048987D01*
X6198987Y9863038D01*
X6417641Y9716939D01*
X6660595Y9616304D01*
X6918514Y9565000D01*
X7181486Y9565000D01*
X7439405Y9616304D01*
X7682359Y9716939D01*
X7901013Y9863038D01*
X8086962Y10048987D01*
X8168409Y10170883D01*
X30265000Y10170883D01*
X30265000Y9829117D01*
X30331675Y9493919D01*
X30462463Y9178169D01*
X30652337Y8894002D01*
X30894002Y8652337D01*
X31178169Y8462463D01*
X31493919Y8331675D01*
X31829117Y8265000D01*
X32170883Y8265000D01*
X32506081Y8331675D01*
X32821831Y8462463D01*
X33105998Y8652337D01*
X33347663Y8894002D01*
X33537537Y9178169D01*
X33668325Y9493919D01*
X33735000Y9829117D01*
X33735000Y10170883D01*
X33668325Y10506081D01*
X33537537Y10821831D01*
X33347663Y11105998D01*
X33105998Y11347663D01*
X32821831Y11537537D01*
X32506081Y11668325D01*
X32170883Y11735000D01*
X31829117Y11735000D01*
X31493919Y11668325D01*
X31178169Y11537537D01*
X30894002Y11347663D01*
X30652337Y11105998D01*
X30462463Y10821831D01*
X30331675Y10506081D01*
X30265000Y10170883D01*
X8168409Y10170883D01*
X8233061Y10267641D01*
X8333696Y10510595D01*
X8385000Y10768514D01*
X8385000Y11031486D01*
X8333696Y11289405D01*
X8233061Y11532359D01*
X8086962Y11751013D01*
X7901013Y11936962D01*
X7682359Y12083061D01*
X7439405Y12183696D01*
X7181486Y12235000D01*
X6918514Y12235000D01*
X6660595Y12183696D01*
X6417641Y12083061D01*
X6198987Y11936962D01*
X6013038Y11751013D01*
X5866939Y11532359D01*
X5766304Y11289405D01*
X5715000Y11031486D01*
X3275160Y11031486D01*
X3229990Y11099087D01*
X3099087Y11229990D01*
X2945162Y11332840D01*
X2774129Y11403684D01*
X2592562Y11439800D01*
X2407438Y11439800D01*
X2225871Y11403684D01*
X2054838Y11332840D01*
X1948819Y11262000D01*
X1859278Y11262000D01*
X1781623Y11356623D01*
X1648942Y11465512D01*
X1497567Y11546423D01*
X1333316Y11596248D01*
X1162500Y11613072D01*
X587500Y11613072D01*
X416684Y11596248D01*
X252433Y11546423D01*
X101058Y11465512D01*
X0Y11382575D01*
X-101058Y11465512D01*
X-252433Y11546423D01*
X-416684Y11596248D01*
X-418829Y11596459D01*
X-1162370Y12340000D01*
X31967721Y12340000D01*
X32453893Y12292330D01*
X32890498Y12160511D01*
X33293185Y11946400D01*
X33646612Y11658152D01*
X33937327Y11306739D01*
X34154242Y10905561D01*
X34289106Y10469887D01*
X34340000Y9985656D01*
X34340001Y-6967711D01*
X34292330Y-7453894D01*
X34160512Y-7890497D01*
X33946399Y-8293186D01*
X33658150Y-8646613D01*
X33306739Y-8937327D01*
X32905564Y-9154240D01*
X32469886Y-9289106D01*
X31985664Y-9340000D01*
X-31967721Y-9340000D01*
X-32453894Y-9292330D01*
X-32890497Y-9160512D01*
X-33293186Y-8946399D01*
X-33646613Y-8658150D01*
X-33937327Y-8306739D01*
X-34154240Y-7905564D01*
X-34289106Y-7469886D01*
X-34340000Y-6985664D01*
X-34340000Y-6829117D01*
X-33735000Y-6829117D01*
X-33735000Y-7170883D01*
X-33668325Y-7506081D01*
X-33537537Y-7821831D01*
X-33347663Y-8105998D01*
X-33105998Y-8347663D01*
X-32821831Y-8537537D01*
X-32506081Y-8668325D01*
X-32170883Y-8735000D01*
X-31829117Y-8735000D01*
X-31493919Y-8668325D01*
X-31178169Y-8537537D01*
X-30894002Y-8347663D01*
X-30652337Y-8105998D01*
X-30462463Y-7821831D01*
X-30331675Y-7506081D01*
X-30265000Y-7170883D01*
X-30265000Y-6829117D01*
X-30331675Y-6493919D01*
X-30462463Y-6178169D01*
X-30652337Y-5894002D01*
X-30894002Y-5652337D01*
X-31178169Y-5462463D01*
X-31493919Y-5331675D01*
X-31829117Y-5265000D01*
X-32170883Y-5265000D01*
X-32506081Y-5331675D01*
X-32821831Y-5462463D01*
X-33105998Y-5652337D01*
X-33347663Y-5894002D01*
X-33537537Y-6178169D01*
X-33668325Y-6493919D01*
X-33735000Y-6829117D01*
X-34340000Y-6829117D01*
X-34340000Y-4037563D01*
X-33785750Y-4035000D01*
X-33627000Y-3876250D01*
X-33627000Y-2627000D01*
X-33647000Y-2627000D01*
X-33647000Y-2373000D01*
X-33627000Y-2373000D01*
X-33627000Y-1123750D01*
X-33785750Y-965000D01*
X-34340000Y-962437D01*
X-34340000Y3962437D01*
X-33785750Y3965000D01*
X-33627000Y4123750D01*
X-33627000Y5373000D01*
X-33647000Y5373000D01*
X-33647000Y5627000D01*
X-33627000Y5627000D01*
X-33627000Y6876250D01*
X-33785750Y7035000D01*
X-34340000Y7037563D01*
X-34340000Y9967721D01*
X-34320080Y10170883D01*
X-33735000Y10170883D01*
X-33735000Y9829117D01*
X-33668325Y9493919D01*
X-33537537Y9178169D01*
X-33347663Y8894002D01*
X-33105998Y8652337D01*
X-32821831Y8462463D01*
X-32506081Y8331675D01*
X-32170883Y8265000D01*
X-31829117Y8265000D01*
X-31493919Y8331675D01*
X-31178169Y8462463D01*
X-30894002Y8652337D01*
X-30652337Y8894002D01*
X-30462463Y9178169D01*
X-30331675Y9493919D01*
X-30265000Y9829117D01*
X-30265000Y10170883D01*
X-30331675Y10506081D01*
X-30462463Y10821831D01*
X-30652337Y11105998D01*
X-30894002Y11347663D01*
X-31178169Y11537537D01*
X-31493919Y11668325D01*
X-31829117Y11735000D01*
X-32170883Y11735000D01*
X-32506081Y11668325D01*
X-32821831Y11537537D01*
X-33105998Y11347663D01*
X-33347663Y11105998D01*
X-33537537Y10821831D01*
X-33668325Y10506081D01*
X-33735000Y10170883D01*
X-34320080Y10170883D01*
X-34292330Y10453893D01*
X-34160511Y10890498D01*
X-33946400Y11293185D01*
X-33658152Y11646612D01*
X-33306739Y11937327D01*
X-32905561Y12154242D01*
X-32469887Y12289106D01*
X-31985656Y12340000D01*
X-29437630Y12340000D01*
X-29662351Y12115279D01*
G36*
X11738001Y1984369D02*
G01*
X11738001Y1614127D01*
X11699482Y1625812D01*
X11575000Y1638072D01*
X11425000Y1638072D01*
X11300518Y1625812D01*
X11180820Y1589502D01*
X11070506Y1530537D01*
X10973815Y1451185D01*
X10894463Y1354494D01*
X10835498Y1244180D01*
X10799188Y1124482D01*
X10786928Y1000000D01*
X10786928Y274323D01*
X10749026Y149377D01*
X10738000Y37425D01*
X10738001Y-938368D01*
X5716170Y-5960200D01*
X5607438Y-5960200D01*
X5586813Y-5964303D01*
X5677527Y-5888810D01*
X6474441Y-4999401D01*
X7133364Y-4003438D01*
X7640252Y-2922149D01*
X7984301Y-1778579D01*
X8158178Y-597102D01*
X8158178Y597102D01*
X7984301Y1778579D01*
X7640252Y2922149D01*
X7133364Y4003438D01*
X6474441Y4999401D01*
X5677527Y5888810D01*
X4759606Y6652710D01*
X3882500Y7188000D01*
X6534370Y7188000D01*
X11738001Y1984369D01*
G37*
X11738001Y1984369D02*
X11738001Y1614127D01*
X11699482Y1625812D01*
X11575000Y1638072D01*
X11425000Y1638072D01*
X11300518Y1625812D01*
X11180820Y1589502D01*
X11070506Y1530537D01*
X10973815Y1451185D01*
X10894463Y1354494D01*
X10835498Y1244180D01*
X10799188Y1124482D01*
X10786928Y1000000D01*
X10786928Y274323D01*
X10749026Y149377D01*
X10738000Y37425D01*
X10738001Y-938368D01*
X5716170Y-5960200D01*
X5607438Y-5960200D01*
X5586813Y-5964303D01*
X5677527Y-5888810D01*
X6474441Y-4999401D01*
X7133364Y-4003438D01*
X7640252Y-2922149D01*
X7984301Y-1778579D01*
X8158178Y-597102D01*
X8158178Y597102D01*
X7984301Y1778579D01*
X7640252Y2922149D01*
X7133364Y4003438D01*
X6474441Y4999401D01*
X5677527Y5888810D01*
X4759606Y6652710D01*
X3882500Y7188000D01*
X6534370Y7188000D01*
X11738001Y1984369D01*
G36*
X-8761999Y7184368D02*
G01*
X-8762000Y5165631D01*
X-8862046Y5065584D01*
X-8892552Y5081890D01*
X-9031009Y5123890D01*
X-9175000Y5138072D01*
X-10363342Y5138072D01*
X-10365000Y5389250D01*
X-10523750Y5548000D01*
X-11127000Y5548000D01*
X-11127000Y5528000D01*
X-11161928Y5528000D01*
X-11161928Y5822000D01*
X-11127000Y5822000D01*
X-11127000Y5802000D01*
X-10523750Y5802000D01*
X-10365000Y5960750D01*
X-10361999Y6415512D01*
X-10372407Y6540162D01*
X-10406933Y6660387D01*
X-10464250Y6771566D01*
X-10542156Y6869426D01*
X-10637657Y6950208D01*
X-10747082Y7010806D01*
X-10766040Y7016866D01*
X-10727433Y7028577D01*
X-10576058Y7109488D01*
X-10550000Y7130873D01*
X-10523942Y7109488D01*
X-10372567Y7028577D01*
X-10208316Y6978752D01*
X-10037500Y6961928D01*
X-9562500Y6961928D01*
X-9391684Y6978752D01*
X-9227433Y7028577D01*
X-9076058Y7109488D01*
X-8943377Y7218377D01*
X-8876949Y7299319D01*
X-8761999Y7184368D01*
G37*
X-8761999Y7184368D02*
X-8762000Y5165631D01*
X-8862046Y5065584D01*
X-8892552Y5081890D01*
X-9031009Y5123890D01*
X-9175000Y5138072D01*
X-10363342Y5138072D01*
X-10365000Y5389250D01*
X-10523750Y5548000D01*
X-11127000Y5548000D01*
X-11127000Y5528000D01*
X-11161928Y5528000D01*
X-11161928Y5822000D01*
X-11127000Y5822000D01*
X-11127000Y5802000D01*
X-10523750Y5802000D01*
X-10365000Y5960750D01*
X-10361999Y6415512D01*
X-10372407Y6540162D01*
X-10406933Y6660387D01*
X-10464250Y6771566D01*
X-10542156Y6869426D01*
X-10637657Y6950208D01*
X-10747082Y7010806D01*
X-10766040Y7016866D01*
X-10727433Y7028577D01*
X-10576058Y7109488D01*
X-10550000Y7130873D01*
X-10523942Y7109488D01*
X-10372567Y7028577D01*
X-10208316Y6978752D01*
X-10037500Y6961928D01*
X-9562500Y6961928D01*
X-9391684Y6978752D01*
X-9227433Y7028577D01*
X-9076058Y7109488D01*
X-8943377Y7218377D01*
X-8876949Y7299319D01*
X-8761999Y7184368D01*
G36*
X-7112418Y7437654D02*
G01*
X-7088556Y7408578D01*
X-7027632Y7358579D01*
X-6972527Y7313355D01*
X-6914230Y7282195D01*
X-6840149Y7242598D01*
X-6696512Y7199026D01*
X-6584560Y7188000D01*
X-6584557Y7188000D01*
X-6547134Y7184314D01*
X-6509711Y7188000D01*
X-3861381Y7188000D01*
X-4261292Y6982391D01*
X-5232525Y6287534D01*
X-5610200Y5923409D01*
X-5610200Y6042562D01*
X-5646316Y6224129D01*
X-5717160Y6395162D01*
X-5820010Y6549087D01*
X-5950913Y6679990D01*
X-6104838Y6782840D01*
X-6275871Y6853684D01*
X-6457438Y6889800D01*
X-6642562Y6889800D01*
X-6824129Y6853684D01*
X-6995162Y6782840D01*
X-7149087Y6679990D01*
X-7238000Y6591077D01*
X-7238000Y7462585D01*
X-7234315Y7500001D01*
X-7238000Y7537417D01*
X-7238000Y7537426D01*
X-7240820Y7566056D01*
X-7112418Y7437654D01*
G37*
X-7112418Y7437654D02*
X-7088556Y7408578D01*
X-7027632Y7358579D01*
X-6972527Y7313355D01*
X-6914230Y7282195D01*
X-6840149Y7242598D01*
X-6696512Y7199026D01*
X-6584560Y7188000D01*
X-6584557Y7188000D01*
X-6547134Y7184314D01*
X-6509711Y7188000D01*
X-3861381Y7188000D01*
X-4261292Y6982391D01*
X-5232525Y6287534D01*
X-5610200Y5923409D01*
X-5610200Y6042562D01*
X-5646316Y6224129D01*
X-5717160Y6395162D01*
X-5820010Y6549087D01*
X-5950913Y6679990D01*
X-6104838Y6782840D01*
X-6275871Y6853684D01*
X-6457438Y6889800D01*
X-6642562Y6889800D01*
X-6824129Y6853684D01*
X-6995162Y6782840D01*
X-7149087Y6679990D01*
X-7238000Y6591077D01*
X-7238000Y7462585D01*
X-7234315Y7500001D01*
X-7238000Y7537417D01*
X-7238000Y7537426D01*
X-7240820Y7566056D01*
X-7112418Y7437654D01*
G36*
X-9653000Y9748000D02*
G01*
X-9673000Y9748000D01*
X-9673000Y9728000D01*
X-9927000Y9728000D01*
X-9927000Y9748000D01*
X-11173000Y9748000D01*
X-11173000Y9728000D01*
X-11427000Y9728000D01*
X-11427000Y9748000D01*
X-11447000Y9748000D01*
X-11447000Y9968210D01*
X-9653000Y9968210D01*
X-9653000Y9748000D01*
G37*
X-9653000Y9748000D02*
X-9673000Y9748000D01*
X-9673000Y9728000D01*
X-9927000Y9728000D01*
X-9927000Y9748000D01*
X-11173000Y9748000D01*
X-11173000Y9728000D01*
X-11427000Y9728000D01*
X-11427000Y9748000D01*
X-11447000Y9748000D01*
X-11447000Y9968210D01*
X-9653000Y9968210D01*
X-9653000Y9748000D01*
G36*
X-22313000Y10373000D02*
G01*
X-22333000Y10373000D01*
X-22333000Y10353000D01*
X-22587000Y10353000D01*
X-22587000Y10373000D01*
X-22598026Y10373000D01*
X-22595000Y10388212D01*
X-22595000Y10568201D01*
X-22313000Y10568201D01*
X-22313000Y10373000D01*
G37*
X-22313000Y10373000D02*
X-22333000Y10373000D01*
X-22333000Y10353000D01*
X-22587000Y10353000D01*
X-22587000Y10373000D01*
X-22598026Y10373000D01*
X-22595000Y10388212D01*
X-22595000Y10568201D01*
X-22313000Y10568201D01*
X-22313000Y10373000D01*
M02*
