G04 #@! TF.GenerationSoftware,KiCad,Pcbnew,(5.1.5-0-10_14)*
G04 #@! TF.CreationDate,2021-03-21T20:28:06+09:00*
G04 #@! TF.ProjectId,StickMouse,53746963-6b4d-46f7-9573-652e6b696361,V1.1*
G04 #@! TF.SameCoordinates,Original*
G04 #@! TF.FileFunction,Legend,Bot*
G04 #@! TF.FilePolarity,Positive*
%FSLAX46Y46*%
G04 Gerber Fmt 4.6, Leading zero omitted, Abs format (unit mm)*
G04 Created by KiCad (PCBNEW (5.1.5-0-10_14)) date 2021-03-21 20:28:06*
%MOMM*%
%LPD*%
G04 APERTURE LIST*
%ADD10C,0.150000*%
%ADD11C,0.120000*%
%ADD12C,0.200000*%
G04 APERTURE END LIST*
D10*
X-27547619Y3642857D02*
X-28547619Y3642857D01*
X-27833333Y3309523D01*
X-28547619Y2976190D01*
X-27547619Y2976190D01*
X-27547619Y2500000D02*
X-28214285Y2500000D01*
X-28547619Y2500000D02*
X-28500000Y2547619D01*
X-28452380Y2500000D01*
X-28500000Y2452380D01*
X-28547619Y2500000D01*
X-28452380Y2500000D01*
X-27595238Y1595238D02*
X-27547619Y1690476D01*
X-27547619Y1880952D01*
X-27595238Y1976190D01*
X-27642857Y2023809D01*
X-27738095Y2071428D01*
X-28023809Y2071428D01*
X-28119047Y2023809D01*
X-28166666Y1976190D01*
X-28214285Y1880952D01*
X-28214285Y1690476D01*
X-28166666Y1595238D01*
X-27547619Y1166666D02*
X-28214285Y1166666D01*
X-28023809Y1166666D02*
X-28119047Y1119047D01*
X-28166666Y1071428D01*
X-28214285Y976190D01*
X-28214285Y880952D01*
X-27547619Y404761D02*
X-27595238Y500000D01*
X-27642857Y547619D01*
X-27738095Y595238D01*
X-28023809Y595238D01*
X-28119047Y547619D01*
X-28166666Y500000D01*
X-28214285Y404761D01*
X-28214285Y261904D01*
X-28166666Y166666D01*
X-28119047Y119047D01*
X-28023809Y71428D01*
X-27738095Y71428D01*
X-27642857Y119047D01*
X-27595238Y166666D01*
X-27547619Y261904D01*
X-27547619Y404761D01*
X-28547619Y-1119047D02*
X-27738095Y-1119047D01*
X-27642857Y-1166666D01*
X-27595238Y-1214285D01*
X-27547619Y-1309523D01*
X-27547619Y-1500000D01*
X-27595238Y-1595238D01*
X-27642857Y-1642857D01*
X-27738095Y-1690476D01*
X-28547619Y-1690476D01*
X-27595238Y-2119047D02*
X-27547619Y-2261904D01*
X-27547619Y-2500000D01*
X-27595238Y-2595238D01*
X-27642857Y-2642857D01*
X-27738095Y-2690476D01*
X-27833333Y-2690476D01*
X-27928571Y-2642857D01*
X-27976190Y-2595238D01*
X-28023809Y-2500000D01*
X-28071428Y-2309523D01*
X-28119047Y-2214285D01*
X-28166666Y-2166666D01*
X-28261904Y-2119047D01*
X-28357142Y-2119047D01*
X-28452380Y-2166666D01*
X-28500000Y-2214285D01*
X-28547619Y-2309523D01*
X-28547619Y-2547619D01*
X-28500000Y-2690476D01*
X-28071428Y-3452380D02*
X-28023809Y-3595238D01*
X-27976190Y-3642857D01*
X-27880952Y-3690476D01*
X-27738095Y-3690476D01*
X-27642857Y-3642857D01*
X-27595238Y-3595238D01*
X-27547619Y-3500000D01*
X-27547619Y-3119047D01*
X-28547619Y-3119047D01*
X-28547619Y-3452380D01*
X-28500000Y-3547619D01*
X-28452380Y-3595238D01*
X-28357142Y-3642857D01*
X-28261904Y-3642857D01*
X-28166666Y-3595238D01*
X-28119047Y-3547619D01*
X-28071428Y-3452380D01*
X-28071428Y-3119047D01*
X10952380Y-6114285D02*
X9952380Y-6114285D01*
X10428571Y-6114285D02*
X10428571Y-6685714D01*
X10952380Y-6685714D02*
X9952380Y-6685714D01*
X13952380Y-6066666D02*
X14952380Y-6400000D01*
X13952380Y-6733333D01*
X12528571Y-6466666D02*
X12576190Y-6609523D01*
X12623809Y-6657142D01*
X12719047Y-6704761D01*
X12861904Y-6704761D01*
X12957142Y-6657142D01*
X13004761Y-6609523D01*
X13052380Y-6514285D01*
X13052380Y-6133333D01*
X12052380Y-6133333D01*
X12052380Y-6466666D01*
X12100000Y-6561904D01*
X12147619Y-6609523D01*
X12242857Y-6657142D01*
X12338095Y-6657142D01*
X12433333Y-6609523D01*
X12480952Y-6561904D01*
X12528571Y-6466666D01*
X12528571Y-6133333D01*
X12052380Y-6990476D02*
X12052380Y-7561904D01*
X13052380Y-7276190D02*
X12052380Y-7276190D01*
X13052380Y-7895238D02*
X12052380Y-7895238D01*
X13052380Y-8466666D01*
X12052380Y-8466666D01*
X2261904Y7695238D02*
X2357142Y7647619D01*
X2547619Y7647619D01*
X2642857Y7695238D01*
X2690476Y7742857D01*
X2738095Y7838095D01*
X2738095Y8123809D01*
X2690476Y8219047D01*
X2642857Y8266666D01*
X2547619Y8314285D01*
X2357142Y8314285D01*
X2261904Y8266666D01*
X1690476Y7647619D02*
X1785714Y7695238D01*
X1833333Y7742857D01*
X1880952Y7838095D01*
X1880952Y8123809D01*
X1833333Y8219047D01*
X1785714Y8266666D01*
X1690476Y8314285D01*
X1547619Y8314285D01*
X1452380Y8266666D01*
X1404761Y8219047D01*
X1357142Y8123809D01*
X1357142Y7838095D01*
X1404761Y7742857D01*
X1452380Y7695238D01*
X1547619Y7647619D01*
X1690476Y7647619D01*
X928571Y8314285D02*
X928571Y7647619D01*
X928571Y8219047D02*
X880952Y8266666D01*
X785714Y8314285D01*
X642857Y8314285D01*
X547619Y8266666D01*
X499999Y8171428D01*
X499999Y7647619D01*
X23809Y8314285D02*
X23809Y7647619D01*
X23809Y8219047D02*
X-23809Y8266666D01*
X-119047Y8314285D01*
X-261904Y8314285D01*
X-357142Y8266666D01*
X-404761Y8171428D01*
X-404761Y7647619D01*
X-1261904Y7695238D02*
X-1166666Y7647619D01*
X-976190Y7647619D01*
X-880952Y7695238D01*
X-833333Y7790476D01*
X-833333Y8171428D01*
X-880952Y8266666D01*
X-976190Y8314285D01*
X-1166666Y8314285D01*
X-1261904Y8266666D01*
X-1309523Y8171428D01*
X-1309523Y8076190D01*
X-833333Y7980952D01*
X-2166666Y7695238D02*
X-2071428Y7647619D01*
X-1880952Y7647619D01*
X-1785714Y7695238D01*
X-1738095Y7742857D01*
X-1690476Y7838095D01*
X-1690476Y8123809D01*
X-1738095Y8219047D01*
X-1785714Y8266666D01*
X-1880952Y8314285D01*
X-2071428Y8314285D01*
X-2166666Y8266666D01*
X-2452380Y8314285D02*
X-2833333Y8314285D01*
X-2595238Y8647619D02*
X-2595238Y7790476D01*
X-2642857Y7695238D01*
X-2738095Y7647619D01*
X-2833333Y7647619D01*
X19233333Y7420238D02*
X19090476Y7372619D01*
X18852380Y7372619D01*
X18757142Y7420238D01*
X18709523Y7467857D01*
X18661904Y7563095D01*
X18661904Y7658333D01*
X18709523Y7753571D01*
X18757142Y7801190D01*
X18852380Y7848809D01*
X19042857Y7896428D01*
X19138095Y7944047D01*
X19185714Y7991666D01*
X19233333Y8086904D01*
X19233333Y8182142D01*
X19185714Y8277380D01*
X19138095Y8325000D01*
X19042857Y8372619D01*
X18804761Y8372619D01*
X18661904Y8325000D01*
X18376190Y8039285D02*
X17995238Y8039285D01*
X18233333Y8372619D02*
X18233333Y7515476D01*
X18185714Y7420238D01*
X18090476Y7372619D01*
X17995238Y7372619D01*
X17661904Y7372619D02*
X17661904Y8039285D01*
X17661904Y8372619D02*
X17709523Y8325000D01*
X17661904Y8277380D01*
X17614285Y8325000D01*
X17661904Y8372619D01*
X17661904Y8277380D01*
X16757142Y7420238D02*
X16852380Y7372619D01*
X17042857Y7372619D01*
X17138095Y7420238D01*
X17185714Y7467857D01*
X17233333Y7563095D01*
X17233333Y7848809D01*
X17185714Y7944047D01*
X17138095Y7991666D01*
X17042857Y8039285D01*
X16852380Y8039285D01*
X16757142Y7991666D01*
X16328571Y7372619D02*
X16328571Y8372619D01*
X16233333Y7753571D02*
X15947619Y7372619D01*
X15947619Y8039285D02*
X16328571Y7658333D01*
X14757142Y7372619D02*
X14757142Y8372619D01*
X14423809Y7658333D01*
X14090476Y8372619D01*
X14090476Y7372619D01*
X13471428Y7372619D02*
X13566666Y7420238D01*
X13614285Y7467857D01*
X13661904Y7563095D01*
X13661904Y7848809D01*
X13614285Y7944047D01*
X13566666Y7991666D01*
X13471428Y8039285D01*
X13328571Y8039285D01*
X13233333Y7991666D01*
X13185714Y7944047D01*
X13138095Y7848809D01*
X13138095Y7563095D01*
X13185714Y7467857D01*
X13233333Y7420238D01*
X13328571Y7372619D01*
X13471428Y7372619D01*
X12280952Y8039285D02*
X12280952Y7372619D01*
X12709523Y8039285D02*
X12709523Y7515476D01*
X12661904Y7420238D01*
X12566666Y7372619D01*
X12423809Y7372619D01*
X12328571Y7420238D01*
X12280952Y7467857D01*
X11852380Y7420238D02*
X11757142Y7372619D01*
X11566666Y7372619D01*
X11471428Y7420238D01*
X11423809Y7515476D01*
X11423809Y7563095D01*
X11471428Y7658333D01*
X11566666Y7705952D01*
X11709523Y7705952D01*
X11804761Y7753571D01*
X11852380Y7848809D01*
X11852380Y7896428D01*
X11804761Y7991666D01*
X11709523Y8039285D01*
X11566666Y8039285D01*
X11471428Y7991666D01*
X10614285Y7420238D02*
X10709523Y7372619D01*
X10900000Y7372619D01*
X10995238Y7420238D01*
X11042857Y7515476D01*
X11042857Y7896428D01*
X10995238Y7991666D01*
X10900000Y8039285D01*
X10709523Y8039285D01*
X10614285Y7991666D01*
X10566666Y7896428D01*
X10566666Y7801190D01*
X11042857Y7705952D01*
X16423809Y6722619D02*
X16090476Y5722619D01*
X15757142Y6722619D01*
X14900000Y5722619D02*
X15471428Y5722619D01*
X15185714Y5722619D02*
X15185714Y6722619D01*
X15280952Y6579761D01*
X15376190Y6484523D01*
X15471428Y6436904D01*
X14471428Y5817857D02*
X14423809Y5770238D01*
X14471428Y5722619D01*
X14519047Y5770238D01*
X14471428Y5817857D01*
X14471428Y5722619D01*
X13471428Y5722619D02*
X14042857Y5722619D01*
X13757142Y5722619D02*
X13757142Y6722619D01*
X13852380Y6579761D01*
X13947619Y6484523D01*
X14042857Y6436904D01*
D11*
X13850000Y-1500000D02*
X13850000Y1250000D01*
X11150000Y-1500000D02*
X13850000Y-1500000D01*
X11150000Y1250000D02*
X11150000Y-1500000D01*
X9800000Y-4300000D02*
X9800000Y-5700000D01*
X11200000Y-4300000D02*
X9800000Y-4300000D01*
X11200000Y-5700000D02*
X11200000Y-4300000D01*
X9800000Y-5700000D02*
X11200000Y-5700000D01*
X13800000Y-4300000D02*
X13800000Y-5700000D01*
X15200000Y-4300000D02*
X13800000Y-4300000D01*
X15200000Y-5700000D02*
X15200000Y-4300000D01*
X13800000Y-5700000D02*
X15200000Y-5700000D01*
X11800000Y-4300000D02*
X11800000Y-5700000D01*
X13200000Y-4300000D02*
X11800000Y-4300000D01*
X13200000Y-5700000D02*
X13200000Y-4300000D01*
X11800000Y-5700000D02*
X13200000Y-5700000D01*
X-9600000Y1780000D02*
X-10800000Y1780000D01*
X-9600000Y-2220000D02*
X-9600000Y1780000D01*
X-14400000Y1780000D02*
X-14400000Y-920000D01*
X-13200000Y1780000D02*
X-14400000Y1780000D01*
X-8250000Y6250000D02*
X-8250000Y7750000D01*
X-8250000Y7750000D02*
X-14800000Y7750000D01*
X-8250000Y6250000D02*
X-14800000Y6250000D01*
X-14800000Y6250000D02*
X-14800000Y7750000D01*
X-4828733Y-6510000D02*
X-5171267Y-6510000D01*
X-4828733Y-5490000D02*
X-5171267Y-5490000D01*
X-15810000Y-796267D02*
X-15810000Y-453733D01*
X-14790000Y-796267D02*
X-14790000Y-453733D01*
D12*
X5500000Y2800000D02*
G75*
G03X5500000Y2800000I-100000J0D01*
G01*
D11*
X-3703733Y6290000D02*
X-4046267Y6290000D01*
X-3703733Y7310000D02*
X-4046267Y7310000D01*
X4903733Y8010000D02*
X5246267Y8010000D01*
X4903733Y6990000D02*
X5246267Y6990000D01*
X-19397936Y-910000D02*
X-20602064Y-910000D01*
X-19397936Y910000D02*
X-20602064Y910000D01*
X4903733Y6510000D02*
X5246267Y6510000D01*
X4903733Y5490000D02*
X5246267Y5490000D01*
X-9210000Y-796267D02*
X-9210000Y-453733D01*
X-8190000Y-796267D02*
X-8190000Y-453733D01*
D10*
X12833333Y-1902380D02*
X12833333Y-2616666D01*
X12880952Y-2759523D01*
X12976190Y-2854761D01*
X13119047Y-2902380D01*
X13214285Y-2902380D01*
X12404761Y-1997619D02*
X12357142Y-1950000D01*
X12261904Y-1902380D01*
X12023809Y-1902380D01*
X11928571Y-1950000D01*
X11880952Y-1997619D01*
X11833333Y-2092857D01*
X11833333Y-2188095D01*
X11880952Y-2330952D01*
X12452380Y-2902380D01*
X11833333Y-2902380D01*
X-11238095Y4547619D02*
X-11238095Y3738095D01*
X-11285714Y3642857D01*
X-11333333Y3595238D01*
X-11428571Y3547619D01*
X-11619047Y3547619D01*
X-11714285Y3595238D01*
X-11761904Y3642857D01*
X-11809523Y3738095D01*
X-11809523Y4547619D01*
X-12809523Y3547619D02*
X-12238095Y3547619D01*
X-12523809Y3547619D02*
X-12523809Y4547619D01*
X-12428571Y4404761D01*
X-12333333Y4309523D01*
X-12238095Y4261904D01*
X-15766666Y7547619D02*
X-15766666Y6833333D01*
X-15719047Y6690476D01*
X-15623809Y6595238D01*
X-15480952Y6547619D01*
X-15385714Y6547619D01*
X-16147619Y7547619D02*
X-16766666Y7547619D01*
X-16433333Y7166666D01*
X-16576190Y7166666D01*
X-16671428Y7119047D01*
X-16719047Y7071428D01*
X-16766666Y6976190D01*
X-16766666Y6738095D01*
X-16719047Y6642857D01*
X-16671428Y6595238D01*
X-16576190Y6547619D01*
X-16290476Y6547619D01*
X-16195238Y6595238D01*
X-16147619Y6642857D01*
X-7433333Y-6357142D02*
X-7385714Y-6404761D01*
X-7242857Y-6452380D01*
X-7147619Y-6452380D01*
X-7004761Y-6404761D01*
X-6909523Y-6309523D01*
X-6861904Y-6214285D01*
X-6814285Y-6023809D01*
X-6814285Y-5880952D01*
X-6861904Y-5690476D01*
X-6909523Y-5595238D01*
X-7004761Y-5500000D01*
X-7147619Y-5452380D01*
X-7242857Y-5452380D01*
X-7385714Y-5500000D01*
X-7433333Y-5547619D01*
X-8290476Y-5785714D02*
X-8290476Y-6452380D01*
X-8052380Y-5404761D02*
X-7814285Y-6119047D01*
X-8433333Y-6119047D01*
X-14942857Y2166666D02*
X-14895238Y2214285D01*
X-14847619Y2357142D01*
X-14847619Y2452380D01*
X-14895238Y2595238D01*
X-14990476Y2690476D01*
X-15085714Y2738095D01*
X-15276190Y2785714D01*
X-15419047Y2785714D01*
X-15609523Y2738095D01*
X-15704761Y2690476D01*
X-15800000Y2595238D01*
X-15847619Y2452380D01*
X-15847619Y2357142D01*
X-15800000Y2214285D01*
X-15752380Y2166666D01*
X-14847619Y1214285D02*
X-14847619Y1785714D01*
X-14847619Y1500000D02*
X-15847619Y1500000D01*
X-15704761Y1595238D01*
X-15609523Y1690476D01*
X-15561904Y1785714D01*
X761904Y-5552380D02*
X761904Y-6361904D01*
X714285Y-6457142D01*
X666666Y-6504761D01*
X571428Y-6552380D01*
X380952Y-6552380D01*
X285714Y-6504761D01*
X238095Y-6457142D01*
X190476Y-6361904D01*
X190476Y-5552380D01*
X-238095Y-5647619D02*
X-285714Y-5600000D01*
X-380952Y-5552380D01*
X-619047Y-5552380D01*
X-714285Y-5600000D01*
X-761904Y-5647619D01*
X-809523Y-5742857D01*
X-809523Y-5838095D01*
X-761904Y-5980952D01*
X-190476Y-6552380D01*
X-809523Y-6552380D01*
X-6333333Y6347619D02*
X-6000000Y6823809D01*
X-5761904Y6347619D02*
X-5761904Y7347619D01*
X-6142857Y7347619D01*
X-6238095Y7300000D01*
X-6285714Y7252380D01*
X-6333333Y7157142D01*
X-6333333Y7014285D01*
X-6285714Y6919047D01*
X-6238095Y6871428D01*
X-6142857Y6823809D01*
X-5761904Y6823809D01*
X-6714285Y7252380D02*
X-6761904Y7300000D01*
X-6857142Y7347619D01*
X-7095238Y7347619D01*
X-7190476Y7300000D01*
X-7238095Y7252380D01*
X-7285714Y7157142D01*
X-7285714Y7061904D01*
X-7238095Y6919047D01*
X-6666666Y6347619D01*
X-7285714Y6347619D01*
X7841666Y7047619D02*
X8175000Y7523809D01*
X8413095Y7047619D02*
X8413095Y8047619D01*
X8032142Y8047619D01*
X7936904Y8000000D01*
X7889285Y7952380D01*
X7841666Y7857142D01*
X7841666Y7714285D01*
X7889285Y7619047D01*
X7936904Y7571428D01*
X8032142Y7523809D01*
X8413095Y7523809D01*
X6889285Y7047619D02*
X7460714Y7047619D01*
X7175000Y7047619D02*
X7175000Y8047619D01*
X7270238Y7904761D01*
X7365476Y7809523D01*
X7460714Y7761904D01*
X-16971428Y333333D02*
X-16971428Y666666D01*
X-16447619Y666666D02*
X-17447619Y666666D01*
X-17447619Y190476D01*
X-16447619Y-714285D02*
X-16447619Y-142857D01*
X-16447619Y-428571D02*
X-17447619Y-428571D01*
X-17304761Y-333333D01*
X-17209523Y-238095D01*
X-17161904Y-142857D01*
X7841666Y5642857D02*
X7889285Y5595238D01*
X8032142Y5547619D01*
X8127380Y5547619D01*
X8270238Y5595238D01*
X8365476Y5690476D01*
X8413095Y5785714D01*
X8460714Y5976190D01*
X8460714Y6119047D01*
X8413095Y6309523D01*
X8365476Y6404761D01*
X8270238Y6500000D01*
X8127380Y6547619D01*
X8032142Y6547619D01*
X7889285Y6500000D01*
X7841666Y6452380D01*
X7508333Y6547619D02*
X6889285Y6547619D01*
X7222619Y6166666D01*
X7079761Y6166666D01*
X6984523Y6119047D01*
X6936904Y6071428D01*
X6889285Y5976190D01*
X6889285Y5738095D01*
X6936904Y5642857D01*
X6984523Y5595238D01*
X7079761Y5547619D01*
X7365476Y5547619D01*
X7460714Y5595238D01*
X7508333Y5642857D01*
X-8342857Y2166666D02*
X-8295238Y2214285D01*
X-8247619Y2357142D01*
X-8247619Y2452380D01*
X-8295238Y2595238D01*
X-8390476Y2690476D01*
X-8485714Y2738095D01*
X-8676190Y2785714D01*
X-8819047Y2785714D01*
X-9009523Y2738095D01*
X-9104761Y2690476D01*
X-9200000Y2595238D01*
X-9247619Y2452380D01*
X-9247619Y2357142D01*
X-9200000Y2214285D01*
X-9152380Y2166666D01*
X-9152380Y1785714D02*
X-9200000Y1738095D01*
X-9247619Y1642857D01*
X-9247619Y1404761D01*
X-9200000Y1309523D01*
X-9152380Y1261904D01*
X-9057142Y1214285D01*
X-8961904Y1214285D01*
X-8819047Y1261904D01*
X-8247619Y1833333D01*
X-8247619Y1214285D01*
M02*
