M48
; DRILL file {KiCad (5.1.5-0-10_14)} date 2021 February 01, Monday 23:02:15
; FORMAT={-:-/ absolute / metric / decimal}
; #@! TF.CreationDate,2021-02-01T23:02:15+09:00
; #@! TF.GenerationSoftware,Kicad,Pcbnew,(5.1.5-0-10_14)
FMAT,2
METRIC
T1C0.305
T2C0.700
T3C1.200
T4C0.762
T5C2.200
%
G90
G05
T1
X-32.8Y1.5
X-32.2Y0.85
X-21.3Y4.1
X-20.5Y2.7
X-19.9Y1.9
X-15.2Y7.3
X-12.8Y8.65
X-11.2Y7.0
X-6.65Y-6.1
X-6.55Y7.0
X-6.55Y5.95
X2.5Y10.5
X5.7Y-6.9
X8.7Y7.7
X11.4Y2.3
T2
X-27.54Y10.5
X-26.27Y10.5
X-25.0Y10.5
X-23.73Y10.5
X-22.46Y10.5
T3
X-27.55Y6.15
X-27.55Y-6.35
X-22.55Y6.15
X-22.55Y-6.35
X22.45Y6.15
X22.45Y-6.35
X27.45Y6.15
X27.45Y-6.35
T4
X-9.45Y-7.0
X7.05Y10.9
T5
X-32.0Y10.0
X-32.0Y-7.0
X32.0Y-7.0
X32.0Y10.0
T0
M30
